%
M48
M72
T01C0.0240
T02C0.0320
T03C0.0400
T04C0.1300
%
T01
X5680Y3680
X10430Y6430
X10180Y7180
X9680Y8180
X14180Y8180
X18180Y8680
X19180Y8180
X19180Y7180
X22180Y8180
X24680Y8680
X30680Y8680
X32180Y3680
X30180Y3180
X19180Y13680
X19680Y16180
X20180Y16180
X23180Y20180
X28680Y23180
X29180Y23180
X30180Y24180
X31180Y24180
X31180Y26680
X17680Y25680
X11680Y24180
X9680Y24180
X9680Y21180
X9680Y19680
X8180Y18180
X9180Y16680
X6680Y20180
X3180Y21180
X14680Y4180
X14680Y3180
X15680Y3180
X13680Y3180
X13180Y3680
T02
X15680Y5180
X15180Y6680
X14180Y6680
X13180Y6680
X12180Y6680
X11180Y6680
X9180Y6680
X8180Y6680
X7180Y6680
X6180Y6680
X5180Y6680
X4180Y6680
X3180Y6680
X2180Y6680
X2180Y9680
X3180Y9680
X4180Y9680
X5180Y9680
X6180Y9680
X7180Y9680
X8180Y9680
X9180Y9680
X9180Y10680
X8180Y10680
X7180Y10680
X6180Y10680
X5180Y10680
X4180Y10680
X4180Y13680
X5180Y13680
X6180Y13680
X6180Y14430
X7180Y13680
X8180Y13680
X9180Y13680
X9180Y14430
X8680Y15180
X9680Y15180
X8180Y16430
X7680Y17180
X8680Y17180
X7180Y18430
X6680Y19180
X7680Y19180
X8180Y20680
X8180Y21680
X4680Y19180
X3680Y19180
X4180Y18430
X4680Y17180
X5180Y16430
X5680Y17180
X5680Y15180
X6680Y15180
X11680Y15180
X12180Y14430
X12180Y13680
X13180Y13680
X14180Y13680
X15180Y13680
X15180Y14430
X14680Y15180
X15680Y15180
X14180Y16430
X13680Y17180
X14680Y17180
X13180Y18430
X12680Y19180
X13680Y19180
X15680Y19180
X16180Y18430
X16680Y19180
X15680Y20680
X15680Y21680
X16680Y17180
X17180Y16430
X17680Y17180
X17680Y15180
X18180Y14430
X18180Y13680
X17180Y13680
X16180Y13680
X18680Y15180
X20680Y15180
X21680Y15180
X21180Y14430
X21180Y13680
X22180Y13680
X23180Y13680
X24180Y13680
X24180Y14430
X23680Y15180
X24680Y15180
X23180Y16430
X22680Y17180
X23680Y17180
X22180Y18430
X21680Y19180
X22680Y19180
X23680Y20680
X23680Y21680
X24680Y19180
X25680Y19180
X25180Y18430
X25680Y17180
X26180Y16430
X26680Y17180
X26680Y15180
X27680Y15180
X27180Y14430
X27180Y13680
X26180Y13680
X25180Y13680
X25180Y10680
X26180Y10680
X27180Y10680
X27180Y9680
X26180Y9680
X25180Y9680
X24180Y9680
X23180Y9680
X22180Y9680
X21180Y9680
X20180Y9680
X21180Y10680
X22180Y10680
X23180Y10680
X24180Y10680
X24180Y6680
X23180Y6680
X22180Y6680
X21180Y6680
X20180Y6680
X18180Y6680
X17180Y6680
X16180Y6680
X18680Y5180
X18680Y3930
X18180Y3180
X19180Y3180
X24680Y5180
X25180Y6680
X26180Y6680
X27180Y6680
X27680Y5180
X27680Y3930
X27180Y3180
X28180Y3180
X29180Y6680
X30180Y6680
X31180Y6680
X32180Y6680
X33180Y6680
X34180Y6680
X35180Y6680
X36180Y6680
X36680Y5180
X36680Y3930
X36180Y3180
X37180Y3180
X33680Y5180
X33180Y9680
X34180Y9680
X35180Y9680
X36180Y9680
X36180Y10680
X35180Y10680
X34180Y10680
X33180Y10680
X32180Y10680
X31180Y10680
X30180Y10680
X30180Y9680
X29180Y9680
X31180Y9680
X32180Y9680
X32180Y13680
X31180Y13680
X30180Y13680
X30180Y14430
X29680Y15180
X30680Y15180
X32180Y16430
X31680Y17180
X32680Y17180
X31180Y18430
X30680Y19180
X31680Y19180
X31180Y20680
X31180Y21680
X33680Y19180
X34680Y19180
X34180Y18430
X34680Y17180
X35180Y16430
X35680Y17180
X35680Y15180
X36680Y15180
X36180Y14430
X36180Y13680
X35180Y13680
X34180Y13680
X33180Y13680
X33180Y14430
X32680Y15180
X33680Y15180
X18180Y10680
X17180Y10680
X16180Y10680
X15180Y10680
X14180Y10680
X13180Y10680
X12180Y10680
X12180Y9680
X13180Y9680
X14180Y9680
X15180Y9680
X16180Y9680
X17180Y9680
X18180Y9680
X11180Y9680
X9680Y5180
X9680Y3930
X9180Y3180
X10180Y3180
X6680Y5180
X12680Y15180
T03
X15680Y22930
X14402Y23245
X13417Y24118
X12950Y25349
X13109Y26655
X13856Y27738
X15022Y28350
X16338Y28350
X17504Y27738
X18251Y26655
X18410Y25349
X17943Y24118
X16958Y23245
X20950Y25349
X21109Y26655
X21856Y27738
X23022Y28350
X24338Y28350
X25504Y27738
X26251Y26655
X26410Y25349
X25943Y24118
X24958Y23245
X23680Y22930
X22402Y23245
X21417Y24118
X28450Y25349
X28609Y26655
X29356Y27738
X30522Y28350
X31838Y28350
X33004Y27738
X33751Y26655
X33910Y25349
X33443Y24118
X32458Y23245
X31180Y22930
X29902Y23245
X28917Y24118
X38180Y11680
X38180Y10680
X36180Y1680
X35180Y1680
X34180Y1680
X33180Y1680
X32180Y1680
X31180Y1680
X30180Y1680
X8180Y22930
X6902Y23245
X5917Y24118
X5450Y25349
X5609Y26655
X6356Y27738
X7522Y28350
X8838Y28350
X10004Y27738
X10751Y26655
X10910Y25349
X10443Y24118
X9458Y23245
T04
X1680Y1680
X1680Y20180
X1680Y28680
X38680Y28680
X38680Y20180
X38680Y1680
M30
