%
M48
M72
T01C0.0240
T02C0.0320
T03C0.0400
T04C0.1300
%
T01
X10180Y10680
X9680Y11680
X9180Y16680
X8180Y18180
X6680Y20680
X3180Y21180
X9680Y24180
X11680Y24180
X17680Y25680
X23680Y20680
X28680Y23180
X29180Y23180
X30180Y24180
X31180Y24180
X31180Y26680
X20180Y16180
X19680Y16180
X18680Y11680
X22180Y11680
X18180Y7680
X14180Y6680
X30180Y6180
X31180Y7680
T02
X31180Y10180
X32180Y10180
X33180Y10180
X34180Y10180
X35180Y10180
X36180Y10180
X35180Y8930
X34680Y8180
X35680Y8180
X30180Y10180
X29180Y10180
X27180Y10180
X26180Y10180
X25180Y10180
X24180Y10180
X23180Y10180
X22180Y10180
X21180Y10180
X20180Y10180
X18180Y10180
X17180Y10180
X16180Y10180
X15180Y10180
X14180Y10180
X13180Y10180
X12180Y10180
X11180Y10180
X9180Y10180
X8180Y10180
X7180Y10180
X6180Y10180
X5180Y10180
X4180Y10180
X3180Y10180
X2180Y10180
X2180Y13180
X3180Y13180
X4180Y13180
X5180Y13180
X6180Y13180
X7180Y13180
X8180Y13180
X9180Y13180
X9180Y14430
X8680Y15180
X9680Y15180
X8180Y16430
X7680Y17180
X8680Y17180
X7180Y18430
X6680Y19180
X7680Y19180
X5680Y17180
X5180Y16430
X4680Y17180
X4180Y18430
X3680Y19180
X4680Y19180
X5680Y15180
X6680Y15180
X6180Y14430
X11180Y13180
X12180Y13180
X13180Y13180
X14180Y13180
X15180Y13180
X16180Y13180
X17180Y13180
X18180Y13180
X18180Y14430
X17680Y15180
X18680Y15180
X17180Y16430
X16680Y17180
X17680Y17180
X16180Y18430
X15680Y19180
X16680Y19180
X14680Y17180
X14180Y16430
X13680Y17180
X13180Y18430
X12680Y19180
X13680Y19180
X12680Y15180
X12180Y14430
X11680Y15180
X14680Y15180
X15680Y15180
X15180Y14430
X20180Y13180
X21180Y13180
X22180Y13180
X23180Y13180
X24180Y13180
X25180Y13180
X26180Y13180
X27180Y13180
X27180Y14430
X26680Y15180
X27680Y15180
X26180Y16430
X25680Y17180
X26680Y17180
X25180Y18430
X24680Y19180
X25680Y19180
X23680Y17180
X23180Y16430
X22680Y17180
X22180Y18430
X21680Y19180
X22680Y19180
X21680Y15180
X20680Y15180
X21180Y14430
X23680Y15180
X24180Y14430
X24680Y15180
X29180Y13180
X30180Y13180
X31180Y13180
X32180Y13180
X33180Y13180
X34180Y13180
X35180Y13180
X36180Y13180
X36180Y14430
X35680Y15180
X36680Y15180
X35180Y16430
X34680Y17180
X35680Y17180
X34180Y18430
X33680Y19180
X34680Y19180
X32680Y17180
X32180Y16430
X31680Y17180
X31180Y18430
X30680Y19180
X31680Y19180
X30680Y15180
X30180Y14430
X29680Y15180
X32680Y15180
X33180Y14430
X33680Y15180
X26180Y8930
X25680Y8180
X26680Y8180
X17680Y8180
X16680Y8180
X17180Y8930
X8680Y8180
X7680Y8180
X8180Y8930
T03
X8180Y22930
X6902Y23245
X5917Y24118
X5450Y25349
X5609Y26655
X6356Y27738
X7522Y28350
X8838Y28350
X10004Y27738
X10751Y26655
X10910Y25349
X10443Y24118
X9458Y23245
X12950Y25349
X13109Y26655
X13856Y27738
X15022Y28350
X16338Y28350
X17504Y27738
X18251Y26655
X18410Y25349
X17943Y24118
X16958Y23245
X15680Y22930
X14402Y23245
X13417Y24118
X20950Y25349
X21109Y26655
X21856Y27738
X23022Y28350
X24338Y28350
X25504Y27738
X26251Y26655
X26410Y25349
X25943Y24118
X24958Y23245
X23680Y22930
X22402Y23245
X21417Y24118
X28450Y25349
X28609Y26655
X29356Y27738
X30522Y28350
X31838Y28350
X33004Y27738
X33751Y26655
X33910Y25349
X33443Y24118
X32458Y23245
X31180Y22930
X29902Y23245
X28917Y24118
X37180Y24680
X37180Y25680
X34180Y1680
X33180Y1680
X32180Y1680
X31180Y1680
X30180Y1680
X29180Y1680
X28180Y1680
T04
X1680Y1680
X1680Y20180
X1680Y28680
X38680Y28680
X38680Y20180
X38680Y1680
M30
