G75*
%MOIN*%
%OFA0B0*%
%FSLAX24Y24*%
%IPPOS*%
%LPD*%
%AMOC8*
5,1,8,0,0,1.08239X$1,22.5*
%
%ADD10C,0.0060*%
%ADD11C,0.0050*%
%ADD12C,0.0080*%
D10*
X001680Y010530D02*
X001680Y012830D01*
X009680Y012830D01*
X009680Y012080D01*
X009641Y012078D01*
X009602Y012072D01*
X009564Y012063D01*
X009527Y012050D01*
X009491Y012033D01*
X009458Y012013D01*
X009426Y011989D01*
X009397Y011963D01*
X009371Y011934D01*
X009347Y011902D01*
X009327Y011869D01*
X009310Y011833D01*
X009297Y011796D01*
X009288Y011758D01*
X009282Y011719D01*
X009280Y011680D01*
X009282Y011641D01*
X009288Y011602D01*
X009297Y011564D01*
X009310Y011527D01*
X009327Y011491D01*
X009347Y011458D01*
X009371Y011426D01*
X009397Y011397D01*
X009426Y011371D01*
X009458Y011347D01*
X009491Y011327D01*
X009527Y011310D01*
X009564Y011297D01*
X009602Y011288D01*
X009641Y011282D01*
X009680Y011280D01*
X009680Y010530D01*
X001680Y010530D01*
X010680Y010530D02*
X010680Y012830D01*
X018680Y012830D01*
X018680Y012080D01*
X018641Y012078D01*
X018602Y012072D01*
X018564Y012063D01*
X018527Y012050D01*
X018491Y012033D01*
X018458Y012013D01*
X018426Y011989D01*
X018397Y011963D01*
X018371Y011934D01*
X018347Y011902D01*
X018327Y011869D01*
X018310Y011833D01*
X018297Y011796D01*
X018288Y011758D01*
X018282Y011719D01*
X018280Y011680D01*
X018282Y011641D01*
X018288Y011602D01*
X018297Y011564D01*
X018310Y011527D01*
X018327Y011491D01*
X018347Y011458D01*
X018371Y011426D01*
X018397Y011397D01*
X018426Y011371D01*
X018458Y011347D01*
X018491Y011327D01*
X018527Y011310D01*
X018564Y011297D01*
X018602Y011288D01*
X018641Y011282D01*
X018680Y011280D01*
X018680Y010530D01*
X010680Y010530D01*
X019680Y010530D02*
X019680Y012830D01*
X027680Y012830D01*
X027680Y012080D01*
X027641Y012078D01*
X027602Y012072D01*
X027564Y012063D01*
X027527Y012050D01*
X027491Y012033D01*
X027458Y012013D01*
X027426Y011989D01*
X027397Y011963D01*
X027371Y011934D01*
X027347Y011902D01*
X027327Y011869D01*
X027310Y011833D01*
X027297Y011796D01*
X027288Y011758D01*
X027282Y011719D01*
X027280Y011680D01*
X027282Y011641D01*
X027288Y011602D01*
X027297Y011564D01*
X027310Y011527D01*
X027327Y011491D01*
X027347Y011458D01*
X027371Y011426D01*
X027397Y011397D01*
X027426Y011371D01*
X027458Y011347D01*
X027491Y011327D01*
X027527Y011310D01*
X027564Y011297D01*
X027602Y011288D01*
X027641Y011282D01*
X027680Y011280D01*
X027680Y010530D01*
X019680Y010530D01*
X028680Y010530D02*
X028680Y012830D01*
X036680Y012830D01*
X036680Y012080D01*
X036641Y012078D01*
X036602Y012072D01*
X036564Y012063D01*
X036527Y012050D01*
X036491Y012033D01*
X036458Y012013D01*
X036426Y011989D01*
X036397Y011963D01*
X036371Y011934D01*
X036347Y011902D01*
X036327Y011869D01*
X036310Y011833D01*
X036297Y011796D01*
X036288Y011758D01*
X036282Y011719D01*
X036280Y011680D01*
X036282Y011641D01*
X036288Y011602D01*
X036297Y011564D01*
X036310Y011527D01*
X036327Y011491D01*
X036347Y011458D01*
X036371Y011426D01*
X036397Y011397D01*
X036426Y011371D01*
X036458Y011347D01*
X036491Y011327D01*
X036527Y011310D01*
X036564Y011297D01*
X036602Y011288D01*
X036641Y011282D01*
X036680Y011280D01*
X036680Y010530D01*
X028680Y010530D01*
D11*
X031180Y022930D02*
X031180Y023680D01*
X028430Y025680D02*
X028432Y025785D01*
X028438Y025889D01*
X028448Y025993D01*
X028462Y026097D01*
X028480Y026200D01*
X028501Y026303D01*
X028527Y026404D01*
X028557Y026505D01*
X028590Y026604D01*
X028627Y026702D01*
X028668Y026799D01*
X028712Y026893D01*
X028760Y026986D01*
X028812Y027078D01*
X028867Y027167D01*
X028925Y027254D01*
X028986Y027338D01*
X029051Y027421D01*
X029119Y027501D01*
X029190Y027578D01*
X029263Y027652D01*
X029340Y027724D01*
X029419Y027792D01*
X029501Y027858D01*
X029585Y027920D01*
X029671Y027979D01*
X029760Y028035D01*
X029851Y028087D01*
X029943Y028136D01*
X030038Y028181D01*
X030134Y028223D01*
X030231Y028261D01*
X030330Y028295D01*
X030430Y028326D01*
X030532Y028352D01*
X030634Y028375D01*
X030737Y028394D01*
X030841Y028409D01*
X030945Y028420D01*
X031049Y028427D01*
X031154Y028430D01*
X031259Y028429D01*
X031363Y028424D01*
X031467Y028415D01*
X031571Y028402D01*
X031675Y028385D01*
X031777Y028364D01*
X031879Y028340D01*
X031980Y028311D01*
X032079Y028279D01*
X032178Y028243D01*
X032275Y028203D01*
X032370Y028159D01*
X032463Y028112D01*
X032555Y028062D01*
X032645Y028007D01*
X032732Y027950D01*
X032818Y027889D01*
X032900Y027825D01*
X032981Y027758D01*
X033059Y027688D01*
X033134Y027615D01*
X033206Y027539D01*
X033275Y027461D01*
X033342Y027380D01*
X033405Y027296D01*
X033465Y027211D01*
X033521Y027122D01*
X033575Y027032D01*
X033624Y026940D01*
X033670Y026846D01*
X033713Y026750D01*
X033752Y026653D01*
X033787Y026555D01*
X033819Y026455D01*
X033846Y026354D01*
X033870Y026252D01*
X033890Y026149D01*
X033906Y026045D01*
X033918Y025941D01*
X033926Y025837D01*
X033930Y025732D01*
X033930Y025628D01*
X033926Y025523D01*
X033918Y025419D01*
X033906Y025315D01*
X033890Y025211D01*
X033870Y025108D01*
X033846Y025006D01*
X033819Y024905D01*
X033787Y024805D01*
X033752Y024707D01*
X033713Y024610D01*
X033670Y024514D01*
X033624Y024420D01*
X033575Y024328D01*
X033521Y024238D01*
X033465Y024149D01*
X033405Y024064D01*
X033342Y023980D01*
X033275Y023899D01*
X033206Y023821D01*
X033134Y023745D01*
X033059Y023672D01*
X032981Y023602D01*
X032900Y023535D01*
X032818Y023471D01*
X032732Y023410D01*
X032645Y023353D01*
X032555Y023298D01*
X032463Y023248D01*
X032370Y023201D01*
X032275Y023157D01*
X032178Y023117D01*
X032079Y023081D01*
X031980Y023049D01*
X031879Y023020D01*
X031777Y022996D01*
X031675Y022975D01*
X031571Y022958D01*
X031467Y022945D01*
X031363Y022936D01*
X031259Y022931D01*
X031154Y022930D01*
X031049Y022933D01*
X030945Y022940D01*
X030841Y022951D01*
X030737Y022966D01*
X030634Y022985D01*
X030532Y023008D01*
X030430Y023034D01*
X030330Y023065D01*
X030231Y023099D01*
X030134Y023137D01*
X030038Y023179D01*
X029943Y023224D01*
X029851Y023273D01*
X029760Y023325D01*
X029671Y023381D01*
X029585Y023440D01*
X029501Y023502D01*
X029419Y023568D01*
X029340Y023636D01*
X029263Y023708D01*
X029190Y023782D01*
X029119Y023859D01*
X029051Y023939D01*
X028986Y024022D01*
X028925Y024106D01*
X028867Y024193D01*
X028812Y024282D01*
X028760Y024374D01*
X028712Y024467D01*
X028668Y024561D01*
X028627Y024658D01*
X028590Y024756D01*
X028557Y024855D01*
X028527Y024956D01*
X028501Y025057D01*
X028480Y025160D01*
X028462Y025263D01*
X028448Y025367D01*
X028438Y025471D01*
X028432Y025575D01*
X028430Y025680D01*
X020930Y025680D02*
X020932Y025785D01*
X020938Y025889D01*
X020948Y025993D01*
X020962Y026097D01*
X020980Y026200D01*
X021001Y026303D01*
X021027Y026404D01*
X021057Y026505D01*
X021090Y026604D01*
X021127Y026702D01*
X021168Y026799D01*
X021212Y026893D01*
X021260Y026986D01*
X021312Y027078D01*
X021367Y027167D01*
X021425Y027254D01*
X021486Y027338D01*
X021551Y027421D01*
X021619Y027501D01*
X021690Y027578D01*
X021763Y027652D01*
X021840Y027724D01*
X021919Y027792D01*
X022001Y027858D01*
X022085Y027920D01*
X022171Y027979D01*
X022260Y028035D01*
X022351Y028087D01*
X022443Y028136D01*
X022538Y028181D01*
X022634Y028223D01*
X022731Y028261D01*
X022830Y028295D01*
X022930Y028326D01*
X023032Y028352D01*
X023134Y028375D01*
X023237Y028394D01*
X023341Y028409D01*
X023445Y028420D01*
X023549Y028427D01*
X023654Y028430D01*
X023759Y028429D01*
X023863Y028424D01*
X023967Y028415D01*
X024071Y028402D01*
X024175Y028385D01*
X024277Y028364D01*
X024379Y028340D01*
X024480Y028311D01*
X024579Y028279D01*
X024678Y028243D01*
X024775Y028203D01*
X024870Y028159D01*
X024963Y028112D01*
X025055Y028062D01*
X025145Y028007D01*
X025232Y027950D01*
X025318Y027889D01*
X025400Y027825D01*
X025481Y027758D01*
X025559Y027688D01*
X025634Y027615D01*
X025706Y027539D01*
X025775Y027461D01*
X025842Y027380D01*
X025905Y027296D01*
X025965Y027211D01*
X026021Y027122D01*
X026075Y027032D01*
X026124Y026940D01*
X026170Y026846D01*
X026213Y026750D01*
X026252Y026653D01*
X026287Y026555D01*
X026319Y026455D01*
X026346Y026354D01*
X026370Y026252D01*
X026390Y026149D01*
X026406Y026045D01*
X026418Y025941D01*
X026426Y025837D01*
X026430Y025732D01*
X026430Y025628D01*
X026426Y025523D01*
X026418Y025419D01*
X026406Y025315D01*
X026390Y025211D01*
X026370Y025108D01*
X026346Y025006D01*
X026319Y024905D01*
X026287Y024805D01*
X026252Y024707D01*
X026213Y024610D01*
X026170Y024514D01*
X026124Y024420D01*
X026075Y024328D01*
X026021Y024238D01*
X025965Y024149D01*
X025905Y024064D01*
X025842Y023980D01*
X025775Y023899D01*
X025706Y023821D01*
X025634Y023745D01*
X025559Y023672D01*
X025481Y023602D01*
X025400Y023535D01*
X025318Y023471D01*
X025232Y023410D01*
X025145Y023353D01*
X025055Y023298D01*
X024963Y023248D01*
X024870Y023201D01*
X024775Y023157D01*
X024678Y023117D01*
X024579Y023081D01*
X024480Y023049D01*
X024379Y023020D01*
X024277Y022996D01*
X024175Y022975D01*
X024071Y022958D01*
X023967Y022945D01*
X023863Y022936D01*
X023759Y022931D01*
X023654Y022930D01*
X023549Y022933D01*
X023445Y022940D01*
X023341Y022951D01*
X023237Y022966D01*
X023134Y022985D01*
X023032Y023008D01*
X022930Y023034D01*
X022830Y023065D01*
X022731Y023099D01*
X022634Y023137D01*
X022538Y023179D01*
X022443Y023224D01*
X022351Y023273D01*
X022260Y023325D01*
X022171Y023381D01*
X022085Y023440D01*
X022001Y023502D01*
X021919Y023568D01*
X021840Y023636D01*
X021763Y023708D01*
X021690Y023782D01*
X021619Y023859D01*
X021551Y023939D01*
X021486Y024022D01*
X021425Y024106D01*
X021367Y024193D01*
X021312Y024282D01*
X021260Y024374D01*
X021212Y024467D01*
X021168Y024561D01*
X021127Y024658D01*
X021090Y024756D01*
X021057Y024855D01*
X021027Y024956D01*
X021001Y025057D01*
X020980Y025160D01*
X020962Y025263D01*
X020948Y025367D01*
X020938Y025471D01*
X020932Y025575D01*
X020930Y025680D01*
X023680Y023680D02*
X023680Y022930D01*
X015680Y022930D02*
X015680Y023680D01*
X012930Y025680D02*
X012932Y025785D01*
X012938Y025889D01*
X012948Y025993D01*
X012962Y026097D01*
X012980Y026200D01*
X013001Y026303D01*
X013027Y026404D01*
X013057Y026505D01*
X013090Y026604D01*
X013127Y026702D01*
X013168Y026799D01*
X013212Y026893D01*
X013260Y026986D01*
X013312Y027078D01*
X013367Y027167D01*
X013425Y027254D01*
X013486Y027338D01*
X013551Y027421D01*
X013619Y027501D01*
X013690Y027578D01*
X013763Y027652D01*
X013840Y027724D01*
X013919Y027792D01*
X014001Y027858D01*
X014085Y027920D01*
X014171Y027979D01*
X014260Y028035D01*
X014351Y028087D01*
X014443Y028136D01*
X014538Y028181D01*
X014634Y028223D01*
X014731Y028261D01*
X014830Y028295D01*
X014930Y028326D01*
X015032Y028352D01*
X015134Y028375D01*
X015237Y028394D01*
X015341Y028409D01*
X015445Y028420D01*
X015549Y028427D01*
X015654Y028430D01*
X015759Y028429D01*
X015863Y028424D01*
X015967Y028415D01*
X016071Y028402D01*
X016175Y028385D01*
X016277Y028364D01*
X016379Y028340D01*
X016480Y028311D01*
X016579Y028279D01*
X016678Y028243D01*
X016775Y028203D01*
X016870Y028159D01*
X016963Y028112D01*
X017055Y028062D01*
X017145Y028007D01*
X017232Y027950D01*
X017318Y027889D01*
X017400Y027825D01*
X017481Y027758D01*
X017559Y027688D01*
X017634Y027615D01*
X017706Y027539D01*
X017775Y027461D01*
X017842Y027380D01*
X017905Y027296D01*
X017965Y027211D01*
X018021Y027122D01*
X018075Y027032D01*
X018124Y026940D01*
X018170Y026846D01*
X018213Y026750D01*
X018252Y026653D01*
X018287Y026555D01*
X018319Y026455D01*
X018346Y026354D01*
X018370Y026252D01*
X018390Y026149D01*
X018406Y026045D01*
X018418Y025941D01*
X018426Y025837D01*
X018430Y025732D01*
X018430Y025628D01*
X018426Y025523D01*
X018418Y025419D01*
X018406Y025315D01*
X018390Y025211D01*
X018370Y025108D01*
X018346Y025006D01*
X018319Y024905D01*
X018287Y024805D01*
X018252Y024707D01*
X018213Y024610D01*
X018170Y024514D01*
X018124Y024420D01*
X018075Y024328D01*
X018021Y024238D01*
X017965Y024149D01*
X017905Y024064D01*
X017842Y023980D01*
X017775Y023899D01*
X017706Y023821D01*
X017634Y023745D01*
X017559Y023672D01*
X017481Y023602D01*
X017400Y023535D01*
X017318Y023471D01*
X017232Y023410D01*
X017145Y023353D01*
X017055Y023298D01*
X016963Y023248D01*
X016870Y023201D01*
X016775Y023157D01*
X016678Y023117D01*
X016579Y023081D01*
X016480Y023049D01*
X016379Y023020D01*
X016277Y022996D01*
X016175Y022975D01*
X016071Y022958D01*
X015967Y022945D01*
X015863Y022936D01*
X015759Y022931D01*
X015654Y022930D01*
X015549Y022933D01*
X015445Y022940D01*
X015341Y022951D01*
X015237Y022966D01*
X015134Y022985D01*
X015032Y023008D01*
X014930Y023034D01*
X014830Y023065D01*
X014731Y023099D01*
X014634Y023137D01*
X014538Y023179D01*
X014443Y023224D01*
X014351Y023273D01*
X014260Y023325D01*
X014171Y023381D01*
X014085Y023440D01*
X014001Y023502D01*
X013919Y023568D01*
X013840Y023636D01*
X013763Y023708D01*
X013690Y023782D01*
X013619Y023859D01*
X013551Y023939D01*
X013486Y024022D01*
X013425Y024106D01*
X013367Y024193D01*
X013312Y024282D01*
X013260Y024374D01*
X013212Y024467D01*
X013168Y024561D01*
X013127Y024658D01*
X013090Y024756D01*
X013057Y024855D01*
X013027Y024956D01*
X013001Y025057D01*
X012980Y025160D01*
X012962Y025263D01*
X012948Y025367D01*
X012938Y025471D01*
X012932Y025575D01*
X012930Y025680D01*
X005430Y025680D02*
X005432Y025785D01*
X005438Y025889D01*
X005448Y025993D01*
X005462Y026097D01*
X005480Y026200D01*
X005501Y026303D01*
X005527Y026404D01*
X005557Y026505D01*
X005590Y026604D01*
X005627Y026702D01*
X005668Y026799D01*
X005712Y026893D01*
X005760Y026986D01*
X005812Y027078D01*
X005867Y027167D01*
X005925Y027254D01*
X005986Y027338D01*
X006051Y027421D01*
X006119Y027501D01*
X006190Y027578D01*
X006263Y027652D01*
X006340Y027724D01*
X006419Y027792D01*
X006501Y027858D01*
X006585Y027920D01*
X006671Y027979D01*
X006760Y028035D01*
X006851Y028087D01*
X006943Y028136D01*
X007038Y028181D01*
X007134Y028223D01*
X007231Y028261D01*
X007330Y028295D01*
X007430Y028326D01*
X007532Y028352D01*
X007634Y028375D01*
X007737Y028394D01*
X007841Y028409D01*
X007945Y028420D01*
X008049Y028427D01*
X008154Y028430D01*
X008259Y028429D01*
X008363Y028424D01*
X008467Y028415D01*
X008571Y028402D01*
X008675Y028385D01*
X008777Y028364D01*
X008879Y028340D01*
X008980Y028311D01*
X009079Y028279D01*
X009178Y028243D01*
X009275Y028203D01*
X009370Y028159D01*
X009463Y028112D01*
X009555Y028062D01*
X009645Y028007D01*
X009732Y027950D01*
X009818Y027889D01*
X009900Y027825D01*
X009981Y027758D01*
X010059Y027688D01*
X010134Y027615D01*
X010206Y027539D01*
X010275Y027461D01*
X010342Y027380D01*
X010405Y027296D01*
X010465Y027211D01*
X010521Y027122D01*
X010575Y027032D01*
X010624Y026940D01*
X010670Y026846D01*
X010713Y026750D01*
X010752Y026653D01*
X010787Y026555D01*
X010819Y026455D01*
X010846Y026354D01*
X010870Y026252D01*
X010890Y026149D01*
X010906Y026045D01*
X010918Y025941D01*
X010926Y025837D01*
X010930Y025732D01*
X010930Y025628D01*
X010926Y025523D01*
X010918Y025419D01*
X010906Y025315D01*
X010890Y025211D01*
X010870Y025108D01*
X010846Y025006D01*
X010819Y024905D01*
X010787Y024805D01*
X010752Y024707D01*
X010713Y024610D01*
X010670Y024514D01*
X010624Y024420D01*
X010575Y024328D01*
X010521Y024238D01*
X010465Y024149D01*
X010405Y024064D01*
X010342Y023980D01*
X010275Y023899D01*
X010206Y023821D01*
X010134Y023745D01*
X010059Y023672D01*
X009981Y023602D01*
X009900Y023535D01*
X009818Y023471D01*
X009732Y023410D01*
X009645Y023353D01*
X009555Y023298D01*
X009463Y023248D01*
X009370Y023201D01*
X009275Y023157D01*
X009178Y023117D01*
X009079Y023081D01*
X008980Y023049D01*
X008879Y023020D01*
X008777Y022996D01*
X008675Y022975D01*
X008571Y022958D01*
X008467Y022945D01*
X008363Y022936D01*
X008259Y022931D01*
X008154Y022930D01*
X008049Y022933D01*
X007945Y022940D01*
X007841Y022951D01*
X007737Y022966D01*
X007634Y022985D01*
X007532Y023008D01*
X007430Y023034D01*
X007330Y023065D01*
X007231Y023099D01*
X007134Y023137D01*
X007038Y023179D01*
X006943Y023224D01*
X006851Y023273D01*
X006760Y023325D01*
X006671Y023381D01*
X006585Y023440D01*
X006501Y023502D01*
X006419Y023568D01*
X006340Y023636D01*
X006263Y023708D01*
X006190Y023782D01*
X006119Y023859D01*
X006051Y023939D01*
X005986Y024022D01*
X005925Y024106D01*
X005867Y024193D01*
X005812Y024282D01*
X005760Y024374D01*
X005712Y024467D01*
X005668Y024561D01*
X005627Y024658D01*
X005590Y024756D01*
X005557Y024855D01*
X005527Y024956D01*
X005501Y025057D01*
X005480Y025160D01*
X005462Y025263D01*
X005448Y025367D01*
X005438Y025471D01*
X005432Y025575D01*
X005430Y025680D01*
X008180Y023680D02*
X008180Y022930D01*
D12*
X007355Y007530D02*
X009005Y007530D01*
X009067Y008080D02*
X009225Y008080D01*
X008293Y008080D02*
X008067Y008080D01*
X009005Y007530D02*
X009042Y007581D01*
X009077Y007634D01*
X009109Y007690D01*
X009137Y007747D01*
X009161Y007806D01*
X009182Y007866D01*
X009199Y007927D01*
X009213Y007989D01*
X009222Y008052D01*
X009228Y008115D01*
X009230Y008179D01*
X009228Y008243D01*
X009222Y008306D01*
X009213Y008369D01*
X009200Y008431D01*
X009182Y008492D01*
X009162Y008552D01*
X009137Y008611D01*
X009110Y008668D01*
X009078Y008724D01*
X009044Y008777D01*
X009006Y008828D01*
X008965Y008877D01*
X008921Y008923D01*
X008875Y008967D01*
X008826Y009008D01*
X008775Y009045D01*
X008721Y009080D01*
X008666Y009111D01*
X008609Y009139D01*
X008550Y009163D01*
X008490Y009183D01*
X007870Y009183D02*
X007810Y009163D01*
X007751Y009139D01*
X007694Y009111D01*
X007639Y009080D01*
X007585Y009045D01*
X007534Y009008D01*
X007485Y008967D01*
X007439Y008923D01*
X007395Y008877D01*
X007354Y008828D01*
X007316Y008777D01*
X007282Y008724D01*
X007251Y008668D01*
X007223Y008611D01*
X007198Y008552D01*
X007178Y008492D01*
X007160Y008431D01*
X007147Y008369D01*
X007138Y008306D01*
X007132Y008243D01*
X007130Y008179D01*
X007132Y008115D01*
X007138Y008052D01*
X007147Y007989D01*
X007161Y007927D01*
X007178Y007866D01*
X007199Y007806D01*
X007223Y007747D01*
X007251Y007690D01*
X007283Y007634D01*
X007318Y007581D01*
X007355Y007530D01*
X007293Y008080D02*
X007135Y008080D01*
X016135Y008080D02*
X016293Y008080D01*
X016355Y007530D02*
X018005Y007530D01*
X018067Y008080D02*
X018225Y008080D01*
X017293Y008080D02*
X017067Y008080D01*
X018005Y007530D02*
X018042Y007581D01*
X018077Y007634D01*
X018109Y007690D01*
X018137Y007747D01*
X018161Y007806D01*
X018182Y007866D01*
X018199Y007927D01*
X018213Y007989D01*
X018222Y008052D01*
X018228Y008115D01*
X018230Y008179D01*
X018228Y008243D01*
X018222Y008306D01*
X018213Y008369D01*
X018200Y008431D01*
X018182Y008492D01*
X018162Y008552D01*
X018137Y008611D01*
X018110Y008668D01*
X018078Y008724D01*
X018044Y008777D01*
X018006Y008828D01*
X017965Y008877D01*
X017921Y008923D01*
X017875Y008967D01*
X017826Y009008D01*
X017775Y009045D01*
X017721Y009080D01*
X017666Y009111D01*
X017609Y009139D01*
X017550Y009163D01*
X017490Y009183D01*
X016870Y009183D02*
X016810Y009163D01*
X016751Y009139D01*
X016694Y009111D01*
X016639Y009080D01*
X016585Y009045D01*
X016534Y009008D01*
X016485Y008967D01*
X016439Y008923D01*
X016395Y008877D01*
X016354Y008828D01*
X016316Y008777D01*
X016282Y008724D01*
X016251Y008668D01*
X016223Y008611D01*
X016198Y008552D01*
X016178Y008492D01*
X016160Y008431D01*
X016147Y008369D01*
X016138Y008306D01*
X016132Y008243D01*
X016130Y008179D01*
X016132Y008115D01*
X016138Y008052D01*
X016147Y007989D01*
X016161Y007927D01*
X016178Y007866D01*
X016199Y007806D01*
X016223Y007747D01*
X016251Y007690D01*
X016283Y007634D01*
X016318Y007581D01*
X016355Y007530D01*
X025135Y008080D02*
X025293Y008080D01*
X025355Y007530D02*
X027005Y007530D01*
X027067Y008080D02*
X027225Y008080D01*
X026293Y008080D02*
X026067Y008080D01*
X027005Y007530D02*
X027042Y007581D01*
X027077Y007634D01*
X027109Y007690D01*
X027137Y007747D01*
X027161Y007806D01*
X027182Y007866D01*
X027199Y007927D01*
X027213Y007989D01*
X027222Y008052D01*
X027228Y008115D01*
X027230Y008179D01*
X027228Y008243D01*
X027222Y008306D01*
X027213Y008369D01*
X027200Y008431D01*
X027182Y008492D01*
X027162Y008552D01*
X027137Y008611D01*
X027110Y008668D01*
X027078Y008724D01*
X027044Y008777D01*
X027006Y008828D01*
X026965Y008877D01*
X026921Y008923D01*
X026875Y008967D01*
X026826Y009008D01*
X026775Y009045D01*
X026721Y009080D01*
X026666Y009111D01*
X026609Y009139D01*
X026550Y009163D01*
X026490Y009183D01*
X025870Y009183D02*
X025810Y009163D01*
X025751Y009139D01*
X025694Y009111D01*
X025639Y009080D01*
X025585Y009045D01*
X025534Y009008D01*
X025485Y008967D01*
X025439Y008923D01*
X025395Y008877D01*
X025354Y008828D01*
X025316Y008777D01*
X025282Y008724D01*
X025251Y008668D01*
X025223Y008611D01*
X025198Y008552D01*
X025178Y008492D01*
X025160Y008431D01*
X025147Y008369D01*
X025138Y008306D01*
X025132Y008243D01*
X025130Y008179D01*
X025132Y008115D01*
X025138Y008052D01*
X025147Y007989D01*
X025161Y007927D01*
X025178Y007866D01*
X025199Y007806D01*
X025223Y007747D01*
X025251Y007690D01*
X025283Y007634D01*
X025318Y007581D01*
X025355Y007530D01*
X034135Y008080D02*
X034293Y008080D01*
X034355Y007530D02*
X036005Y007530D01*
X036067Y008080D02*
X036225Y008080D01*
X035293Y008080D02*
X035067Y008080D01*
X036005Y007530D02*
X036042Y007581D01*
X036077Y007634D01*
X036109Y007690D01*
X036137Y007747D01*
X036161Y007806D01*
X036182Y007866D01*
X036199Y007927D01*
X036213Y007989D01*
X036222Y008052D01*
X036228Y008115D01*
X036230Y008179D01*
X036228Y008243D01*
X036222Y008306D01*
X036213Y008369D01*
X036200Y008431D01*
X036182Y008492D01*
X036162Y008552D01*
X036137Y008611D01*
X036110Y008668D01*
X036078Y008724D01*
X036044Y008777D01*
X036006Y008828D01*
X035965Y008877D01*
X035921Y008923D01*
X035875Y008967D01*
X035826Y009008D01*
X035775Y009045D01*
X035721Y009080D01*
X035666Y009111D01*
X035609Y009139D01*
X035550Y009163D01*
X035490Y009183D01*
X034870Y009183D02*
X034810Y009163D01*
X034751Y009139D01*
X034694Y009111D01*
X034639Y009080D01*
X034585Y009045D01*
X034534Y009008D01*
X034485Y008967D01*
X034439Y008923D01*
X034395Y008877D01*
X034354Y008828D01*
X034316Y008777D01*
X034282Y008724D01*
X034251Y008668D01*
X034223Y008611D01*
X034198Y008552D01*
X034178Y008492D01*
X034160Y008431D01*
X034147Y008369D01*
X034138Y008306D01*
X034132Y008243D01*
X034130Y008179D01*
X034132Y008115D01*
X034138Y008052D01*
X034147Y007989D01*
X034161Y007927D01*
X034178Y007866D01*
X034199Y007806D01*
X034223Y007747D01*
X034251Y007690D01*
X034283Y007634D01*
X034318Y007581D01*
X034355Y007530D01*
X033490Y014177D02*
X033550Y014197D01*
X033609Y014221D01*
X033666Y014249D01*
X033721Y014280D01*
X033775Y014315D01*
X033826Y014352D01*
X033875Y014393D01*
X033921Y014437D01*
X033965Y014483D01*
X034006Y014532D01*
X034044Y014583D01*
X034078Y014636D01*
X034109Y014692D01*
X034137Y014749D01*
X034162Y014808D01*
X034182Y014868D01*
X034200Y014929D01*
X034213Y014991D01*
X034222Y015054D01*
X034228Y015117D01*
X034230Y015181D01*
X034228Y015245D01*
X034222Y015308D01*
X034213Y015371D01*
X034199Y015433D01*
X034182Y015494D01*
X034161Y015554D01*
X034137Y015613D01*
X034109Y015670D01*
X034077Y015726D01*
X034042Y015779D01*
X034005Y015830D01*
X032355Y015830D01*
X032293Y015280D02*
X032135Y015280D01*
X031225Y015280D02*
X031067Y015280D01*
X030293Y015280D02*
X030067Y015280D01*
X029355Y015830D02*
X029318Y015779D01*
X029283Y015726D01*
X029251Y015670D01*
X029223Y015613D01*
X029199Y015554D01*
X029178Y015494D01*
X029161Y015433D01*
X029147Y015371D01*
X029138Y015308D01*
X029132Y015245D01*
X029130Y015181D01*
X029132Y015117D01*
X029138Y015054D01*
X029147Y014991D01*
X029160Y014929D01*
X029178Y014868D01*
X029198Y014808D01*
X029223Y014749D01*
X029250Y014692D01*
X029282Y014636D01*
X029316Y014583D01*
X029354Y014532D01*
X029395Y014483D01*
X029439Y014437D01*
X029485Y014393D01*
X029534Y014352D01*
X029585Y014315D01*
X029639Y014280D01*
X029694Y014249D01*
X029751Y014221D01*
X029810Y014197D01*
X029870Y014177D01*
X030490Y014177D02*
X030550Y014197D01*
X030609Y014221D01*
X030666Y014249D01*
X030721Y014280D01*
X030775Y014315D01*
X030826Y014352D01*
X030875Y014393D01*
X030921Y014437D01*
X030965Y014483D01*
X031006Y014532D01*
X031044Y014583D01*
X031078Y014636D01*
X031109Y014692D01*
X031137Y014749D01*
X031162Y014808D01*
X031182Y014868D01*
X031200Y014929D01*
X031213Y014991D01*
X031222Y015054D01*
X031228Y015117D01*
X031230Y015181D01*
X031228Y015245D01*
X031222Y015308D01*
X031213Y015371D01*
X031199Y015433D01*
X031182Y015494D01*
X031161Y015554D01*
X031137Y015613D01*
X031109Y015670D01*
X031077Y015726D01*
X031042Y015779D01*
X031005Y015830D01*
X029355Y015830D01*
X029293Y015280D02*
X029135Y015280D01*
X028225Y015280D02*
X028067Y015280D01*
X028005Y015830D02*
X026355Y015830D01*
X026293Y015280D02*
X026135Y015280D01*
X025225Y015280D02*
X025067Y015280D01*
X025005Y015830D02*
X023355Y015830D01*
X023293Y015280D02*
X023135Y015280D01*
X022225Y015280D02*
X022067Y015280D01*
X022005Y015830D02*
X020355Y015830D01*
X020293Y015280D02*
X020135Y015280D01*
X019225Y015280D02*
X019067Y015280D01*
X019005Y015830D02*
X017355Y015830D01*
X017293Y015280D02*
X017135Y015280D01*
X016225Y015280D02*
X016067Y015280D01*
X016005Y015830D02*
X014355Y015830D01*
X014293Y015280D02*
X014135Y015280D01*
X015067Y015280D02*
X015293Y015280D01*
X014355Y015830D02*
X014318Y015779D01*
X014283Y015726D01*
X014251Y015670D01*
X014223Y015613D01*
X014199Y015554D01*
X014178Y015494D01*
X014161Y015433D01*
X014147Y015371D01*
X014138Y015308D01*
X014132Y015245D01*
X014130Y015181D01*
X014132Y015117D01*
X014138Y015054D01*
X014147Y014991D01*
X014160Y014929D01*
X014178Y014868D01*
X014198Y014808D01*
X014223Y014749D01*
X014250Y014692D01*
X014282Y014636D01*
X014316Y014583D01*
X014354Y014532D01*
X014395Y014483D01*
X014439Y014437D01*
X014485Y014393D01*
X014534Y014352D01*
X014585Y014315D01*
X014639Y014280D01*
X014694Y014249D01*
X014751Y014221D01*
X014810Y014197D01*
X014870Y014177D01*
X015490Y014177D02*
X015550Y014197D01*
X015609Y014221D01*
X015666Y014249D01*
X015721Y014280D01*
X015775Y014315D01*
X015826Y014352D01*
X015875Y014393D01*
X015921Y014437D01*
X015965Y014483D01*
X016006Y014532D01*
X016044Y014583D01*
X016078Y014636D01*
X016109Y014692D01*
X016137Y014749D01*
X016162Y014808D01*
X016182Y014868D01*
X016200Y014929D01*
X016213Y014991D01*
X016222Y015054D01*
X016228Y015117D01*
X016230Y015181D01*
X016228Y015245D01*
X016222Y015308D01*
X016213Y015371D01*
X016199Y015433D01*
X016182Y015494D01*
X016161Y015554D01*
X016137Y015613D01*
X016109Y015670D01*
X016077Y015726D01*
X016042Y015779D01*
X016005Y015830D01*
X016135Y017280D02*
X016293Y017280D01*
X016355Y017830D02*
X018005Y017830D01*
X018067Y017280D02*
X018225Y017280D01*
X017293Y017280D02*
X017067Y017280D01*
X016355Y017830D02*
X016318Y017779D01*
X016283Y017726D01*
X016251Y017670D01*
X016223Y017613D01*
X016199Y017554D01*
X016178Y017494D01*
X016161Y017433D01*
X016147Y017371D01*
X016138Y017308D01*
X016132Y017245D01*
X016130Y017181D01*
X016132Y017117D01*
X016138Y017054D01*
X016147Y016991D01*
X016160Y016929D01*
X016178Y016868D01*
X016198Y016808D01*
X016223Y016749D01*
X016250Y016692D01*
X016282Y016636D01*
X016316Y016583D01*
X016354Y016532D01*
X016395Y016483D01*
X016439Y016437D01*
X016485Y016393D01*
X016534Y016352D01*
X016585Y016315D01*
X016639Y016280D01*
X016694Y016249D01*
X016751Y016221D01*
X016810Y016197D01*
X016870Y016177D01*
X017490Y016177D02*
X017550Y016197D01*
X017609Y016221D01*
X017666Y016249D01*
X017721Y016280D01*
X017775Y016315D01*
X017826Y016352D01*
X017875Y016393D01*
X017921Y016437D01*
X017965Y016483D01*
X018006Y016532D01*
X018044Y016583D01*
X018078Y016636D01*
X018109Y016692D01*
X018137Y016749D01*
X018162Y016808D01*
X018182Y016868D01*
X018200Y016929D01*
X018213Y016991D01*
X018222Y017054D01*
X018228Y017117D01*
X018230Y017181D01*
X018228Y017245D01*
X018222Y017308D01*
X018213Y017371D01*
X018199Y017433D01*
X018182Y017494D01*
X018161Y017554D01*
X018137Y017613D01*
X018109Y017670D01*
X018077Y017726D01*
X018042Y017779D01*
X018005Y017830D01*
X017225Y019280D02*
X017067Y019280D01*
X017005Y019830D02*
X015355Y019830D01*
X015293Y019280D02*
X015135Y019280D01*
X014225Y019280D02*
X014067Y019280D01*
X014005Y019830D02*
X012355Y019830D01*
X012293Y019280D02*
X012135Y019280D01*
X013067Y019280D02*
X013293Y019280D01*
X012355Y019830D02*
X012318Y019779D01*
X012283Y019726D01*
X012251Y019670D01*
X012223Y019613D01*
X012199Y019554D01*
X012178Y019494D01*
X012161Y019433D01*
X012147Y019371D01*
X012138Y019308D01*
X012132Y019245D01*
X012130Y019181D01*
X012132Y019117D01*
X012138Y019054D01*
X012147Y018991D01*
X012160Y018929D01*
X012178Y018868D01*
X012198Y018808D01*
X012223Y018749D01*
X012250Y018692D01*
X012282Y018636D01*
X012316Y018583D01*
X012354Y018532D01*
X012395Y018483D01*
X012439Y018437D01*
X012485Y018393D01*
X012534Y018352D01*
X012585Y018315D01*
X012639Y018280D01*
X012694Y018249D01*
X012751Y018221D01*
X012810Y018197D01*
X012870Y018177D01*
X013355Y017830D02*
X015005Y017830D01*
X015067Y017280D02*
X015225Y017280D01*
X014293Y017280D02*
X014067Y017280D01*
X013355Y017830D02*
X013318Y017779D01*
X013283Y017726D01*
X013251Y017670D01*
X013223Y017613D01*
X013199Y017554D01*
X013178Y017494D01*
X013161Y017433D01*
X013147Y017371D01*
X013138Y017308D01*
X013132Y017245D01*
X013130Y017181D01*
X013132Y017117D01*
X013138Y017054D01*
X013147Y016991D01*
X013160Y016929D01*
X013178Y016868D01*
X013198Y016808D01*
X013223Y016749D01*
X013250Y016692D01*
X013282Y016636D01*
X013316Y016583D01*
X013354Y016532D01*
X013395Y016483D01*
X013439Y016437D01*
X013485Y016393D01*
X013534Y016352D01*
X013585Y016315D01*
X013639Y016280D01*
X013694Y016249D01*
X013751Y016221D01*
X013810Y016197D01*
X013870Y016177D01*
X013005Y015830D02*
X011355Y015830D01*
X011293Y015280D02*
X011135Y015280D01*
X010225Y015280D02*
X010067Y015280D01*
X009293Y015280D02*
X009067Y015280D01*
X008355Y015830D02*
X008318Y015779D01*
X008283Y015726D01*
X008251Y015670D01*
X008223Y015613D01*
X008199Y015554D01*
X008178Y015494D01*
X008161Y015433D01*
X008147Y015371D01*
X008138Y015308D01*
X008132Y015245D01*
X008130Y015181D01*
X008132Y015117D01*
X008138Y015054D01*
X008147Y014991D01*
X008160Y014929D01*
X008178Y014868D01*
X008198Y014808D01*
X008223Y014749D01*
X008250Y014692D01*
X008282Y014636D01*
X008316Y014583D01*
X008354Y014532D01*
X008395Y014483D01*
X008439Y014437D01*
X008485Y014393D01*
X008534Y014352D01*
X008585Y014315D01*
X008639Y014280D01*
X008694Y014249D01*
X008751Y014221D01*
X008810Y014197D01*
X008870Y014177D01*
X009490Y014177D02*
X009550Y014197D01*
X009609Y014221D01*
X009666Y014249D01*
X009721Y014280D01*
X009775Y014315D01*
X009826Y014352D01*
X009875Y014393D01*
X009921Y014437D01*
X009965Y014483D01*
X010006Y014532D01*
X010044Y014583D01*
X010078Y014636D01*
X010109Y014692D01*
X010137Y014749D01*
X010162Y014808D01*
X010182Y014868D01*
X010200Y014929D01*
X010213Y014991D01*
X010222Y015054D01*
X010228Y015117D01*
X010230Y015181D01*
X010228Y015245D01*
X010222Y015308D01*
X010213Y015371D01*
X010199Y015433D01*
X010182Y015494D01*
X010161Y015554D01*
X010137Y015613D01*
X010109Y015670D01*
X010077Y015726D01*
X010042Y015779D01*
X010005Y015830D01*
X008355Y015830D01*
X008293Y015280D02*
X008135Y015280D01*
X007225Y015280D02*
X007067Y015280D01*
X007005Y015830D02*
X005355Y015830D01*
X005293Y015280D02*
X005135Y015280D01*
X006067Y015280D02*
X006293Y015280D01*
X005355Y015830D02*
X005318Y015779D01*
X005283Y015726D01*
X005251Y015670D01*
X005223Y015613D01*
X005199Y015554D01*
X005178Y015494D01*
X005161Y015433D01*
X005147Y015371D01*
X005138Y015308D01*
X005132Y015245D01*
X005130Y015181D01*
X005132Y015117D01*
X005138Y015054D01*
X005147Y014991D01*
X005160Y014929D01*
X005178Y014868D01*
X005198Y014808D01*
X005223Y014749D01*
X005250Y014692D01*
X005282Y014636D01*
X005316Y014583D01*
X005354Y014532D01*
X005395Y014483D01*
X005439Y014437D01*
X005485Y014393D01*
X005534Y014352D01*
X005585Y014315D01*
X005639Y014280D01*
X005694Y014249D01*
X005751Y014221D01*
X005810Y014197D01*
X005870Y014177D01*
X006490Y014177D02*
X006550Y014197D01*
X006609Y014221D01*
X006666Y014249D01*
X006721Y014280D01*
X006775Y014315D01*
X006826Y014352D01*
X006875Y014393D01*
X006921Y014437D01*
X006965Y014483D01*
X007006Y014532D01*
X007044Y014583D01*
X007078Y014636D01*
X007109Y014692D01*
X007137Y014749D01*
X007162Y014808D01*
X007182Y014868D01*
X007200Y014929D01*
X007213Y014991D01*
X007222Y015054D01*
X007228Y015117D01*
X007230Y015181D01*
X007228Y015245D01*
X007222Y015308D01*
X007213Y015371D01*
X007199Y015433D01*
X007182Y015494D01*
X007161Y015554D01*
X007137Y015613D01*
X007109Y015670D01*
X007077Y015726D01*
X007042Y015779D01*
X007005Y015830D01*
X007135Y017280D02*
X007293Y017280D01*
X008067Y017280D02*
X008293Y017280D01*
X007355Y017830D02*
X007318Y017779D01*
X007283Y017726D01*
X007251Y017670D01*
X007223Y017613D01*
X007199Y017554D01*
X007178Y017494D01*
X007161Y017433D01*
X007147Y017371D01*
X007138Y017308D01*
X007132Y017245D01*
X007130Y017181D01*
X007132Y017117D01*
X007138Y017054D01*
X007147Y016991D01*
X007160Y016929D01*
X007178Y016868D01*
X007198Y016808D01*
X007223Y016749D01*
X007250Y016692D01*
X007282Y016636D01*
X007316Y016583D01*
X007354Y016532D01*
X007395Y016483D01*
X007439Y016437D01*
X007485Y016393D01*
X007534Y016352D01*
X007585Y016315D01*
X007639Y016280D01*
X007694Y016249D01*
X007751Y016221D01*
X007810Y016197D01*
X007870Y016177D01*
X008490Y016177D02*
X008550Y016197D01*
X008609Y016221D01*
X008666Y016249D01*
X008721Y016280D01*
X008775Y016315D01*
X008826Y016352D01*
X008875Y016393D01*
X008921Y016437D01*
X008965Y016483D01*
X009006Y016532D01*
X009044Y016583D01*
X009078Y016636D01*
X009109Y016692D01*
X009137Y016749D01*
X009162Y016808D01*
X009182Y016868D01*
X009200Y016929D01*
X009213Y016991D01*
X009222Y017054D01*
X009228Y017117D01*
X009230Y017181D01*
X009228Y017245D01*
X009222Y017308D01*
X009213Y017371D01*
X009199Y017433D01*
X009182Y017494D01*
X009161Y017554D01*
X009137Y017613D01*
X009109Y017670D01*
X009077Y017726D01*
X009042Y017779D01*
X009005Y017830D01*
X007355Y017830D01*
X006225Y017280D02*
X006067Y017280D01*
X006005Y017830D02*
X004355Y017830D01*
X004293Y017280D02*
X004135Y017280D01*
X005067Y017280D02*
X005293Y017280D01*
X004355Y017830D02*
X004318Y017779D01*
X004283Y017726D01*
X004251Y017670D01*
X004223Y017613D01*
X004199Y017554D01*
X004178Y017494D01*
X004161Y017433D01*
X004147Y017371D01*
X004138Y017308D01*
X004132Y017245D01*
X004130Y017181D01*
X004132Y017117D01*
X004138Y017054D01*
X004147Y016991D01*
X004160Y016929D01*
X004178Y016868D01*
X004198Y016808D01*
X004223Y016749D01*
X004250Y016692D01*
X004282Y016636D01*
X004316Y016583D01*
X004354Y016532D01*
X004395Y016483D01*
X004439Y016437D01*
X004485Y016393D01*
X004534Y016352D01*
X004585Y016315D01*
X004639Y016280D01*
X004694Y016249D01*
X004751Y016221D01*
X004810Y016197D01*
X004870Y016177D01*
X005490Y016177D02*
X005550Y016197D01*
X005609Y016221D01*
X005666Y016249D01*
X005721Y016280D01*
X005775Y016315D01*
X005826Y016352D01*
X005875Y016393D01*
X005921Y016437D01*
X005965Y016483D01*
X006006Y016532D01*
X006044Y016583D01*
X006078Y016636D01*
X006109Y016692D01*
X006137Y016749D01*
X006162Y016808D01*
X006182Y016868D01*
X006200Y016929D01*
X006213Y016991D01*
X006222Y017054D01*
X006228Y017117D01*
X006230Y017181D01*
X006228Y017245D01*
X006222Y017308D01*
X006213Y017371D01*
X006199Y017433D01*
X006182Y017494D01*
X006161Y017554D01*
X006137Y017613D01*
X006109Y017670D01*
X006077Y017726D01*
X006042Y017779D01*
X006005Y017830D01*
X006135Y019280D02*
X006293Y019280D01*
X006355Y019830D02*
X008005Y019830D01*
X008067Y019280D02*
X008225Y019280D01*
X007293Y019280D02*
X007067Y019280D01*
X006355Y019830D02*
X006318Y019779D01*
X006283Y019726D01*
X006251Y019670D01*
X006223Y019613D01*
X006199Y019554D01*
X006178Y019494D01*
X006161Y019433D01*
X006147Y019371D01*
X006138Y019308D01*
X006132Y019245D01*
X006130Y019181D01*
X006132Y019117D01*
X006138Y019054D01*
X006147Y018991D01*
X006160Y018929D01*
X006178Y018868D01*
X006198Y018808D01*
X006223Y018749D01*
X006250Y018692D01*
X006282Y018636D01*
X006316Y018583D01*
X006354Y018532D01*
X006395Y018483D01*
X006439Y018437D01*
X006485Y018393D01*
X006534Y018352D01*
X006585Y018315D01*
X006639Y018280D01*
X006694Y018249D01*
X006751Y018221D01*
X006810Y018197D01*
X006870Y018177D01*
X007490Y018177D02*
X007550Y018197D01*
X007609Y018221D01*
X007666Y018249D01*
X007721Y018280D01*
X007775Y018315D01*
X007826Y018352D01*
X007875Y018393D01*
X007921Y018437D01*
X007965Y018483D01*
X008006Y018532D01*
X008044Y018583D01*
X008078Y018636D01*
X008109Y018692D01*
X008137Y018749D01*
X008162Y018808D01*
X008182Y018868D01*
X008200Y018929D01*
X008213Y018991D01*
X008222Y019054D01*
X008228Y019117D01*
X008230Y019181D01*
X008228Y019245D01*
X008222Y019308D01*
X008213Y019371D01*
X008199Y019433D01*
X008182Y019494D01*
X008161Y019554D01*
X008137Y019613D01*
X008109Y019670D01*
X008077Y019726D01*
X008042Y019779D01*
X008005Y019830D01*
X005225Y019280D02*
X005067Y019280D01*
X005005Y019830D02*
X003355Y019830D01*
X003293Y019280D02*
X003135Y019280D01*
X004067Y019280D02*
X004293Y019280D01*
X003355Y019830D02*
X003318Y019779D01*
X003283Y019726D01*
X003251Y019670D01*
X003223Y019613D01*
X003199Y019554D01*
X003178Y019494D01*
X003161Y019433D01*
X003147Y019371D01*
X003138Y019308D01*
X003132Y019245D01*
X003130Y019181D01*
X003132Y019117D01*
X003138Y019054D01*
X003147Y018991D01*
X003160Y018929D01*
X003178Y018868D01*
X003198Y018808D01*
X003223Y018749D01*
X003250Y018692D01*
X003282Y018636D01*
X003316Y018583D01*
X003354Y018532D01*
X003395Y018483D01*
X003439Y018437D01*
X003485Y018393D01*
X003534Y018352D01*
X003585Y018315D01*
X003639Y018280D01*
X003694Y018249D01*
X003751Y018221D01*
X003810Y018197D01*
X003870Y018177D01*
X004490Y018177D02*
X004550Y018197D01*
X004609Y018221D01*
X004666Y018249D01*
X004721Y018280D01*
X004775Y018315D01*
X004826Y018352D01*
X004875Y018393D01*
X004921Y018437D01*
X004965Y018483D01*
X005006Y018532D01*
X005044Y018583D01*
X005078Y018636D01*
X005109Y018692D01*
X005137Y018749D01*
X005162Y018808D01*
X005182Y018868D01*
X005200Y018929D01*
X005213Y018991D01*
X005222Y019054D01*
X005228Y019117D01*
X005230Y019181D01*
X005228Y019245D01*
X005222Y019308D01*
X005213Y019371D01*
X005199Y019433D01*
X005182Y019494D01*
X005161Y019554D01*
X005137Y019613D01*
X005109Y019670D01*
X005077Y019726D01*
X005042Y019779D01*
X005005Y019830D01*
X009067Y017280D02*
X009225Y017280D01*
X012067Y015280D02*
X012293Y015280D01*
X011355Y015830D02*
X011318Y015779D01*
X011283Y015726D01*
X011251Y015670D01*
X011223Y015613D01*
X011199Y015554D01*
X011178Y015494D01*
X011161Y015433D01*
X011147Y015371D01*
X011138Y015308D01*
X011132Y015245D01*
X011130Y015181D01*
X011132Y015117D01*
X011138Y015054D01*
X011147Y014991D01*
X011160Y014929D01*
X011178Y014868D01*
X011198Y014808D01*
X011223Y014749D01*
X011250Y014692D01*
X011282Y014636D01*
X011316Y014583D01*
X011354Y014532D01*
X011395Y014483D01*
X011439Y014437D01*
X011485Y014393D01*
X011534Y014352D01*
X011585Y014315D01*
X011639Y014280D01*
X011694Y014249D01*
X011751Y014221D01*
X011810Y014197D01*
X011870Y014177D01*
X012490Y014177D02*
X012550Y014197D01*
X012609Y014221D01*
X012666Y014249D01*
X012721Y014280D01*
X012775Y014315D01*
X012826Y014352D01*
X012875Y014393D01*
X012921Y014437D01*
X012965Y014483D01*
X013006Y014532D01*
X013044Y014583D01*
X013078Y014636D01*
X013109Y014692D01*
X013137Y014749D01*
X013162Y014808D01*
X013182Y014868D01*
X013200Y014929D01*
X013213Y014991D01*
X013222Y015054D01*
X013228Y015117D01*
X013230Y015181D01*
X013228Y015245D01*
X013222Y015308D01*
X013213Y015371D01*
X013199Y015433D01*
X013182Y015494D01*
X013161Y015554D01*
X013137Y015613D01*
X013109Y015670D01*
X013077Y015726D01*
X013042Y015779D01*
X013005Y015830D01*
X013067Y015280D02*
X013225Y015280D01*
X013293Y017280D02*
X013135Y017280D01*
X014490Y016177D02*
X014550Y016197D01*
X014609Y016221D01*
X014666Y016249D01*
X014721Y016280D01*
X014775Y016315D01*
X014826Y016352D01*
X014875Y016393D01*
X014921Y016437D01*
X014965Y016483D01*
X015006Y016532D01*
X015044Y016583D01*
X015078Y016636D01*
X015109Y016692D01*
X015137Y016749D01*
X015162Y016808D01*
X015182Y016868D01*
X015200Y016929D01*
X015213Y016991D01*
X015222Y017054D01*
X015228Y017117D01*
X015230Y017181D01*
X015228Y017245D01*
X015222Y017308D01*
X015213Y017371D01*
X015199Y017433D01*
X015182Y017494D01*
X015161Y017554D01*
X015137Y017613D01*
X015109Y017670D01*
X015077Y017726D01*
X015042Y017779D01*
X015005Y017830D01*
X016490Y018177D02*
X016550Y018197D01*
X016609Y018221D01*
X016666Y018249D01*
X016721Y018280D01*
X016775Y018315D01*
X016826Y018352D01*
X016875Y018393D01*
X016921Y018437D01*
X016965Y018483D01*
X017006Y018532D01*
X017044Y018583D01*
X017078Y018636D01*
X017109Y018692D01*
X017137Y018749D01*
X017162Y018808D01*
X017182Y018868D01*
X017200Y018929D01*
X017213Y018991D01*
X017222Y019054D01*
X017228Y019117D01*
X017230Y019181D01*
X017228Y019245D01*
X017222Y019308D01*
X017213Y019371D01*
X017199Y019433D01*
X017182Y019494D01*
X017161Y019554D01*
X017137Y019613D01*
X017109Y019670D01*
X017077Y019726D01*
X017042Y019779D01*
X017005Y019830D01*
X016293Y019280D02*
X016067Y019280D01*
X015355Y019830D02*
X015318Y019779D01*
X015283Y019726D01*
X015251Y019670D01*
X015223Y019613D01*
X015199Y019554D01*
X015178Y019494D01*
X015161Y019433D01*
X015147Y019371D01*
X015138Y019308D01*
X015132Y019245D01*
X015130Y019181D01*
X015132Y019117D01*
X015138Y019054D01*
X015147Y018991D01*
X015160Y018929D01*
X015178Y018868D01*
X015198Y018808D01*
X015223Y018749D01*
X015250Y018692D01*
X015282Y018636D01*
X015316Y018583D01*
X015354Y018532D01*
X015395Y018483D01*
X015439Y018437D01*
X015485Y018393D01*
X015534Y018352D01*
X015585Y018315D01*
X015639Y018280D01*
X015694Y018249D01*
X015751Y018221D01*
X015810Y018197D01*
X015870Y018177D01*
X013490Y018177D02*
X013550Y018197D01*
X013609Y018221D01*
X013666Y018249D01*
X013721Y018280D01*
X013775Y018315D01*
X013826Y018352D01*
X013875Y018393D01*
X013921Y018437D01*
X013965Y018483D01*
X014006Y018532D01*
X014044Y018583D01*
X014078Y018636D01*
X014109Y018692D01*
X014137Y018749D01*
X014162Y018808D01*
X014182Y018868D01*
X014200Y018929D01*
X014213Y018991D01*
X014222Y019054D01*
X014228Y019117D01*
X014230Y019181D01*
X014228Y019245D01*
X014222Y019308D01*
X014213Y019371D01*
X014199Y019433D01*
X014182Y019494D01*
X014161Y019554D01*
X014137Y019613D01*
X014109Y019670D01*
X014077Y019726D01*
X014042Y019779D01*
X014005Y019830D01*
X018067Y015280D02*
X018293Y015280D01*
X017355Y015830D02*
X017318Y015779D01*
X017283Y015726D01*
X017251Y015670D01*
X017223Y015613D01*
X017199Y015554D01*
X017178Y015494D01*
X017161Y015433D01*
X017147Y015371D01*
X017138Y015308D01*
X017132Y015245D01*
X017130Y015181D01*
X017132Y015117D01*
X017138Y015054D01*
X017147Y014991D01*
X017160Y014929D01*
X017178Y014868D01*
X017198Y014808D01*
X017223Y014749D01*
X017250Y014692D01*
X017282Y014636D01*
X017316Y014583D01*
X017354Y014532D01*
X017395Y014483D01*
X017439Y014437D01*
X017485Y014393D01*
X017534Y014352D01*
X017585Y014315D01*
X017639Y014280D01*
X017694Y014249D01*
X017751Y014221D01*
X017810Y014197D01*
X017870Y014177D01*
X018490Y014177D02*
X018550Y014197D01*
X018609Y014221D01*
X018666Y014249D01*
X018721Y014280D01*
X018775Y014315D01*
X018826Y014352D01*
X018875Y014393D01*
X018921Y014437D01*
X018965Y014483D01*
X019006Y014532D01*
X019044Y014583D01*
X019078Y014636D01*
X019109Y014692D01*
X019137Y014749D01*
X019162Y014808D01*
X019182Y014868D01*
X019200Y014929D01*
X019213Y014991D01*
X019222Y015054D01*
X019228Y015117D01*
X019230Y015181D01*
X019228Y015245D01*
X019222Y015308D01*
X019213Y015371D01*
X019199Y015433D01*
X019182Y015494D01*
X019161Y015554D01*
X019137Y015613D01*
X019109Y015670D01*
X019077Y015726D01*
X019042Y015779D01*
X019005Y015830D01*
X021067Y015280D02*
X021293Y015280D01*
X020355Y015830D02*
X020318Y015779D01*
X020283Y015726D01*
X020251Y015670D01*
X020223Y015613D01*
X020199Y015554D01*
X020178Y015494D01*
X020161Y015433D01*
X020147Y015371D01*
X020138Y015308D01*
X020132Y015245D01*
X020130Y015181D01*
X020132Y015117D01*
X020138Y015054D01*
X020147Y014991D01*
X020160Y014929D01*
X020178Y014868D01*
X020198Y014808D01*
X020223Y014749D01*
X020250Y014692D01*
X020282Y014636D01*
X020316Y014583D01*
X020354Y014532D01*
X020395Y014483D01*
X020439Y014437D01*
X020485Y014393D01*
X020534Y014352D01*
X020585Y014315D01*
X020639Y014280D01*
X020694Y014249D01*
X020751Y014221D01*
X020810Y014197D01*
X020870Y014177D01*
X021490Y014177D02*
X021550Y014197D01*
X021609Y014221D01*
X021666Y014249D01*
X021721Y014280D01*
X021775Y014315D01*
X021826Y014352D01*
X021875Y014393D01*
X021921Y014437D01*
X021965Y014483D01*
X022006Y014532D01*
X022044Y014583D01*
X022078Y014636D01*
X022109Y014692D01*
X022137Y014749D01*
X022162Y014808D01*
X022182Y014868D01*
X022200Y014929D01*
X022213Y014991D01*
X022222Y015054D01*
X022228Y015117D01*
X022230Y015181D01*
X022228Y015245D01*
X022222Y015308D01*
X022213Y015371D01*
X022199Y015433D01*
X022182Y015494D01*
X022161Y015554D01*
X022137Y015613D01*
X022109Y015670D01*
X022077Y015726D01*
X022042Y015779D01*
X022005Y015830D01*
X022135Y017280D02*
X022293Y017280D01*
X022355Y017830D02*
X024005Y017830D01*
X024067Y017280D02*
X024225Y017280D01*
X025135Y017280D02*
X025293Y017280D01*
X025355Y017830D02*
X027005Y017830D01*
X027067Y017280D02*
X027225Y017280D01*
X026293Y017280D02*
X026067Y017280D01*
X025355Y017830D02*
X025318Y017779D01*
X025283Y017726D01*
X025251Y017670D01*
X025223Y017613D01*
X025199Y017554D01*
X025178Y017494D01*
X025161Y017433D01*
X025147Y017371D01*
X025138Y017308D01*
X025132Y017245D01*
X025130Y017181D01*
X025132Y017117D01*
X025138Y017054D01*
X025147Y016991D01*
X025160Y016929D01*
X025178Y016868D01*
X025198Y016808D01*
X025223Y016749D01*
X025250Y016692D01*
X025282Y016636D01*
X025316Y016583D01*
X025354Y016532D01*
X025395Y016483D01*
X025439Y016437D01*
X025485Y016393D01*
X025534Y016352D01*
X025585Y016315D01*
X025639Y016280D01*
X025694Y016249D01*
X025751Y016221D01*
X025810Y016197D01*
X025870Y016177D01*
X026490Y016177D02*
X026550Y016197D01*
X026609Y016221D01*
X026666Y016249D01*
X026721Y016280D01*
X026775Y016315D01*
X026826Y016352D01*
X026875Y016393D01*
X026921Y016437D01*
X026965Y016483D01*
X027006Y016532D01*
X027044Y016583D01*
X027078Y016636D01*
X027109Y016692D01*
X027137Y016749D01*
X027162Y016808D01*
X027182Y016868D01*
X027200Y016929D01*
X027213Y016991D01*
X027222Y017054D01*
X027228Y017117D01*
X027230Y017181D01*
X027228Y017245D01*
X027222Y017308D01*
X027213Y017371D01*
X027199Y017433D01*
X027182Y017494D01*
X027161Y017554D01*
X027137Y017613D01*
X027109Y017670D01*
X027077Y017726D01*
X027042Y017779D01*
X027005Y017830D01*
X026225Y019280D02*
X026067Y019280D01*
X026005Y019830D02*
X024355Y019830D01*
X024293Y019280D02*
X024135Y019280D01*
X023225Y019280D02*
X023067Y019280D01*
X023005Y019830D02*
X021355Y019830D01*
X021293Y019280D02*
X021135Y019280D01*
X022067Y019280D02*
X022293Y019280D01*
X021355Y019830D02*
X021318Y019779D01*
X021283Y019726D01*
X021251Y019670D01*
X021223Y019613D01*
X021199Y019554D01*
X021178Y019494D01*
X021161Y019433D01*
X021147Y019371D01*
X021138Y019308D01*
X021132Y019245D01*
X021130Y019181D01*
X021132Y019117D01*
X021138Y019054D01*
X021147Y018991D01*
X021160Y018929D01*
X021178Y018868D01*
X021198Y018808D01*
X021223Y018749D01*
X021250Y018692D01*
X021282Y018636D01*
X021316Y018583D01*
X021354Y018532D01*
X021395Y018483D01*
X021439Y018437D01*
X021485Y018393D01*
X021534Y018352D01*
X021585Y018315D01*
X021639Y018280D01*
X021694Y018249D01*
X021751Y018221D01*
X021810Y018197D01*
X021870Y018177D01*
X023067Y017280D02*
X023293Y017280D01*
X022355Y017830D02*
X022318Y017779D01*
X022283Y017726D01*
X022251Y017670D01*
X022223Y017613D01*
X022199Y017554D01*
X022178Y017494D01*
X022161Y017433D01*
X022147Y017371D01*
X022138Y017308D01*
X022132Y017245D01*
X022130Y017181D01*
X022132Y017117D01*
X022138Y017054D01*
X022147Y016991D01*
X022160Y016929D01*
X022178Y016868D01*
X022198Y016808D01*
X022223Y016749D01*
X022250Y016692D01*
X022282Y016636D01*
X022316Y016583D01*
X022354Y016532D01*
X022395Y016483D01*
X022439Y016437D01*
X022485Y016393D01*
X022534Y016352D01*
X022585Y016315D01*
X022639Y016280D01*
X022694Y016249D01*
X022751Y016221D01*
X022810Y016197D01*
X022870Y016177D01*
X023490Y016177D02*
X023550Y016197D01*
X023609Y016221D01*
X023666Y016249D01*
X023721Y016280D01*
X023775Y016315D01*
X023826Y016352D01*
X023875Y016393D01*
X023921Y016437D01*
X023965Y016483D01*
X024006Y016532D01*
X024044Y016583D01*
X024078Y016636D01*
X024109Y016692D01*
X024137Y016749D01*
X024162Y016808D01*
X024182Y016868D01*
X024200Y016929D01*
X024213Y016991D01*
X024222Y017054D01*
X024228Y017117D01*
X024230Y017181D01*
X024228Y017245D01*
X024222Y017308D01*
X024213Y017371D01*
X024199Y017433D01*
X024182Y017494D01*
X024161Y017554D01*
X024137Y017613D01*
X024109Y017670D01*
X024077Y017726D01*
X024042Y017779D01*
X024005Y017830D01*
X025490Y018177D02*
X025550Y018197D01*
X025609Y018221D01*
X025666Y018249D01*
X025721Y018280D01*
X025775Y018315D01*
X025826Y018352D01*
X025875Y018393D01*
X025921Y018437D01*
X025965Y018483D01*
X026006Y018532D01*
X026044Y018583D01*
X026078Y018636D01*
X026109Y018692D01*
X026137Y018749D01*
X026162Y018808D01*
X026182Y018868D01*
X026200Y018929D01*
X026213Y018991D01*
X026222Y019054D01*
X026228Y019117D01*
X026230Y019181D01*
X026228Y019245D01*
X026222Y019308D01*
X026213Y019371D01*
X026199Y019433D01*
X026182Y019494D01*
X026161Y019554D01*
X026137Y019613D01*
X026109Y019670D01*
X026077Y019726D01*
X026042Y019779D01*
X026005Y019830D01*
X025293Y019280D02*
X025067Y019280D01*
X024355Y019830D02*
X024318Y019779D01*
X024283Y019726D01*
X024251Y019670D01*
X024223Y019613D01*
X024199Y019554D01*
X024178Y019494D01*
X024161Y019433D01*
X024147Y019371D01*
X024138Y019308D01*
X024132Y019245D01*
X024130Y019181D01*
X024132Y019117D01*
X024138Y019054D01*
X024147Y018991D01*
X024160Y018929D01*
X024178Y018868D01*
X024198Y018808D01*
X024223Y018749D01*
X024250Y018692D01*
X024282Y018636D01*
X024316Y018583D01*
X024354Y018532D01*
X024395Y018483D01*
X024439Y018437D01*
X024485Y018393D01*
X024534Y018352D01*
X024585Y018315D01*
X024639Y018280D01*
X024694Y018249D01*
X024751Y018221D01*
X024810Y018197D01*
X024870Y018177D01*
X022490Y018177D02*
X022550Y018197D01*
X022609Y018221D01*
X022666Y018249D01*
X022721Y018280D01*
X022775Y018315D01*
X022826Y018352D01*
X022875Y018393D01*
X022921Y018437D01*
X022965Y018483D01*
X023006Y018532D01*
X023044Y018583D01*
X023078Y018636D01*
X023109Y018692D01*
X023137Y018749D01*
X023162Y018808D01*
X023182Y018868D01*
X023200Y018929D01*
X023213Y018991D01*
X023222Y019054D01*
X023228Y019117D01*
X023230Y019181D01*
X023228Y019245D01*
X023222Y019308D01*
X023213Y019371D01*
X023199Y019433D01*
X023182Y019494D01*
X023161Y019554D01*
X023137Y019613D01*
X023109Y019670D01*
X023077Y019726D01*
X023042Y019779D01*
X023005Y019830D01*
X024067Y015280D02*
X024293Y015280D01*
X023355Y015830D02*
X023318Y015779D01*
X023283Y015726D01*
X023251Y015670D01*
X023223Y015613D01*
X023199Y015554D01*
X023178Y015494D01*
X023161Y015433D01*
X023147Y015371D01*
X023138Y015308D01*
X023132Y015245D01*
X023130Y015181D01*
X023132Y015117D01*
X023138Y015054D01*
X023147Y014991D01*
X023160Y014929D01*
X023178Y014868D01*
X023198Y014808D01*
X023223Y014749D01*
X023250Y014692D01*
X023282Y014636D01*
X023316Y014583D01*
X023354Y014532D01*
X023395Y014483D01*
X023439Y014437D01*
X023485Y014393D01*
X023534Y014352D01*
X023585Y014315D01*
X023639Y014280D01*
X023694Y014249D01*
X023751Y014221D01*
X023810Y014197D01*
X023870Y014177D01*
X024490Y014177D02*
X024550Y014197D01*
X024609Y014221D01*
X024666Y014249D01*
X024721Y014280D01*
X024775Y014315D01*
X024826Y014352D01*
X024875Y014393D01*
X024921Y014437D01*
X024965Y014483D01*
X025006Y014532D01*
X025044Y014583D01*
X025078Y014636D01*
X025109Y014692D01*
X025137Y014749D01*
X025162Y014808D01*
X025182Y014868D01*
X025200Y014929D01*
X025213Y014991D01*
X025222Y015054D01*
X025228Y015117D01*
X025230Y015181D01*
X025228Y015245D01*
X025222Y015308D01*
X025213Y015371D01*
X025199Y015433D01*
X025182Y015494D01*
X025161Y015554D01*
X025137Y015613D01*
X025109Y015670D01*
X025077Y015726D01*
X025042Y015779D01*
X025005Y015830D01*
X027067Y015280D02*
X027293Y015280D01*
X026355Y015830D02*
X026318Y015779D01*
X026283Y015726D01*
X026251Y015670D01*
X026223Y015613D01*
X026199Y015554D01*
X026178Y015494D01*
X026161Y015433D01*
X026147Y015371D01*
X026138Y015308D01*
X026132Y015245D01*
X026130Y015181D01*
X026132Y015117D01*
X026138Y015054D01*
X026147Y014991D01*
X026160Y014929D01*
X026178Y014868D01*
X026198Y014808D01*
X026223Y014749D01*
X026250Y014692D01*
X026282Y014636D01*
X026316Y014583D01*
X026354Y014532D01*
X026395Y014483D01*
X026439Y014437D01*
X026485Y014393D01*
X026534Y014352D01*
X026585Y014315D01*
X026639Y014280D01*
X026694Y014249D01*
X026751Y014221D01*
X026810Y014197D01*
X026870Y014177D01*
X027490Y014177D02*
X027550Y014197D01*
X027609Y014221D01*
X027666Y014249D01*
X027721Y014280D01*
X027775Y014315D01*
X027826Y014352D01*
X027875Y014393D01*
X027921Y014437D01*
X027965Y014483D01*
X028006Y014532D01*
X028044Y014583D01*
X028078Y014636D01*
X028109Y014692D01*
X028137Y014749D01*
X028162Y014808D01*
X028182Y014868D01*
X028200Y014929D01*
X028213Y014991D01*
X028222Y015054D01*
X028228Y015117D01*
X028230Y015181D01*
X028228Y015245D01*
X028222Y015308D01*
X028213Y015371D01*
X028199Y015433D01*
X028182Y015494D01*
X028161Y015554D01*
X028137Y015613D01*
X028109Y015670D01*
X028077Y015726D01*
X028042Y015779D01*
X028005Y015830D01*
X031135Y017280D02*
X031293Y017280D01*
X031355Y017830D02*
X033005Y017830D01*
X033067Y017280D02*
X033225Y017280D01*
X034135Y017280D02*
X034293Y017280D01*
X034355Y017830D02*
X036005Y017830D01*
X036067Y017280D02*
X036225Y017280D01*
X035293Y017280D02*
X035067Y017280D01*
X034355Y017830D02*
X034318Y017779D01*
X034283Y017726D01*
X034251Y017670D01*
X034223Y017613D01*
X034199Y017554D01*
X034178Y017494D01*
X034161Y017433D01*
X034147Y017371D01*
X034138Y017308D01*
X034132Y017245D01*
X034130Y017181D01*
X034132Y017117D01*
X034138Y017054D01*
X034147Y016991D01*
X034160Y016929D01*
X034178Y016868D01*
X034198Y016808D01*
X034223Y016749D01*
X034250Y016692D01*
X034282Y016636D01*
X034316Y016583D01*
X034354Y016532D01*
X034395Y016483D01*
X034439Y016437D01*
X034485Y016393D01*
X034534Y016352D01*
X034585Y016315D01*
X034639Y016280D01*
X034694Y016249D01*
X034751Y016221D01*
X034810Y016197D01*
X034870Y016177D01*
X035355Y015830D02*
X037005Y015830D01*
X037067Y015280D02*
X037225Y015280D01*
X036293Y015280D02*
X036067Y015280D01*
X035355Y015830D02*
X035318Y015779D01*
X035283Y015726D01*
X035251Y015670D01*
X035223Y015613D01*
X035199Y015554D01*
X035178Y015494D01*
X035161Y015433D01*
X035147Y015371D01*
X035138Y015308D01*
X035132Y015245D01*
X035130Y015181D01*
X035132Y015117D01*
X035138Y015054D01*
X035147Y014991D01*
X035160Y014929D01*
X035178Y014868D01*
X035198Y014808D01*
X035223Y014749D01*
X035250Y014692D01*
X035282Y014636D01*
X035316Y014583D01*
X035354Y014532D01*
X035395Y014483D01*
X035439Y014437D01*
X035485Y014393D01*
X035534Y014352D01*
X035585Y014315D01*
X035639Y014280D01*
X035694Y014249D01*
X035751Y014221D01*
X035810Y014197D01*
X035870Y014177D01*
X036490Y014177D02*
X036550Y014197D01*
X036609Y014221D01*
X036666Y014249D01*
X036721Y014280D01*
X036775Y014315D01*
X036826Y014352D01*
X036875Y014393D01*
X036921Y014437D01*
X036965Y014483D01*
X037006Y014532D01*
X037044Y014583D01*
X037078Y014636D01*
X037109Y014692D01*
X037137Y014749D01*
X037162Y014808D01*
X037182Y014868D01*
X037200Y014929D01*
X037213Y014991D01*
X037222Y015054D01*
X037228Y015117D01*
X037230Y015181D01*
X037228Y015245D01*
X037222Y015308D01*
X037213Y015371D01*
X037199Y015433D01*
X037182Y015494D01*
X037161Y015554D01*
X037137Y015613D01*
X037109Y015670D01*
X037077Y015726D01*
X037042Y015779D01*
X037005Y015830D01*
X035293Y015280D02*
X035135Y015280D01*
X034225Y015280D02*
X034067Y015280D01*
X033293Y015280D02*
X033067Y015280D01*
X032355Y015830D02*
X032318Y015779D01*
X032283Y015726D01*
X032251Y015670D01*
X032223Y015613D01*
X032199Y015554D01*
X032178Y015494D01*
X032161Y015433D01*
X032147Y015371D01*
X032138Y015308D01*
X032132Y015245D01*
X032130Y015181D01*
X032132Y015117D01*
X032138Y015054D01*
X032147Y014991D01*
X032160Y014929D01*
X032178Y014868D01*
X032198Y014808D01*
X032223Y014749D01*
X032250Y014692D01*
X032282Y014636D01*
X032316Y014583D01*
X032354Y014532D01*
X032395Y014483D01*
X032439Y014437D01*
X032485Y014393D01*
X032534Y014352D01*
X032585Y014315D01*
X032639Y014280D01*
X032694Y014249D01*
X032751Y014221D01*
X032810Y014197D01*
X032870Y014177D01*
X032490Y016177D02*
X032550Y016197D01*
X032609Y016221D01*
X032666Y016249D01*
X032721Y016280D01*
X032775Y016315D01*
X032826Y016352D01*
X032875Y016393D01*
X032921Y016437D01*
X032965Y016483D01*
X033006Y016532D01*
X033044Y016583D01*
X033078Y016636D01*
X033109Y016692D01*
X033137Y016749D01*
X033162Y016808D01*
X033182Y016868D01*
X033200Y016929D01*
X033213Y016991D01*
X033222Y017054D01*
X033228Y017117D01*
X033230Y017181D01*
X033228Y017245D01*
X033222Y017308D01*
X033213Y017371D01*
X033199Y017433D01*
X033182Y017494D01*
X033161Y017554D01*
X033137Y017613D01*
X033109Y017670D01*
X033077Y017726D01*
X033042Y017779D01*
X033005Y017830D01*
X032293Y017280D02*
X032067Y017280D01*
X031355Y017830D02*
X031318Y017779D01*
X031283Y017726D01*
X031251Y017670D01*
X031223Y017613D01*
X031199Y017554D01*
X031178Y017494D01*
X031161Y017433D01*
X031147Y017371D01*
X031138Y017308D01*
X031132Y017245D01*
X031130Y017181D01*
X031132Y017117D01*
X031138Y017054D01*
X031147Y016991D01*
X031160Y016929D01*
X031178Y016868D01*
X031198Y016808D01*
X031223Y016749D01*
X031250Y016692D01*
X031282Y016636D01*
X031316Y016583D01*
X031354Y016532D01*
X031395Y016483D01*
X031439Y016437D01*
X031485Y016393D01*
X031534Y016352D01*
X031585Y016315D01*
X031639Y016280D01*
X031694Y016249D01*
X031751Y016221D01*
X031810Y016197D01*
X031870Y016177D01*
X035490Y016177D02*
X035550Y016197D01*
X035609Y016221D01*
X035666Y016249D01*
X035721Y016280D01*
X035775Y016315D01*
X035826Y016352D01*
X035875Y016393D01*
X035921Y016437D01*
X035965Y016483D01*
X036006Y016532D01*
X036044Y016583D01*
X036078Y016636D01*
X036109Y016692D01*
X036137Y016749D01*
X036162Y016808D01*
X036182Y016868D01*
X036200Y016929D01*
X036213Y016991D01*
X036222Y017054D01*
X036228Y017117D01*
X036230Y017181D01*
X036228Y017245D01*
X036222Y017308D01*
X036213Y017371D01*
X036199Y017433D01*
X036182Y017494D01*
X036161Y017554D01*
X036137Y017613D01*
X036109Y017670D01*
X036077Y017726D01*
X036042Y017779D01*
X036005Y017830D01*
X035225Y019280D02*
X035067Y019280D01*
X035005Y019830D02*
X033355Y019830D01*
X033293Y019280D02*
X033135Y019280D01*
X034067Y019280D02*
X034293Y019280D01*
X033355Y019830D02*
X033318Y019779D01*
X033283Y019726D01*
X033251Y019670D01*
X033223Y019613D01*
X033199Y019554D01*
X033178Y019494D01*
X033161Y019433D01*
X033147Y019371D01*
X033138Y019308D01*
X033132Y019245D01*
X033130Y019181D01*
X033132Y019117D01*
X033138Y019054D01*
X033147Y018991D01*
X033160Y018929D01*
X033178Y018868D01*
X033198Y018808D01*
X033223Y018749D01*
X033250Y018692D01*
X033282Y018636D01*
X033316Y018583D01*
X033354Y018532D01*
X033395Y018483D01*
X033439Y018437D01*
X033485Y018393D01*
X033534Y018352D01*
X033585Y018315D01*
X033639Y018280D01*
X033694Y018249D01*
X033751Y018221D01*
X033810Y018197D01*
X033870Y018177D01*
X034490Y018177D02*
X034550Y018197D01*
X034609Y018221D01*
X034666Y018249D01*
X034721Y018280D01*
X034775Y018315D01*
X034826Y018352D01*
X034875Y018393D01*
X034921Y018437D01*
X034965Y018483D01*
X035006Y018532D01*
X035044Y018583D01*
X035078Y018636D01*
X035109Y018692D01*
X035137Y018749D01*
X035162Y018808D01*
X035182Y018868D01*
X035200Y018929D01*
X035213Y018991D01*
X035222Y019054D01*
X035228Y019117D01*
X035230Y019181D01*
X035228Y019245D01*
X035222Y019308D01*
X035213Y019371D01*
X035199Y019433D01*
X035182Y019494D01*
X035161Y019554D01*
X035137Y019613D01*
X035109Y019670D01*
X035077Y019726D01*
X035042Y019779D01*
X035005Y019830D01*
X032225Y019280D02*
X032067Y019280D01*
X032005Y019830D02*
X030355Y019830D01*
X030293Y019280D02*
X030135Y019280D01*
X031067Y019280D02*
X031293Y019280D01*
X030355Y019830D02*
X030318Y019779D01*
X030283Y019726D01*
X030251Y019670D01*
X030223Y019613D01*
X030199Y019554D01*
X030178Y019494D01*
X030161Y019433D01*
X030147Y019371D01*
X030138Y019308D01*
X030132Y019245D01*
X030130Y019181D01*
X030132Y019117D01*
X030138Y019054D01*
X030147Y018991D01*
X030160Y018929D01*
X030178Y018868D01*
X030198Y018808D01*
X030223Y018749D01*
X030250Y018692D01*
X030282Y018636D01*
X030316Y018583D01*
X030354Y018532D01*
X030395Y018483D01*
X030439Y018437D01*
X030485Y018393D01*
X030534Y018352D01*
X030585Y018315D01*
X030639Y018280D01*
X030694Y018249D01*
X030751Y018221D01*
X030810Y018197D01*
X030870Y018177D01*
X031490Y018177D02*
X031550Y018197D01*
X031609Y018221D01*
X031666Y018249D01*
X031721Y018280D01*
X031775Y018315D01*
X031826Y018352D01*
X031875Y018393D01*
X031921Y018437D01*
X031965Y018483D01*
X032006Y018532D01*
X032044Y018583D01*
X032078Y018636D01*
X032109Y018692D01*
X032137Y018749D01*
X032162Y018808D01*
X032182Y018868D01*
X032200Y018929D01*
X032213Y018991D01*
X032222Y019054D01*
X032228Y019117D01*
X032230Y019181D01*
X032228Y019245D01*
X032222Y019308D01*
X032213Y019371D01*
X032199Y019433D01*
X032182Y019494D01*
X032161Y019554D01*
X032137Y019613D01*
X032109Y019670D01*
X032077Y019726D01*
X032042Y019779D01*
X032005Y019830D01*
X036680Y024430D02*
X036930Y024180D01*
X037430Y024180D01*
X037680Y024430D01*
X037680Y024930D01*
X037430Y025180D01*
X037680Y025430D01*
X037680Y025930D01*
X037430Y026180D01*
X036930Y026180D01*
X036680Y025930D01*
X036680Y025430D01*
X036930Y025180D01*
X036680Y024930D01*
X036680Y024430D01*
M02*
