G75*
%MOIN*%
%OFA0B0*%
%FSLAX24Y24*%
%IPPOS*%
%LPD*%
%AMOC8*
5,1,8,0,0,1.08239X$1,22.5*
%
%ADD10C,0.0600*%
%ADD11C,0.0680*%
%ADD12C,0.0820*%
%ADD13C,0.1380*%
%ADD14C,0.0480*%
D10*
X002180Y009920D02*
X002180Y010440D01*
X003180Y010440D02*
X003180Y009920D01*
X004180Y009920D02*
X004180Y010440D01*
X005180Y010440D02*
X005180Y009920D01*
X006180Y009920D02*
X006180Y010440D01*
X007180Y010440D02*
X007180Y009920D01*
X008180Y009920D02*
X008180Y010440D01*
X009180Y010440D02*
X009180Y009920D01*
X011180Y009920D02*
X011180Y010440D01*
X012180Y010440D02*
X012180Y009920D01*
X013180Y009920D02*
X013180Y010440D01*
X014180Y010440D02*
X014180Y009920D01*
X015180Y009920D02*
X015180Y010440D01*
X016180Y010440D02*
X016180Y009920D01*
X017180Y009920D02*
X017180Y010440D01*
X018180Y010440D02*
X018180Y009920D01*
X020180Y009920D02*
X020180Y010440D01*
X021180Y010440D02*
X021180Y009920D01*
X022180Y009920D02*
X022180Y010440D01*
X023180Y010440D02*
X023180Y009920D01*
X024180Y009920D02*
X024180Y010440D01*
X025180Y010440D02*
X025180Y009920D01*
X026180Y009920D02*
X026180Y010440D01*
X027180Y010440D02*
X027180Y009920D01*
X029180Y009920D02*
X029180Y010440D01*
X030180Y010440D02*
X030180Y009920D01*
X031180Y009920D02*
X031180Y010440D01*
X032180Y010440D02*
X032180Y009920D01*
X033180Y009920D02*
X033180Y010440D01*
X034180Y010440D02*
X034180Y009920D01*
X035180Y009920D02*
X035180Y010440D01*
X036180Y010440D02*
X036180Y009920D01*
X036180Y012920D02*
X036180Y013440D01*
X035180Y013440D02*
X035180Y012920D01*
X034180Y012920D02*
X034180Y013440D01*
X033180Y013440D02*
X033180Y012920D01*
X032180Y012920D02*
X032180Y013440D01*
X031180Y013440D02*
X031180Y012920D01*
X030180Y012920D02*
X030180Y013440D01*
X029180Y013440D02*
X029180Y012920D01*
X027180Y012920D02*
X027180Y013440D01*
X026180Y013440D02*
X026180Y012920D01*
X025180Y012920D02*
X025180Y013440D01*
X024180Y013440D02*
X024180Y012920D01*
X023180Y012920D02*
X023180Y013440D01*
X022180Y013440D02*
X022180Y012920D01*
X021180Y012920D02*
X021180Y013440D01*
X020180Y013440D02*
X020180Y012920D01*
X018180Y012920D02*
X018180Y013440D01*
X017180Y013440D02*
X017180Y012920D01*
X016180Y012920D02*
X016180Y013440D01*
X015180Y013440D02*
X015180Y012920D01*
X014180Y012920D02*
X014180Y013440D01*
X013180Y013440D02*
X013180Y012920D01*
X012180Y012920D02*
X012180Y013440D01*
X011180Y013440D02*
X011180Y012920D01*
X009180Y012920D02*
X009180Y013440D01*
X008180Y013440D02*
X008180Y012920D01*
X007180Y012920D02*
X007180Y013440D01*
X006180Y013440D02*
X006180Y012920D01*
X005180Y012920D02*
X005180Y013440D01*
X004180Y013440D02*
X004180Y012920D01*
X003180Y012920D02*
X003180Y013440D01*
X002180Y013440D02*
X002180Y012920D01*
D11*
X008180Y022930D03*
X006902Y023245D03*
X005917Y024118D03*
X005450Y025349D03*
X005609Y026655D03*
X006356Y027738D03*
X007522Y028350D03*
X008838Y028350D03*
X010004Y027738D03*
X010751Y026655D03*
X010910Y025349D03*
X010443Y024118D03*
X009458Y023245D03*
X012950Y025349D03*
X013109Y026655D03*
X013856Y027738D03*
X015022Y028350D03*
X016338Y028350D03*
X017504Y027738D03*
X018251Y026655D03*
X018410Y025349D03*
X017943Y024118D03*
X016958Y023245D03*
X015680Y022930D03*
X014402Y023245D03*
X013417Y024118D03*
X020950Y025349D03*
X021109Y026655D03*
X021856Y027738D03*
X023022Y028350D03*
X024338Y028350D03*
X025504Y027738D03*
X026251Y026655D03*
X026410Y025349D03*
X025943Y024118D03*
X024958Y023245D03*
X023680Y022930D03*
X022402Y023245D03*
X021417Y024118D03*
X028450Y025349D03*
X028609Y026655D03*
X029356Y027738D03*
X030522Y028350D03*
X031838Y028350D03*
X033004Y027738D03*
X033751Y026655D03*
X033910Y025349D03*
X033443Y024118D03*
X032458Y023245D03*
X031180Y022930D03*
X029902Y023245D03*
X028917Y024118D03*
D12*
X030680Y019180D03*
X031680Y019180D03*
X031180Y018430D03*
X031680Y017180D03*
X032180Y016430D03*
X032680Y017180D03*
X034180Y018430D03*
X033680Y019180D03*
X034680Y019180D03*
X034680Y017180D03*
X035180Y016430D03*
X035680Y017180D03*
X035680Y015180D03*
X036680Y015180D03*
X036180Y014430D03*
X033680Y015180D03*
X033180Y014430D03*
X032680Y015180D03*
X030680Y015180D03*
X030180Y014430D03*
X029680Y015180D03*
X027680Y015180D03*
X026680Y015180D03*
X027180Y014430D03*
X024680Y015180D03*
X024180Y014430D03*
X023680Y015180D03*
X023180Y016430D03*
X022680Y017180D03*
X023680Y017180D03*
X022180Y018430D03*
X021680Y019180D03*
X022680Y019180D03*
X024680Y019180D03*
X025680Y019180D03*
X025180Y018430D03*
X025680Y017180D03*
X026180Y016430D03*
X026680Y017180D03*
X021680Y015180D03*
X020680Y015180D03*
X021180Y014430D03*
X018680Y015180D03*
X018180Y014430D03*
X017680Y015180D03*
X017180Y016430D03*
X016680Y017180D03*
X017680Y017180D03*
X016180Y018430D03*
X015680Y019180D03*
X016680Y019180D03*
X014680Y017180D03*
X014180Y016430D03*
X013680Y017180D03*
X013180Y018430D03*
X012680Y019180D03*
X013680Y019180D03*
X008680Y017180D03*
X008180Y016430D03*
X007680Y017180D03*
X007180Y018430D03*
X006680Y019180D03*
X007680Y019180D03*
X005680Y017180D03*
X005180Y016430D03*
X004680Y017180D03*
X004180Y018430D03*
X003680Y019180D03*
X004680Y019180D03*
X005680Y015180D03*
X006680Y015180D03*
X006180Y014430D03*
X008680Y015180D03*
X009680Y015180D03*
X009180Y014430D03*
X011680Y015180D03*
X012180Y014430D03*
X012680Y015180D03*
X014680Y015180D03*
X015680Y015180D03*
X015180Y014430D03*
X017180Y008930D03*
X016680Y008180D03*
X017680Y008180D03*
X025680Y008180D03*
X026180Y008930D03*
X026680Y008180D03*
X034680Y008180D03*
X035180Y008930D03*
X035680Y008180D03*
X034180Y001680D03*
X033180Y001680D03*
X032180Y001680D03*
X031180Y001680D03*
X030180Y001680D03*
X029180Y001680D03*
X028180Y001680D03*
X008680Y008180D03*
X007680Y008180D03*
X008180Y008930D03*
X037180Y024680D03*
X037180Y025680D03*
D13*
X001680Y001680D03*
X001680Y020180D03*
X001680Y028680D03*
X038680Y028680D03*
X038680Y020180D03*
X038680Y001680D03*
D14*
X031180Y007680D03*
X030180Y006180D03*
X022180Y011680D03*
X018680Y011680D03*
X018180Y007680D03*
X014180Y006680D03*
X010180Y010680D03*
X009680Y011680D03*
X009180Y016680D03*
X008180Y018180D03*
X006680Y020680D03*
X003180Y021180D03*
X009680Y024180D03*
X011680Y024180D03*
X017680Y025680D03*
X023680Y020680D03*
X028680Y023180D03*
X029180Y023180D03*
X030180Y024180D03*
X031180Y024180D03*
X031180Y026680D03*
X020180Y016180D03*
X019680Y016180D03*
M02*
