G75*
%MOIN*%
%OFA0B0*%
%FSLAX24Y24*%
%IPPOS*%
%LPD*%
%AMOC8*
5,1,8,0,0,1.08239X$1,22.5*
%
%ADD10C,0.0080*%
%ADD11R,0.4000X0.0400*%
%ADD12C,0.0010*%
%ADD13C,0.0100*%
%ADD14C,0.0060*%
%ADD15C,0.0050*%
D10*
X003780Y006650D02*
X003780Y009350D01*
X003782Y009409D01*
X003788Y009467D01*
X003797Y009526D01*
X003811Y009583D01*
X003828Y009639D01*
X003849Y009694D01*
X003873Y009748D01*
X003901Y009800D01*
X003932Y009850D01*
X003966Y009898D01*
X004003Y009943D01*
X004044Y009986D01*
X004087Y010027D01*
X004132Y010064D01*
X004180Y010098D01*
X004230Y010129D01*
X004282Y010157D01*
X004336Y010181D01*
X004391Y010202D01*
X004447Y010219D01*
X004504Y010233D01*
X004563Y010242D01*
X004621Y010248D01*
X004680Y010250D01*
X004739Y010248D01*
X004797Y010242D01*
X004856Y010233D01*
X004913Y010219D01*
X004969Y010202D01*
X005024Y010181D01*
X005078Y010157D01*
X005130Y010129D01*
X005180Y010098D01*
X005228Y010064D01*
X005273Y010027D01*
X005316Y009986D01*
X005357Y009943D01*
X005394Y009898D01*
X005428Y009850D01*
X005459Y009800D01*
X005487Y009748D01*
X005511Y009694D01*
X005532Y009639D01*
X005549Y009583D01*
X005563Y009526D01*
X005572Y009467D01*
X005578Y009409D01*
X005580Y009350D01*
X005580Y006650D01*
X005578Y006591D01*
X005572Y006533D01*
X005563Y006474D01*
X005549Y006417D01*
X005532Y006361D01*
X005511Y006306D01*
X005487Y006252D01*
X005459Y006200D01*
X005428Y006150D01*
X005394Y006102D01*
X005357Y006057D01*
X005316Y006014D01*
X005273Y005973D01*
X005228Y005936D01*
X005180Y005902D01*
X005130Y005871D01*
X005078Y005843D01*
X005024Y005819D01*
X004969Y005798D01*
X004913Y005781D01*
X004856Y005767D01*
X004797Y005758D01*
X004739Y005752D01*
X004680Y005750D01*
X004621Y005752D01*
X004563Y005758D01*
X004504Y005767D01*
X004447Y005781D01*
X004391Y005798D01*
X004336Y005819D01*
X004282Y005843D01*
X004230Y005871D01*
X004180Y005902D01*
X004132Y005936D01*
X004087Y005973D01*
X004044Y006014D01*
X004003Y006057D01*
X003966Y006102D01*
X003932Y006150D01*
X003901Y006200D01*
X003873Y006252D01*
X003849Y006306D01*
X003828Y006361D01*
X003811Y006417D01*
X003797Y006474D01*
X003788Y006533D01*
X003782Y006591D01*
X003780Y006650D01*
X002180Y006750D02*
X002180Y007250D01*
X002180Y008750D02*
X002180Y009250D01*
X002180Y010750D02*
X002180Y011250D01*
X012580Y011000D02*
X012680Y011000D01*
X012780Y011000D01*
X012680Y011000D02*
X012680Y010700D01*
X012680Y011000D02*
X012680Y011300D01*
X025480Y010405D02*
X025480Y009600D01*
X025980Y010000D02*
X025982Y010052D01*
X025988Y010104D01*
X025998Y010156D01*
X026011Y010206D01*
X026028Y010256D01*
X026049Y010304D01*
X026074Y010350D01*
X026102Y010394D01*
X026133Y010436D01*
X026167Y010476D01*
X026204Y010513D01*
X026244Y010547D01*
X026286Y010578D01*
X026330Y010606D01*
X026376Y010631D01*
X026424Y010652D01*
X026474Y010669D01*
X026524Y010682D01*
X026576Y010692D01*
X026628Y010698D01*
X026680Y010700D01*
X026732Y010698D01*
X026784Y010692D01*
X026836Y010682D01*
X026886Y010669D01*
X026936Y010652D01*
X026984Y010631D01*
X027030Y010606D01*
X027074Y010578D01*
X027116Y010547D01*
X027156Y010513D01*
X027193Y010476D01*
X027227Y010436D01*
X027258Y010394D01*
X027286Y010350D01*
X027311Y010304D01*
X027332Y010256D01*
X027349Y010206D01*
X027362Y010156D01*
X027372Y010104D01*
X027378Y010052D01*
X027380Y010000D01*
X027378Y009948D01*
X027372Y009896D01*
X027362Y009844D01*
X027349Y009794D01*
X027332Y009744D01*
X027311Y009696D01*
X027286Y009650D01*
X027258Y009606D01*
X027227Y009564D01*
X027193Y009524D01*
X027156Y009487D01*
X027116Y009453D01*
X027074Y009422D01*
X027030Y009394D01*
X026984Y009369D01*
X026936Y009348D01*
X026886Y009331D01*
X026836Y009318D01*
X026784Y009308D01*
X026732Y009302D01*
X026680Y009300D01*
X026628Y009302D01*
X026576Y009308D01*
X026524Y009318D01*
X026474Y009331D01*
X026424Y009348D01*
X026376Y009369D01*
X026330Y009394D01*
X026286Y009422D01*
X026244Y009453D01*
X026204Y009487D01*
X026167Y009524D01*
X026133Y009564D01*
X026102Y009606D01*
X026074Y009650D01*
X026049Y009696D01*
X026028Y009744D01*
X026011Y009794D01*
X025998Y009844D01*
X025988Y009896D01*
X025982Y009948D01*
X025980Y010000D01*
X025830Y011200D02*
X027530Y011200D01*
X027880Y010393D02*
X027880Y009600D01*
X027530Y008800D02*
X025830Y008800D01*
X029680Y009250D02*
X029680Y009750D01*
X031180Y009750D02*
X031180Y009250D01*
X031430Y009000D01*
X031930Y009000D01*
X032180Y009250D01*
X032430Y009000D01*
X032930Y009000D01*
X033180Y009250D01*
X033430Y009000D01*
X033930Y009000D01*
X034180Y009250D01*
X034430Y009000D01*
X034930Y009000D01*
X035180Y009250D01*
X035430Y009000D01*
X035930Y009000D01*
X036180Y009250D01*
X036430Y009000D01*
X036930Y009000D01*
X037180Y009250D01*
X037180Y009750D01*
X036930Y010000D01*
X036430Y010000D01*
X036180Y009750D01*
X035930Y010000D01*
X035430Y010000D01*
X035180Y009750D01*
X034930Y010000D01*
X034430Y010000D01*
X034180Y009750D01*
X033930Y010000D01*
X033430Y010000D01*
X033180Y009750D01*
X032930Y010000D01*
X032430Y010000D01*
X032180Y009750D01*
X031930Y010000D01*
X031430Y010000D01*
X031180Y009750D01*
X033180Y011750D02*
X033180Y012250D01*
X033330Y013100D02*
X036030Y013100D01*
X036089Y013102D01*
X036147Y013108D01*
X036206Y013117D01*
X036263Y013131D01*
X036319Y013148D01*
X036374Y013169D01*
X036428Y013193D01*
X036480Y013221D01*
X036530Y013252D01*
X036578Y013286D01*
X036623Y013323D01*
X036666Y013364D01*
X036707Y013407D01*
X036744Y013452D01*
X036778Y013500D01*
X036809Y013550D01*
X036837Y013602D01*
X036861Y013656D01*
X036882Y013711D01*
X036899Y013767D01*
X036913Y013824D01*
X036922Y013883D01*
X036928Y013941D01*
X036930Y014000D01*
X036928Y014059D01*
X036922Y014117D01*
X036913Y014176D01*
X036899Y014233D01*
X036882Y014289D01*
X036861Y014344D01*
X036837Y014398D01*
X036809Y014450D01*
X036778Y014500D01*
X036744Y014548D01*
X036707Y014593D01*
X036666Y014636D01*
X036623Y014677D01*
X036578Y014714D01*
X036530Y014748D01*
X036480Y014779D01*
X036428Y014807D01*
X036374Y014831D01*
X036319Y014852D01*
X036263Y014869D01*
X036206Y014883D01*
X036147Y014892D01*
X036089Y014898D01*
X036030Y014900D01*
X033330Y014900D01*
X033271Y014898D01*
X033213Y014892D01*
X033154Y014883D01*
X033097Y014869D01*
X033041Y014852D01*
X032986Y014831D01*
X032932Y014807D01*
X032880Y014779D01*
X032830Y014748D01*
X032782Y014714D01*
X032737Y014677D01*
X032694Y014636D01*
X032653Y014593D01*
X032616Y014548D01*
X032582Y014500D01*
X032551Y014450D01*
X032523Y014398D01*
X032499Y014344D01*
X032478Y014289D01*
X032461Y014233D01*
X032447Y014176D01*
X032438Y014117D01*
X032432Y014059D01*
X032430Y014000D01*
X032432Y013941D01*
X032438Y013883D01*
X032447Y013824D01*
X032461Y013767D01*
X032478Y013711D01*
X032499Y013656D01*
X032523Y013602D01*
X032551Y013550D01*
X032582Y013500D01*
X032616Y013452D01*
X032653Y013407D01*
X032694Y013364D01*
X032737Y013323D01*
X032782Y013286D01*
X032830Y013252D01*
X032880Y013221D01*
X032932Y013193D01*
X032986Y013169D01*
X033041Y013148D01*
X033097Y013131D01*
X033154Y013117D01*
X033213Y013108D01*
X033271Y013102D01*
X033330Y013100D01*
X035180Y012250D02*
X035180Y011750D01*
X039580Y016300D02*
X039680Y016300D01*
X039680Y018700D01*
X039580Y018700D01*
X025780Y018700D02*
X025680Y018700D01*
X025680Y018000D01*
X025724Y017998D01*
X025767Y017992D01*
X025809Y017983D01*
X025851Y017970D01*
X025891Y017953D01*
X025930Y017933D01*
X025967Y017910D01*
X026001Y017883D01*
X026034Y017854D01*
X026063Y017821D01*
X026090Y017787D01*
X026113Y017750D01*
X026133Y017711D01*
X026150Y017671D01*
X026163Y017629D01*
X026172Y017587D01*
X026178Y017544D01*
X026180Y017500D01*
X026178Y017456D01*
X026172Y017413D01*
X026163Y017371D01*
X026150Y017329D01*
X026133Y017289D01*
X026113Y017250D01*
X026090Y017213D01*
X026063Y017179D01*
X026034Y017146D01*
X026001Y017117D01*
X025967Y017090D01*
X025930Y017067D01*
X025891Y017047D01*
X025851Y017030D01*
X025809Y017017D01*
X025767Y017008D01*
X025724Y017002D01*
X025680Y017000D01*
X025680Y016300D01*
X025780Y016300D01*
X020180Y020250D02*
X020180Y020750D01*
X017280Y020500D02*
X017180Y020500D01*
X017080Y020500D01*
X017180Y020500D02*
X017180Y020800D01*
X017180Y020500D02*
X017180Y020200D01*
X015680Y020350D02*
X015680Y021300D01*
X015680Y021700D01*
X011680Y021700D01*
X011680Y021300D01*
X015680Y021300D01*
X015680Y020350D02*
X015679Y020316D01*
X015675Y020281D01*
X015667Y020248D01*
X015656Y020215D01*
X015641Y020184D01*
X015624Y020154D01*
X015603Y020126D01*
X015580Y020100D01*
X015554Y020077D01*
X015526Y020056D01*
X015496Y020039D01*
X015465Y020024D01*
X015432Y020013D01*
X015399Y020005D01*
X015364Y020001D01*
X015330Y020000D01*
X015180Y020000D01*
X012180Y020000D02*
X012030Y020000D01*
X011996Y020001D01*
X011961Y020005D01*
X011928Y020013D01*
X011895Y020024D01*
X011864Y020039D01*
X011834Y020056D01*
X011806Y020077D01*
X011780Y020100D01*
X011757Y020126D01*
X011736Y020154D01*
X011719Y020184D01*
X011704Y020215D01*
X011693Y020248D01*
X011685Y020281D01*
X011681Y020316D01*
X011680Y020350D01*
X011680Y021300D01*
X009780Y020500D02*
X009680Y020500D01*
X009580Y020500D01*
X009680Y020500D02*
X009680Y020200D01*
X009680Y020500D02*
X009680Y020800D01*
X008180Y020350D02*
X008180Y021300D01*
X008180Y021700D01*
X004180Y021700D01*
X004180Y021300D01*
X008180Y021300D01*
X008180Y020350D02*
X008179Y020316D01*
X008175Y020281D01*
X008167Y020248D01*
X008156Y020215D01*
X008141Y020184D01*
X008124Y020154D01*
X008103Y020126D01*
X008080Y020100D01*
X008054Y020077D01*
X008026Y020056D01*
X007996Y020039D01*
X007965Y020024D01*
X007932Y020013D01*
X007899Y020005D01*
X007864Y020001D01*
X007830Y020000D01*
X007680Y020000D01*
X004680Y020000D02*
X004530Y020000D01*
X004496Y020001D01*
X004461Y020005D01*
X004428Y020013D01*
X004395Y020024D01*
X004364Y020039D01*
X004334Y020056D01*
X004306Y020077D01*
X004280Y020100D01*
X004257Y020126D01*
X004236Y020154D01*
X004219Y020184D01*
X004204Y020215D01*
X004193Y020248D01*
X004185Y020281D01*
X004181Y020316D01*
X004180Y020350D01*
X004180Y021300D01*
X013180Y003250D02*
X013180Y002750D01*
D11*
X013680Y021500D03*
X006180Y021500D03*
D12*
X008949Y021577D02*
X009027Y021622D01*
X009027Y021621D02*
X009055Y021577D01*
X009086Y021535D01*
X009119Y021495D01*
X009155Y021457D01*
X009194Y021422D01*
X009235Y021390D01*
X009279Y021360D01*
X009324Y021334D01*
X009371Y021311D01*
X009419Y021291D01*
X009469Y021275D01*
X009519Y021262D01*
X009571Y021253D01*
X009623Y021247D01*
X009675Y021245D01*
X009676Y021156D01*
X009675Y021155D01*
X009620Y021157D01*
X009566Y021163D01*
X009511Y021172D01*
X009458Y021185D01*
X009406Y021201D01*
X009354Y021220D01*
X009304Y021243D01*
X009256Y021269D01*
X009209Y021298D01*
X009165Y021330D01*
X009122Y021365D01*
X009082Y021403D01*
X009045Y021443D01*
X009010Y021485D01*
X008978Y021530D01*
X008949Y021576D01*
X008957Y021581D01*
X008985Y021535D01*
X009017Y021491D01*
X009052Y021449D01*
X009089Y021409D01*
X009128Y021372D01*
X009170Y021337D01*
X009214Y021306D01*
X009260Y021277D01*
X009308Y021251D01*
X009358Y021229D01*
X009408Y021209D01*
X009460Y021193D01*
X009513Y021181D01*
X009567Y021172D01*
X009621Y021166D01*
X009675Y021164D01*
X009675Y021173D01*
X009621Y021175D01*
X009568Y021181D01*
X009515Y021190D01*
X009463Y021202D01*
X009411Y021218D01*
X009361Y021237D01*
X009312Y021259D01*
X009265Y021285D01*
X009219Y021313D01*
X009176Y021345D01*
X009134Y021379D01*
X009095Y021415D01*
X009058Y021455D01*
X009024Y021496D01*
X008993Y021540D01*
X008964Y021585D01*
X008972Y021590D01*
X009002Y021542D01*
X009036Y021496D01*
X009072Y021453D01*
X009112Y021412D01*
X009154Y021374D01*
X009198Y021339D01*
X009245Y021307D01*
X009294Y021279D01*
X009345Y021254D01*
X009398Y021232D01*
X009451Y021215D01*
X009506Y021201D01*
X009562Y021191D01*
X009618Y021184D01*
X009675Y021182D01*
X009675Y021191D01*
X009619Y021193D01*
X009563Y021199D01*
X009508Y021209D01*
X009454Y021223D01*
X009401Y021241D01*
X009349Y021262D01*
X009298Y021287D01*
X009250Y021315D01*
X009204Y021346D01*
X009159Y021381D01*
X009118Y021418D01*
X009079Y021459D01*
X009043Y021501D01*
X009010Y021547D01*
X008980Y021594D01*
X008988Y021599D01*
X009017Y021552D01*
X009050Y021507D01*
X009086Y021465D01*
X009124Y021425D01*
X009165Y021388D01*
X009209Y021353D01*
X009255Y021322D01*
X009303Y021295D01*
X009352Y021270D01*
X009404Y021249D01*
X009456Y021232D01*
X009510Y021218D01*
X009565Y021208D01*
X009620Y021202D01*
X009675Y021200D01*
X009675Y021209D01*
X009620Y021211D01*
X009566Y021217D01*
X009512Y021227D01*
X009459Y021241D01*
X009407Y021258D01*
X009356Y021278D01*
X009307Y021303D01*
X009260Y021330D01*
X009214Y021361D01*
X009171Y021394D01*
X009130Y021431D01*
X009092Y021471D01*
X009057Y021513D01*
X009025Y021557D01*
X008996Y021603D01*
X009004Y021608D01*
X009032Y021562D01*
X009064Y021518D01*
X009099Y021477D01*
X009137Y021438D01*
X009177Y021401D01*
X009219Y021368D01*
X009264Y021338D01*
X009311Y021310D01*
X009360Y021287D01*
X009410Y021266D01*
X009461Y021249D01*
X009514Y021236D01*
X009567Y021226D01*
X009621Y021220D01*
X009675Y021218D01*
X009675Y021227D01*
X009622Y021229D01*
X009568Y021235D01*
X009516Y021245D01*
X009464Y021258D01*
X009413Y021275D01*
X009363Y021295D01*
X009315Y021318D01*
X009269Y021345D01*
X009225Y021375D01*
X009183Y021408D01*
X009143Y021444D01*
X009106Y021483D01*
X009071Y021524D01*
X009040Y021567D01*
X009011Y021612D01*
X009019Y021617D01*
X009047Y021572D01*
X009078Y021529D01*
X009112Y021489D01*
X009149Y021451D01*
X009188Y021415D01*
X009230Y021383D01*
X009274Y021353D01*
X009320Y021326D01*
X009367Y021303D01*
X009416Y021283D01*
X009466Y021266D01*
X009518Y021253D01*
X009570Y021244D01*
X009622Y021238D01*
X009675Y021236D01*
X009675Y022844D02*
X009675Y022754D01*
X009675Y022755D02*
X009621Y022753D01*
X009568Y022747D01*
X009515Y022737D01*
X009463Y022723D01*
X009412Y022706D01*
X009363Y022685D01*
X009315Y022661D01*
X009269Y022633D01*
X009225Y022602D01*
X009183Y022568D01*
X009144Y022532D01*
X009107Y022492D01*
X009074Y022450D01*
X009043Y022406D01*
X009016Y022360D01*
X008937Y022402D01*
X008965Y022451D01*
X008997Y022497D01*
X009032Y022542D01*
X009069Y022584D01*
X009110Y022624D01*
X009153Y022660D01*
X009198Y022694D01*
X009245Y022725D01*
X009295Y022752D01*
X009346Y022776D01*
X009398Y022797D01*
X009452Y022814D01*
X009507Y022827D01*
X009562Y022837D01*
X009619Y022843D01*
X009675Y022845D01*
X009675Y022836D01*
X009619Y022834D01*
X009564Y022828D01*
X009509Y022818D01*
X009454Y022805D01*
X009401Y022788D01*
X009349Y022768D01*
X009299Y022744D01*
X009250Y022717D01*
X009203Y022687D01*
X009158Y022653D01*
X009116Y022617D01*
X009076Y022578D01*
X009039Y022536D01*
X009004Y022492D01*
X008973Y022446D01*
X008945Y022398D01*
X008953Y022394D01*
X008981Y022441D01*
X009012Y022487D01*
X009046Y022530D01*
X009082Y022572D01*
X009122Y022610D01*
X009164Y022646D01*
X009208Y022679D01*
X009254Y022709D01*
X009303Y022736D01*
X009353Y022759D01*
X009404Y022780D01*
X009457Y022796D01*
X009510Y022809D01*
X009565Y022819D01*
X009620Y022825D01*
X009675Y022827D01*
X009675Y022818D01*
X009620Y022816D01*
X009566Y022810D01*
X009512Y022801D01*
X009459Y022788D01*
X009407Y022771D01*
X009356Y022751D01*
X009307Y022728D01*
X009259Y022701D01*
X009213Y022672D01*
X009169Y022639D01*
X009128Y022604D01*
X009089Y022565D01*
X009052Y022525D01*
X009019Y022482D01*
X008988Y022436D01*
X008961Y022389D01*
X008969Y022385D01*
X008996Y022432D01*
X009026Y022476D01*
X009059Y022519D01*
X009095Y022559D01*
X009134Y022597D01*
X009175Y022632D01*
X009218Y022664D01*
X009264Y022694D01*
X009311Y022720D01*
X009360Y022743D01*
X009410Y022763D01*
X009462Y022779D01*
X009514Y022792D01*
X009567Y022801D01*
X009621Y022807D01*
X009675Y022809D01*
X009675Y022800D01*
X009622Y022798D01*
X009569Y022792D01*
X009516Y022783D01*
X009464Y022770D01*
X009413Y022754D01*
X009363Y022735D01*
X009315Y022712D01*
X009268Y022686D01*
X009224Y022657D01*
X009181Y022625D01*
X009140Y022590D01*
X009102Y022553D01*
X009066Y022513D01*
X009033Y022471D01*
X009003Y022427D01*
X008976Y022381D01*
X008984Y022377D01*
X009011Y022422D01*
X009041Y022466D01*
X009073Y022507D01*
X009108Y022547D01*
X009146Y022584D01*
X009186Y022618D01*
X009229Y022650D01*
X009273Y022678D01*
X009319Y022704D01*
X009367Y022726D01*
X009416Y022746D01*
X009466Y022762D01*
X009518Y022774D01*
X009570Y022783D01*
X009622Y022789D01*
X009675Y022791D01*
X009675Y022782D01*
X009619Y022780D01*
X009564Y022773D01*
X009509Y022763D01*
X009455Y022749D01*
X009403Y022731D01*
X009351Y022710D01*
X009302Y022684D01*
X009254Y022656D01*
X009208Y022624D01*
X009165Y022589D01*
X009125Y022551D01*
X009087Y022510D01*
X009052Y022466D01*
X009021Y022420D01*
X008992Y022372D01*
X009000Y022368D01*
X009028Y022416D01*
X009059Y022461D01*
X009094Y022504D01*
X009131Y022544D01*
X009171Y022582D01*
X009214Y022617D01*
X009259Y022648D01*
X009306Y022677D01*
X009355Y022701D01*
X009406Y022723D01*
X009458Y022740D01*
X009511Y022754D01*
X009565Y022764D01*
X009620Y022771D01*
X009675Y022773D01*
X009675Y022764D01*
X009621Y022762D01*
X009567Y022756D01*
X009513Y022746D01*
X009461Y022732D01*
X009409Y022714D01*
X009359Y022693D01*
X009310Y022669D01*
X009264Y022641D01*
X009219Y022609D01*
X009177Y022575D01*
X009138Y022538D01*
X009101Y022498D01*
X009067Y022456D01*
X009036Y022411D01*
X009008Y022364D01*
X010325Y022544D02*
X010256Y022487D01*
X010257Y022487D02*
X010220Y022527D01*
X010181Y022565D01*
X010139Y022599D01*
X010095Y022631D01*
X010049Y022659D01*
X010000Y022684D01*
X009950Y022705D01*
X009899Y022723D01*
X009846Y022736D01*
X009793Y022746D01*
X009739Y022753D01*
X009685Y022755D01*
X009684Y022844D01*
X009685Y022845D01*
X009741Y022843D01*
X009797Y022837D01*
X009852Y022827D01*
X009907Y022814D01*
X009960Y022797D01*
X010013Y022777D01*
X010064Y022753D01*
X010113Y022726D01*
X010160Y022695D01*
X010205Y022662D01*
X010248Y022626D01*
X010288Y022587D01*
X010326Y022545D01*
X010319Y022539D01*
X010282Y022580D01*
X010242Y022619D01*
X010200Y022655D01*
X010155Y022688D01*
X010108Y022718D01*
X010060Y022745D01*
X010009Y022768D01*
X009957Y022789D01*
X009904Y022805D01*
X009850Y022818D01*
X009796Y022828D01*
X009741Y022834D01*
X009685Y022836D01*
X009685Y022827D01*
X009740Y022825D01*
X009795Y022819D01*
X009849Y022810D01*
X009902Y022797D01*
X009954Y022780D01*
X010006Y022760D01*
X010055Y022737D01*
X010104Y022710D01*
X010150Y022681D01*
X010194Y022648D01*
X010236Y022612D01*
X010275Y022574D01*
X010312Y022533D01*
X010305Y022528D01*
X010269Y022568D01*
X010230Y022606D01*
X010188Y022641D01*
X010145Y022673D01*
X010099Y022703D01*
X010051Y022729D01*
X010002Y022752D01*
X009952Y022772D01*
X009900Y022788D01*
X009847Y022801D01*
X009793Y022810D01*
X009739Y022816D01*
X009685Y022818D01*
X009685Y022809D01*
X009739Y022807D01*
X009792Y022801D01*
X009845Y022792D01*
X009897Y022779D01*
X009949Y022763D01*
X009999Y022744D01*
X010047Y022721D01*
X010094Y022695D01*
X010140Y022666D01*
X010183Y022634D01*
X010224Y022599D01*
X010262Y022562D01*
X010298Y022522D01*
X010291Y022516D01*
X010256Y022555D01*
X010218Y022592D01*
X010177Y022627D01*
X010134Y022658D01*
X010090Y022687D01*
X010043Y022713D01*
X009995Y022735D01*
X009946Y022755D01*
X009895Y022771D01*
X009843Y022783D01*
X009791Y022792D01*
X009738Y022798D01*
X009685Y022800D01*
X009685Y022791D01*
X009737Y022789D01*
X009790Y022783D01*
X009841Y022774D01*
X009892Y022762D01*
X009943Y022746D01*
X009992Y022727D01*
X010039Y022705D01*
X010085Y022679D01*
X010129Y022651D01*
X010171Y022620D01*
X010212Y022586D01*
X010249Y022549D01*
X010284Y022510D01*
X010278Y022504D01*
X010243Y022543D01*
X010205Y022579D01*
X010166Y022613D01*
X010124Y022644D01*
X010080Y022672D01*
X010035Y022697D01*
X009988Y022719D01*
X009940Y022738D01*
X009890Y022753D01*
X009840Y022766D01*
X009788Y022774D01*
X009737Y022780D01*
X009685Y022782D01*
X009685Y022773D01*
X009736Y022771D01*
X009787Y022766D01*
X009838Y022757D01*
X009888Y022745D01*
X009937Y022729D01*
X009984Y022711D01*
X010031Y022689D01*
X010076Y022664D01*
X010119Y022636D01*
X010160Y022606D01*
X010199Y022573D01*
X010236Y022537D01*
X010271Y022499D01*
X010264Y022493D01*
X010227Y022534D01*
X010187Y022572D01*
X010145Y022606D01*
X010100Y022638D01*
X010053Y022667D01*
X010004Y022692D01*
X009953Y022713D01*
X009902Y022731D01*
X009848Y022745D01*
X009794Y022755D01*
X009740Y022762D01*
X009685Y022764D01*
X009684Y021156D02*
X009684Y021246D01*
X009685Y021245D02*
X009739Y021247D01*
X009792Y021253D01*
X009845Y021263D01*
X009897Y021277D01*
X009948Y021294D01*
X009998Y021315D01*
X010046Y021339D01*
X010092Y021367D01*
X010136Y021398D01*
X010177Y021432D01*
X010217Y021469D01*
X010253Y021508D01*
X010321Y021451D01*
X010322Y021450D01*
X010284Y021409D01*
X010244Y021371D01*
X010201Y021335D01*
X010156Y021302D01*
X010109Y021272D01*
X010061Y021246D01*
X010010Y021222D01*
X009958Y021202D01*
X009905Y021186D01*
X009851Y021172D01*
X009796Y021163D01*
X009741Y021157D01*
X009685Y021155D01*
X009685Y021164D01*
X009740Y021166D01*
X009795Y021172D01*
X009849Y021181D01*
X009903Y021194D01*
X009955Y021211D01*
X010007Y021230D01*
X010057Y021254D01*
X010105Y021280D01*
X010151Y021310D01*
X010196Y021342D01*
X010238Y021377D01*
X010278Y021416D01*
X010315Y021456D01*
X010308Y021462D01*
X010271Y021422D01*
X010232Y021384D01*
X010190Y021349D01*
X010146Y021317D01*
X010100Y021288D01*
X010052Y021262D01*
X010003Y021239D01*
X009952Y021219D01*
X009900Y021203D01*
X009847Y021190D01*
X009794Y021181D01*
X009739Y021175D01*
X009685Y021173D01*
X009685Y021182D01*
X009739Y021184D01*
X009792Y021190D01*
X009845Y021199D01*
X009898Y021212D01*
X009949Y021228D01*
X010000Y021247D01*
X010048Y021270D01*
X010096Y021295D01*
X010141Y021324D01*
X010185Y021356D01*
X010226Y021391D01*
X010265Y021428D01*
X010301Y021468D01*
X010294Y021474D01*
X010258Y021434D01*
X010220Y021397D01*
X010179Y021363D01*
X010136Y021332D01*
X010091Y021303D01*
X010044Y021278D01*
X009996Y021255D01*
X009946Y021236D01*
X009895Y021220D01*
X009844Y021208D01*
X009791Y021199D01*
X009738Y021193D01*
X009685Y021191D01*
X009685Y021200D01*
X009738Y021202D01*
X009790Y021208D01*
X009842Y021217D01*
X009893Y021229D01*
X009943Y021245D01*
X009993Y021264D01*
X010040Y021286D01*
X010087Y021311D01*
X010131Y021339D01*
X010173Y021370D01*
X010214Y021404D01*
X010252Y021441D01*
X010287Y021479D01*
X010281Y021485D01*
X010245Y021447D01*
X010208Y021411D01*
X010168Y021377D01*
X010126Y021347D01*
X010082Y021319D01*
X010036Y021294D01*
X009989Y021272D01*
X009940Y021253D01*
X009891Y021238D01*
X009840Y021225D01*
X009789Y021217D01*
X009737Y021211D01*
X009685Y021209D01*
X009685Y021218D01*
X009741Y021220D01*
X009796Y021227D01*
X009851Y021237D01*
X009905Y021251D01*
X009958Y021269D01*
X010009Y021291D01*
X010059Y021316D01*
X010107Y021345D01*
X010152Y021377D01*
X010195Y021412D01*
X010236Y021450D01*
X010274Y021491D01*
X010267Y021497D01*
X010230Y021456D01*
X010189Y021419D01*
X010147Y021384D01*
X010102Y021352D01*
X010054Y021324D01*
X010005Y021299D01*
X009954Y021277D01*
X009902Y021260D01*
X009849Y021246D01*
X009795Y021236D01*
X009740Y021229D01*
X009685Y021227D01*
X009685Y021236D01*
X009739Y021238D01*
X009793Y021244D01*
X009847Y021254D01*
X009900Y021268D01*
X009951Y021286D01*
X010001Y021307D01*
X010050Y021332D01*
X010097Y021360D01*
X010141Y021391D01*
X010183Y021425D01*
X010223Y021463D01*
X010260Y021503D01*
X016449Y021577D02*
X016527Y021622D01*
X016527Y021621D02*
X016555Y021577D01*
X016586Y021535D01*
X016619Y021495D01*
X016655Y021457D01*
X016694Y021422D01*
X016735Y021390D01*
X016779Y021360D01*
X016824Y021334D01*
X016871Y021311D01*
X016919Y021291D01*
X016969Y021275D01*
X017019Y021262D01*
X017071Y021253D01*
X017123Y021247D01*
X017175Y021245D01*
X017176Y021156D01*
X017175Y021155D01*
X017120Y021157D01*
X017066Y021163D01*
X017011Y021172D01*
X016958Y021185D01*
X016906Y021201D01*
X016854Y021220D01*
X016804Y021243D01*
X016756Y021269D01*
X016709Y021298D01*
X016665Y021330D01*
X016622Y021365D01*
X016582Y021403D01*
X016545Y021443D01*
X016510Y021485D01*
X016478Y021530D01*
X016449Y021576D01*
X016457Y021581D01*
X016485Y021535D01*
X016517Y021491D01*
X016552Y021449D01*
X016589Y021409D01*
X016628Y021372D01*
X016670Y021337D01*
X016714Y021306D01*
X016760Y021277D01*
X016808Y021251D01*
X016858Y021229D01*
X016908Y021209D01*
X016960Y021193D01*
X017013Y021181D01*
X017067Y021172D01*
X017121Y021166D01*
X017175Y021164D01*
X017175Y021173D01*
X017121Y021175D01*
X017068Y021181D01*
X017015Y021190D01*
X016963Y021202D01*
X016911Y021218D01*
X016861Y021237D01*
X016812Y021259D01*
X016765Y021285D01*
X016719Y021313D01*
X016676Y021345D01*
X016634Y021379D01*
X016595Y021415D01*
X016558Y021455D01*
X016524Y021496D01*
X016493Y021540D01*
X016464Y021585D01*
X016472Y021590D01*
X016502Y021542D01*
X016536Y021496D01*
X016572Y021453D01*
X016612Y021412D01*
X016654Y021374D01*
X016698Y021339D01*
X016745Y021307D01*
X016794Y021279D01*
X016845Y021254D01*
X016898Y021232D01*
X016951Y021215D01*
X017006Y021201D01*
X017062Y021191D01*
X017118Y021184D01*
X017175Y021182D01*
X017175Y021191D01*
X017119Y021193D01*
X017063Y021199D01*
X017008Y021209D01*
X016954Y021223D01*
X016901Y021241D01*
X016849Y021262D01*
X016798Y021287D01*
X016750Y021315D01*
X016704Y021346D01*
X016659Y021381D01*
X016618Y021418D01*
X016579Y021459D01*
X016543Y021501D01*
X016510Y021547D01*
X016480Y021594D01*
X016488Y021599D01*
X016517Y021552D01*
X016550Y021507D01*
X016586Y021465D01*
X016624Y021425D01*
X016665Y021388D01*
X016709Y021353D01*
X016755Y021322D01*
X016803Y021295D01*
X016852Y021270D01*
X016904Y021249D01*
X016956Y021232D01*
X017010Y021218D01*
X017065Y021208D01*
X017120Y021202D01*
X017175Y021200D01*
X017175Y021209D01*
X017120Y021211D01*
X017066Y021217D01*
X017012Y021227D01*
X016959Y021241D01*
X016907Y021258D01*
X016856Y021278D01*
X016807Y021303D01*
X016760Y021330D01*
X016714Y021361D01*
X016671Y021394D01*
X016630Y021431D01*
X016592Y021471D01*
X016557Y021513D01*
X016525Y021557D01*
X016496Y021603D01*
X016504Y021608D01*
X016532Y021562D01*
X016564Y021518D01*
X016599Y021477D01*
X016637Y021438D01*
X016677Y021401D01*
X016719Y021368D01*
X016764Y021338D01*
X016811Y021310D01*
X016860Y021287D01*
X016910Y021266D01*
X016961Y021249D01*
X017014Y021236D01*
X017067Y021226D01*
X017121Y021220D01*
X017175Y021218D01*
X017175Y021227D01*
X017122Y021229D01*
X017068Y021235D01*
X017016Y021245D01*
X016964Y021258D01*
X016913Y021275D01*
X016863Y021295D01*
X016815Y021318D01*
X016769Y021345D01*
X016725Y021375D01*
X016683Y021408D01*
X016643Y021444D01*
X016606Y021483D01*
X016571Y021524D01*
X016540Y021567D01*
X016511Y021612D01*
X016519Y021617D01*
X016547Y021572D01*
X016578Y021529D01*
X016612Y021489D01*
X016649Y021451D01*
X016688Y021415D01*
X016730Y021383D01*
X016774Y021353D01*
X016820Y021326D01*
X016867Y021303D01*
X016916Y021283D01*
X016966Y021266D01*
X017018Y021253D01*
X017070Y021244D01*
X017122Y021238D01*
X017175Y021236D01*
X017175Y022844D02*
X017175Y022754D01*
X017175Y022755D02*
X017121Y022753D01*
X017068Y022747D01*
X017015Y022737D01*
X016963Y022723D01*
X016912Y022706D01*
X016863Y022685D01*
X016815Y022661D01*
X016769Y022633D01*
X016725Y022602D01*
X016683Y022568D01*
X016644Y022532D01*
X016607Y022492D01*
X016574Y022450D01*
X016543Y022406D01*
X016516Y022360D01*
X016437Y022402D01*
X016465Y022451D01*
X016497Y022497D01*
X016532Y022542D01*
X016569Y022584D01*
X016610Y022624D01*
X016653Y022660D01*
X016698Y022694D01*
X016745Y022725D01*
X016795Y022752D01*
X016846Y022776D01*
X016898Y022797D01*
X016952Y022814D01*
X017007Y022827D01*
X017062Y022837D01*
X017119Y022843D01*
X017175Y022845D01*
X017175Y022836D01*
X017119Y022834D01*
X017064Y022828D01*
X017009Y022818D01*
X016954Y022805D01*
X016901Y022788D01*
X016849Y022768D01*
X016799Y022744D01*
X016750Y022717D01*
X016703Y022687D01*
X016658Y022653D01*
X016616Y022617D01*
X016576Y022578D01*
X016539Y022536D01*
X016504Y022492D01*
X016473Y022446D01*
X016445Y022398D01*
X016453Y022394D01*
X016481Y022441D01*
X016512Y022487D01*
X016546Y022530D01*
X016582Y022572D01*
X016622Y022610D01*
X016664Y022646D01*
X016708Y022679D01*
X016754Y022709D01*
X016803Y022736D01*
X016853Y022759D01*
X016904Y022780D01*
X016957Y022796D01*
X017010Y022809D01*
X017065Y022819D01*
X017120Y022825D01*
X017175Y022827D01*
X017175Y022818D01*
X017120Y022816D01*
X017066Y022810D01*
X017012Y022801D01*
X016959Y022788D01*
X016907Y022771D01*
X016856Y022751D01*
X016807Y022728D01*
X016759Y022701D01*
X016713Y022672D01*
X016669Y022639D01*
X016628Y022604D01*
X016589Y022565D01*
X016552Y022525D01*
X016519Y022482D01*
X016488Y022436D01*
X016461Y022389D01*
X016469Y022385D01*
X016496Y022432D01*
X016526Y022476D01*
X016559Y022519D01*
X016595Y022559D01*
X016634Y022597D01*
X016675Y022632D01*
X016718Y022664D01*
X016764Y022694D01*
X016811Y022720D01*
X016860Y022743D01*
X016910Y022763D01*
X016962Y022779D01*
X017014Y022792D01*
X017067Y022801D01*
X017121Y022807D01*
X017175Y022809D01*
X017175Y022800D01*
X017122Y022798D01*
X017069Y022792D01*
X017016Y022783D01*
X016964Y022770D01*
X016913Y022754D01*
X016863Y022735D01*
X016815Y022712D01*
X016768Y022686D01*
X016724Y022657D01*
X016681Y022625D01*
X016640Y022590D01*
X016602Y022553D01*
X016566Y022513D01*
X016533Y022471D01*
X016503Y022427D01*
X016476Y022381D01*
X016484Y022377D01*
X016511Y022422D01*
X016541Y022466D01*
X016573Y022507D01*
X016608Y022547D01*
X016646Y022584D01*
X016686Y022618D01*
X016729Y022650D01*
X016773Y022678D01*
X016819Y022704D01*
X016867Y022726D01*
X016916Y022746D01*
X016966Y022762D01*
X017018Y022774D01*
X017070Y022783D01*
X017122Y022789D01*
X017175Y022791D01*
X017175Y022782D01*
X017119Y022780D01*
X017064Y022773D01*
X017009Y022763D01*
X016955Y022749D01*
X016903Y022731D01*
X016851Y022710D01*
X016802Y022684D01*
X016754Y022656D01*
X016708Y022624D01*
X016665Y022589D01*
X016625Y022551D01*
X016587Y022510D01*
X016552Y022466D01*
X016521Y022420D01*
X016492Y022372D01*
X016500Y022368D01*
X016528Y022416D01*
X016559Y022461D01*
X016594Y022504D01*
X016631Y022544D01*
X016671Y022582D01*
X016714Y022617D01*
X016759Y022648D01*
X016806Y022677D01*
X016855Y022701D01*
X016906Y022723D01*
X016958Y022740D01*
X017011Y022754D01*
X017065Y022764D01*
X017120Y022771D01*
X017175Y022773D01*
X017175Y022764D01*
X017121Y022762D01*
X017067Y022756D01*
X017013Y022746D01*
X016961Y022732D01*
X016909Y022714D01*
X016859Y022693D01*
X016810Y022669D01*
X016764Y022641D01*
X016719Y022609D01*
X016677Y022575D01*
X016638Y022538D01*
X016601Y022498D01*
X016567Y022456D01*
X016536Y022411D01*
X016508Y022364D01*
X017825Y022544D02*
X017756Y022487D01*
X017757Y022487D02*
X017720Y022527D01*
X017681Y022565D01*
X017639Y022599D01*
X017595Y022631D01*
X017549Y022659D01*
X017500Y022684D01*
X017450Y022705D01*
X017399Y022723D01*
X017346Y022736D01*
X017293Y022746D01*
X017239Y022753D01*
X017185Y022755D01*
X017184Y022844D01*
X017185Y022845D01*
X017241Y022843D01*
X017297Y022837D01*
X017352Y022827D01*
X017407Y022814D01*
X017460Y022797D01*
X017513Y022777D01*
X017564Y022753D01*
X017613Y022726D01*
X017660Y022695D01*
X017705Y022662D01*
X017748Y022626D01*
X017788Y022587D01*
X017826Y022545D01*
X017819Y022539D01*
X017782Y022580D01*
X017742Y022619D01*
X017700Y022655D01*
X017655Y022688D01*
X017608Y022718D01*
X017560Y022745D01*
X017509Y022768D01*
X017457Y022789D01*
X017404Y022805D01*
X017350Y022818D01*
X017296Y022828D01*
X017241Y022834D01*
X017185Y022836D01*
X017185Y022827D01*
X017240Y022825D01*
X017295Y022819D01*
X017349Y022810D01*
X017402Y022797D01*
X017454Y022780D01*
X017506Y022760D01*
X017555Y022737D01*
X017604Y022710D01*
X017650Y022681D01*
X017694Y022648D01*
X017736Y022612D01*
X017775Y022574D01*
X017812Y022533D01*
X017805Y022528D01*
X017769Y022568D01*
X017730Y022606D01*
X017688Y022641D01*
X017645Y022673D01*
X017599Y022703D01*
X017551Y022729D01*
X017502Y022752D01*
X017452Y022772D01*
X017400Y022788D01*
X017347Y022801D01*
X017293Y022810D01*
X017239Y022816D01*
X017185Y022818D01*
X017185Y022809D01*
X017239Y022807D01*
X017292Y022801D01*
X017345Y022792D01*
X017397Y022779D01*
X017449Y022763D01*
X017499Y022744D01*
X017547Y022721D01*
X017594Y022695D01*
X017640Y022666D01*
X017683Y022634D01*
X017724Y022599D01*
X017762Y022562D01*
X017798Y022522D01*
X017791Y022516D01*
X017756Y022555D01*
X017718Y022592D01*
X017677Y022627D01*
X017634Y022658D01*
X017590Y022687D01*
X017543Y022713D01*
X017495Y022735D01*
X017446Y022755D01*
X017395Y022771D01*
X017343Y022783D01*
X017291Y022792D01*
X017238Y022798D01*
X017185Y022800D01*
X017185Y022791D01*
X017237Y022789D01*
X017290Y022783D01*
X017341Y022774D01*
X017392Y022762D01*
X017443Y022746D01*
X017492Y022727D01*
X017539Y022705D01*
X017585Y022679D01*
X017629Y022651D01*
X017671Y022620D01*
X017712Y022586D01*
X017749Y022549D01*
X017784Y022510D01*
X017778Y022504D01*
X017743Y022543D01*
X017705Y022579D01*
X017666Y022613D01*
X017624Y022644D01*
X017580Y022672D01*
X017535Y022697D01*
X017488Y022719D01*
X017440Y022738D01*
X017390Y022753D01*
X017340Y022766D01*
X017288Y022774D01*
X017237Y022780D01*
X017185Y022782D01*
X017185Y022773D01*
X017236Y022771D01*
X017287Y022766D01*
X017338Y022757D01*
X017388Y022745D01*
X017437Y022729D01*
X017484Y022711D01*
X017531Y022689D01*
X017576Y022664D01*
X017619Y022636D01*
X017660Y022606D01*
X017699Y022573D01*
X017736Y022537D01*
X017771Y022499D01*
X017764Y022493D01*
X017727Y022534D01*
X017687Y022572D01*
X017645Y022606D01*
X017600Y022638D01*
X017553Y022667D01*
X017504Y022692D01*
X017453Y022713D01*
X017402Y022731D01*
X017348Y022745D01*
X017294Y022755D01*
X017240Y022762D01*
X017185Y022764D01*
X017184Y021156D02*
X017184Y021246D01*
X017185Y021245D02*
X017239Y021247D01*
X017292Y021253D01*
X017345Y021263D01*
X017397Y021277D01*
X017448Y021294D01*
X017498Y021315D01*
X017546Y021339D01*
X017592Y021367D01*
X017636Y021398D01*
X017677Y021432D01*
X017717Y021469D01*
X017753Y021508D01*
X017821Y021451D01*
X017822Y021450D01*
X017784Y021409D01*
X017744Y021371D01*
X017701Y021335D01*
X017656Y021302D01*
X017609Y021272D01*
X017561Y021246D01*
X017510Y021222D01*
X017458Y021202D01*
X017405Y021186D01*
X017351Y021172D01*
X017296Y021163D01*
X017241Y021157D01*
X017185Y021155D01*
X017185Y021164D01*
X017240Y021166D01*
X017295Y021172D01*
X017349Y021181D01*
X017403Y021194D01*
X017455Y021211D01*
X017507Y021230D01*
X017557Y021254D01*
X017605Y021280D01*
X017651Y021310D01*
X017696Y021342D01*
X017738Y021377D01*
X017778Y021416D01*
X017815Y021456D01*
X017808Y021462D01*
X017771Y021422D01*
X017732Y021384D01*
X017690Y021349D01*
X017646Y021317D01*
X017600Y021288D01*
X017552Y021262D01*
X017503Y021239D01*
X017452Y021219D01*
X017400Y021203D01*
X017347Y021190D01*
X017294Y021181D01*
X017239Y021175D01*
X017185Y021173D01*
X017185Y021182D01*
X017239Y021184D01*
X017292Y021190D01*
X017345Y021199D01*
X017398Y021212D01*
X017449Y021228D01*
X017500Y021247D01*
X017548Y021270D01*
X017596Y021295D01*
X017641Y021324D01*
X017685Y021356D01*
X017726Y021391D01*
X017765Y021428D01*
X017801Y021468D01*
X017794Y021474D01*
X017758Y021434D01*
X017720Y021397D01*
X017679Y021363D01*
X017636Y021332D01*
X017591Y021303D01*
X017544Y021278D01*
X017496Y021255D01*
X017446Y021236D01*
X017395Y021220D01*
X017344Y021208D01*
X017291Y021199D01*
X017238Y021193D01*
X017185Y021191D01*
X017185Y021200D01*
X017238Y021202D01*
X017290Y021208D01*
X017342Y021217D01*
X017393Y021229D01*
X017443Y021245D01*
X017493Y021264D01*
X017540Y021286D01*
X017587Y021311D01*
X017631Y021339D01*
X017673Y021370D01*
X017714Y021404D01*
X017752Y021441D01*
X017787Y021479D01*
X017781Y021485D01*
X017745Y021447D01*
X017708Y021411D01*
X017668Y021377D01*
X017626Y021347D01*
X017582Y021319D01*
X017536Y021294D01*
X017489Y021272D01*
X017440Y021253D01*
X017391Y021238D01*
X017340Y021225D01*
X017289Y021217D01*
X017237Y021211D01*
X017185Y021209D01*
X017185Y021218D01*
X017241Y021220D01*
X017296Y021227D01*
X017351Y021237D01*
X017405Y021251D01*
X017458Y021269D01*
X017509Y021291D01*
X017559Y021316D01*
X017607Y021345D01*
X017652Y021377D01*
X017695Y021412D01*
X017736Y021450D01*
X017774Y021491D01*
X017767Y021497D01*
X017730Y021456D01*
X017689Y021419D01*
X017647Y021384D01*
X017602Y021352D01*
X017554Y021324D01*
X017505Y021299D01*
X017454Y021277D01*
X017402Y021260D01*
X017349Y021246D01*
X017295Y021236D01*
X017240Y021229D01*
X017185Y021227D01*
X017185Y021236D01*
X017239Y021238D01*
X017293Y021244D01*
X017347Y021254D01*
X017400Y021268D01*
X017451Y021286D01*
X017501Y021307D01*
X017550Y021332D01*
X017597Y021360D01*
X017641Y021391D01*
X017683Y021425D01*
X017723Y021463D01*
X017760Y021503D01*
D13*
X017800Y021490D02*
X017800Y021670D01*
X017800Y022310D02*
X017800Y022510D01*
X010300Y022510D02*
X010300Y022310D01*
X010300Y021670D02*
X010300Y021490D01*
D14*
X010069Y021264D02*
X009842Y021037D01*
X009898Y020980D01*
X010012Y020980D01*
X010069Y021037D01*
X010069Y021264D01*
X010012Y021320D01*
X009898Y021320D01*
X009842Y021264D01*
X009842Y021037D01*
X009700Y020980D02*
X009473Y020980D01*
X009700Y021207D01*
X009700Y021264D01*
X009644Y021320D01*
X009530Y021320D01*
X009473Y021264D01*
X009332Y021264D02*
X009275Y021320D01*
X009162Y021320D01*
X009105Y021264D01*
X009332Y021264D02*
X009332Y021207D01*
X009105Y020980D01*
X009332Y020980D01*
X016710Y019964D02*
X016767Y020020D01*
X016880Y020020D01*
X016937Y019964D01*
X016937Y019907D01*
X016880Y019850D01*
X016937Y019793D01*
X016937Y019737D01*
X016880Y019680D01*
X016767Y019680D01*
X016710Y019737D01*
X016823Y019850D02*
X016880Y019850D01*
X017078Y019737D02*
X017135Y019680D01*
X017248Y019680D01*
X017305Y019737D01*
X017305Y019793D01*
X017248Y019850D01*
X017192Y019850D01*
X017248Y019850D02*
X017305Y019907D01*
X017305Y019964D01*
X017248Y020020D01*
X017135Y020020D01*
X017078Y019964D01*
X017447Y019964D02*
X017447Y019737D01*
X017673Y019964D01*
X017673Y019737D01*
X017617Y019680D01*
X017503Y019680D01*
X017447Y019737D01*
X017447Y019964D02*
X017503Y020020D01*
X017617Y020020D01*
X017673Y019964D01*
X012903Y011820D02*
X012903Y011480D01*
X012903Y011593D02*
X013073Y011707D01*
X012903Y011593D02*
X013073Y011480D01*
X012762Y011480D02*
X012535Y011480D01*
X012762Y011707D01*
X012762Y011764D01*
X012705Y011820D01*
X012591Y011820D01*
X012535Y011764D01*
D15*
X017129Y009063D02*
X023231Y009063D01*
X023231Y000500D01*
X017129Y000500D01*
X017129Y009063D01*
X023967Y012244D02*
X001920Y012244D01*
X001920Y019331D01*
X023967Y019331D01*
X023967Y012244D01*
X023574Y014213D02*
X002314Y014213D01*
M02*
