%
M48
M72
T01C0.0240
T02C0.0276
T03C0.0320
T04C0.0354
T05C0.0374
T06C0.0400
T07C0.0630
T08C0.1280
T09C0.1300
%
T01
X5930Y4250
X5930Y4750
X6180Y6000
X6180Y7000
X6180Y9000
X6180Y9750
X5430Y10250
X12930Y8500
X13930Y8500
X14430Y8000
X14930Y7500
X15430Y7000
X18180Y9500
X17680Y10000
X17180Y10500
X16430Y11000
X15930Y11500
X30680Y10500
X35680Y17500
X37180Y20500
T02
X35680Y14000
X33680Y14000
X33680Y12000
X34680Y12000
X35680Y12000
X32680Y12000
X30180Y9500
X29180Y9500
X13680Y3000
X12680Y3000
X4680Y7000
X2680Y7000
X1680Y7000
X1680Y9000
X2680Y9000
X4680Y9000
X2680Y11000
X1680Y11000
X19680Y20500
X20680Y20500
T03
X17680Y22000
X16680Y22000
X10180Y22000
X9180Y22000
X26180Y19000
X27180Y19000
X28180Y19000
X29180Y19000
X30180Y19000
X31180Y19000
X32180Y19000
X33180Y19000
X34180Y19000
X35180Y19000
X36180Y19000
X37180Y19000
X38180Y19000
X39180Y19000
X39180Y16000
X38180Y16000
X37180Y16000
X36180Y16000
X35180Y16000
X34180Y16000
X33180Y16000
X32180Y16000
X31180Y16000
X30180Y16000
X29180Y16000
X28180Y16000
X27180Y16000
X26180Y16000
T04
X17680Y20500
X16680Y20500
X10180Y20500
X9180Y20500
X12180Y11000
X13180Y11000
T05
X17930Y8283
X18930Y8283
X19930Y8283
X20930Y8283
X21930Y8283
X21430Y7283
X22430Y7283
X20430Y7283
X19430Y7283
X18430Y7283
X18690Y3457
X17690Y2858
X21670Y2858
X22670Y3457
X22180Y15000
X21180Y15000
X20180Y15000
X19180Y15000
X18180Y15000
X23180Y15000
X6180Y15000
X5180Y15000
X4180Y15000
X3180Y15000
T06
X5180Y20500
X6180Y20500
X7180Y20500
X12680Y20500
X13680Y20500
X14680Y20500
X25400Y10890
X25400Y9110
X27960Y9110
X27960Y10890
X31680Y9500
X32680Y9500
X33680Y9500
X34680Y9500
X35680Y9500
X36680Y9500
X34180Y3000
X33180Y3000
X32180Y3000
X31180Y3000
X30180Y3000
X29180Y3000
X28180Y3000
T07
X23231Y5988
X17129Y5988
T08
X17930Y4787
X22430Y4787
T09
X1680Y3000
X1680Y21500
X38680Y21500
X38680Y3000
M30
