G75*
%MOIN*%
%OFA0B0*%
%FSLAX24Y24*%
%IPPOS*%
%LPD*%
%AMOC8*
5,1,8,0,0,1.08239X$1,22.5*
%
%ADD10C,0.0730*%
%ADD11C,0.0680*%
%ADD12C,0.0820*%
%ADD13C,0.1380*%
%ADD14C,0.0654*%
%ADD15C,0.1025*%
%ADD16C,0.0710*%
%ADD17C,0.1360*%
%ADD18C,0.0600*%
%ADD19C,0.1780*%
%ADD20C,0.0480*%
D10*
X008220Y003000D03*
X009220Y003000D03*
X010720Y003000D03*
X010720Y005000D03*
X009220Y005000D03*
X008220Y005000D03*
X003220Y008000D03*
X002220Y008000D03*
X002220Y005000D03*
X001220Y005000D03*
X008220Y008500D03*
X010220Y008500D03*
X009720Y010500D03*
X010720Y010500D03*
X008220Y010500D03*
X007220Y010500D03*
X018720Y012500D03*
X019720Y012500D03*
X016720Y002500D03*
X015720Y002500D03*
D11*
X004240Y002610D02*
X003640Y002610D01*
X006200Y002610D02*
X006800Y002610D01*
X006800Y004390D02*
X006200Y004390D01*
X004240Y004390D02*
X003640Y004390D01*
X003220Y009200D02*
X003220Y009800D01*
X002220Y009800D02*
X002220Y009200D01*
X004220Y009200D02*
X004220Y009800D01*
X017720Y014200D02*
X017720Y014800D01*
X018720Y014800D02*
X018720Y014200D01*
X019720Y014200D02*
X019720Y014800D01*
X029720Y013800D02*
X029720Y013200D01*
X030720Y013200D02*
X030720Y013800D01*
X031720Y013800D02*
X031720Y013200D01*
D12*
X038220Y013000D03*
X038220Y012000D03*
X036220Y003000D03*
X035220Y003000D03*
X034220Y003000D03*
X033220Y003000D03*
X032220Y003000D03*
X031220Y003000D03*
X030220Y003000D03*
X018720Y010500D03*
X017720Y010500D03*
X007220Y006000D03*
X006220Y006000D03*
X005220Y006000D03*
X004220Y006000D03*
X003220Y006000D03*
X002220Y006000D03*
D13*
X001720Y003000D03*
X001720Y021500D03*
X038720Y021500D03*
X038720Y003000D03*
D14*
X021720Y018500D03*
X020720Y018500D03*
X019720Y018500D03*
X018720Y018500D03*
X017720Y018500D03*
X016720Y018500D03*
X004720Y018500D03*
X003720Y018500D03*
X002720Y018500D03*
X001720Y018500D03*
D15*
X018169Y005988D03*
X024271Y005988D03*
D16*
X023470Y007283D03*
X022470Y007283D03*
X021470Y007283D03*
X020470Y007283D03*
X019470Y007283D03*
X018970Y008283D03*
X019970Y008283D03*
X020970Y008283D03*
X021970Y008283D03*
X022970Y008283D03*
X023710Y003457D03*
X022710Y002858D03*
X019730Y003457D03*
X018730Y002858D03*
D17*
X018970Y004787D03*
X023470Y004787D03*
D18*
X028960Y008500D02*
X029480Y008500D01*
X029480Y009500D02*
X028960Y009500D01*
X028960Y010500D02*
X029480Y010500D01*
X029480Y011500D02*
X028960Y011500D01*
X031960Y011500D02*
X032480Y011500D01*
X032480Y010500D02*
X031960Y010500D01*
X031960Y009500D02*
X032480Y009500D01*
X032480Y008500D02*
X031960Y008500D01*
X015220Y012240D02*
X015220Y012760D01*
X014220Y012760D02*
X014220Y012240D01*
X013220Y012240D02*
X013220Y012760D01*
X012220Y012760D02*
X012220Y012240D01*
X011220Y012240D02*
X011220Y012760D01*
X010220Y012760D02*
X010220Y012240D01*
X009220Y012240D02*
X009220Y012760D01*
X008220Y012760D02*
X008220Y012240D01*
X007220Y012240D02*
X007220Y012760D01*
X006220Y012760D02*
X006220Y012240D01*
X005220Y012240D02*
X005220Y012760D01*
X004220Y012760D02*
X004220Y012240D01*
X003220Y012240D02*
X003220Y012760D01*
X002220Y012760D02*
X002220Y012240D01*
X002220Y015240D02*
X002220Y015760D01*
X003220Y015760D02*
X003220Y015240D01*
X004220Y015240D02*
X004220Y015760D01*
X005220Y015760D02*
X005220Y015240D01*
X006220Y015240D02*
X006220Y015760D01*
X007220Y015760D02*
X007220Y015240D01*
X008220Y015240D02*
X008220Y015760D01*
X009220Y015760D02*
X009220Y015240D01*
X010220Y015240D02*
X010220Y015760D01*
X011220Y015760D02*
X011220Y015240D01*
X012220Y015240D02*
X012220Y015760D01*
X013220Y015760D02*
X013220Y015240D01*
X014220Y015240D02*
X014220Y015760D01*
X015220Y015760D02*
X015220Y015240D01*
D19*
X026720Y005894D03*
X028570Y004713D03*
X026720Y003531D03*
D20*
X025220Y007250D03*
X025720Y007750D03*
X027720Y007750D03*
X031220Y010000D03*
X031220Y011000D03*
X026220Y015000D03*
X025720Y015000D03*
X025720Y015500D03*
X026220Y015500D03*
X018720Y011500D03*
X020720Y009750D03*
X021220Y009000D03*
X017720Y007250D03*
X017220Y006000D03*
X015720Y005750D03*
X013970Y004750D03*
X014720Y004250D03*
X012220Y003750D03*
X013720Y006750D03*
X012220Y007750D03*
X013720Y008250D03*
X013720Y009250D03*
X012220Y010250D03*
X015720Y007250D03*
X016470Y014000D03*
X016470Y014500D03*
X016470Y015000D03*
X016470Y015500D03*
X013720Y016500D03*
X013470Y017250D03*
X013970Y017250D03*
X013970Y017750D03*
X013470Y017750D03*
X013470Y019250D03*
X013970Y019250D03*
X013970Y019750D03*
X013470Y019750D03*
X015220Y020500D03*
X015720Y021000D03*
X016220Y021500D03*
X016720Y022000D03*
X012220Y022000D03*
X010220Y021500D03*
X007220Y021000D03*
X006220Y020500D03*
X004720Y020000D03*
X005720Y017000D03*
X006720Y017000D03*
X007720Y017000D03*
X010720Y017500D03*
X011720Y016500D03*
X013220Y014000D03*
X002720Y013500D03*
X000720Y015500D03*
X001970Y011000D03*
M02*
