G75*
%MOIN*%
%OFA0B0*%
%FSLAX24Y24*%
%IPPOS*%
%LPD*%
%AMOC8*
5,1,8,0,0,1.08239X$1,22.5*
%
%ADD10C,0.0080*%
%ADD11R,0.4000X0.0400*%
%ADD12C,0.0060*%
%ADD13C,0.0050*%
%ADD14C,0.0005*%
%ADD15C,0.0200*%
%ADD16R,0.4200X0.0300*%
%ADD17R,0.0750X0.0200*%
%ADD18R,0.0300X0.0200*%
%ADD19C,0.0040*%
%ADD20R,0.0492X0.2441*%
%ADD21R,0.3366X0.0020*%
%ADD22R,0.3425X0.0020*%
%ADD23R,0.3445X0.0020*%
%ADD24R,0.3465X0.0020*%
%ADD25R,0.3484X0.0020*%
%ADD26R,0.3406X0.0020*%
%ADD27R,0.0315X0.0020*%
%ADD28R,0.0039X0.0020*%
%ADD29R,0.0059X0.0020*%
%ADD30R,0.0079X0.0020*%
%ADD31R,0.0098X0.0020*%
%ADD32R,0.0118X0.0020*%
%ADD33R,0.0157X0.0020*%
%ADD34R,0.0177X0.0020*%
%ADD35R,0.0197X0.0020*%
%ADD36R,0.0217X0.0020*%
%ADD37R,0.0256X0.0020*%
%ADD38R,0.0276X0.0020*%
%ADD39R,0.0335X0.0020*%
%ADD40R,0.0138X0.0020*%
%ADD41R,0.0020X0.0020*%
%ADD42R,0.0236X0.0020*%
%ADD43R,0.0295X0.0020*%
%ADD44R,0.0591X0.0020*%
%ADD45R,0.0571X0.0020*%
%ADD46R,0.0354X0.0020*%
%ADD47R,0.0630X0.0020*%
%ADD48R,0.0551X0.0020*%
%ADD49R,0.0531X0.0020*%
%ADD50R,0.0512X0.0020*%
%ADD51R,0.0492X0.0020*%
%ADD52R,0.0472X0.0020*%
%ADD53R,0.0433X0.0020*%
%ADD54R,0.0413X0.0020*%
%ADD55R,0.0394X0.0020*%
%ADD56R,0.0374X0.0020*%
D10*
X004370Y002300D02*
X006070Y002300D01*
X006420Y003100D02*
X006420Y003893D01*
X006070Y004700D02*
X004370Y004700D01*
X004020Y003905D02*
X004020Y003100D01*
X004520Y003500D02*
X004522Y003552D01*
X004528Y003604D01*
X004538Y003656D01*
X004551Y003706D01*
X004568Y003756D01*
X004589Y003804D01*
X004614Y003850D01*
X004642Y003894D01*
X004673Y003936D01*
X004707Y003976D01*
X004744Y004013D01*
X004784Y004047D01*
X004826Y004078D01*
X004870Y004106D01*
X004916Y004131D01*
X004964Y004152D01*
X005014Y004169D01*
X005064Y004182D01*
X005116Y004192D01*
X005168Y004198D01*
X005220Y004200D01*
X005272Y004198D01*
X005324Y004192D01*
X005376Y004182D01*
X005426Y004169D01*
X005476Y004152D01*
X005524Y004131D01*
X005570Y004106D01*
X005614Y004078D01*
X005656Y004047D01*
X005696Y004013D01*
X005733Y003976D01*
X005767Y003936D01*
X005798Y003894D01*
X005826Y003850D01*
X005851Y003804D01*
X005872Y003756D01*
X005889Y003706D01*
X005902Y003656D01*
X005912Y003604D01*
X005918Y003552D01*
X005920Y003500D01*
X005918Y003448D01*
X005912Y003396D01*
X005902Y003344D01*
X005889Y003294D01*
X005872Y003244D01*
X005851Y003196D01*
X005826Y003150D01*
X005798Y003106D01*
X005767Y003064D01*
X005733Y003024D01*
X005696Y002987D01*
X005656Y002953D01*
X005614Y002922D01*
X005570Y002894D01*
X005524Y002869D01*
X005476Y002848D01*
X005426Y002831D01*
X005376Y002818D01*
X005324Y002808D01*
X005272Y002802D01*
X005220Y002800D01*
X005168Y002802D01*
X005116Y002808D01*
X005064Y002818D01*
X005014Y002831D01*
X004964Y002848D01*
X004916Y002869D01*
X004870Y002894D01*
X004826Y002922D01*
X004784Y002953D01*
X004744Y002987D01*
X004707Y003024D01*
X004673Y003064D01*
X004642Y003106D01*
X004614Y003150D01*
X004589Y003196D01*
X004568Y003244D01*
X004551Y003294D01*
X004538Y003344D01*
X004528Y003396D01*
X004522Y003448D01*
X004520Y003500D01*
X001720Y004750D02*
X001720Y005250D01*
X001970Y005500D02*
X002470Y005500D01*
X002720Y005750D01*
X002970Y005500D01*
X003470Y005500D01*
X003720Y005750D01*
X003970Y005500D01*
X004470Y005500D01*
X004720Y005750D01*
X004970Y005500D01*
X005470Y005500D01*
X005720Y005750D01*
X005970Y005500D01*
X006470Y005500D01*
X006720Y005750D01*
X006970Y005500D01*
X007470Y005500D01*
X007720Y005750D01*
X007720Y006250D01*
X007470Y006500D01*
X006970Y006500D01*
X006720Y006250D01*
X006470Y006500D01*
X005970Y006500D01*
X005720Y006250D01*
X005470Y006500D01*
X004970Y006500D01*
X004720Y006250D01*
X004470Y006500D01*
X003970Y006500D01*
X003720Y006250D01*
X003470Y006500D01*
X002970Y006500D01*
X002720Y006250D01*
X002470Y006500D01*
X001970Y006500D01*
X001720Y006250D01*
X001720Y005750D01*
X001970Y005500D01*
X002720Y007750D02*
X002720Y008250D01*
X001720Y009000D02*
X001570Y009000D01*
X001536Y009001D01*
X001501Y009005D01*
X001468Y009013D01*
X001435Y009024D01*
X001404Y009039D01*
X001374Y009056D01*
X001346Y009077D01*
X001320Y009100D01*
X001297Y009126D01*
X001276Y009154D01*
X001259Y009184D01*
X001244Y009215D01*
X001233Y009248D01*
X001225Y009281D01*
X001221Y009316D01*
X001220Y009350D01*
X001220Y010300D01*
X001220Y010700D01*
X005220Y010700D01*
X005220Y010300D01*
X001220Y010300D01*
X004720Y009000D02*
X004870Y009000D01*
X004904Y009001D01*
X004939Y009005D01*
X004972Y009013D01*
X005005Y009024D01*
X005036Y009039D01*
X005066Y009056D01*
X005094Y009077D01*
X005120Y009100D01*
X005143Y009126D01*
X005164Y009154D01*
X005181Y009184D01*
X005196Y009215D01*
X005207Y009248D01*
X005215Y009281D01*
X005219Y009316D01*
X005220Y009350D01*
X005220Y010300D01*
X007720Y010250D02*
X007720Y010750D01*
X007870Y009400D02*
X010570Y009400D01*
X010629Y009398D01*
X010687Y009392D01*
X010746Y009383D01*
X010803Y009369D01*
X010859Y009352D01*
X010914Y009331D01*
X010968Y009307D01*
X011020Y009279D01*
X011070Y009248D01*
X011118Y009214D01*
X011163Y009177D01*
X011206Y009136D01*
X011247Y009093D01*
X011284Y009048D01*
X011318Y009000D01*
X011349Y008950D01*
X011377Y008898D01*
X011401Y008844D01*
X011422Y008789D01*
X011439Y008733D01*
X011453Y008676D01*
X011462Y008617D01*
X011468Y008559D01*
X011470Y008500D01*
X011468Y008441D01*
X011462Y008383D01*
X011453Y008324D01*
X011439Y008267D01*
X011422Y008211D01*
X011401Y008156D01*
X011377Y008102D01*
X011349Y008050D01*
X011318Y008000D01*
X011284Y007952D01*
X011247Y007907D01*
X011206Y007864D01*
X011163Y007823D01*
X011118Y007786D01*
X011070Y007752D01*
X011020Y007721D01*
X010968Y007693D01*
X010914Y007669D01*
X010859Y007648D01*
X010803Y007631D01*
X010746Y007617D01*
X010687Y007608D01*
X010629Y007602D01*
X010570Y007600D01*
X007870Y007600D01*
X007811Y007602D01*
X007753Y007608D01*
X007694Y007617D01*
X007637Y007631D01*
X007581Y007648D01*
X007526Y007669D01*
X007472Y007693D01*
X007420Y007721D01*
X007370Y007752D01*
X007322Y007786D01*
X007277Y007823D01*
X007234Y007864D01*
X007193Y007907D01*
X007156Y007952D01*
X007122Y008000D01*
X007091Y008050D01*
X007063Y008102D01*
X007039Y008156D01*
X007018Y008211D01*
X007001Y008267D01*
X006987Y008324D01*
X006978Y008383D01*
X006972Y008441D01*
X006970Y008500D01*
X006972Y008559D01*
X006978Y008617D01*
X006987Y008676D01*
X007001Y008733D01*
X007018Y008789D01*
X007039Y008844D01*
X007063Y008898D01*
X007091Y008950D01*
X007122Y009000D01*
X007156Y009048D01*
X007193Y009093D01*
X007234Y009136D01*
X007277Y009177D01*
X007322Y009214D01*
X007370Y009248D01*
X007420Y009279D01*
X007472Y009307D01*
X007526Y009331D01*
X007581Y009352D01*
X007637Y009369D01*
X007694Y009383D01*
X007753Y009392D01*
X007811Y009398D01*
X007870Y009400D01*
X010220Y010250D02*
X010220Y010750D01*
X015620Y012800D02*
X015720Y012800D01*
X015720Y015200D01*
X015620Y015200D01*
X016720Y015300D02*
X016720Y015700D01*
X020720Y015700D01*
X020720Y015300D01*
X016720Y015300D01*
X016720Y014350D01*
X016721Y014316D01*
X016725Y014281D01*
X016733Y014248D01*
X016744Y014215D01*
X016759Y014184D01*
X016776Y014154D01*
X016797Y014126D01*
X016820Y014100D01*
X016846Y014077D01*
X016874Y014056D01*
X016904Y014039D01*
X016935Y014024D01*
X016968Y014013D01*
X017001Y014005D01*
X017036Y014001D01*
X017070Y014000D01*
X017220Y014000D01*
X019220Y012750D02*
X019220Y012250D01*
X018220Y010800D02*
X018220Y010500D01*
X018320Y010500D01*
X018220Y010500D02*
X018120Y010500D01*
X018220Y010500D02*
X018220Y010200D01*
X023472Y010846D02*
X024968Y010846D01*
X024968Y014154D01*
X023472Y014154D01*
X023472Y010846D01*
X025972Y010846D02*
X027468Y010846D01*
X027468Y014154D01*
X025972Y014154D01*
X025972Y010846D01*
X020370Y014000D02*
X020220Y014000D01*
X020370Y014000D02*
X020404Y014001D01*
X020439Y014005D01*
X020472Y014013D01*
X020505Y014024D01*
X020536Y014039D01*
X020566Y014056D01*
X020594Y014077D01*
X020620Y014100D01*
X020643Y014126D01*
X020664Y014154D01*
X020681Y014184D01*
X020696Y014215D01*
X020707Y014248D01*
X020715Y014281D01*
X020719Y014316D01*
X020720Y014350D01*
X020720Y015300D01*
X031256Y015856D02*
X031256Y016644D01*
X031797Y016250D01*
X031256Y015856D01*
X037720Y013250D02*
X037720Y012750D01*
X037970Y012500D01*
X037720Y012250D01*
X037720Y011750D01*
X037970Y011500D01*
X038470Y011500D01*
X038720Y011750D01*
X038720Y012250D01*
X038470Y012500D01*
X038720Y012750D01*
X038720Y013250D01*
X038470Y013500D01*
X037970Y013500D01*
X037720Y013250D01*
X028492Y005894D02*
X027665Y005894D01*
X028492Y005894D02*
X028492Y005618D01*
X025775Y005894D02*
X024948Y005894D01*
X024948Y001681D01*
X028492Y001681D01*
X028492Y003768D01*
X029720Y003250D02*
X029720Y002750D01*
X029970Y002500D01*
X030470Y002500D01*
X030720Y002750D01*
X030970Y002500D01*
X031470Y002500D01*
X031720Y002750D01*
X031970Y002500D01*
X032470Y002500D01*
X032720Y002750D01*
X032970Y002500D01*
X033470Y002500D01*
X033720Y002750D01*
X033970Y002500D01*
X034470Y002500D01*
X034720Y002750D01*
X034970Y002500D01*
X035470Y002500D01*
X035720Y002750D01*
X035970Y002500D01*
X036470Y002500D01*
X036720Y002750D01*
X036720Y003250D01*
X036470Y003500D01*
X035970Y003500D01*
X035720Y003250D01*
X035470Y003500D01*
X034970Y003500D01*
X034720Y003250D01*
X034470Y003500D01*
X033970Y003500D01*
X033720Y003250D01*
X033470Y003500D01*
X032970Y003500D01*
X032720Y003250D01*
X032470Y003500D01*
X031970Y003500D01*
X031720Y003250D01*
X031470Y003500D01*
X030970Y003500D01*
X030720Y003250D01*
X030470Y003500D01*
X029970Y003500D01*
X029720Y003250D01*
X016220Y002750D02*
X016220Y002250D01*
X011620Y002650D02*
X011620Y005350D01*
X011618Y005409D01*
X011612Y005467D01*
X011603Y005526D01*
X011589Y005583D01*
X011572Y005639D01*
X011551Y005694D01*
X011527Y005748D01*
X011499Y005800D01*
X011468Y005850D01*
X011434Y005898D01*
X011397Y005943D01*
X011356Y005986D01*
X011313Y006027D01*
X011268Y006064D01*
X011220Y006098D01*
X011170Y006129D01*
X011118Y006157D01*
X011064Y006181D01*
X011009Y006202D01*
X010953Y006219D01*
X010896Y006233D01*
X010837Y006242D01*
X010779Y006248D01*
X010720Y006250D01*
X010661Y006248D01*
X010603Y006242D01*
X010544Y006233D01*
X010487Y006219D01*
X010431Y006202D01*
X010376Y006181D01*
X010322Y006157D01*
X010270Y006129D01*
X010220Y006098D01*
X010172Y006064D01*
X010127Y006027D01*
X010084Y005986D01*
X010043Y005943D01*
X010006Y005898D01*
X009972Y005850D01*
X009941Y005800D01*
X009913Y005748D01*
X009889Y005694D01*
X009868Y005639D01*
X009851Y005583D01*
X009837Y005526D01*
X009828Y005467D01*
X009822Y005409D01*
X009820Y005350D01*
X009820Y002650D01*
X009822Y002591D01*
X009828Y002533D01*
X009837Y002474D01*
X009851Y002417D01*
X009868Y002361D01*
X009889Y002306D01*
X009913Y002252D01*
X009941Y002200D01*
X009972Y002150D01*
X010006Y002102D01*
X010043Y002057D01*
X010084Y002014D01*
X010127Y001973D01*
X010172Y001936D01*
X010220Y001902D01*
X010270Y001871D01*
X010322Y001843D01*
X010376Y001819D01*
X010431Y001798D01*
X010487Y001781D01*
X010544Y001767D01*
X010603Y001758D01*
X010661Y001752D01*
X010720Y001750D01*
X010779Y001752D01*
X010837Y001758D01*
X010896Y001767D01*
X010953Y001781D01*
X011009Y001798D01*
X011064Y001819D01*
X011118Y001843D01*
X011170Y001871D01*
X011220Y001902D01*
X011268Y001936D01*
X011313Y001973D01*
X011356Y002014D01*
X011397Y002057D01*
X011434Y002102D01*
X011468Y002150D01*
X011499Y002200D01*
X011527Y002252D01*
X011551Y002306D01*
X011572Y002361D01*
X011589Y002417D01*
X011603Y002474D01*
X011612Y002533D01*
X011618Y002591D01*
X011620Y002650D01*
X008720Y002750D02*
X008720Y003250D01*
X008720Y004750D02*
X008720Y005250D01*
X001820Y012800D02*
X001720Y012800D01*
X001720Y013500D01*
X001764Y013502D01*
X001807Y013508D01*
X001849Y013517D01*
X001891Y013530D01*
X001931Y013547D01*
X001970Y013567D01*
X002007Y013590D01*
X002041Y013617D01*
X002074Y013646D01*
X002103Y013679D01*
X002130Y013713D01*
X002153Y013750D01*
X002173Y013789D01*
X002190Y013829D01*
X002203Y013871D01*
X002212Y013913D01*
X002218Y013956D01*
X002220Y014000D01*
X002218Y014044D01*
X002212Y014087D01*
X002203Y014129D01*
X002190Y014171D01*
X002173Y014211D01*
X002153Y014250D01*
X002130Y014287D01*
X002103Y014321D01*
X002074Y014354D01*
X002041Y014383D01*
X002007Y014410D01*
X001970Y014433D01*
X001931Y014453D01*
X001891Y014470D01*
X001849Y014483D01*
X001807Y014492D01*
X001764Y014498D01*
X001720Y014500D01*
X001720Y015200D01*
X001820Y015200D01*
X003032Y020000D02*
X003034Y020052D01*
X003040Y020104D01*
X003050Y020155D01*
X003063Y020205D01*
X003081Y020254D01*
X003102Y020302D01*
X003126Y020348D01*
X003154Y020392D01*
X003186Y020433D01*
X003220Y020472D01*
X003257Y020509D01*
X003297Y020543D01*
X003339Y020573D01*
X003384Y020600D01*
X003430Y020624D01*
X003478Y020644D01*
X003527Y020660D01*
X003578Y020673D01*
X003629Y020682D01*
X003681Y020687D01*
X003733Y020688D01*
X003785Y020685D01*
X003837Y020678D01*
X003888Y020667D01*
X003938Y020653D01*
X003986Y020634D01*
X004034Y020612D01*
X004079Y020587D01*
X004122Y020558D01*
X004163Y020526D01*
X004202Y020491D01*
X004238Y020453D01*
X004270Y020413D01*
X004300Y020370D01*
X004326Y020325D01*
X004349Y020278D01*
X004368Y020230D01*
X004384Y020180D01*
X004396Y020129D01*
X004404Y020078D01*
X004408Y020026D01*
X004408Y019974D01*
X004404Y019922D01*
X004396Y019871D01*
X004384Y019820D01*
X004368Y019770D01*
X004349Y019722D01*
X004326Y019675D01*
X004300Y019630D01*
X004270Y019587D01*
X004238Y019547D01*
X004202Y019509D01*
X004163Y019474D01*
X004122Y019442D01*
X004079Y019413D01*
X004034Y019388D01*
X003986Y019366D01*
X003938Y019347D01*
X003888Y019333D01*
X003837Y019322D01*
X003785Y019315D01*
X003733Y019312D01*
X003681Y019313D01*
X003629Y019318D01*
X003578Y019327D01*
X003527Y019340D01*
X003478Y019356D01*
X003430Y019376D01*
X003384Y019400D01*
X003339Y019427D01*
X003297Y019457D01*
X003257Y019491D01*
X003220Y019528D01*
X003186Y019567D01*
X003154Y019608D01*
X003126Y019652D01*
X003102Y019698D01*
X003081Y019746D01*
X003063Y019795D01*
X003050Y019845D01*
X003040Y019896D01*
X003034Y019948D01*
X003032Y020000D01*
X003032Y022000D02*
X003034Y022052D01*
X003040Y022104D01*
X003050Y022155D01*
X003063Y022205D01*
X003081Y022254D01*
X003102Y022302D01*
X003126Y022348D01*
X003154Y022392D01*
X003186Y022433D01*
X003220Y022472D01*
X003257Y022509D01*
X003297Y022543D01*
X003339Y022573D01*
X003384Y022600D01*
X003430Y022624D01*
X003478Y022644D01*
X003527Y022660D01*
X003578Y022673D01*
X003629Y022682D01*
X003681Y022687D01*
X003733Y022688D01*
X003785Y022685D01*
X003837Y022678D01*
X003888Y022667D01*
X003938Y022653D01*
X003986Y022634D01*
X004034Y022612D01*
X004079Y022587D01*
X004122Y022558D01*
X004163Y022526D01*
X004202Y022491D01*
X004238Y022453D01*
X004270Y022413D01*
X004300Y022370D01*
X004326Y022325D01*
X004349Y022278D01*
X004368Y022230D01*
X004384Y022180D01*
X004396Y022129D01*
X004404Y022078D01*
X004408Y022026D01*
X004408Y021974D01*
X004404Y021922D01*
X004396Y021871D01*
X004384Y021820D01*
X004368Y021770D01*
X004349Y021722D01*
X004326Y021675D01*
X004300Y021630D01*
X004270Y021587D01*
X004238Y021547D01*
X004202Y021509D01*
X004163Y021474D01*
X004122Y021442D01*
X004079Y021413D01*
X004034Y021388D01*
X003986Y021366D01*
X003938Y021347D01*
X003888Y021333D01*
X003837Y021322D01*
X003785Y021315D01*
X003733Y021312D01*
X003681Y021313D01*
X003629Y021318D01*
X003578Y021327D01*
X003527Y021340D01*
X003478Y021356D01*
X003430Y021376D01*
X003384Y021400D01*
X003339Y021427D01*
X003297Y021457D01*
X003257Y021491D01*
X003220Y021528D01*
X003186Y021567D01*
X003154Y021608D01*
X003126Y021652D01*
X003102Y021698D01*
X003081Y021746D01*
X003063Y021795D01*
X003050Y021845D01*
X003040Y021896D01*
X003034Y021948D01*
X003032Y022000D01*
D11*
X018720Y015500D03*
X003220Y010500D03*
D12*
X018075Y010980D02*
X018302Y011207D01*
X018302Y011264D01*
X018245Y011320D01*
X018131Y011320D01*
X018075Y011264D01*
X018075Y010980D02*
X018302Y010980D01*
X018443Y010980D02*
X018443Y011320D01*
X018613Y011207D02*
X018443Y011093D01*
X018613Y010980D01*
X028770Y012900D02*
X028720Y014050D01*
X028770Y012900D02*
X028870Y012800D01*
X032570Y012800D01*
X032670Y012900D01*
X032720Y014050D01*
X031870Y012000D02*
X031120Y012000D01*
X031118Y011961D01*
X031112Y011922D01*
X031103Y011884D01*
X031090Y011847D01*
X031073Y011811D01*
X031053Y011778D01*
X031029Y011746D01*
X031003Y011717D01*
X030974Y011691D01*
X030942Y011667D01*
X030909Y011647D01*
X030873Y011630D01*
X030836Y011617D01*
X030798Y011608D01*
X030759Y011602D01*
X030720Y011600D01*
X030681Y011602D01*
X030642Y011608D01*
X030604Y011617D01*
X030567Y011630D01*
X030531Y011647D01*
X030498Y011667D01*
X030466Y011691D01*
X030437Y011717D01*
X030411Y011746D01*
X030387Y011778D01*
X030367Y011811D01*
X030350Y011847D01*
X030337Y011884D01*
X030328Y011922D01*
X030322Y011961D01*
X030320Y012000D01*
X029570Y012000D01*
X029570Y008000D01*
X031870Y008000D01*
X031870Y012000D01*
D13*
X034368Y014260D02*
X033580Y015047D01*
X033580Y016386D01*
X033580Y017724D02*
X033580Y018984D01*
X034368Y019772D01*
X039092Y019772D01*
X039092Y017724D01*
X038383Y018630D02*
X038383Y019575D01*
X034761Y019024D02*
X033816Y019024D01*
X034289Y018551D02*
X034289Y019496D01*
X031157Y018713D02*
X031157Y020287D01*
X024850Y019500D02*
X024852Y019597D01*
X024858Y019694D01*
X024868Y019791D01*
X024882Y019888D01*
X024900Y019983D01*
X024922Y020078D01*
X024947Y020172D01*
X024977Y020265D01*
X025010Y020356D01*
X025047Y020446D01*
X025088Y020535D01*
X025132Y020621D01*
X025180Y020706D01*
X025231Y020789D01*
X025286Y020869D01*
X025343Y020948D01*
X025404Y021023D01*
X025469Y021097D01*
X025536Y021167D01*
X025605Y021235D01*
X025678Y021300D01*
X025753Y021362D01*
X025831Y021420D01*
X025911Y021476D01*
X025993Y021528D01*
X026077Y021576D01*
X026164Y021622D01*
X026252Y021663D01*
X026341Y021701D01*
X026432Y021735D01*
X026525Y021766D01*
X026618Y021792D01*
X026713Y021815D01*
X026808Y021834D01*
X026905Y021849D01*
X027001Y021860D01*
X027098Y021867D01*
X027196Y021870D01*
X027293Y021869D01*
X027390Y021864D01*
X027487Y021855D01*
X027584Y021842D01*
X027679Y021825D01*
X027774Y021804D01*
X027869Y021780D01*
X027962Y021751D01*
X028053Y021719D01*
X028144Y021683D01*
X028233Y021643D01*
X028320Y021599D01*
X028405Y021552D01*
X028488Y021502D01*
X028569Y021448D01*
X028648Y021391D01*
X028725Y021331D01*
X028799Y021268D01*
X028870Y021201D01*
X028938Y021132D01*
X029004Y021060D01*
X029066Y020986D01*
X029126Y020909D01*
X029182Y020829D01*
X029235Y020748D01*
X029285Y020664D01*
X029331Y020578D01*
X029373Y020491D01*
X029412Y020401D01*
X029447Y020311D01*
X029478Y020218D01*
X029506Y020125D01*
X029530Y020031D01*
X029550Y019935D01*
X029566Y019839D01*
X029578Y019743D01*
X029586Y019646D01*
X029590Y019549D01*
X029590Y019451D01*
X029586Y019354D01*
X029578Y019257D01*
X029566Y019161D01*
X029550Y019065D01*
X029530Y018969D01*
X029506Y018875D01*
X029478Y018782D01*
X029447Y018689D01*
X029412Y018599D01*
X029373Y018509D01*
X029331Y018422D01*
X029285Y018336D01*
X029235Y018252D01*
X029182Y018171D01*
X029126Y018091D01*
X029066Y018014D01*
X029004Y017940D01*
X028938Y017868D01*
X028870Y017799D01*
X028799Y017732D01*
X028725Y017669D01*
X028648Y017609D01*
X028569Y017552D01*
X028488Y017498D01*
X028405Y017448D01*
X028320Y017401D01*
X028233Y017357D01*
X028144Y017317D01*
X028053Y017281D01*
X027962Y017249D01*
X027869Y017220D01*
X027774Y017196D01*
X027679Y017175D01*
X027584Y017158D01*
X027487Y017145D01*
X027390Y017136D01*
X027293Y017131D01*
X027196Y017130D01*
X027098Y017133D01*
X027001Y017140D01*
X026905Y017151D01*
X026808Y017166D01*
X026713Y017185D01*
X026618Y017208D01*
X026525Y017234D01*
X026432Y017265D01*
X026341Y017299D01*
X026252Y017337D01*
X026164Y017378D01*
X026077Y017424D01*
X025993Y017472D01*
X025911Y017524D01*
X025831Y017580D01*
X025753Y017638D01*
X025678Y017700D01*
X025605Y017765D01*
X025536Y017833D01*
X025469Y017903D01*
X025404Y017977D01*
X025343Y018052D01*
X025286Y018131D01*
X025231Y018211D01*
X025180Y018294D01*
X025132Y018379D01*
X025088Y018465D01*
X025047Y018554D01*
X025010Y018644D01*
X024977Y018735D01*
X024947Y018828D01*
X024922Y018922D01*
X024900Y019017D01*
X024882Y019112D01*
X024868Y019209D01*
X024858Y019306D01*
X024852Y019403D01*
X024850Y019500D01*
X023283Y020287D02*
X023283Y018713D01*
X022114Y017713D02*
X000854Y017713D01*
X000460Y015744D02*
X000460Y022831D01*
X022507Y022831D01*
X022507Y015744D01*
X000460Y015744D01*
X018169Y009063D02*
X024271Y009063D01*
X024271Y000500D01*
X018169Y000500D01*
X018169Y009063D01*
X024102Y011909D02*
X024338Y011909D01*
X024220Y012972D02*
X024220Y013209D01*
X024338Y013091D02*
X024102Y013091D01*
X026602Y013091D02*
X026838Y013091D01*
X026720Y013209D02*
X026720Y012972D01*
X026602Y011909D02*
X026838Y011909D01*
X034368Y014260D02*
X039092Y014260D01*
X039092Y016386D01*
X038598Y010524D02*
X038126Y010524D01*
X038126Y010445D01*
X038126Y010524D02*
X036314Y010524D01*
X036314Y010445D01*
X036314Y010524D02*
X035842Y010524D01*
X035842Y010445D01*
X038598Y010445D02*
X038598Y010524D01*
X038598Y008555D02*
X038598Y008476D01*
X038126Y008476D01*
X038126Y008555D01*
X038126Y008476D02*
X036314Y008476D01*
X036314Y008555D01*
X036314Y008476D02*
X035842Y008476D01*
X035842Y008555D01*
X031389Y007445D02*
X031389Y007327D01*
X031389Y007445D02*
X030011Y007445D01*
X030011Y006972D01*
X031389Y006697D02*
X031389Y006303D01*
X031389Y005673D02*
X031389Y005516D01*
X030011Y005516D01*
X030011Y006028D01*
D14*
X031152Y018734D02*
X031159Y018690D01*
X031066Y018673D01*
X030975Y018651D01*
X030884Y018626D01*
X030794Y018597D01*
X030706Y018565D01*
X030619Y018528D01*
X030534Y018489D01*
X030450Y018445D01*
X030369Y018399D01*
X030289Y018349D01*
X030211Y018295D01*
X030136Y018239D01*
X030063Y018179D01*
X029993Y018117D01*
X029925Y018052D01*
X029860Y017984D01*
X029798Y017913D01*
X029764Y017941D01*
X029764Y017942D01*
X029823Y018010D01*
X029886Y018076D01*
X029951Y018139D01*
X030018Y018200D01*
X030087Y018258D01*
X030159Y018313D01*
X030233Y018366D01*
X030309Y018415D01*
X030387Y018462D01*
X030467Y018505D01*
X030548Y018545D01*
X030630Y018582D01*
X030714Y018616D01*
X030800Y018647D01*
X030886Y018674D01*
X030974Y018698D01*
X031062Y018718D01*
X031151Y018735D01*
X031152Y018731D01*
X031063Y018714D01*
X030975Y018694D01*
X030887Y018670D01*
X030801Y018643D01*
X030716Y018612D01*
X030632Y018579D01*
X030549Y018542D01*
X030468Y018501D01*
X030389Y018458D01*
X030311Y018412D01*
X030235Y018362D01*
X030162Y018310D01*
X030090Y018255D01*
X030021Y018197D01*
X029953Y018136D01*
X029889Y018073D01*
X029826Y018007D01*
X029767Y017939D01*
X029770Y017937D01*
X029829Y018005D01*
X029891Y018070D01*
X029956Y018133D01*
X030023Y018194D01*
X030092Y018252D01*
X030164Y018307D01*
X030238Y018359D01*
X030313Y018408D01*
X030391Y018455D01*
X030470Y018498D01*
X030551Y018538D01*
X030634Y018575D01*
X030717Y018609D01*
X030802Y018639D01*
X030889Y018666D01*
X030976Y018690D01*
X031064Y018710D01*
X031152Y018727D01*
X031153Y018723D01*
X031059Y018705D01*
X030966Y018683D01*
X030874Y018658D01*
X030784Y018628D01*
X030694Y018595D01*
X030606Y018559D01*
X030519Y018518D01*
X030435Y018474D01*
X030352Y018427D01*
X030271Y018376D01*
X030192Y018322D01*
X030116Y018265D01*
X030042Y018205D01*
X029970Y018141D01*
X029902Y018075D01*
X029836Y018006D01*
X029773Y017934D01*
X029776Y017932D01*
X029839Y018003D01*
X029905Y018072D01*
X029973Y018138D01*
X030044Y018202D01*
X030118Y018262D01*
X030195Y018319D01*
X030273Y018373D01*
X030354Y018424D01*
X030437Y018471D01*
X030521Y018515D01*
X030607Y018555D01*
X030695Y018592D01*
X030785Y018625D01*
X030876Y018654D01*
X030967Y018679D01*
X031060Y018701D01*
X031154Y018719D01*
X031154Y018715D01*
X031061Y018697D01*
X030968Y018676D01*
X030877Y018650D01*
X030786Y018621D01*
X030697Y018588D01*
X030609Y018551D01*
X030523Y018511D01*
X030438Y018467D01*
X030356Y018420D01*
X030275Y018370D01*
X030197Y018316D01*
X030121Y018259D01*
X030047Y018199D01*
X029976Y018135D01*
X029907Y018069D01*
X029842Y018000D01*
X029779Y017929D01*
X029782Y017926D01*
X029845Y017998D01*
X029910Y018066D01*
X029979Y018132D01*
X030050Y018195D01*
X030123Y018256D01*
X030199Y018313D01*
X030277Y018366D01*
X030358Y018417D01*
X030440Y018464D01*
X030525Y018508D01*
X030611Y018548D01*
X030698Y018584D01*
X030787Y018617D01*
X030878Y018646D01*
X030969Y018672D01*
X031062Y018693D01*
X031155Y018711D01*
X031156Y018707D01*
X031063Y018689D01*
X030970Y018668D01*
X030879Y018642D01*
X030789Y018613D01*
X030700Y018580D01*
X030612Y018544D01*
X030526Y018504D01*
X030442Y018460D01*
X030360Y018413D01*
X030280Y018363D01*
X030202Y018309D01*
X030126Y018252D01*
X030052Y018192D01*
X029981Y018129D01*
X029913Y018064D01*
X029848Y017995D01*
X029785Y017924D01*
X029788Y017921D01*
X029851Y017992D01*
X029916Y018061D01*
X029984Y018127D01*
X030055Y018189D01*
X030128Y018249D01*
X030204Y018306D01*
X030282Y018360D01*
X030362Y018410D01*
X030444Y018457D01*
X030528Y018500D01*
X030614Y018540D01*
X030701Y018577D01*
X030790Y018610D01*
X030880Y018639D01*
X030971Y018664D01*
X031063Y018685D01*
X031156Y018703D01*
X031157Y018699D01*
X031064Y018682D01*
X030972Y018660D01*
X030881Y018635D01*
X030791Y018606D01*
X030703Y018573D01*
X030616Y018537D01*
X030530Y018497D01*
X030446Y018453D01*
X030364Y018406D01*
X030284Y018356D01*
X030206Y018303D01*
X030131Y018246D01*
X030057Y018186D01*
X029987Y018124D01*
X029919Y018058D01*
X029854Y017990D01*
X029791Y017919D01*
X029794Y017916D01*
X029857Y017987D01*
X029922Y018055D01*
X029989Y018121D01*
X030060Y018183D01*
X030133Y018243D01*
X030209Y018300D01*
X030286Y018353D01*
X030366Y018403D01*
X030448Y018450D01*
X030532Y018493D01*
X030617Y018533D01*
X030704Y018569D01*
X030793Y018602D01*
X030882Y018631D01*
X030973Y018656D01*
X031065Y018678D01*
X031158Y018695D01*
X031158Y018691D01*
X031066Y018674D01*
X030974Y018652D01*
X030884Y018627D01*
X030794Y018598D01*
X030706Y018566D01*
X030619Y018529D01*
X030533Y018490D01*
X030450Y018446D01*
X030368Y018400D01*
X030288Y018350D01*
X030211Y018296D01*
X030136Y018240D01*
X030063Y018180D01*
X029992Y018118D01*
X029924Y018052D01*
X029859Y017984D01*
X029797Y017914D01*
X024643Y017911D02*
X024681Y017935D01*
X024681Y017934D02*
X024739Y017843D01*
X024801Y017754D01*
X024866Y017667D01*
X024935Y017583D01*
X025006Y017501D01*
X025080Y017422D01*
X025157Y017345D01*
X025237Y017272D01*
X025319Y017201D01*
X025404Y017134D01*
X025491Y017069D01*
X025581Y017008D01*
X025672Y016950D01*
X025766Y016895D01*
X025862Y016844D01*
X025959Y016797D01*
X026058Y016753D01*
X026159Y016712D01*
X026261Y016675D01*
X026364Y016642D01*
X026469Y016613D01*
X026574Y016588D01*
X026681Y016566D01*
X026788Y016549D01*
X026895Y016535D01*
X027003Y016525D01*
X027112Y016519D01*
X027220Y016517D01*
X027328Y016519D01*
X027437Y016525D01*
X027545Y016535D01*
X027652Y016549D01*
X027759Y016566D01*
X027866Y016588D01*
X027971Y016613D01*
X028076Y016642D01*
X028179Y016675D01*
X028281Y016712D01*
X028382Y016753D01*
X028481Y016797D01*
X028578Y016844D01*
X028674Y016895D01*
X028768Y016950D01*
X028859Y017008D01*
X028949Y017069D01*
X029036Y017134D01*
X029121Y017201D01*
X029203Y017272D01*
X029283Y017345D01*
X029360Y017422D01*
X029434Y017501D01*
X029505Y017583D01*
X029574Y017667D01*
X029639Y017754D01*
X029701Y017843D01*
X029759Y017934D01*
X029797Y017911D01*
X029798Y017911D01*
X029739Y017820D01*
X029677Y017731D01*
X029613Y017644D01*
X029545Y017560D01*
X029474Y017478D01*
X029400Y017399D01*
X029324Y017322D01*
X029245Y017249D01*
X029163Y017178D01*
X029079Y017110D01*
X028992Y017045D01*
X028904Y016983D01*
X028813Y016925D01*
X028720Y016869D01*
X028625Y016817D01*
X028528Y016769D01*
X028429Y016724D01*
X028330Y016683D01*
X028228Y016645D01*
X028126Y016611D01*
X028022Y016580D01*
X027917Y016553D01*
X027811Y016530D01*
X027705Y016511D01*
X027598Y016496D01*
X027490Y016484D01*
X027382Y016476D01*
X027274Y016472D01*
X027166Y016472D01*
X027058Y016476D01*
X026950Y016484D01*
X026842Y016496D01*
X026735Y016511D01*
X026629Y016530D01*
X026523Y016553D01*
X026418Y016580D01*
X026314Y016611D01*
X026212Y016645D01*
X026110Y016683D01*
X026011Y016724D01*
X025912Y016769D01*
X025815Y016817D01*
X025720Y016869D01*
X025627Y016925D01*
X025536Y016983D01*
X025448Y017045D01*
X025361Y017110D01*
X025277Y017178D01*
X025195Y017249D01*
X025116Y017322D01*
X025040Y017399D01*
X024966Y017478D01*
X024895Y017560D01*
X024827Y017644D01*
X024763Y017731D01*
X024701Y017820D01*
X024642Y017911D01*
X024646Y017913D01*
X024704Y017822D01*
X024766Y017733D01*
X024830Y017647D01*
X024898Y017563D01*
X024969Y017481D01*
X025042Y017402D01*
X025119Y017325D01*
X025198Y017252D01*
X025279Y017181D01*
X025364Y017113D01*
X025450Y017048D01*
X025539Y016986D01*
X025630Y016928D01*
X025722Y016873D01*
X025817Y016821D01*
X025914Y016773D01*
X026012Y016728D01*
X026112Y016686D01*
X026213Y016649D01*
X026316Y016614D01*
X026419Y016584D01*
X026524Y016557D01*
X026630Y016534D01*
X026736Y016515D01*
X026843Y016500D01*
X026950Y016488D01*
X027058Y016480D01*
X027166Y016476D01*
X027274Y016476D01*
X027382Y016480D01*
X027490Y016488D01*
X027597Y016500D01*
X027704Y016515D01*
X027810Y016534D01*
X027916Y016557D01*
X028021Y016584D01*
X028124Y016614D01*
X028227Y016649D01*
X028328Y016686D01*
X028428Y016728D01*
X028526Y016773D01*
X028623Y016821D01*
X028718Y016873D01*
X028810Y016928D01*
X028901Y016986D01*
X028990Y017048D01*
X029076Y017113D01*
X029161Y017181D01*
X029242Y017252D01*
X029321Y017325D01*
X029398Y017402D01*
X029471Y017481D01*
X029542Y017563D01*
X029610Y017647D01*
X029674Y017733D01*
X029736Y017822D01*
X029794Y017913D01*
X029791Y017915D01*
X029732Y017824D01*
X029671Y017736D01*
X029606Y017649D01*
X029539Y017565D01*
X029468Y017484D01*
X029395Y017404D01*
X029318Y017328D01*
X029240Y017255D01*
X029158Y017184D01*
X029074Y017116D01*
X028988Y017051D01*
X028899Y016990D01*
X028808Y016931D01*
X028716Y016876D01*
X028621Y016825D01*
X028524Y016776D01*
X028426Y016731D01*
X028327Y016690D01*
X028226Y016652D01*
X028123Y016618D01*
X028020Y016588D01*
X027915Y016561D01*
X027810Y016538D01*
X027703Y016519D01*
X027597Y016504D01*
X027489Y016492D01*
X027382Y016484D01*
X027274Y016480D01*
X027166Y016480D01*
X027058Y016484D01*
X026951Y016492D01*
X026843Y016504D01*
X026737Y016519D01*
X026630Y016538D01*
X026525Y016561D01*
X026420Y016588D01*
X026317Y016618D01*
X026214Y016652D01*
X026113Y016690D01*
X026014Y016731D01*
X025916Y016776D01*
X025819Y016825D01*
X025724Y016876D01*
X025632Y016931D01*
X025541Y016990D01*
X025452Y017051D01*
X025366Y017116D01*
X025282Y017184D01*
X025200Y017255D01*
X025122Y017328D01*
X025045Y017404D01*
X024972Y017484D01*
X024901Y017565D01*
X024834Y017649D01*
X024769Y017736D01*
X024708Y017824D01*
X024649Y017915D01*
X024653Y017917D01*
X024711Y017826D01*
X024772Y017738D01*
X024837Y017652D01*
X024904Y017568D01*
X024975Y017486D01*
X025048Y017407D01*
X025124Y017331D01*
X025203Y017258D01*
X025285Y017187D01*
X025368Y017119D01*
X025455Y017055D01*
X025543Y016993D01*
X025634Y016935D01*
X025726Y016880D01*
X025821Y016828D01*
X025917Y016780D01*
X026015Y016735D01*
X026115Y016694D01*
X026216Y016656D01*
X026318Y016622D01*
X026421Y016592D01*
X026526Y016565D01*
X026631Y016542D01*
X026737Y016523D01*
X026844Y016508D01*
X026951Y016496D01*
X027058Y016488D01*
X027166Y016484D01*
X027274Y016484D01*
X027382Y016488D01*
X027489Y016496D01*
X027596Y016508D01*
X027703Y016523D01*
X027809Y016542D01*
X027914Y016565D01*
X028019Y016592D01*
X028122Y016622D01*
X028224Y016656D01*
X028325Y016694D01*
X028425Y016735D01*
X028523Y016780D01*
X028619Y016828D01*
X028714Y016880D01*
X028806Y016935D01*
X028897Y016993D01*
X028985Y017055D01*
X029072Y017119D01*
X029155Y017187D01*
X029237Y017258D01*
X029316Y017331D01*
X029392Y017407D01*
X029465Y017486D01*
X029536Y017568D01*
X029603Y017652D01*
X029668Y017738D01*
X029729Y017826D01*
X029787Y017917D01*
X029784Y017919D01*
X029726Y017829D01*
X029664Y017740D01*
X029600Y017654D01*
X029533Y017570D01*
X029462Y017489D01*
X029389Y017410D01*
X029313Y017334D01*
X029234Y017261D01*
X029153Y017190D01*
X029069Y017122D01*
X028983Y017058D01*
X028895Y016996D01*
X028804Y016938D01*
X028712Y016883D01*
X028617Y016832D01*
X028521Y016783D01*
X028423Y016739D01*
X028324Y016697D01*
X028223Y016660D01*
X028121Y016626D01*
X028018Y016596D01*
X027913Y016569D01*
X027808Y016546D01*
X027702Y016527D01*
X027596Y016512D01*
X027489Y016500D01*
X027381Y016492D01*
X027274Y016488D01*
X027166Y016488D01*
X027059Y016492D01*
X026951Y016500D01*
X026844Y016512D01*
X026738Y016527D01*
X026632Y016546D01*
X026527Y016569D01*
X026422Y016596D01*
X026319Y016626D01*
X026217Y016660D01*
X026116Y016697D01*
X026017Y016739D01*
X025919Y016783D01*
X025823Y016832D01*
X025728Y016883D01*
X025636Y016938D01*
X025545Y016996D01*
X025457Y017058D01*
X025371Y017122D01*
X025287Y017190D01*
X025206Y017261D01*
X025127Y017334D01*
X025051Y017410D01*
X024978Y017489D01*
X024907Y017570D01*
X024840Y017654D01*
X024776Y017740D01*
X024714Y017829D01*
X024656Y017919D01*
X024660Y017921D01*
X024718Y017831D01*
X024779Y017743D01*
X024843Y017657D01*
X024910Y017573D01*
X024981Y017492D01*
X025054Y017413D01*
X025130Y017337D01*
X025209Y017263D01*
X025290Y017193D01*
X025373Y017126D01*
X025459Y017061D01*
X025548Y017000D01*
X025638Y016942D01*
X025730Y016887D01*
X025825Y016835D01*
X025921Y016787D01*
X026019Y016742D01*
X026118Y016701D01*
X026218Y016664D01*
X026320Y016630D01*
X026424Y016599D01*
X026528Y016573D01*
X026633Y016550D01*
X026738Y016531D01*
X026845Y016515D01*
X026952Y016504D01*
X027059Y016496D01*
X027166Y016492D01*
X027274Y016492D01*
X027381Y016496D01*
X027488Y016504D01*
X027595Y016515D01*
X027702Y016531D01*
X027807Y016550D01*
X027912Y016573D01*
X028016Y016599D01*
X028120Y016630D01*
X028222Y016664D01*
X028322Y016701D01*
X028421Y016742D01*
X028519Y016787D01*
X028615Y016835D01*
X028710Y016887D01*
X028802Y016942D01*
X028892Y017000D01*
X028981Y017061D01*
X029067Y017126D01*
X029150Y017193D01*
X029231Y017263D01*
X029310Y017337D01*
X029386Y017413D01*
X029459Y017492D01*
X029530Y017573D01*
X029597Y017657D01*
X029661Y017743D01*
X029722Y017831D01*
X029780Y017921D01*
X029777Y017923D01*
X029719Y017833D01*
X029658Y017745D01*
X029594Y017659D01*
X029526Y017575D01*
X029456Y017494D01*
X029383Y017416D01*
X029307Y017340D01*
X029229Y017266D01*
X029148Y017196D01*
X029064Y017129D01*
X028978Y017064D01*
X028890Y017003D01*
X028800Y016945D01*
X028708Y016890D01*
X028613Y016839D01*
X028518Y016791D01*
X028420Y016746D01*
X028321Y016705D01*
X028220Y016667D01*
X028118Y016633D01*
X028015Y016603D01*
X027911Y016577D01*
X027807Y016554D01*
X027701Y016535D01*
X027595Y016519D01*
X027488Y016508D01*
X027381Y016500D01*
X027274Y016496D01*
X027166Y016496D01*
X027059Y016500D01*
X026952Y016508D01*
X026845Y016519D01*
X026739Y016535D01*
X026633Y016554D01*
X026529Y016577D01*
X026425Y016603D01*
X026322Y016633D01*
X026220Y016667D01*
X026119Y016705D01*
X026020Y016746D01*
X025922Y016791D01*
X025827Y016839D01*
X025732Y016890D01*
X025640Y016945D01*
X025550Y017003D01*
X025462Y017064D01*
X025376Y017129D01*
X025292Y017196D01*
X025211Y017266D01*
X025133Y017340D01*
X025057Y017416D01*
X024984Y017494D01*
X024914Y017575D01*
X024846Y017659D01*
X024782Y017745D01*
X024721Y017833D01*
X024663Y017923D01*
X024666Y017926D01*
X024724Y017835D01*
X024785Y017747D01*
X024849Y017661D01*
X024917Y017578D01*
X024987Y017497D01*
X025060Y017418D01*
X025135Y017343D01*
X025214Y017269D01*
X025295Y017199D01*
X025378Y017132D01*
X025464Y017068D01*
X025552Y017006D01*
X025642Y016948D01*
X025734Y016894D01*
X025828Y016842D01*
X025924Y016794D01*
X026022Y016750D01*
X026121Y016709D01*
X026221Y016671D01*
X026323Y016637D01*
X026426Y016607D01*
X026530Y016581D01*
X026634Y016558D01*
X026740Y016539D01*
X026846Y016523D01*
X026952Y016512D01*
X027059Y016504D01*
X027166Y016500D01*
X027274Y016500D01*
X027381Y016504D01*
X027488Y016512D01*
X027594Y016523D01*
X027700Y016539D01*
X027806Y016558D01*
X027910Y016581D01*
X028014Y016607D01*
X028117Y016637D01*
X028219Y016671D01*
X028319Y016709D01*
X028418Y016750D01*
X028516Y016794D01*
X028612Y016842D01*
X028706Y016894D01*
X028798Y016948D01*
X028888Y017006D01*
X028976Y017068D01*
X029062Y017132D01*
X029145Y017199D01*
X029226Y017269D01*
X029305Y017343D01*
X029380Y017418D01*
X029453Y017497D01*
X029523Y017578D01*
X029591Y017661D01*
X029655Y017747D01*
X029716Y017835D01*
X029774Y017926D01*
X029770Y017928D01*
X029711Y017836D01*
X029649Y017747D01*
X029584Y017659D01*
X029515Y017575D01*
X029444Y017492D01*
X029369Y017413D01*
X029292Y017336D01*
X029212Y017262D01*
X029129Y017191D01*
X029044Y017123D01*
X028957Y017059D01*
X028867Y016997D01*
X028775Y016939D01*
X028680Y016884D01*
X028584Y016833D01*
X028486Y016785D01*
X028387Y016741D01*
X028286Y016700D01*
X028183Y016663D01*
X028079Y016630D01*
X027975Y016601D01*
X027869Y016575D01*
X027762Y016553D01*
X027654Y016536D01*
X027546Y016522D01*
X027438Y016512D01*
X027329Y016506D01*
X027220Y016504D01*
X027111Y016506D01*
X027002Y016512D01*
X026894Y016522D01*
X026786Y016536D01*
X026678Y016553D01*
X026571Y016575D01*
X026465Y016601D01*
X026361Y016630D01*
X026257Y016663D01*
X026154Y016700D01*
X026053Y016741D01*
X025954Y016785D01*
X025856Y016833D01*
X025760Y016884D01*
X025665Y016939D01*
X025573Y016997D01*
X025483Y017059D01*
X025396Y017123D01*
X025311Y017191D01*
X025228Y017262D01*
X025148Y017336D01*
X025071Y017413D01*
X024996Y017492D01*
X024925Y017575D01*
X024856Y017659D01*
X024791Y017747D01*
X024729Y017836D01*
X024670Y017928D01*
X024673Y017930D01*
X024732Y017838D01*
X024794Y017749D01*
X024859Y017662D01*
X024928Y017577D01*
X024999Y017495D01*
X025073Y017416D01*
X025151Y017339D01*
X025231Y017265D01*
X025313Y017194D01*
X025398Y017127D01*
X025486Y017062D01*
X025576Y017000D01*
X025668Y016942D01*
X025762Y016888D01*
X025858Y016836D01*
X025955Y016788D01*
X026055Y016744D01*
X026156Y016704D01*
X026258Y016667D01*
X026362Y016634D01*
X026467Y016604D01*
X026572Y016579D01*
X026679Y016557D01*
X026786Y016540D01*
X026894Y016526D01*
X027003Y016516D01*
X027111Y016510D01*
X027220Y016508D01*
X027329Y016510D01*
X027437Y016516D01*
X027546Y016526D01*
X027654Y016540D01*
X027761Y016557D01*
X027868Y016579D01*
X027973Y016604D01*
X028078Y016634D01*
X028182Y016667D01*
X028284Y016704D01*
X028385Y016744D01*
X028485Y016788D01*
X028582Y016836D01*
X028678Y016888D01*
X028772Y016942D01*
X028864Y017000D01*
X028954Y017062D01*
X029042Y017127D01*
X029127Y017194D01*
X029209Y017265D01*
X029289Y017339D01*
X029367Y017416D01*
X029441Y017495D01*
X029512Y017577D01*
X029581Y017662D01*
X029646Y017749D01*
X029708Y017838D01*
X029767Y017930D01*
X029763Y017932D01*
X029705Y017840D01*
X029643Y017751D01*
X029578Y017664D01*
X029509Y017580D01*
X029438Y017498D01*
X029364Y017418D01*
X029287Y017342D01*
X029207Y017268D01*
X029124Y017197D01*
X029039Y017130D01*
X028952Y017065D01*
X028862Y017004D01*
X028770Y016946D01*
X028676Y016891D01*
X028581Y016840D01*
X028483Y016792D01*
X028384Y016748D01*
X028283Y016707D01*
X028181Y016671D01*
X028077Y016638D01*
X027972Y016608D01*
X027867Y016583D01*
X027760Y016561D01*
X027653Y016544D01*
X027545Y016530D01*
X027437Y016520D01*
X027329Y016514D01*
X027220Y016512D01*
X027111Y016514D01*
X027003Y016520D01*
X026895Y016530D01*
X026787Y016544D01*
X026680Y016561D01*
X026573Y016583D01*
X026468Y016608D01*
X026363Y016638D01*
X026259Y016671D01*
X026157Y016707D01*
X026056Y016748D01*
X025957Y016792D01*
X025859Y016840D01*
X025764Y016891D01*
X025670Y016946D01*
X025578Y017004D01*
X025488Y017065D01*
X025401Y017130D01*
X025316Y017197D01*
X025233Y017268D01*
X025153Y017342D01*
X025076Y017418D01*
X025002Y017498D01*
X024931Y017580D01*
X024862Y017664D01*
X024797Y017751D01*
X024735Y017840D01*
X024677Y017932D01*
X024680Y017934D01*
X024739Y017843D01*
X024800Y017754D01*
X024866Y017667D01*
X024934Y017582D01*
X025005Y017500D01*
X025079Y017421D01*
X025156Y017345D01*
X025236Y017271D01*
X025318Y017200D01*
X025403Y017133D01*
X025490Y017068D01*
X025580Y017007D01*
X025672Y016949D01*
X025765Y016894D01*
X025861Y016843D01*
X025959Y016796D01*
X026058Y016752D01*
X026159Y016711D01*
X026261Y016674D01*
X026364Y016641D01*
X026469Y016612D01*
X026574Y016587D01*
X026680Y016565D01*
X026787Y016548D01*
X026895Y016534D01*
X027003Y016524D01*
X027112Y016518D01*
X027220Y016516D01*
X027328Y016518D01*
X027437Y016524D01*
X027545Y016534D01*
X027653Y016548D01*
X027760Y016565D01*
X027866Y016587D01*
X027971Y016612D01*
X028076Y016641D01*
X028179Y016674D01*
X028281Y016711D01*
X028382Y016752D01*
X028481Y016796D01*
X028579Y016843D01*
X028675Y016894D01*
X028768Y016949D01*
X028860Y017007D01*
X028950Y017068D01*
X029037Y017133D01*
X029122Y017200D01*
X029204Y017271D01*
X029284Y017345D01*
X029361Y017421D01*
X029435Y017500D01*
X029506Y017582D01*
X029574Y017667D01*
X029640Y017754D01*
X029701Y017843D01*
X029760Y017934D01*
X029797Y021089D02*
X029759Y021065D01*
X029759Y021066D02*
X029701Y021157D01*
X029639Y021246D01*
X029574Y021333D01*
X029505Y021417D01*
X029434Y021499D01*
X029360Y021578D01*
X029283Y021655D01*
X029203Y021728D01*
X029121Y021799D01*
X029036Y021866D01*
X028949Y021931D01*
X028859Y021992D01*
X028768Y022050D01*
X028674Y022105D01*
X028578Y022156D01*
X028481Y022203D01*
X028382Y022247D01*
X028281Y022288D01*
X028179Y022325D01*
X028076Y022358D01*
X027971Y022387D01*
X027866Y022412D01*
X027759Y022434D01*
X027652Y022451D01*
X027545Y022465D01*
X027437Y022475D01*
X027328Y022481D01*
X027220Y022483D01*
X027112Y022481D01*
X027003Y022475D01*
X026895Y022465D01*
X026788Y022451D01*
X026681Y022434D01*
X026574Y022412D01*
X026469Y022387D01*
X026364Y022358D01*
X026261Y022325D01*
X026159Y022288D01*
X026058Y022247D01*
X025959Y022203D01*
X025862Y022156D01*
X025766Y022105D01*
X025672Y022050D01*
X025581Y021992D01*
X025491Y021931D01*
X025404Y021866D01*
X025319Y021799D01*
X025237Y021728D01*
X025157Y021655D01*
X025080Y021578D01*
X025006Y021499D01*
X024935Y021417D01*
X024866Y021333D01*
X024801Y021246D01*
X024739Y021157D01*
X024681Y021066D01*
X024643Y021089D01*
X024642Y021089D01*
X024701Y021180D01*
X024763Y021269D01*
X024827Y021356D01*
X024895Y021440D01*
X024966Y021522D01*
X025040Y021601D01*
X025116Y021678D01*
X025195Y021751D01*
X025277Y021822D01*
X025361Y021890D01*
X025448Y021955D01*
X025536Y022017D01*
X025627Y022075D01*
X025720Y022131D01*
X025815Y022183D01*
X025912Y022231D01*
X026011Y022276D01*
X026110Y022317D01*
X026212Y022355D01*
X026314Y022389D01*
X026418Y022420D01*
X026523Y022447D01*
X026629Y022470D01*
X026735Y022489D01*
X026842Y022504D01*
X026950Y022516D01*
X027058Y022524D01*
X027166Y022528D01*
X027274Y022528D01*
X027382Y022524D01*
X027490Y022516D01*
X027598Y022504D01*
X027705Y022489D01*
X027811Y022470D01*
X027917Y022447D01*
X028022Y022420D01*
X028126Y022389D01*
X028228Y022355D01*
X028330Y022317D01*
X028429Y022276D01*
X028528Y022231D01*
X028625Y022183D01*
X028720Y022131D01*
X028813Y022075D01*
X028904Y022017D01*
X028992Y021955D01*
X029079Y021890D01*
X029163Y021822D01*
X029245Y021751D01*
X029324Y021678D01*
X029400Y021601D01*
X029474Y021522D01*
X029545Y021440D01*
X029613Y021356D01*
X029677Y021269D01*
X029739Y021180D01*
X029798Y021089D01*
X029794Y021087D01*
X029736Y021178D01*
X029674Y021267D01*
X029610Y021353D01*
X029542Y021437D01*
X029471Y021519D01*
X029398Y021598D01*
X029321Y021675D01*
X029242Y021748D01*
X029161Y021819D01*
X029076Y021887D01*
X028990Y021952D01*
X028901Y022014D01*
X028810Y022072D01*
X028718Y022127D01*
X028623Y022179D01*
X028526Y022227D01*
X028428Y022272D01*
X028328Y022314D01*
X028227Y022351D01*
X028124Y022386D01*
X028021Y022416D01*
X027916Y022443D01*
X027810Y022466D01*
X027704Y022485D01*
X027597Y022500D01*
X027490Y022512D01*
X027382Y022520D01*
X027274Y022524D01*
X027166Y022524D01*
X027058Y022520D01*
X026950Y022512D01*
X026843Y022500D01*
X026736Y022485D01*
X026630Y022466D01*
X026524Y022443D01*
X026419Y022416D01*
X026316Y022386D01*
X026213Y022351D01*
X026112Y022314D01*
X026012Y022272D01*
X025914Y022227D01*
X025817Y022179D01*
X025722Y022127D01*
X025630Y022072D01*
X025539Y022014D01*
X025450Y021952D01*
X025364Y021887D01*
X025279Y021819D01*
X025198Y021748D01*
X025119Y021675D01*
X025042Y021598D01*
X024969Y021519D01*
X024898Y021437D01*
X024830Y021353D01*
X024766Y021267D01*
X024704Y021178D01*
X024646Y021087D01*
X024649Y021085D01*
X024708Y021176D01*
X024769Y021264D01*
X024834Y021351D01*
X024901Y021435D01*
X024972Y021516D01*
X025045Y021596D01*
X025122Y021672D01*
X025200Y021745D01*
X025282Y021816D01*
X025366Y021884D01*
X025452Y021949D01*
X025541Y022010D01*
X025632Y022069D01*
X025724Y022124D01*
X025819Y022175D01*
X025916Y022224D01*
X026014Y022269D01*
X026113Y022310D01*
X026214Y022348D01*
X026317Y022382D01*
X026420Y022412D01*
X026525Y022439D01*
X026630Y022462D01*
X026737Y022481D01*
X026843Y022496D01*
X026951Y022508D01*
X027058Y022516D01*
X027166Y022520D01*
X027274Y022520D01*
X027382Y022516D01*
X027489Y022508D01*
X027597Y022496D01*
X027703Y022481D01*
X027810Y022462D01*
X027915Y022439D01*
X028020Y022412D01*
X028123Y022382D01*
X028226Y022348D01*
X028327Y022310D01*
X028426Y022269D01*
X028524Y022224D01*
X028621Y022175D01*
X028716Y022124D01*
X028808Y022069D01*
X028899Y022010D01*
X028988Y021949D01*
X029074Y021884D01*
X029158Y021816D01*
X029240Y021745D01*
X029318Y021672D01*
X029395Y021596D01*
X029468Y021516D01*
X029539Y021435D01*
X029606Y021351D01*
X029671Y021264D01*
X029732Y021176D01*
X029791Y021085D01*
X029787Y021083D01*
X029729Y021174D01*
X029668Y021262D01*
X029603Y021348D01*
X029536Y021432D01*
X029465Y021514D01*
X029392Y021593D01*
X029316Y021669D01*
X029237Y021742D01*
X029155Y021813D01*
X029072Y021881D01*
X028985Y021945D01*
X028897Y022007D01*
X028806Y022065D01*
X028714Y022120D01*
X028619Y022172D01*
X028523Y022220D01*
X028425Y022265D01*
X028325Y022306D01*
X028224Y022344D01*
X028122Y022378D01*
X028019Y022408D01*
X027914Y022435D01*
X027809Y022458D01*
X027703Y022477D01*
X027596Y022492D01*
X027489Y022504D01*
X027382Y022512D01*
X027274Y022516D01*
X027166Y022516D01*
X027058Y022512D01*
X026951Y022504D01*
X026844Y022492D01*
X026737Y022477D01*
X026631Y022458D01*
X026526Y022435D01*
X026421Y022408D01*
X026318Y022378D01*
X026216Y022344D01*
X026115Y022306D01*
X026015Y022265D01*
X025917Y022220D01*
X025821Y022172D01*
X025726Y022120D01*
X025634Y022065D01*
X025543Y022007D01*
X025455Y021945D01*
X025368Y021881D01*
X025285Y021813D01*
X025203Y021742D01*
X025124Y021669D01*
X025048Y021593D01*
X024975Y021514D01*
X024904Y021432D01*
X024837Y021348D01*
X024772Y021262D01*
X024711Y021174D01*
X024653Y021083D01*
X024656Y021081D01*
X024714Y021171D01*
X024776Y021260D01*
X024840Y021346D01*
X024907Y021430D01*
X024978Y021511D01*
X025051Y021590D01*
X025127Y021666D01*
X025206Y021739D01*
X025287Y021810D01*
X025371Y021878D01*
X025457Y021942D01*
X025545Y022004D01*
X025636Y022062D01*
X025728Y022117D01*
X025823Y022168D01*
X025919Y022217D01*
X026017Y022261D01*
X026116Y022303D01*
X026217Y022340D01*
X026319Y022374D01*
X026422Y022404D01*
X026527Y022431D01*
X026632Y022454D01*
X026738Y022473D01*
X026844Y022488D01*
X026951Y022500D01*
X027059Y022508D01*
X027166Y022512D01*
X027274Y022512D01*
X027381Y022508D01*
X027489Y022500D01*
X027596Y022488D01*
X027702Y022473D01*
X027808Y022454D01*
X027913Y022431D01*
X028018Y022404D01*
X028121Y022374D01*
X028223Y022340D01*
X028324Y022303D01*
X028423Y022261D01*
X028521Y022217D01*
X028617Y022168D01*
X028712Y022117D01*
X028804Y022062D01*
X028895Y022004D01*
X028983Y021942D01*
X029069Y021878D01*
X029153Y021810D01*
X029234Y021739D01*
X029313Y021666D01*
X029389Y021590D01*
X029462Y021511D01*
X029533Y021430D01*
X029600Y021346D01*
X029664Y021260D01*
X029726Y021171D01*
X029784Y021081D01*
X029780Y021079D01*
X029722Y021169D01*
X029661Y021257D01*
X029597Y021343D01*
X029530Y021427D01*
X029459Y021508D01*
X029386Y021587D01*
X029310Y021663D01*
X029231Y021737D01*
X029150Y021807D01*
X029067Y021874D01*
X028981Y021939D01*
X028892Y022000D01*
X028802Y022058D01*
X028710Y022113D01*
X028615Y022165D01*
X028519Y022213D01*
X028421Y022258D01*
X028322Y022299D01*
X028222Y022336D01*
X028120Y022370D01*
X028016Y022401D01*
X027912Y022427D01*
X027807Y022450D01*
X027702Y022469D01*
X027595Y022485D01*
X027488Y022496D01*
X027381Y022504D01*
X027274Y022508D01*
X027166Y022508D01*
X027059Y022504D01*
X026952Y022496D01*
X026845Y022485D01*
X026738Y022469D01*
X026633Y022450D01*
X026528Y022427D01*
X026424Y022401D01*
X026320Y022370D01*
X026218Y022336D01*
X026118Y022299D01*
X026019Y022258D01*
X025921Y022213D01*
X025825Y022165D01*
X025730Y022113D01*
X025638Y022058D01*
X025548Y022000D01*
X025459Y021939D01*
X025373Y021874D01*
X025290Y021807D01*
X025209Y021737D01*
X025130Y021663D01*
X025054Y021587D01*
X024981Y021508D01*
X024910Y021427D01*
X024843Y021343D01*
X024779Y021257D01*
X024718Y021169D01*
X024660Y021079D01*
X024663Y021077D01*
X024721Y021167D01*
X024782Y021255D01*
X024846Y021341D01*
X024914Y021425D01*
X024984Y021506D01*
X025057Y021584D01*
X025133Y021660D01*
X025211Y021734D01*
X025292Y021804D01*
X025376Y021871D01*
X025462Y021936D01*
X025550Y021997D01*
X025640Y022055D01*
X025732Y022110D01*
X025827Y022161D01*
X025922Y022209D01*
X026020Y022254D01*
X026119Y022295D01*
X026220Y022333D01*
X026322Y022367D01*
X026425Y022397D01*
X026529Y022423D01*
X026633Y022446D01*
X026739Y022465D01*
X026845Y022481D01*
X026952Y022492D01*
X027059Y022500D01*
X027166Y022504D01*
X027274Y022504D01*
X027381Y022500D01*
X027488Y022492D01*
X027595Y022481D01*
X027701Y022465D01*
X027807Y022446D01*
X027911Y022423D01*
X028015Y022397D01*
X028118Y022367D01*
X028220Y022333D01*
X028321Y022295D01*
X028420Y022254D01*
X028518Y022209D01*
X028613Y022161D01*
X028708Y022110D01*
X028800Y022055D01*
X028890Y021997D01*
X028978Y021936D01*
X029064Y021871D01*
X029148Y021804D01*
X029229Y021734D01*
X029307Y021660D01*
X029383Y021584D01*
X029456Y021506D01*
X029526Y021425D01*
X029594Y021341D01*
X029658Y021255D01*
X029719Y021167D01*
X029777Y021077D01*
X029774Y021074D01*
X029716Y021165D01*
X029655Y021253D01*
X029591Y021339D01*
X029523Y021422D01*
X029453Y021503D01*
X029380Y021582D01*
X029305Y021657D01*
X029226Y021731D01*
X029145Y021801D01*
X029062Y021868D01*
X028976Y021932D01*
X028888Y021994D01*
X028798Y022052D01*
X028706Y022106D01*
X028612Y022158D01*
X028516Y022206D01*
X028418Y022250D01*
X028319Y022291D01*
X028219Y022329D01*
X028117Y022363D01*
X028014Y022393D01*
X027910Y022419D01*
X027806Y022442D01*
X027700Y022461D01*
X027594Y022477D01*
X027488Y022488D01*
X027381Y022496D01*
X027274Y022500D01*
X027166Y022500D01*
X027059Y022496D01*
X026952Y022488D01*
X026846Y022477D01*
X026740Y022461D01*
X026634Y022442D01*
X026530Y022419D01*
X026426Y022393D01*
X026323Y022363D01*
X026221Y022329D01*
X026121Y022291D01*
X026022Y022250D01*
X025924Y022206D01*
X025828Y022158D01*
X025734Y022106D01*
X025642Y022052D01*
X025552Y021994D01*
X025464Y021932D01*
X025378Y021868D01*
X025295Y021801D01*
X025214Y021731D01*
X025135Y021657D01*
X025060Y021582D01*
X024987Y021503D01*
X024917Y021422D01*
X024849Y021339D01*
X024785Y021253D01*
X024724Y021165D01*
X024666Y021074D01*
X024670Y021072D01*
X024729Y021164D01*
X024791Y021253D01*
X024856Y021341D01*
X024925Y021425D01*
X024996Y021508D01*
X025071Y021587D01*
X025148Y021664D01*
X025228Y021738D01*
X025311Y021809D01*
X025396Y021877D01*
X025483Y021941D01*
X025573Y022003D01*
X025665Y022061D01*
X025760Y022116D01*
X025856Y022167D01*
X025954Y022215D01*
X026053Y022259D01*
X026154Y022300D01*
X026257Y022337D01*
X026361Y022370D01*
X026465Y022399D01*
X026571Y022425D01*
X026678Y022447D01*
X026786Y022464D01*
X026894Y022478D01*
X027002Y022488D01*
X027111Y022494D01*
X027220Y022496D01*
X027329Y022494D01*
X027438Y022488D01*
X027546Y022478D01*
X027654Y022464D01*
X027762Y022447D01*
X027869Y022425D01*
X027975Y022399D01*
X028079Y022370D01*
X028183Y022337D01*
X028286Y022300D01*
X028387Y022259D01*
X028486Y022215D01*
X028584Y022167D01*
X028680Y022116D01*
X028775Y022061D01*
X028867Y022003D01*
X028957Y021941D01*
X029044Y021877D01*
X029129Y021809D01*
X029212Y021738D01*
X029292Y021664D01*
X029369Y021587D01*
X029444Y021508D01*
X029515Y021425D01*
X029584Y021341D01*
X029649Y021253D01*
X029711Y021164D01*
X029770Y021072D01*
X029767Y021070D01*
X029708Y021162D01*
X029646Y021251D01*
X029581Y021338D01*
X029512Y021423D01*
X029441Y021505D01*
X029367Y021584D01*
X029289Y021661D01*
X029209Y021735D01*
X029127Y021806D01*
X029042Y021873D01*
X028954Y021938D01*
X028864Y022000D01*
X028772Y022058D01*
X028678Y022112D01*
X028582Y022164D01*
X028485Y022212D01*
X028385Y022256D01*
X028284Y022296D01*
X028182Y022333D01*
X028078Y022366D01*
X027973Y022396D01*
X027868Y022421D01*
X027761Y022443D01*
X027654Y022460D01*
X027546Y022474D01*
X027437Y022484D01*
X027329Y022490D01*
X027220Y022492D01*
X027111Y022490D01*
X027003Y022484D01*
X026894Y022474D01*
X026786Y022460D01*
X026679Y022443D01*
X026572Y022421D01*
X026467Y022396D01*
X026362Y022366D01*
X026258Y022333D01*
X026156Y022296D01*
X026055Y022256D01*
X025955Y022212D01*
X025858Y022164D01*
X025762Y022112D01*
X025668Y022058D01*
X025576Y022000D01*
X025486Y021938D01*
X025398Y021873D01*
X025313Y021806D01*
X025231Y021735D01*
X025151Y021661D01*
X025073Y021584D01*
X024999Y021505D01*
X024928Y021423D01*
X024859Y021338D01*
X024794Y021251D01*
X024732Y021162D01*
X024673Y021070D01*
X024677Y021068D01*
X024735Y021160D01*
X024797Y021249D01*
X024862Y021336D01*
X024931Y021420D01*
X025002Y021502D01*
X025076Y021582D01*
X025153Y021658D01*
X025233Y021732D01*
X025316Y021803D01*
X025401Y021870D01*
X025488Y021935D01*
X025578Y021996D01*
X025670Y022054D01*
X025764Y022109D01*
X025859Y022160D01*
X025957Y022208D01*
X026056Y022252D01*
X026157Y022293D01*
X026259Y022329D01*
X026363Y022362D01*
X026468Y022392D01*
X026573Y022417D01*
X026680Y022439D01*
X026787Y022456D01*
X026895Y022470D01*
X027003Y022480D01*
X027111Y022486D01*
X027220Y022488D01*
X027329Y022486D01*
X027437Y022480D01*
X027545Y022470D01*
X027653Y022456D01*
X027760Y022439D01*
X027867Y022417D01*
X027972Y022392D01*
X028077Y022362D01*
X028181Y022329D01*
X028283Y022293D01*
X028384Y022252D01*
X028483Y022208D01*
X028581Y022160D01*
X028676Y022109D01*
X028770Y022054D01*
X028862Y021996D01*
X028952Y021935D01*
X029039Y021870D01*
X029124Y021803D01*
X029207Y021732D01*
X029287Y021658D01*
X029364Y021582D01*
X029438Y021502D01*
X029509Y021420D01*
X029578Y021336D01*
X029643Y021249D01*
X029705Y021160D01*
X029763Y021068D01*
X029760Y021066D01*
X029701Y021157D01*
X029640Y021246D01*
X029574Y021333D01*
X029506Y021418D01*
X029435Y021500D01*
X029361Y021579D01*
X029284Y021655D01*
X029204Y021729D01*
X029122Y021800D01*
X029037Y021867D01*
X028950Y021932D01*
X028860Y021993D01*
X028768Y022051D01*
X028675Y022106D01*
X028579Y022157D01*
X028481Y022204D01*
X028382Y022248D01*
X028281Y022289D01*
X028179Y022326D01*
X028076Y022359D01*
X027971Y022388D01*
X027866Y022413D01*
X027760Y022435D01*
X027653Y022452D01*
X027545Y022466D01*
X027437Y022476D01*
X027328Y022482D01*
X027220Y022484D01*
X027112Y022482D01*
X027003Y022476D01*
X026895Y022466D01*
X026787Y022452D01*
X026680Y022435D01*
X026574Y022413D01*
X026469Y022388D01*
X026364Y022359D01*
X026261Y022326D01*
X026159Y022289D01*
X026058Y022248D01*
X025959Y022204D01*
X025861Y022157D01*
X025765Y022106D01*
X025672Y022051D01*
X025580Y021993D01*
X025490Y021932D01*
X025403Y021867D01*
X025318Y021800D01*
X025236Y021729D01*
X025156Y021655D01*
X025079Y021579D01*
X025005Y021500D01*
X024934Y021418D01*
X024866Y021333D01*
X024800Y021246D01*
X024739Y021157D01*
X024680Y021066D01*
X023289Y020266D02*
X023282Y020311D01*
X023283Y020310D02*
X023370Y020325D01*
X023457Y020344D01*
X023544Y020366D01*
X023629Y020392D01*
X023713Y020421D01*
X023796Y020454D01*
X023877Y020490D01*
X023957Y020529D01*
X024035Y020572D01*
X024111Y020617D01*
X024186Y020666D01*
X024258Y020718D01*
X024328Y020773D01*
X024396Y020830D01*
X024462Y020891D01*
X024525Y020954D01*
X024585Y021019D01*
X024642Y021087D01*
X024677Y021059D01*
X024619Y020990D01*
X024557Y020923D01*
X024493Y020858D01*
X024426Y020797D01*
X024357Y020738D01*
X024285Y020682D01*
X024211Y020629D01*
X024135Y020579D01*
X024057Y020532D01*
X023978Y020489D01*
X023896Y020449D01*
X023813Y020412D01*
X023728Y020379D01*
X023643Y020349D01*
X023556Y020323D01*
X023468Y020300D01*
X023379Y020281D01*
X023289Y020266D01*
X023289Y020270D01*
X023378Y020285D01*
X023467Y020304D01*
X023555Y020327D01*
X023641Y020353D01*
X023727Y020383D01*
X023811Y020416D01*
X023894Y020452D01*
X023976Y020493D01*
X024055Y020536D01*
X024133Y020583D01*
X024209Y020632D01*
X024283Y020685D01*
X024354Y020741D01*
X024423Y020800D01*
X024490Y020861D01*
X024554Y020925D01*
X024616Y020992D01*
X024674Y021061D01*
X024671Y021064D01*
X024613Y020995D01*
X024551Y020928D01*
X024487Y020864D01*
X024421Y020803D01*
X024352Y020744D01*
X024280Y020688D01*
X024207Y020636D01*
X024131Y020586D01*
X024053Y020539D01*
X023974Y020496D01*
X023893Y020456D01*
X023810Y020419D01*
X023726Y020386D01*
X023640Y020357D01*
X023553Y020330D01*
X023466Y020308D01*
X023377Y020289D01*
X023288Y020274D01*
X023287Y020278D01*
X023377Y020293D01*
X023465Y020312D01*
X023552Y020334D01*
X023639Y020360D01*
X023724Y020390D01*
X023808Y020423D01*
X023891Y020460D01*
X023972Y020500D01*
X024052Y020543D01*
X024129Y020589D01*
X024205Y020639D01*
X024278Y020692D01*
X024349Y020747D01*
X024418Y020806D01*
X024485Y020867D01*
X024548Y020931D01*
X024610Y020997D01*
X024668Y021066D01*
X024665Y021069D01*
X024607Y021000D01*
X024546Y020934D01*
X024482Y020870D01*
X024416Y020809D01*
X024347Y020750D01*
X024276Y020695D01*
X024202Y020642D01*
X024127Y020593D01*
X024050Y020546D01*
X023970Y020503D01*
X023889Y020463D01*
X023807Y020427D01*
X023723Y020394D01*
X023638Y020364D01*
X023551Y020338D01*
X023464Y020316D01*
X023376Y020297D01*
X023287Y020281D01*
X023286Y020285D01*
X023375Y020301D01*
X023463Y020320D01*
X023550Y020342D01*
X023636Y020368D01*
X023722Y020398D01*
X023805Y020431D01*
X023888Y020467D01*
X023968Y020507D01*
X024048Y020550D01*
X024125Y020596D01*
X024200Y020645D01*
X024273Y020698D01*
X024344Y020753D01*
X024413Y020812D01*
X024479Y020873D01*
X024543Y020936D01*
X024604Y021003D01*
X024662Y021071D01*
X024659Y021074D01*
X024601Y021005D01*
X024540Y020939D01*
X024476Y020876D01*
X024410Y020815D01*
X024342Y020756D01*
X024271Y020701D01*
X024198Y020649D01*
X024123Y020599D01*
X024046Y020553D01*
X023967Y020510D01*
X023886Y020471D01*
X023804Y020434D01*
X023720Y020401D01*
X023635Y020372D01*
X023549Y020346D01*
X023462Y020323D01*
X023374Y020305D01*
X023286Y020289D01*
X023285Y020293D01*
X023374Y020309D01*
X023461Y020327D01*
X023548Y020350D01*
X023634Y020376D01*
X023719Y020405D01*
X023802Y020438D01*
X023884Y020474D01*
X023965Y020514D01*
X024044Y020557D01*
X024121Y020603D01*
X024196Y020652D01*
X024268Y020704D01*
X024339Y020760D01*
X024408Y020818D01*
X024474Y020878D01*
X024537Y020942D01*
X024598Y021008D01*
X024656Y021076D01*
X024652Y021079D01*
X024595Y021011D01*
X024534Y020945D01*
X024471Y020881D01*
X024405Y020821D01*
X024337Y020763D01*
X024266Y020708D01*
X024193Y020655D01*
X024118Y020606D01*
X024042Y020560D01*
X023963Y020517D01*
X023883Y020478D01*
X023801Y020442D01*
X023717Y020409D01*
X023633Y020379D01*
X023547Y020354D01*
X023460Y020331D01*
X023373Y020312D01*
X023284Y020297D01*
X023284Y020301D01*
X023372Y020316D01*
X023459Y020335D01*
X023546Y020357D01*
X023632Y020383D01*
X023716Y020413D01*
X023799Y020445D01*
X023881Y020481D01*
X023961Y020521D01*
X024040Y020564D01*
X024116Y020610D01*
X024191Y020659D01*
X024264Y020711D01*
X024334Y020766D01*
X024402Y020824D01*
X024468Y020884D01*
X024531Y020947D01*
X024592Y021013D01*
X024649Y021082D01*
X024646Y021084D01*
X024589Y021016D01*
X024528Y020950D01*
X024465Y020887D01*
X024400Y020827D01*
X024332Y020769D01*
X024261Y020714D01*
X024189Y020662D01*
X024114Y020613D01*
X024038Y020567D01*
X023959Y020525D01*
X023879Y020485D01*
X023798Y020449D01*
X023715Y020416D01*
X023630Y020387D01*
X023545Y020361D01*
X023458Y020339D01*
X023371Y020320D01*
X023283Y020305D01*
X023283Y020309D01*
X023370Y020324D01*
X023458Y020343D01*
X023544Y020365D01*
X023629Y020391D01*
X023713Y020420D01*
X023796Y020453D01*
X023878Y020489D01*
X023957Y020528D01*
X024036Y020571D01*
X024112Y020616D01*
X024186Y020665D01*
X024259Y020717D01*
X024329Y020772D01*
X024397Y020830D01*
X024462Y020890D01*
X024525Y020953D01*
X024586Y021019D01*
X024643Y021087D01*
X029764Y021059D02*
X029799Y021088D01*
X029798Y021087D02*
X029860Y021016D01*
X029925Y020948D01*
X029993Y020883D01*
X030063Y020821D01*
X030136Y020761D01*
X030211Y020705D01*
X030289Y020651D01*
X030369Y020601D01*
X030450Y020555D01*
X030534Y020511D01*
X030619Y020472D01*
X030706Y020435D01*
X030794Y020403D01*
X030884Y020374D01*
X030975Y020349D01*
X031066Y020327D01*
X031159Y020310D01*
X031152Y020266D01*
X031151Y020265D01*
X031062Y020282D01*
X030974Y020302D01*
X030886Y020326D01*
X030800Y020353D01*
X030714Y020384D01*
X030630Y020418D01*
X030548Y020455D01*
X030467Y020495D01*
X030387Y020538D01*
X030309Y020585D01*
X030233Y020634D01*
X030159Y020687D01*
X030087Y020742D01*
X030018Y020800D01*
X029951Y020861D01*
X029886Y020924D01*
X029823Y020990D01*
X029764Y021058D01*
X029767Y021061D01*
X029826Y020993D01*
X029889Y020927D01*
X029953Y020864D01*
X030021Y020803D01*
X030090Y020745D01*
X030162Y020690D01*
X030235Y020638D01*
X030311Y020588D01*
X030389Y020542D01*
X030468Y020499D01*
X030549Y020458D01*
X030632Y020421D01*
X030716Y020388D01*
X030801Y020357D01*
X030887Y020330D01*
X030975Y020306D01*
X031063Y020286D01*
X031152Y020269D01*
X031152Y020273D01*
X031064Y020290D01*
X030976Y020310D01*
X030889Y020334D01*
X030802Y020361D01*
X030717Y020391D01*
X030634Y020425D01*
X030551Y020462D01*
X030470Y020502D01*
X030391Y020545D01*
X030313Y020592D01*
X030238Y020641D01*
X030164Y020693D01*
X030092Y020748D01*
X030023Y020806D01*
X029956Y020867D01*
X029891Y020930D01*
X029829Y020995D01*
X029770Y021063D01*
X029773Y021066D01*
X029836Y020994D01*
X029902Y020925D01*
X029970Y020859D01*
X030042Y020795D01*
X030116Y020735D01*
X030192Y020678D01*
X030271Y020624D01*
X030352Y020573D01*
X030435Y020526D01*
X030519Y020482D01*
X030606Y020441D01*
X030694Y020405D01*
X030784Y020372D01*
X030874Y020342D01*
X030966Y020317D01*
X031059Y020295D01*
X031153Y020277D01*
X031154Y020281D01*
X031060Y020299D01*
X030967Y020321D01*
X030876Y020346D01*
X030785Y020375D01*
X030695Y020408D01*
X030607Y020445D01*
X030521Y020485D01*
X030437Y020529D01*
X030354Y020576D01*
X030273Y020627D01*
X030195Y020681D01*
X030118Y020738D01*
X030044Y020798D01*
X029973Y020862D01*
X029905Y020928D01*
X029839Y020997D01*
X029776Y021068D01*
X029779Y021071D01*
X029842Y021000D01*
X029907Y020931D01*
X029976Y020865D01*
X030047Y020801D01*
X030121Y020741D01*
X030197Y020684D01*
X030275Y020630D01*
X030356Y020580D01*
X030438Y020533D01*
X030523Y020489D01*
X030609Y020449D01*
X030697Y020412D01*
X030786Y020379D01*
X030877Y020350D01*
X030968Y020324D01*
X031061Y020303D01*
X031154Y020285D01*
X031155Y020289D01*
X031062Y020307D01*
X030969Y020328D01*
X030878Y020354D01*
X030787Y020383D01*
X030698Y020416D01*
X030611Y020452D01*
X030525Y020492D01*
X030440Y020536D01*
X030358Y020583D01*
X030277Y020634D01*
X030199Y020687D01*
X030123Y020744D01*
X030050Y020805D01*
X029979Y020868D01*
X029910Y020934D01*
X029845Y021002D01*
X029782Y021074D01*
X029785Y021076D01*
X029848Y021005D01*
X029913Y020936D01*
X029981Y020871D01*
X030052Y020808D01*
X030126Y020748D01*
X030202Y020691D01*
X030280Y020637D01*
X030360Y020587D01*
X030442Y020540D01*
X030526Y020496D01*
X030612Y020456D01*
X030700Y020420D01*
X030789Y020387D01*
X030879Y020358D01*
X030970Y020332D01*
X031063Y020311D01*
X031156Y020293D01*
X031156Y020297D01*
X031063Y020315D01*
X030971Y020336D01*
X030880Y020361D01*
X030790Y020390D01*
X030701Y020423D01*
X030614Y020460D01*
X030528Y020500D01*
X030444Y020543D01*
X030362Y020590D01*
X030282Y020640D01*
X030204Y020694D01*
X030128Y020751D01*
X030055Y020811D01*
X029984Y020873D01*
X029916Y020939D01*
X029851Y021008D01*
X029788Y021079D01*
X029791Y021081D01*
X029854Y021010D01*
X029919Y020942D01*
X029987Y020876D01*
X030057Y020814D01*
X030131Y020754D01*
X030206Y020697D01*
X030284Y020644D01*
X030364Y020594D01*
X030446Y020547D01*
X030530Y020503D01*
X030616Y020463D01*
X030703Y020427D01*
X030791Y020394D01*
X030881Y020365D01*
X030972Y020340D01*
X031064Y020318D01*
X031157Y020301D01*
X031158Y020305D01*
X031065Y020322D01*
X030973Y020344D01*
X030882Y020369D01*
X030793Y020398D01*
X030704Y020431D01*
X030617Y020467D01*
X030532Y020507D01*
X030448Y020550D01*
X030366Y020597D01*
X030286Y020647D01*
X030209Y020700D01*
X030133Y020757D01*
X030060Y020817D01*
X029989Y020879D01*
X029922Y020945D01*
X029857Y021013D01*
X029794Y021084D01*
X029797Y021086D01*
X029859Y021016D01*
X029924Y020948D01*
X029992Y020882D01*
X030063Y020820D01*
X030136Y020760D01*
X030211Y020704D01*
X030288Y020650D01*
X030368Y020600D01*
X030450Y020554D01*
X030533Y020510D01*
X030619Y020471D01*
X030706Y020434D01*
X030794Y020402D01*
X030884Y020373D01*
X030974Y020348D01*
X031066Y020326D01*
X031158Y020309D01*
X038680Y017732D02*
X038637Y017720D01*
X038637Y017721D02*
X038610Y017813D01*
X038579Y017904D01*
X038544Y017994D01*
X038506Y018082D01*
X038465Y018168D01*
X038420Y018253D01*
X038371Y018336D01*
X038319Y018417D01*
X038264Y018496D01*
X038206Y018573D01*
X038145Y018647D01*
X038081Y018718D01*
X038014Y018787D01*
X037944Y018853D01*
X037871Y018917D01*
X037797Y018977D01*
X037719Y019034D01*
X037640Y019088D01*
X037558Y019139D01*
X037475Y019187D01*
X037389Y019231D01*
X037302Y019271D01*
X037213Y019308D01*
X037123Y019342D01*
X037032Y019372D01*
X036939Y019398D01*
X036846Y019420D01*
X036751Y019438D01*
X036656Y019453D01*
X036561Y019464D01*
X036465Y019471D01*
X036369Y019474D01*
X036273Y019473D01*
X036177Y019468D01*
X036081Y019460D01*
X035986Y019447D01*
X035891Y019431D01*
X035797Y019411D01*
X035704Y019387D01*
X035612Y019360D01*
X035521Y019328D01*
X035431Y019293D01*
X035343Y019255D01*
X035257Y019213D01*
X035172Y019167D01*
X035089Y019118D01*
X035009Y019066D01*
X034930Y019011D01*
X034854Y018952D01*
X034780Y018891D01*
X034709Y018826D01*
X034640Y018759D01*
X034574Y018689D01*
X034511Y018616D01*
X034451Y018541D01*
X034394Y018463D01*
X034341Y018384D01*
X034290Y018302D01*
X034243Y018218D01*
X034199Y018132D01*
X034159Y018045D01*
X034123Y017956D01*
X034090Y017866D01*
X034060Y017774D01*
X034035Y017682D01*
X033992Y017692D01*
X033991Y017693D01*
X034017Y017787D01*
X034047Y017880D01*
X034081Y017972D01*
X034118Y018063D01*
X034159Y018152D01*
X034203Y018239D01*
X034251Y018325D01*
X034303Y018408D01*
X034358Y018489D01*
X034416Y018568D01*
X034477Y018645D01*
X034541Y018719D01*
X034608Y018790D01*
X034678Y018859D01*
X034750Y018924D01*
X034826Y018987D01*
X034903Y019047D01*
X034983Y019103D01*
X035066Y019157D01*
X035150Y019206D01*
X035236Y019253D01*
X035324Y019296D01*
X035414Y019335D01*
X035505Y019370D01*
X035598Y019402D01*
X035692Y019430D01*
X035787Y019455D01*
X035882Y019475D01*
X035979Y019492D01*
X036076Y019504D01*
X036174Y019513D01*
X036271Y019518D01*
X036369Y019519D01*
X036467Y019516D01*
X036565Y019509D01*
X036662Y019498D01*
X036759Y019483D01*
X036855Y019464D01*
X036951Y019441D01*
X037045Y019415D01*
X037138Y019384D01*
X037230Y019350D01*
X037320Y019312D01*
X037409Y019271D01*
X037496Y019226D01*
X037581Y019178D01*
X037664Y019126D01*
X037745Y019071D01*
X037824Y019013D01*
X037900Y018951D01*
X037974Y018887D01*
X038045Y018819D01*
X038113Y018749D01*
X038179Y018676D01*
X038241Y018601D01*
X038301Y018523D01*
X038357Y018442D01*
X038409Y018360D01*
X038459Y018275D01*
X038505Y018189D01*
X038547Y018100D01*
X038586Y018011D01*
X038621Y017919D01*
X038653Y017826D01*
X038680Y017732D01*
X038677Y017731D01*
X038649Y017825D01*
X038618Y017918D01*
X038582Y018009D01*
X038544Y018099D01*
X038501Y018187D01*
X038455Y018273D01*
X038406Y018358D01*
X038353Y018440D01*
X038297Y018520D01*
X038238Y018598D01*
X038176Y018673D01*
X038111Y018746D01*
X038042Y018816D01*
X037971Y018884D01*
X037898Y018948D01*
X037822Y019009D01*
X037743Y019068D01*
X037662Y019123D01*
X037579Y019174D01*
X037494Y019223D01*
X037407Y019268D01*
X037319Y019309D01*
X037228Y019347D01*
X037137Y019381D01*
X037044Y019411D01*
X036950Y019437D01*
X036854Y019460D01*
X036758Y019479D01*
X036662Y019494D01*
X036565Y019505D01*
X036467Y019512D01*
X036369Y019515D01*
X036272Y019514D01*
X036174Y019509D01*
X036077Y019501D01*
X035980Y019488D01*
X035883Y019471D01*
X035788Y019451D01*
X035693Y019427D01*
X035599Y019399D01*
X035507Y019367D01*
X035416Y019331D01*
X035326Y019292D01*
X035238Y019249D01*
X035152Y019203D01*
X035068Y019153D01*
X034986Y019100D01*
X034906Y019044D01*
X034828Y018984D01*
X034753Y018921D01*
X034681Y018856D01*
X034611Y018787D01*
X034544Y018716D01*
X034480Y018642D01*
X034419Y018566D01*
X034361Y018487D01*
X034306Y018406D01*
X034255Y018323D01*
X034207Y018237D01*
X034163Y018150D01*
X034122Y018061D01*
X034084Y017971D01*
X034051Y017879D01*
X034021Y017786D01*
X033995Y017692D01*
X033999Y017691D01*
X034025Y017785D01*
X034055Y017878D01*
X034088Y017969D01*
X034125Y018060D01*
X034166Y018148D01*
X034210Y018235D01*
X034258Y018321D01*
X034310Y018404D01*
X034364Y018485D01*
X034422Y018563D01*
X034483Y018640D01*
X034547Y018713D01*
X034614Y018785D01*
X034683Y018853D01*
X034756Y018918D01*
X034831Y018981D01*
X034908Y019040D01*
X034988Y019097D01*
X035070Y019150D01*
X035154Y019199D01*
X035240Y019246D01*
X035328Y019288D01*
X035417Y019327D01*
X035508Y019363D01*
X035600Y019395D01*
X035694Y019423D01*
X035788Y019447D01*
X035884Y019467D01*
X035980Y019484D01*
X036077Y019497D01*
X036174Y019505D01*
X036272Y019510D01*
X036369Y019511D01*
X036467Y019508D01*
X036564Y019501D01*
X036661Y019490D01*
X036758Y019475D01*
X036854Y019456D01*
X036949Y019433D01*
X037043Y019407D01*
X037135Y019377D01*
X037227Y019343D01*
X037317Y019305D01*
X037406Y019264D01*
X037492Y019219D01*
X037577Y019171D01*
X037660Y019119D01*
X037741Y019064D01*
X037819Y019006D01*
X037895Y018945D01*
X037969Y018881D01*
X038040Y018814D01*
X038108Y018744D01*
X038173Y018671D01*
X038235Y018596D01*
X038294Y018518D01*
X038350Y018438D01*
X038403Y018356D01*
X038452Y018271D01*
X038498Y018185D01*
X038540Y018097D01*
X038579Y018008D01*
X038614Y017916D01*
X038645Y017824D01*
X038673Y017730D01*
X038669Y017729D01*
X038641Y017823D01*
X038610Y017915D01*
X038575Y018006D01*
X038536Y018096D01*
X038494Y018183D01*
X038448Y018269D01*
X038399Y018354D01*
X038347Y018436D01*
X038291Y018516D01*
X038232Y018593D01*
X038170Y018668D01*
X038105Y018741D01*
X038037Y018811D01*
X037966Y018878D01*
X037893Y018942D01*
X037817Y019003D01*
X037738Y019061D01*
X037658Y019116D01*
X037575Y019168D01*
X037490Y019216D01*
X037404Y019260D01*
X037315Y019302D01*
X037225Y019339D01*
X037134Y019373D01*
X037041Y019403D01*
X036948Y019430D01*
X036853Y019452D01*
X036757Y019471D01*
X036661Y019486D01*
X036564Y019497D01*
X036467Y019504D01*
X036369Y019507D01*
X036272Y019506D01*
X036174Y019501D01*
X036077Y019493D01*
X035981Y019480D01*
X035885Y019463D01*
X035789Y019443D01*
X035695Y019419D01*
X035602Y019391D01*
X035509Y019359D01*
X035419Y019324D01*
X035329Y019285D01*
X035242Y019242D01*
X035156Y019196D01*
X035072Y019146D01*
X034990Y019093D01*
X034910Y019037D01*
X034833Y018978D01*
X034758Y018915D01*
X034686Y018850D01*
X034616Y018782D01*
X034550Y018711D01*
X034486Y018637D01*
X034425Y018561D01*
X034367Y018482D01*
X034313Y018401D01*
X034262Y018319D01*
X034214Y018234D01*
X034170Y018147D01*
X034129Y018058D01*
X034092Y017968D01*
X034058Y017877D01*
X034029Y017784D01*
X034003Y017690D01*
X034007Y017689D01*
X034032Y017783D01*
X034062Y017875D01*
X034096Y017967D01*
X034133Y018057D01*
X034173Y018145D01*
X034218Y018232D01*
X034265Y018316D01*
X034316Y018399D01*
X034371Y018480D01*
X034428Y018558D01*
X034489Y018635D01*
X034553Y018708D01*
X034619Y018779D01*
X034689Y018847D01*
X034761Y018912D01*
X034836Y018975D01*
X034913Y019034D01*
X034992Y019090D01*
X035074Y019143D01*
X035158Y019192D01*
X035244Y019238D01*
X035331Y019281D01*
X035420Y019320D01*
X035511Y019355D01*
X035603Y019387D01*
X035696Y019415D01*
X035790Y019439D01*
X035885Y019460D01*
X035981Y019476D01*
X036078Y019489D01*
X036175Y019497D01*
X036272Y019502D01*
X036369Y019503D01*
X036466Y019500D01*
X036564Y019493D01*
X036660Y019482D01*
X036756Y019467D01*
X036852Y019448D01*
X036947Y019426D01*
X037040Y019399D01*
X037133Y019369D01*
X037224Y019335D01*
X037314Y019298D01*
X037402Y019257D01*
X037488Y019212D01*
X037573Y019164D01*
X037656Y019113D01*
X037736Y019058D01*
X037814Y019000D01*
X037890Y018939D01*
X037963Y018875D01*
X038034Y018808D01*
X038102Y018738D01*
X038167Y018666D01*
X038229Y018591D01*
X038288Y018513D01*
X038343Y018433D01*
X038396Y018351D01*
X038445Y018267D01*
X038491Y018182D01*
X038533Y018094D01*
X038571Y018005D01*
X038606Y017914D01*
X038638Y017822D01*
X038665Y017728D01*
X038661Y017727D01*
X038634Y017820D01*
X038602Y017912D01*
X038568Y018003D01*
X038529Y018092D01*
X038487Y018180D01*
X038441Y018266D01*
X038392Y018349D01*
X038340Y018431D01*
X038284Y018511D01*
X038226Y018588D01*
X038164Y018663D01*
X038099Y018735D01*
X038031Y018805D01*
X037961Y018872D01*
X037887Y018936D01*
X037812Y018997D01*
X037734Y019055D01*
X037653Y019109D01*
X037571Y019161D01*
X037487Y019209D01*
X037400Y019253D01*
X037312Y019294D01*
X037223Y019332D01*
X037131Y019365D01*
X037039Y019395D01*
X036946Y019422D01*
X036851Y019444D01*
X036756Y019463D01*
X036660Y019478D01*
X036563Y019489D01*
X036466Y019496D01*
X036369Y019499D01*
X036272Y019498D01*
X036175Y019493D01*
X036078Y019485D01*
X035982Y019472D01*
X035886Y019456D01*
X035791Y019435D01*
X035697Y019411D01*
X035604Y019383D01*
X035512Y019352D01*
X035422Y019316D01*
X035333Y019277D01*
X035245Y019235D01*
X035160Y019189D01*
X035076Y019140D01*
X034995Y019087D01*
X034915Y019031D01*
X034838Y018972D01*
X034764Y018909D01*
X034691Y018844D01*
X034622Y018776D01*
X034556Y018705D01*
X034492Y018632D01*
X034431Y018556D01*
X034374Y018478D01*
X034320Y018397D01*
X034269Y018314D01*
X034221Y018230D01*
X034177Y018143D01*
X034136Y018055D01*
X034099Y017965D01*
X034066Y017874D01*
X034036Y017781D01*
X034010Y017688D01*
X034014Y017687D01*
X034040Y017780D01*
X034070Y017873D01*
X034103Y017964D01*
X034140Y018053D01*
X034181Y018141D01*
X034225Y018228D01*
X034272Y018312D01*
X034323Y018395D01*
X034377Y018475D01*
X034435Y018554D01*
X034495Y018629D01*
X034559Y018703D01*
X034625Y018773D01*
X034694Y018841D01*
X034766Y018906D01*
X034841Y018968D01*
X034918Y019028D01*
X034997Y019083D01*
X035078Y019136D01*
X035162Y019185D01*
X035247Y019231D01*
X035334Y019274D01*
X035423Y019313D01*
X035514Y019348D01*
X035605Y019379D01*
X035698Y019407D01*
X035792Y019431D01*
X035887Y019452D01*
X035983Y019468D01*
X036079Y019481D01*
X036175Y019489D01*
X036272Y019494D01*
X036369Y019495D01*
X036466Y019492D01*
X036563Y019485D01*
X036659Y019474D01*
X036755Y019459D01*
X036850Y019440D01*
X036945Y019418D01*
X037038Y019392D01*
X037130Y019362D01*
X037221Y019328D01*
X037311Y019291D01*
X037398Y019250D01*
X037485Y019205D01*
X037569Y019157D01*
X037651Y019106D01*
X037731Y019051D01*
X037809Y018994D01*
X037885Y018933D01*
X037958Y018869D01*
X038028Y018802D01*
X038096Y018733D01*
X038161Y018660D01*
X038222Y018586D01*
X038281Y018508D01*
X038337Y018429D01*
X038389Y018347D01*
X038438Y018264D01*
X038483Y018178D01*
X038525Y018091D01*
X038564Y018002D01*
X038599Y017911D01*
X038630Y017819D01*
X038657Y017726D01*
X038653Y017725D01*
X038626Y017818D01*
X038595Y017910D01*
X038560Y018000D01*
X038522Y018089D01*
X038480Y018176D01*
X038434Y018262D01*
X038386Y018345D01*
X038333Y018427D01*
X038278Y018506D01*
X038219Y018583D01*
X038158Y018658D01*
X038093Y018730D01*
X038025Y018799D01*
X037955Y018866D01*
X037882Y018930D01*
X037807Y018990D01*
X037729Y019048D01*
X037649Y019103D01*
X037567Y019154D01*
X037483Y019202D01*
X037397Y019246D01*
X037309Y019287D01*
X037220Y019324D01*
X037129Y019358D01*
X037037Y019388D01*
X036944Y019414D01*
X036849Y019436D01*
X036754Y019455D01*
X036659Y019470D01*
X036562Y019481D01*
X036466Y019488D01*
X036369Y019491D01*
X036272Y019490D01*
X036176Y019485D01*
X036079Y019477D01*
X035983Y019464D01*
X035888Y019448D01*
X035793Y019428D01*
X035699Y019403D01*
X035606Y019376D01*
X035515Y019344D01*
X035425Y019309D01*
X035336Y019270D01*
X035249Y019228D01*
X035164Y019182D01*
X035080Y019133D01*
X034999Y019080D01*
X034920Y019024D01*
X034843Y018965D01*
X034769Y018903D01*
X034697Y018838D01*
X034628Y018771D01*
X034562Y018700D01*
X034498Y018627D01*
X034438Y018551D01*
X034380Y018473D01*
X034326Y018393D01*
X034276Y018310D01*
X034228Y018226D01*
X034184Y018140D01*
X034144Y018052D01*
X034107Y017962D01*
X034074Y017871D01*
X034044Y017779D01*
X034018Y017686D01*
X034022Y017685D01*
X034048Y017778D01*
X034077Y017870D01*
X034111Y017961D01*
X034147Y018050D01*
X034188Y018138D01*
X034232Y018224D01*
X034279Y018308D01*
X034330Y018391D01*
X034384Y018471D01*
X034441Y018549D01*
X034501Y018624D01*
X034565Y018697D01*
X034631Y018768D01*
X034700Y018835D01*
X034771Y018900D01*
X034846Y018962D01*
X034922Y019021D01*
X035001Y019077D01*
X035082Y019129D01*
X035166Y019178D01*
X035251Y019224D01*
X035338Y019267D01*
X035426Y019305D01*
X035516Y019340D01*
X035608Y019372D01*
X035700Y019400D01*
X035794Y019424D01*
X035888Y019444D01*
X035984Y019460D01*
X036080Y019473D01*
X036176Y019481D01*
X036272Y019486D01*
X036369Y019487D01*
X036466Y019484D01*
X036562Y019477D01*
X036658Y019466D01*
X036754Y019451D01*
X036848Y019433D01*
X036943Y019410D01*
X037036Y019384D01*
X037127Y019354D01*
X037218Y019320D01*
X037307Y019283D01*
X037395Y019242D01*
X037481Y019198D01*
X037565Y019150D01*
X037647Y019099D01*
X037727Y019045D01*
X037804Y018987D01*
X037880Y018927D01*
X037953Y018863D01*
X038023Y018797D01*
X038090Y018727D01*
X038155Y018655D01*
X038216Y018581D01*
X038275Y018504D01*
X038330Y018425D01*
X038382Y018343D01*
X038431Y018260D01*
X038476Y018174D01*
X038518Y018087D01*
X038556Y017999D01*
X038591Y017908D01*
X038622Y017817D01*
X038650Y017724D01*
X038646Y017723D01*
X038618Y017816D01*
X038587Y017907D01*
X038553Y017997D01*
X038514Y018086D01*
X038473Y018173D01*
X038427Y018258D01*
X038379Y018341D01*
X038327Y018422D01*
X038271Y018501D01*
X038213Y018578D01*
X038152Y018653D01*
X038087Y018724D01*
X038020Y018794D01*
X037950Y018860D01*
X037877Y018924D01*
X037802Y018984D01*
X037725Y019042D01*
X037645Y019096D01*
X037563Y019147D01*
X037479Y019195D01*
X037393Y019239D01*
X037306Y019280D01*
X037217Y019317D01*
X037126Y019350D01*
X037034Y019380D01*
X036942Y019406D01*
X036848Y019429D01*
X036753Y019447D01*
X036658Y019462D01*
X036562Y019473D01*
X036465Y019480D01*
X036369Y019483D01*
X036273Y019482D01*
X036176Y019477D01*
X036080Y019469D01*
X035984Y019456D01*
X035889Y019440D01*
X035795Y019420D01*
X035701Y019396D01*
X035609Y019368D01*
X035518Y019337D01*
X035428Y019302D01*
X035339Y019263D01*
X035253Y019221D01*
X035168Y019175D01*
X035085Y019126D01*
X035004Y019074D01*
X034925Y019018D01*
X034848Y018959D01*
X034774Y018897D01*
X034702Y018833D01*
X034634Y018765D01*
X034568Y018695D01*
X034504Y018622D01*
X034444Y018546D01*
X034387Y018469D01*
X034333Y018388D01*
X034282Y018306D01*
X034235Y018222D01*
X034191Y018136D01*
X034151Y018049D01*
X034114Y017959D01*
X034081Y017869D01*
X034052Y017777D01*
X034026Y017684D01*
X034030Y017683D01*
X034056Y017776D01*
X034085Y017867D01*
X034118Y017958D01*
X034155Y018047D01*
X034195Y018135D01*
X034239Y018220D01*
X034286Y018304D01*
X034336Y018386D01*
X034390Y018466D01*
X034447Y018544D01*
X034507Y018619D01*
X034570Y018692D01*
X034636Y018762D01*
X034705Y018830D01*
X034777Y018894D01*
X034851Y018956D01*
X034927Y019015D01*
X035006Y019070D01*
X035087Y019123D01*
X035170Y019172D01*
X035254Y019217D01*
X035341Y019259D01*
X035429Y019298D01*
X035519Y019333D01*
X035610Y019364D01*
X035702Y019392D01*
X035796Y019416D01*
X035890Y019436D01*
X035985Y019452D01*
X036080Y019465D01*
X036176Y019473D01*
X036273Y019478D01*
X036369Y019479D01*
X036465Y019476D01*
X036561Y019469D01*
X036657Y019458D01*
X036752Y019443D01*
X036847Y019425D01*
X036941Y019402D01*
X037033Y019376D01*
X037125Y019347D01*
X037215Y019313D01*
X037304Y019276D01*
X037391Y019235D01*
X037477Y019191D01*
X037561Y019143D01*
X037643Y019093D01*
X037722Y019038D01*
X037800Y018981D01*
X037875Y018921D01*
X037947Y018857D01*
X038017Y018791D01*
X038084Y018722D01*
X038148Y018650D01*
X038210Y018576D01*
X038268Y018499D01*
X038323Y018420D01*
X038375Y018339D01*
X038424Y018256D01*
X038469Y018171D01*
X038511Y018084D01*
X038549Y017995D01*
X038584Y017906D01*
X038615Y017814D01*
X038642Y017722D01*
X038638Y017721D01*
X038611Y017813D01*
X038580Y017904D01*
X038545Y017994D01*
X038507Y018082D01*
X038466Y018169D01*
X038420Y018254D01*
X038372Y018337D01*
X038320Y018418D01*
X038265Y018497D01*
X038207Y018573D01*
X038145Y018647D01*
X038081Y018719D01*
X038014Y018788D01*
X037944Y018854D01*
X037872Y018917D01*
X037797Y018978D01*
X037720Y019035D01*
X037640Y019089D01*
X037559Y019140D01*
X037475Y019188D01*
X037390Y019232D01*
X037302Y019272D01*
X037214Y019309D01*
X037124Y019343D01*
X037032Y019372D01*
X036940Y019399D01*
X036846Y019421D01*
X036752Y019439D01*
X036657Y019454D01*
X036561Y019465D01*
X036465Y019472D01*
X036369Y019475D01*
X036273Y019474D01*
X036177Y019469D01*
X036081Y019461D01*
X035986Y019448D01*
X035891Y019432D01*
X035797Y019412D01*
X035704Y019388D01*
X035611Y019360D01*
X035520Y019329D01*
X035431Y019294D01*
X035343Y019256D01*
X035256Y019214D01*
X035172Y019168D01*
X035089Y019119D01*
X035008Y019067D01*
X034929Y019011D01*
X034853Y018953D01*
X034779Y018891D01*
X034708Y018827D01*
X034639Y018759D01*
X034573Y018689D01*
X034510Y018617D01*
X034450Y018541D01*
X034394Y018464D01*
X034340Y018384D01*
X034289Y018302D01*
X034242Y018218D01*
X034199Y018133D01*
X034158Y018045D01*
X034122Y017956D01*
X034089Y017866D01*
X034059Y017775D01*
X034034Y017682D01*
X033992Y016338D02*
X034035Y016350D01*
X034035Y016349D02*
X034062Y016257D01*
X034093Y016166D01*
X034128Y016076D01*
X034166Y015988D01*
X034207Y015902D01*
X034252Y015817D01*
X034301Y015734D01*
X034353Y015653D01*
X034408Y015574D01*
X034466Y015497D01*
X034527Y015423D01*
X034591Y015352D01*
X034658Y015283D01*
X034728Y015217D01*
X034801Y015153D01*
X034875Y015093D01*
X034953Y015036D01*
X035032Y014982D01*
X035114Y014931D01*
X035197Y014883D01*
X035283Y014839D01*
X035370Y014799D01*
X035459Y014762D01*
X035549Y014728D01*
X035640Y014698D01*
X035733Y014672D01*
X035826Y014650D01*
X035921Y014632D01*
X036016Y014617D01*
X036111Y014606D01*
X036207Y014599D01*
X036303Y014596D01*
X036399Y014597D01*
X036495Y014602D01*
X036591Y014610D01*
X036686Y014623D01*
X036781Y014639D01*
X036875Y014659D01*
X036968Y014683D01*
X037060Y014710D01*
X037151Y014742D01*
X037241Y014777D01*
X037329Y014815D01*
X037415Y014857D01*
X037500Y014903D01*
X037583Y014952D01*
X037663Y015004D01*
X037742Y015059D01*
X037818Y015118D01*
X037892Y015179D01*
X037963Y015244D01*
X038032Y015311D01*
X038098Y015381D01*
X038161Y015454D01*
X038221Y015529D01*
X038278Y015607D01*
X038331Y015686D01*
X038382Y015768D01*
X038429Y015852D01*
X038473Y015938D01*
X038513Y016025D01*
X038549Y016114D01*
X038582Y016204D01*
X038612Y016296D01*
X038637Y016388D01*
X038680Y016378D01*
X038681Y016377D01*
X038655Y016283D01*
X038625Y016190D01*
X038591Y016098D01*
X038554Y016007D01*
X038513Y015918D01*
X038469Y015831D01*
X038421Y015745D01*
X038369Y015662D01*
X038314Y015581D01*
X038256Y015502D01*
X038195Y015425D01*
X038131Y015351D01*
X038064Y015280D01*
X037994Y015211D01*
X037922Y015146D01*
X037846Y015083D01*
X037769Y015023D01*
X037689Y014967D01*
X037606Y014913D01*
X037522Y014864D01*
X037436Y014817D01*
X037348Y014774D01*
X037258Y014735D01*
X037167Y014700D01*
X037074Y014668D01*
X036980Y014640D01*
X036885Y014615D01*
X036790Y014595D01*
X036693Y014578D01*
X036596Y014566D01*
X036498Y014557D01*
X036401Y014552D01*
X036303Y014551D01*
X036205Y014554D01*
X036107Y014561D01*
X036010Y014572D01*
X035913Y014587D01*
X035817Y014606D01*
X035721Y014629D01*
X035627Y014655D01*
X035534Y014686D01*
X035442Y014720D01*
X035352Y014758D01*
X035263Y014799D01*
X035176Y014844D01*
X035091Y014892D01*
X035008Y014944D01*
X034927Y014999D01*
X034848Y015057D01*
X034772Y015119D01*
X034698Y015183D01*
X034627Y015251D01*
X034559Y015321D01*
X034493Y015394D01*
X034431Y015469D01*
X034371Y015547D01*
X034315Y015628D01*
X034263Y015710D01*
X034213Y015795D01*
X034167Y015881D01*
X034125Y015970D01*
X034086Y016059D01*
X034051Y016151D01*
X034019Y016244D01*
X033992Y016338D01*
X033995Y016339D01*
X034023Y016245D01*
X034054Y016152D01*
X034090Y016061D01*
X034128Y015971D01*
X034171Y015883D01*
X034217Y015797D01*
X034266Y015712D01*
X034319Y015630D01*
X034375Y015550D01*
X034434Y015472D01*
X034496Y015397D01*
X034561Y015324D01*
X034630Y015254D01*
X034701Y015186D01*
X034774Y015122D01*
X034850Y015061D01*
X034929Y015002D01*
X035010Y014947D01*
X035093Y014896D01*
X035178Y014847D01*
X035265Y014802D01*
X035353Y014761D01*
X035444Y014723D01*
X035535Y014689D01*
X035628Y014659D01*
X035722Y014633D01*
X035818Y014610D01*
X035914Y014591D01*
X036010Y014576D01*
X036107Y014565D01*
X036205Y014558D01*
X036303Y014555D01*
X036400Y014556D01*
X036498Y014561D01*
X036595Y014569D01*
X036692Y014582D01*
X036789Y014599D01*
X036884Y014619D01*
X036979Y014643D01*
X037073Y014671D01*
X037165Y014703D01*
X037256Y014739D01*
X037346Y014778D01*
X037434Y014821D01*
X037520Y014867D01*
X037604Y014917D01*
X037686Y014970D01*
X037766Y015026D01*
X037844Y015086D01*
X037919Y015149D01*
X037991Y015214D01*
X038061Y015283D01*
X038128Y015354D01*
X038192Y015428D01*
X038253Y015504D01*
X038311Y015583D01*
X038366Y015664D01*
X038417Y015747D01*
X038465Y015833D01*
X038509Y015920D01*
X038550Y016009D01*
X038588Y016099D01*
X038621Y016191D01*
X038651Y016284D01*
X038677Y016378D01*
X038673Y016379D01*
X038647Y016285D01*
X038617Y016192D01*
X038584Y016101D01*
X038547Y016010D01*
X038506Y015922D01*
X038462Y015835D01*
X038414Y015749D01*
X038362Y015666D01*
X038308Y015585D01*
X038250Y015507D01*
X038189Y015430D01*
X038125Y015357D01*
X038058Y015285D01*
X037989Y015217D01*
X037916Y015152D01*
X037841Y015089D01*
X037764Y015030D01*
X037684Y014973D01*
X037602Y014920D01*
X037518Y014871D01*
X037432Y014824D01*
X037344Y014782D01*
X037255Y014743D01*
X037164Y014707D01*
X037072Y014675D01*
X036978Y014647D01*
X036884Y014623D01*
X036788Y014603D01*
X036692Y014586D01*
X036595Y014573D01*
X036498Y014565D01*
X036400Y014560D01*
X036303Y014559D01*
X036205Y014562D01*
X036108Y014569D01*
X036011Y014580D01*
X035914Y014595D01*
X035818Y014614D01*
X035723Y014637D01*
X035629Y014663D01*
X035537Y014693D01*
X035445Y014727D01*
X035355Y014765D01*
X035266Y014806D01*
X035180Y014851D01*
X035095Y014899D01*
X035012Y014951D01*
X034931Y015006D01*
X034853Y015064D01*
X034777Y015125D01*
X034703Y015189D01*
X034632Y015256D01*
X034564Y015326D01*
X034499Y015399D01*
X034437Y015474D01*
X034378Y015552D01*
X034322Y015632D01*
X034269Y015714D01*
X034220Y015799D01*
X034174Y015885D01*
X034132Y015973D01*
X034093Y016062D01*
X034058Y016154D01*
X034027Y016246D01*
X033999Y016340D01*
X034003Y016341D01*
X034031Y016247D01*
X034062Y016155D01*
X034097Y016064D01*
X034136Y015974D01*
X034178Y015887D01*
X034224Y015801D01*
X034273Y015716D01*
X034325Y015634D01*
X034381Y015554D01*
X034440Y015477D01*
X034502Y015402D01*
X034567Y015329D01*
X034635Y015259D01*
X034706Y015192D01*
X034779Y015128D01*
X034855Y015067D01*
X034934Y015009D01*
X035014Y014954D01*
X035097Y014902D01*
X035182Y014854D01*
X035268Y014810D01*
X035357Y014768D01*
X035447Y014731D01*
X035538Y014697D01*
X035631Y014667D01*
X035724Y014640D01*
X035819Y014618D01*
X035915Y014599D01*
X036011Y014584D01*
X036108Y014573D01*
X036205Y014566D01*
X036303Y014563D01*
X036400Y014564D01*
X036498Y014569D01*
X036595Y014577D01*
X036691Y014590D01*
X036787Y014607D01*
X036883Y014627D01*
X036977Y014651D01*
X037070Y014679D01*
X037163Y014711D01*
X037253Y014746D01*
X037343Y014785D01*
X037430Y014828D01*
X037516Y014874D01*
X037600Y014924D01*
X037682Y014977D01*
X037762Y015033D01*
X037839Y015092D01*
X037914Y015155D01*
X037986Y015220D01*
X038056Y015288D01*
X038122Y015359D01*
X038186Y015433D01*
X038247Y015509D01*
X038305Y015588D01*
X038359Y015669D01*
X038410Y015751D01*
X038458Y015836D01*
X038502Y015923D01*
X038543Y016012D01*
X038580Y016102D01*
X038614Y016193D01*
X038643Y016286D01*
X038669Y016380D01*
X038665Y016381D01*
X038640Y016287D01*
X038610Y016195D01*
X038576Y016103D01*
X038539Y016013D01*
X038499Y015925D01*
X038454Y015838D01*
X038407Y015754D01*
X038356Y015671D01*
X038301Y015590D01*
X038244Y015512D01*
X038183Y015435D01*
X038119Y015362D01*
X038053Y015291D01*
X037983Y015223D01*
X037911Y015158D01*
X037836Y015095D01*
X037759Y015036D01*
X037680Y014980D01*
X037598Y014927D01*
X037514Y014878D01*
X037428Y014832D01*
X037341Y014789D01*
X037252Y014750D01*
X037161Y014715D01*
X037069Y014683D01*
X036976Y014655D01*
X036882Y014631D01*
X036787Y014610D01*
X036691Y014594D01*
X036594Y014581D01*
X036497Y014573D01*
X036400Y014568D01*
X036303Y014567D01*
X036206Y014570D01*
X036108Y014577D01*
X036012Y014588D01*
X035916Y014603D01*
X035820Y014622D01*
X035725Y014644D01*
X035632Y014671D01*
X035539Y014701D01*
X035448Y014735D01*
X035358Y014772D01*
X035270Y014813D01*
X035184Y014858D01*
X035099Y014906D01*
X035016Y014957D01*
X034936Y015012D01*
X034858Y015070D01*
X034782Y015131D01*
X034709Y015195D01*
X034638Y015262D01*
X034570Y015332D01*
X034505Y015404D01*
X034443Y015479D01*
X034384Y015557D01*
X034329Y015637D01*
X034276Y015719D01*
X034227Y015803D01*
X034181Y015888D01*
X034139Y015976D01*
X034101Y016065D01*
X034066Y016156D01*
X034034Y016248D01*
X034007Y016342D01*
X034011Y016343D01*
X034038Y016250D01*
X034070Y016158D01*
X034104Y016067D01*
X034143Y015978D01*
X034185Y015890D01*
X034231Y015804D01*
X034280Y015721D01*
X034332Y015639D01*
X034388Y015559D01*
X034446Y015482D01*
X034508Y015407D01*
X034573Y015335D01*
X034641Y015265D01*
X034711Y015198D01*
X034785Y015134D01*
X034860Y015073D01*
X034938Y015015D01*
X035019Y014961D01*
X035101Y014909D01*
X035185Y014861D01*
X035272Y014817D01*
X035360Y014776D01*
X035449Y014738D01*
X035541Y014705D01*
X035633Y014675D01*
X035726Y014648D01*
X035821Y014626D01*
X035916Y014607D01*
X036012Y014592D01*
X036109Y014581D01*
X036206Y014574D01*
X036303Y014571D01*
X036400Y014572D01*
X036497Y014577D01*
X036594Y014585D01*
X036690Y014598D01*
X036786Y014614D01*
X036881Y014635D01*
X036975Y014659D01*
X037068Y014687D01*
X037160Y014718D01*
X037250Y014754D01*
X037339Y014793D01*
X037427Y014835D01*
X037512Y014881D01*
X037596Y014930D01*
X037677Y014983D01*
X037757Y015039D01*
X037834Y015098D01*
X037908Y015161D01*
X037981Y015226D01*
X038050Y015294D01*
X038116Y015365D01*
X038180Y015438D01*
X038241Y015514D01*
X038298Y015592D01*
X038352Y015673D01*
X038403Y015756D01*
X038451Y015840D01*
X038495Y015927D01*
X038536Y016015D01*
X038573Y016105D01*
X038606Y016196D01*
X038636Y016289D01*
X038662Y016382D01*
X038658Y016383D01*
X038632Y016290D01*
X038602Y016197D01*
X038569Y016106D01*
X038532Y016017D01*
X038491Y015929D01*
X038447Y015842D01*
X038400Y015758D01*
X038349Y015675D01*
X038295Y015595D01*
X038237Y015516D01*
X038177Y015441D01*
X038113Y015367D01*
X038047Y015297D01*
X037978Y015229D01*
X037906Y015164D01*
X037831Y015102D01*
X037754Y015042D01*
X037675Y014987D01*
X037594Y014934D01*
X037510Y014885D01*
X037425Y014839D01*
X037338Y014796D01*
X037249Y014757D01*
X037158Y014722D01*
X037067Y014691D01*
X036974Y014663D01*
X036880Y014639D01*
X036785Y014618D01*
X036689Y014602D01*
X036593Y014589D01*
X036497Y014581D01*
X036400Y014576D01*
X036303Y014575D01*
X036206Y014578D01*
X036109Y014585D01*
X036013Y014596D01*
X035917Y014611D01*
X035822Y014630D01*
X035727Y014652D01*
X035634Y014678D01*
X035542Y014708D01*
X035451Y014742D01*
X035361Y014779D01*
X035274Y014820D01*
X035187Y014865D01*
X035103Y014913D01*
X035021Y014964D01*
X034941Y015019D01*
X034863Y015076D01*
X034787Y015137D01*
X034714Y015201D01*
X034644Y015268D01*
X034576Y015337D01*
X034511Y015410D01*
X034450Y015484D01*
X034391Y015562D01*
X034335Y015641D01*
X034283Y015723D01*
X034234Y015806D01*
X034189Y015892D01*
X034147Y015979D01*
X034108Y016068D01*
X034073Y016159D01*
X034042Y016251D01*
X034015Y016344D01*
X034019Y016345D01*
X034046Y016252D01*
X034077Y016160D01*
X034112Y016070D01*
X034150Y015981D01*
X034192Y015894D01*
X034238Y015808D01*
X034286Y015725D01*
X034339Y015643D01*
X034394Y015564D01*
X034453Y015487D01*
X034514Y015412D01*
X034579Y015340D01*
X034647Y015271D01*
X034717Y015204D01*
X034790Y015140D01*
X034865Y015080D01*
X034943Y015022D01*
X035023Y014967D01*
X035105Y014916D01*
X035189Y014868D01*
X035275Y014824D01*
X035363Y014783D01*
X035452Y014746D01*
X035543Y014712D01*
X035635Y014682D01*
X035728Y014656D01*
X035823Y014634D01*
X035918Y014615D01*
X036013Y014600D01*
X036110Y014589D01*
X036206Y014582D01*
X036303Y014579D01*
X036400Y014580D01*
X036496Y014585D01*
X036593Y014593D01*
X036689Y014606D01*
X036784Y014622D01*
X036879Y014642D01*
X036973Y014667D01*
X037066Y014694D01*
X037157Y014726D01*
X037247Y014761D01*
X037336Y014800D01*
X037423Y014842D01*
X037508Y014888D01*
X037592Y014937D01*
X037673Y014990D01*
X037752Y015046D01*
X037829Y015105D01*
X037903Y015167D01*
X037975Y015232D01*
X038044Y015299D01*
X038110Y015370D01*
X038174Y015443D01*
X038234Y015519D01*
X038292Y015597D01*
X038346Y015677D01*
X038396Y015760D01*
X038444Y015844D01*
X038488Y015930D01*
X038528Y016018D01*
X038565Y016108D01*
X038598Y016199D01*
X038628Y016291D01*
X038654Y016384D01*
X038650Y016385D01*
X038624Y016292D01*
X038595Y016200D01*
X038561Y016109D01*
X038525Y016020D01*
X038484Y015932D01*
X038440Y015846D01*
X038393Y015762D01*
X038342Y015679D01*
X038288Y015599D01*
X038231Y015521D01*
X038171Y015446D01*
X038107Y015373D01*
X038041Y015302D01*
X037972Y015235D01*
X037901Y015170D01*
X037826Y015108D01*
X037750Y015049D01*
X037671Y014993D01*
X037590Y014941D01*
X037506Y014892D01*
X037421Y014846D01*
X037334Y014803D01*
X037246Y014765D01*
X037156Y014730D01*
X037064Y014698D01*
X036972Y014670D01*
X036878Y014646D01*
X036784Y014626D01*
X036688Y014610D01*
X036592Y014597D01*
X036496Y014589D01*
X036400Y014584D01*
X036303Y014583D01*
X036206Y014586D01*
X036110Y014593D01*
X036014Y014604D01*
X035918Y014619D01*
X035824Y014637D01*
X035729Y014660D01*
X035636Y014686D01*
X035545Y014716D01*
X035454Y014750D01*
X035365Y014787D01*
X035277Y014828D01*
X035191Y014872D01*
X035107Y014920D01*
X035025Y014971D01*
X034945Y015025D01*
X034868Y015083D01*
X034792Y015143D01*
X034719Y015207D01*
X034649Y015273D01*
X034582Y015343D01*
X034517Y015415D01*
X034456Y015489D01*
X034397Y015566D01*
X034342Y015645D01*
X034290Y015727D01*
X034241Y015810D01*
X034196Y015896D01*
X034154Y015983D01*
X034116Y016071D01*
X034081Y016162D01*
X034050Y016253D01*
X034022Y016346D01*
X034026Y016347D01*
X034054Y016254D01*
X034085Y016163D01*
X034119Y016073D01*
X034158Y015984D01*
X034199Y015897D01*
X034245Y015812D01*
X034293Y015729D01*
X034345Y015648D01*
X034401Y015569D01*
X034459Y015492D01*
X034520Y015417D01*
X034585Y015346D01*
X034652Y015276D01*
X034722Y015210D01*
X034795Y015146D01*
X034870Y015086D01*
X034947Y015028D01*
X035027Y014974D01*
X035109Y014923D01*
X035193Y014875D01*
X035279Y014831D01*
X035366Y014790D01*
X035455Y014753D01*
X035546Y014720D01*
X035638Y014690D01*
X035730Y014664D01*
X035824Y014641D01*
X035919Y014623D01*
X036014Y014608D01*
X036110Y014597D01*
X036207Y014590D01*
X036303Y014587D01*
X036399Y014588D01*
X036496Y014593D01*
X036592Y014601D01*
X036688Y014614D01*
X036783Y014630D01*
X036877Y014650D01*
X036971Y014674D01*
X037063Y014702D01*
X037154Y014733D01*
X037244Y014768D01*
X037333Y014807D01*
X037419Y014849D01*
X037504Y014895D01*
X037587Y014944D01*
X037668Y014996D01*
X037747Y015052D01*
X037824Y015111D01*
X037898Y015173D01*
X037970Y015237D01*
X038038Y015305D01*
X038104Y015375D01*
X038168Y015448D01*
X038228Y015524D01*
X038285Y015601D01*
X038339Y015682D01*
X038390Y015764D01*
X038437Y015848D01*
X038481Y015934D01*
X038521Y016021D01*
X038558Y016111D01*
X038591Y016201D01*
X038620Y016293D01*
X038646Y016386D01*
X038642Y016387D01*
X038616Y016294D01*
X038587Y016203D01*
X038554Y016112D01*
X038517Y016023D01*
X038477Y015935D01*
X038433Y015850D01*
X038386Y015766D01*
X038336Y015684D01*
X038282Y015604D01*
X038225Y015526D01*
X038165Y015451D01*
X038102Y015378D01*
X038036Y015308D01*
X037967Y015240D01*
X037895Y015176D01*
X037821Y015114D01*
X037745Y015055D01*
X037666Y015000D01*
X037585Y014947D01*
X037502Y014898D01*
X037418Y014853D01*
X037331Y014811D01*
X037243Y014772D01*
X037153Y014737D01*
X037062Y014706D01*
X036970Y014678D01*
X036876Y014654D01*
X036782Y014634D01*
X036687Y014618D01*
X036592Y014605D01*
X036496Y014597D01*
X036399Y014592D01*
X036303Y014591D01*
X036207Y014594D01*
X036111Y014601D01*
X036015Y014612D01*
X035920Y014627D01*
X035825Y014645D01*
X035731Y014668D01*
X035639Y014694D01*
X035547Y014723D01*
X035457Y014757D01*
X035368Y014794D01*
X035281Y014835D01*
X035195Y014879D01*
X035111Y014927D01*
X035029Y014977D01*
X034950Y015032D01*
X034872Y015089D01*
X034797Y015149D01*
X034725Y015213D01*
X034655Y015279D01*
X034588Y015348D01*
X034524Y015420D01*
X034462Y015494D01*
X034404Y015571D01*
X034349Y015650D01*
X034297Y015731D01*
X034248Y015814D01*
X034203Y015899D01*
X034161Y015986D01*
X034123Y016075D01*
X034088Y016164D01*
X034057Y016256D01*
X034030Y016348D01*
X034034Y016349D01*
X034061Y016257D01*
X034092Y016166D01*
X034127Y016076D01*
X034165Y015988D01*
X034206Y015901D01*
X034252Y015816D01*
X034300Y015733D01*
X034352Y015652D01*
X034407Y015573D01*
X034465Y015497D01*
X034527Y015423D01*
X034591Y015351D01*
X034658Y015282D01*
X034728Y015216D01*
X034800Y015153D01*
X034875Y015092D01*
X034952Y015035D01*
X035032Y014981D01*
X035113Y014930D01*
X035197Y014882D01*
X035282Y014838D01*
X035370Y014798D01*
X035458Y014761D01*
X035548Y014727D01*
X035640Y014698D01*
X035732Y014671D01*
X035826Y014649D01*
X035920Y014631D01*
X036015Y014616D01*
X036111Y014605D01*
X036207Y014598D01*
X036303Y014595D01*
X036399Y014596D01*
X036495Y014601D01*
X036591Y014609D01*
X036686Y014622D01*
X036781Y014638D01*
X036875Y014658D01*
X036968Y014682D01*
X037061Y014710D01*
X037152Y014741D01*
X037241Y014776D01*
X037329Y014814D01*
X037416Y014856D01*
X037500Y014902D01*
X037583Y014951D01*
X037664Y015003D01*
X037743Y015059D01*
X037819Y015117D01*
X037893Y015179D01*
X037964Y015243D01*
X038033Y015311D01*
X038099Y015381D01*
X038162Y015453D01*
X038222Y015529D01*
X038278Y015606D01*
X038332Y015686D01*
X038383Y015768D01*
X038430Y015852D01*
X038473Y015937D01*
X038514Y016025D01*
X038550Y016114D01*
X038583Y016204D01*
X038613Y016295D01*
X038638Y016388D01*
X024676Y017941D02*
X024641Y017912D01*
X024642Y017913D02*
X024580Y017984D01*
X024515Y018052D01*
X024447Y018117D01*
X024377Y018179D01*
X024304Y018239D01*
X024229Y018295D01*
X024151Y018349D01*
X024071Y018399D01*
X023990Y018445D01*
X023906Y018489D01*
X023821Y018528D01*
X023734Y018565D01*
X023646Y018597D01*
X023556Y018626D01*
X023465Y018651D01*
X023374Y018673D01*
X023281Y018690D01*
X023288Y018734D01*
X023289Y018735D01*
X023378Y018718D01*
X023466Y018698D01*
X023554Y018674D01*
X023640Y018647D01*
X023726Y018616D01*
X023810Y018582D01*
X023892Y018545D01*
X023973Y018505D01*
X024053Y018462D01*
X024131Y018415D01*
X024207Y018366D01*
X024281Y018313D01*
X024353Y018258D01*
X024422Y018200D01*
X024489Y018139D01*
X024554Y018076D01*
X024617Y018010D01*
X024676Y017942D01*
X024673Y017939D01*
X024614Y018007D01*
X024551Y018073D01*
X024487Y018136D01*
X024419Y018197D01*
X024350Y018255D01*
X024278Y018310D01*
X024205Y018362D01*
X024129Y018412D01*
X024051Y018458D01*
X023972Y018501D01*
X023891Y018542D01*
X023808Y018579D01*
X023724Y018612D01*
X023639Y018643D01*
X023553Y018670D01*
X023465Y018694D01*
X023377Y018714D01*
X023288Y018731D01*
X023288Y018727D01*
X023376Y018710D01*
X023464Y018690D01*
X023551Y018666D01*
X023638Y018639D01*
X023723Y018609D01*
X023806Y018575D01*
X023889Y018538D01*
X023970Y018498D01*
X024049Y018455D01*
X024127Y018408D01*
X024202Y018359D01*
X024276Y018307D01*
X024348Y018252D01*
X024417Y018194D01*
X024484Y018133D01*
X024549Y018070D01*
X024611Y018005D01*
X024670Y017937D01*
X024667Y017934D01*
X024604Y018006D01*
X024538Y018075D01*
X024470Y018141D01*
X024398Y018205D01*
X024324Y018265D01*
X024248Y018322D01*
X024169Y018376D01*
X024088Y018427D01*
X024005Y018474D01*
X023921Y018518D01*
X023834Y018559D01*
X023746Y018595D01*
X023656Y018628D01*
X023566Y018658D01*
X023474Y018683D01*
X023381Y018705D01*
X023287Y018723D01*
X023286Y018719D01*
X023380Y018701D01*
X023473Y018679D01*
X023564Y018654D01*
X023655Y018625D01*
X023745Y018592D01*
X023833Y018555D01*
X023919Y018515D01*
X024003Y018471D01*
X024086Y018424D01*
X024167Y018373D01*
X024245Y018319D01*
X024322Y018262D01*
X024396Y018202D01*
X024467Y018138D01*
X024535Y018072D01*
X024601Y018003D01*
X024664Y017932D01*
X024661Y017929D01*
X024598Y018000D01*
X024533Y018069D01*
X024464Y018135D01*
X024393Y018199D01*
X024319Y018259D01*
X024243Y018316D01*
X024165Y018370D01*
X024084Y018420D01*
X024002Y018467D01*
X023917Y018511D01*
X023831Y018551D01*
X023743Y018588D01*
X023654Y018621D01*
X023563Y018650D01*
X023472Y018676D01*
X023379Y018697D01*
X023286Y018715D01*
X023285Y018711D01*
X023378Y018693D01*
X023471Y018672D01*
X023562Y018646D01*
X023653Y018617D01*
X023742Y018584D01*
X023829Y018548D01*
X023915Y018508D01*
X024000Y018464D01*
X024082Y018417D01*
X024163Y018366D01*
X024241Y018313D01*
X024317Y018256D01*
X024390Y018195D01*
X024461Y018132D01*
X024530Y018066D01*
X024595Y017998D01*
X024658Y017926D01*
X024655Y017924D01*
X024592Y017995D01*
X024527Y018064D01*
X024459Y018129D01*
X024388Y018192D01*
X024314Y018252D01*
X024238Y018309D01*
X024160Y018363D01*
X024080Y018413D01*
X023998Y018460D01*
X023914Y018504D01*
X023828Y018544D01*
X023740Y018580D01*
X023651Y018613D01*
X023561Y018642D01*
X023470Y018668D01*
X023377Y018689D01*
X023284Y018707D01*
X023284Y018703D01*
X023377Y018685D01*
X023469Y018664D01*
X023560Y018639D01*
X023650Y018610D01*
X023739Y018577D01*
X023826Y018540D01*
X023912Y018500D01*
X023996Y018457D01*
X024078Y018410D01*
X024158Y018360D01*
X024236Y018306D01*
X024312Y018249D01*
X024385Y018189D01*
X024456Y018127D01*
X024524Y018061D01*
X024589Y017992D01*
X024652Y017921D01*
X024649Y017919D01*
X024586Y017990D01*
X024521Y018058D01*
X024453Y018124D01*
X024383Y018186D01*
X024309Y018246D01*
X024234Y018303D01*
X024156Y018356D01*
X024076Y018406D01*
X023994Y018453D01*
X023910Y018497D01*
X023824Y018537D01*
X023737Y018573D01*
X023649Y018606D01*
X023559Y018635D01*
X023468Y018660D01*
X023376Y018682D01*
X023283Y018699D01*
X023282Y018695D01*
X023375Y018678D01*
X023467Y018656D01*
X023558Y018631D01*
X023647Y018602D01*
X023736Y018569D01*
X023823Y018533D01*
X023908Y018493D01*
X023992Y018450D01*
X024074Y018403D01*
X024154Y018353D01*
X024231Y018300D01*
X024307Y018243D01*
X024380Y018183D01*
X024451Y018121D01*
X024518Y018055D01*
X024583Y017987D01*
X024646Y017916D01*
X024643Y017914D01*
X024581Y017984D01*
X024516Y018052D01*
X024448Y018118D01*
X024377Y018180D01*
X024304Y018240D01*
X024229Y018296D01*
X024152Y018350D01*
X024072Y018400D01*
X023990Y018446D01*
X023907Y018490D01*
X023821Y018529D01*
X023734Y018566D01*
X023646Y018598D01*
X023556Y018627D01*
X023466Y018652D01*
X023374Y018674D01*
X023282Y018691D01*
D15*
X028950Y013040D03*
D16*
X030720Y014350D03*
D17*
X028995Y014100D03*
X032445Y014100D03*
D18*
X031220Y014100D03*
X030220Y014100D03*
D19*
X030068Y015028D02*
X032872Y015028D01*
X032872Y017472D02*
X030068Y017472D01*
D20*
X032051Y016250D03*
D21*
X033222Y019217D03*
D22*
X033232Y019236D03*
X033232Y019433D03*
D23*
X033222Y019413D03*
X033222Y019256D03*
D24*
X033232Y019276D03*
X033232Y019394D03*
D25*
X033222Y019374D03*
X033222Y019354D03*
X033222Y019335D03*
X033222Y019315D03*
X033222Y019295D03*
D26*
X033222Y019453D03*
D27*
X032090Y020142D03*
X032090Y020161D03*
X032110Y020181D03*
X032110Y020201D03*
X032129Y020220D03*
X032149Y020260D03*
X032169Y020280D03*
X032169Y020299D03*
X032189Y020319D03*
X032189Y020339D03*
X032208Y020358D03*
X032228Y020378D03*
X032228Y020398D03*
X032248Y020417D03*
X032248Y020437D03*
X032267Y020457D03*
X032287Y020496D03*
X032307Y020516D03*
X032307Y020535D03*
X032326Y020555D03*
X032326Y020575D03*
X032346Y020594D03*
X032366Y020614D03*
X032366Y020634D03*
X032385Y020654D03*
X032385Y020673D03*
X032405Y020693D03*
X032405Y020713D03*
X032425Y020732D03*
X032444Y020752D03*
X032444Y020772D03*
X032464Y020791D03*
X032464Y020811D03*
X032484Y020831D03*
X032484Y020850D03*
X032503Y020870D03*
X032523Y020890D03*
X032523Y020909D03*
X032543Y020929D03*
X032543Y020949D03*
X032563Y020969D03*
X032582Y020988D03*
X032582Y021008D03*
X032602Y021028D03*
X032602Y021047D03*
X032622Y021067D03*
X032622Y021087D03*
X032641Y021106D03*
X032661Y021126D03*
X032661Y021146D03*
X032681Y021165D03*
X032681Y021185D03*
X032700Y021205D03*
X032700Y021224D03*
X032720Y021244D03*
X032740Y021264D03*
X032740Y021283D03*
X032759Y021303D03*
X032759Y021323D03*
X032779Y021343D03*
X032799Y021362D03*
X032799Y021382D03*
X032818Y021402D03*
X032818Y021421D03*
X032838Y021441D03*
X032838Y021461D03*
X032858Y021480D03*
X032877Y021500D03*
X032877Y021520D03*
X032897Y021539D03*
X032897Y021559D03*
X032917Y021579D03*
X032937Y021618D03*
X032956Y021638D03*
X032956Y021657D03*
X032976Y021677D03*
X032976Y021697D03*
X032996Y021717D03*
X033015Y021756D03*
X033035Y021776D03*
X033035Y021795D03*
X033055Y021815D03*
X033055Y021835D03*
X033389Y021835D03*
X033409Y021815D03*
X033409Y021795D03*
X033429Y021776D03*
X033429Y021756D03*
X033448Y021736D03*
X033468Y021717D03*
X033468Y021697D03*
X033488Y021677D03*
X033488Y021657D03*
X033507Y021638D03*
X033527Y021618D03*
X033527Y021598D03*
X033547Y021579D03*
X033547Y021559D03*
X033566Y021539D03*
X033566Y021520D03*
X033586Y021500D03*
X033606Y021480D03*
X033606Y021461D03*
X033626Y021441D03*
X033626Y021421D03*
X033645Y021402D03*
X033665Y021362D03*
X033685Y021343D03*
X033685Y021323D03*
X033704Y021303D03*
X033704Y021283D03*
X033724Y021264D03*
X033744Y021244D03*
X033744Y021224D03*
X033763Y021205D03*
X033763Y021185D03*
X033783Y021165D03*
X033783Y021146D03*
X033803Y021126D03*
X033822Y021106D03*
X033822Y021087D03*
X033842Y021067D03*
X033842Y021047D03*
X033862Y021028D03*
X033881Y020988D03*
X033901Y020969D03*
X033901Y020949D03*
X033921Y020929D03*
X033921Y020909D03*
X033940Y020890D03*
X033960Y020870D03*
X033960Y020850D03*
X033980Y020831D03*
X033980Y020811D03*
X034000Y020791D03*
X034000Y020772D03*
X034019Y020752D03*
X034039Y020732D03*
X034039Y020713D03*
X034059Y020693D03*
X034059Y020673D03*
X034078Y020654D03*
X034078Y020634D03*
X034098Y020614D03*
X034118Y020594D03*
X034118Y020575D03*
X034137Y020555D03*
X034137Y020535D03*
X034157Y020516D03*
X034177Y020476D03*
X034196Y020457D03*
X034196Y020437D03*
X034216Y020417D03*
X034216Y020398D03*
X034236Y020378D03*
X034255Y020358D03*
X034255Y020339D03*
X034275Y020319D03*
X034275Y020299D03*
X034295Y020280D03*
X034295Y020260D03*
X034314Y020240D03*
X034334Y020220D03*
X034334Y020201D03*
X034354Y020181D03*
X034354Y020161D03*
X034374Y020142D03*
X034393Y020122D03*
X034393Y020102D03*
X034413Y020083D03*
X034413Y020063D03*
X034433Y020043D03*
X034433Y020024D03*
X034452Y020004D03*
X034472Y019984D03*
X034472Y019965D03*
X034492Y019945D03*
X034492Y019925D03*
X034511Y019906D03*
X034531Y019886D03*
X034531Y019866D03*
X034551Y019846D03*
X034551Y019827D03*
X034570Y019807D03*
X034570Y019787D03*
X034590Y019768D03*
X034610Y019748D03*
X034610Y019728D03*
X034629Y019709D03*
X034629Y019689D03*
X034649Y019669D03*
X034649Y019650D03*
X034669Y019630D03*
X034689Y019610D03*
X034689Y019591D03*
X034708Y019571D03*
X034708Y019551D03*
X034728Y019531D03*
X034728Y019512D03*
X034748Y019492D03*
X034767Y019472D03*
X033311Y020575D03*
X032070Y020122D03*
X032051Y020102D03*
X032051Y020083D03*
X032031Y020063D03*
X032031Y020043D03*
X032011Y020024D03*
X032011Y020004D03*
X031992Y019984D03*
X031972Y019965D03*
X031972Y019945D03*
X031952Y019925D03*
X031952Y019906D03*
X031933Y019886D03*
X031913Y019846D03*
X031893Y019827D03*
X031893Y019807D03*
X031874Y019787D03*
X031874Y019768D03*
X031854Y019748D03*
X031834Y019728D03*
X031834Y019709D03*
X031814Y019689D03*
X031814Y019669D03*
X031795Y019650D03*
X031795Y019630D03*
X031775Y019610D03*
X031755Y019591D03*
X031755Y019571D03*
X031736Y019551D03*
X031736Y019531D03*
X031716Y019512D03*
X031716Y019492D03*
X031696Y019472D03*
X033232Y022130D03*
D28*
X033488Y020752D03*
X033350Y019886D03*
X033074Y019945D03*
X033074Y019965D03*
X033133Y019571D03*
X033133Y019551D03*
D29*
X033143Y019591D03*
X033104Y019886D03*
X033104Y019906D03*
X033084Y019925D03*
X032848Y020299D03*
D30*
X033330Y019866D03*
X033153Y019630D03*
X033153Y019610D03*
X033468Y020732D03*
X033232Y022248D03*
D31*
X032868Y020319D03*
X033163Y019650D03*
D32*
X033173Y019669D03*
X033212Y019886D03*
X033448Y020713D03*
D33*
X033409Y020673D03*
X032917Y020358D03*
X033271Y020161D03*
X033271Y020142D03*
X033251Y020102D03*
X033251Y020083D03*
X033251Y020063D03*
X033251Y020043D03*
X033232Y019984D03*
X033232Y019965D03*
X033173Y019709D03*
X033173Y019689D03*
X033232Y022228D03*
D34*
X033301Y020319D03*
X033301Y020299D03*
X033281Y020240D03*
X033281Y020220D03*
X033281Y020201D03*
X033281Y020181D03*
X033261Y020122D03*
X033183Y019728D03*
D35*
X033192Y019748D03*
X033192Y019768D03*
X033173Y019866D03*
X033291Y020260D03*
X033291Y020280D03*
X033311Y020339D03*
X033311Y020358D03*
X033311Y020378D03*
X033330Y020437D03*
X033330Y020457D03*
X033389Y020654D03*
X033015Y020634D03*
X033015Y020614D03*
X032996Y020575D03*
X032996Y020555D03*
X032937Y020378D03*
X033232Y022209D03*
D36*
X033064Y020772D03*
X033064Y020752D03*
X033045Y020713D03*
X033045Y020693D03*
X033025Y020673D03*
X033025Y020654D03*
X033005Y020594D03*
X033320Y020417D03*
X033320Y020398D03*
X033202Y019787D03*
D37*
X033202Y019807D03*
X033202Y019827D03*
X032986Y020417D03*
X033340Y020614D03*
X033104Y020870D03*
X033124Y020909D03*
X033124Y020929D03*
X033143Y020969D03*
X033143Y020988D03*
X033163Y021028D03*
X033222Y022169D03*
D38*
X033232Y022150D03*
X033212Y021165D03*
X033212Y021146D03*
X033192Y021126D03*
X033192Y021106D03*
X033192Y021087D03*
X033173Y021067D03*
X033173Y021047D03*
X033153Y021008D03*
X033212Y019846D03*
D39*
X033025Y020457D03*
X032277Y020476D03*
X032139Y020240D03*
X031923Y019866D03*
X033872Y021008D03*
X033655Y021382D03*
X033005Y021736D03*
X032927Y021598D03*
X033222Y022110D03*
D40*
X033439Y020693D03*
X032887Y020339D03*
X033242Y020024D03*
X033242Y020004D03*
X033222Y019945D03*
X033222Y019925D03*
X033222Y019906D03*
D41*
X033360Y019906D03*
X032828Y020280D03*
D42*
X032956Y020398D03*
X033055Y020732D03*
X033074Y020791D03*
X033074Y020811D03*
X033094Y020831D03*
X033094Y020850D03*
X033114Y020890D03*
X033133Y020949D03*
X033370Y020634D03*
X033232Y022189D03*
D43*
X033242Y021264D03*
X033242Y021244D03*
X033242Y021224D03*
X033222Y021205D03*
X033222Y021185D03*
X033320Y020594D03*
X033005Y020437D03*
X034167Y020496D03*
D44*
X033153Y020476D03*
X033232Y021874D03*
D45*
X033222Y021894D03*
X033163Y020535D03*
X033163Y020516D03*
X033163Y020496D03*
D46*
X033291Y020555D03*
X033232Y022091D03*
D47*
X033232Y021854D03*
D48*
X033232Y021913D03*
D49*
X033222Y021933D03*
D50*
X033232Y021953D03*
D51*
X033222Y021972D03*
D52*
X033232Y021992D03*
D53*
X033232Y022012D03*
D54*
X033222Y022031D03*
D55*
X033232Y022051D03*
D56*
X033222Y022071D03*
M02*
