%
M48
M72
T01C0.0240
T02C0.0276
T03C0.0320
T04C0.0354
T05C0.0374
T06C0.0400
T07C0.0630
T08C0.1180
T09C0.1280
T10C0.1300
%
T01
X12220Y3750
X13970Y4750
X14720Y4250
X15720Y5750
X17220Y6000
X17720Y7250
X15720Y7250
X13720Y6750
X12220Y7750
X13720Y8250
X13720Y9250
X12220Y10250
X13220Y14000
X16470Y14000
X16470Y14500
X16470Y15000
X16470Y15500
X13720Y16500
X13470Y17250
X13970Y17250
X13970Y17750
X13470Y17750
X13470Y19250
X13970Y19250
X13970Y19750
X13470Y19750
X15220Y20500
X15720Y21000
X16220Y21500
X16720Y22000
X12220Y22000
X10220Y21500
X7220Y21000
X6220Y20500
X4720Y20000
X5720Y17000
X6720Y17000
X7720Y17000
X10720Y17500
X11720Y16500
X18720Y11500
X20720Y9750
X21220Y9000
X25220Y7250
X25720Y7750
X27720Y7750
X31220Y10000
X31220Y11000
X26220Y15000
X25720Y15000
X25720Y15500
X26220Y15500
X2720Y13500
X720Y15500
X1970Y11000
T02
X2220Y8000
X3220Y8000
X7220Y10500
X8220Y10500
X9720Y10500
X10720Y10500
X10220Y8500
X8220Y8500
X8220Y5000
X9220Y5000
X10720Y5000
X10720Y3000
X9220Y3000
X8220Y3000
X2220Y5000
X1220Y5000
X15720Y2500
X16720Y2500
X18720Y12500
X19720Y12500
T03
X15220Y12500
X14220Y12500
X13220Y12500
X12220Y12500
X11220Y12500
X10220Y12500
X9220Y12500
X8220Y12500
X7220Y12500
X6220Y12500
X5220Y12500
X4220Y12500
X3220Y12500
X2220Y12500
X2220Y15500
X3220Y15500
X4220Y15500
X5220Y15500
X6220Y15500
X7220Y15500
X8220Y15500
X9220Y15500
X10220Y15500
X11220Y15500
X12220Y15500
X13220Y15500
X14220Y15500
X15220Y15500
X29220Y11500
X29220Y10500
X29220Y9500
X29220Y8500
X32220Y8500
X32220Y9500
X32220Y10500
X32220Y11500
T04
X18720Y10500
X17720Y10500
T05
X18970Y8283
X19970Y8283
X20970Y8283
X21970Y8283
X22970Y8283
X22470Y7283
X21470Y7283
X20470Y7283
X19470Y7283
X23470Y7283
X23710Y3457
X22710Y2858
X19730Y3457
X18730Y2858
X18720Y18500
X19720Y18500
X20720Y18500
X21720Y18500
X17720Y18500
X16720Y18500
X4720Y18500
X3720Y18500
X2720Y18500
X1720Y18500
T06
X3940Y2610
X3940Y4390
X4220Y6000
X5220Y6000
X6220Y6000
X7220Y6000
X6500Y4390
X6500Y2610
X3220Y6000
X2220Y6000
X2220Y9500
X3220Y9500
X4220Y9500
X17720Y14500
X18720Y14500
X19720Y14500
X29720Y13500
X30720Y13500
X31720Y13500
X38220Y13000
X38220Y12000
X36220Y3000
X35220Y3000
X34220Y3000
X33220Y3000
X32220Y3000
X31220Y3000
X30220Y3000
T07
X24271Y5988
X18169Y5988
T08
X26720Y5894
X28570Y4713
X26720Y3531
T09
X23470Y4787
X18970Y4787
T10
X1720Y3000
X1720Y21500
X38720Y21500
X38720Y3000
M30
