G75*
%MOIN*%
%OFA0B0*%
%FSLAX24Y24*%
%IPPOS*%
%LPD*%
%AMOC8*
5,1,8,0,0,1.08239X$1,22.5*
%
%ADD10C,0.0000*%
%ADD11C,0.0650*%
%ADD12C,0.0600*%
%ADD13C,0.0740*%
%ADD14R,0.0866X0.0236*%
%ADD15C,0.0574*%
%ADD16C,0.0945*%
%ADD17C,0.0630*%
%ADD18C,0.0520*%
%ADD19C,0.0160*%
%ADD20C,0.0400*%
D10*
X000180Y001500D02*
X000180Y022996D01*
X040050Y022996D01*
X040050Y001500D01*
X000180Y001500D01*
X001030Y003000D02*
X001032Y003050D01*
X001038Y003100D01*
X001048Y003150D01*
X001061Y003198D01*
X001078Y003246D01*
X001099Y003292D01*
X001123Y003336D01*
X001151Y003378D01*
X001182Y003418D01*
X001216Y003455D01*
X001253Y003490D01*
X001292Y003521D01*
X001333Y003550D01*
X001377Y003575D01*
X001423Y003597D01*
X001470Y003615D01*
X001518Y003629D01*
X001567Y003640D01*
X001617Y003647D01*
X001667Y003650D01*
X001718Y003649D01*
X001768Y003644D01*
X001818Y003635D01*
X001866Y003623D01*
X001914Y003606D01*
X001960Y003586D01*
X002005Y003563D01*
X002048Y003536D01*
X002088Y003506D01*
X002126Y003473D01*
X002161Y003437D01*
X002194Y003398D01*
X002223Y003357D01*
X002249Y003314D01*
X002272Y003269D01*
X002291Y003222D01*
X002306Y003174D01*
X002318Y003125D01*
X002326Y003075D01*
X002330Y003025D01*
X002330Y002975D01*
X002326Y002925D01*
X002318Y002875D01*
X002306Y002826D01*
X002291Y002778D01*
X002272Y002731D01*
X002249Y002686D01*
X002223Y002643D01*
X002194Y002602D01*
X002161Y002563D01*
X002126Y002527D01*
X002088Y002494D01*
X002048Y002464D01*
X002005Y002437D01*
X001960Y002414D01*
X001914Y002394D01*
X001866Y002377D01*
X001818Y002365D01*
X001768Y002356D01*
X001718Y002351D01*
X001667Y002350D01*
X001617Y002353D01*
X001567Y002360D01*
X001518Y002371D01*
X001470Y002385D01*
X001423Y002403D01*
X001377Y002425D01*
X001333Y002450D01*
X001292Y002479D01*
X001253Y002510D01*
X001216Y002545D01*
X001182Y002582D01*
X001151Y002622D01*
X001123Y002664D01*
X001099Y002708D01*
X001078Y002754D01*
X001061Y002802D01*
X001048Y002850D01*
X001038Y002900D01*
X001032Y002950D01*
X001030Y003000D01*
X017290Y004787D02*
X017292Y004837D01*
X017298Y004887D01*
X017308Y004936D01*
X017321Y004985D01*
X017339Y005032D01*
X017360Y005078D01*
X017384Y005121D01*
X017412Y005163D01*
X017443Y005203D01*
X017477Y005240D01*
X017514Y005274D01*
X017554Y005305D01*
X017596Y005333D01*
X017639Y005357D01*
X017685Y005378D01*
X017732Y005396D01*
X017781Y005409D01*
X017830Y005419D01*
X017880Y005425D01*
X017930Y005427D01*
X017980Y005425D01*
X018030Y005419D01*
X018079Y005409D01*
X018128Y005396D01*
X018175Y005378D01*
X018221Y005357D01*
X018264Y005333D01*
X018306Y005305D01*
X018346Y005274D01*
X018383Y005240D01*
X018417Y005203D01*
X018448Y005163D01*
X018476Y005121D01*
X018500Y005078D01*
X018521Y005032D01*
X018539Y004985D01*
X018552Y004936D01*
X018562Y004887D01*
X018568Y004837D01*
X018570Y004787D01*
X018568Y004737D01*
X018562Y004687D01*
X018552Y004638D01*
X018539Y004589D01*
X018521Y004542D01*
X018500Y004496D01*
X018476Y004453D01*
X018448Y004411D01*
X018417Y004371D01*
X018383Y004334D01*
X018346Y004300D01*
X018306Y004269D01*
X018264Y004241D01*
X018221Y004217D01*
X018175Y004196D01*
X018128Y004178D01*
X018079Y004165D01*
X018030Y004155D01*
X017980Y004149D01*
X017930Y004147D01*
X017880Y004149D01*
X017830Y004155D01*
X017781Y004165D01*
X017732Y004178D01*
X017685Y004196D01*
X017639Y004217D01*
X017596Y004241D01*
X017554Y004269D01*
X017514Y004300D01*
X017477Y004334D01*
X017443Y004371D01*
X017412Y004411D01*
X017384Y004453D01*
X017360Y004496D01*
X017339Y004542D01*
X017321Y004589D01*
X017308Y004638D01*
X017298Y004687D01*
X017292Y004737D01*
X017290Y004787D01*
X021790Y004787D02*
X021792Y004837D01*
X021798Y004887D01*
X021808Y004936D01*
X021821Y004985D01*
X021839Y005032D01*
X021860Y005078D01*
X021884Y005121D01*
X021912Y005163D01*
X021943Y005203D01*
X021977Y005240D01*
X022014Y005274D01*
X022054Y005305D01*
X022096Y005333D01*
X022139Y005357D01*
X022185Y005378D01*
X022232Y005396D01*
X022281Y005409D01*
X022330Y005419D01*
X022380Y005425D01*
X022430Y005427D01*
X022480Y005425D01*
X022530Y005419D01*
X022579Y005409D01*
X022628Y005396D01*
X022675Y005378D01*
X022721Y005357D01*
X022764Y005333D01*
X022806Y005305D01*
X022846Y005274D01*
X022883Y005240D01*
X022917Y005203D01*
X022948Y005163D01*
X022976Y005121D01*
X023000Y005078D01*
X023021Y005032D01*
X023039Y004985D01*
X023052Y004936D01*
X023062Y004887D01*
X023068Y004837D01*
X023070Y004787D01*
X023068Y004737D01*
X023062Y004687D01*
X023052Y004638D01*
X023039Y004589D01*
X023021Y004542D01*
X023000Y004496D01*
X022976Y004453D01*
X022948Y004411D01*
X022917Y004371D01*
X022883Y004334D01*
X022846Y004300D01*
X022806Y004269D01*
X022764Y004241D01*
X022721Y004217D01*
X022675Y004196D01*
X022628Y004178D01*
X022579Y004165D01*
X022530Y004155D01*
X022480Y004149D01*
X022430Y004147D01*
X022380Y004149D01*
X022330Y004155D01*
X022281Y004165D01*
X022232Y004178D01*
X022185Y004196D01*
X022139Y004217D01*
X022096Y004241D01*
X022054Y004269D01*
X022014Y004300D01*
X021977Y004334D01*
X021943Y004371D01*
X021912Y004411D01*
X021884Y004453D01*
X021860Y004496D01*
X021839Y004542D01*
X021821Y004589D01*
X021808Y004638D01*
X021798Y004687D01*
X021792Y004737D01*
X021790Y004787D01*
X038030Y003000D02*
X038032Y003050D01*
X038038Y003100D01*
X038048Y003150D01*
X038061Y003198D01*
X038078Y003246D01*
X038099Y003292D01*
X038123Y003336D01*
X038151Y003378D01*
X038182Y003418D01*
X038216Y003455D01*
X038253Y003490D01*
X038292Y003521D01*
X038333Y003550D01*
X038377Y003575D01*
X038423Y003597D01*
X038470Y003615D01*
X038518Y003629D01*
X038567Y003640D01*
X038617Y003647D01*
X038667Y003650D01*
X038718Y003649D01*
X038768Y003644D01*
X038818Y003635D01*
X038866Y003623D01*
X038914Y003606D01*
X038960Y003586D01*
X039005Y003563D01*
X039048Y003536D01*
X039088Y003506D01*
X039126Y003473D01*
X039161Y003437D01*
X039194Y003398D01*
X039223Y003357D01*
X039249Y003314D01*
X039272Y003269D01*
X039291Y003222D01*
X039306Y003174D01*
X039318Y003125D01*
X039326Y003075D01*
X039330Y003025D01*
X039330Y002975D01*
X039326Y002925D01*
X039318Y002875D01*
X039306Y002826D01*
X039291Y002778D01*
X039272Y002731D01*
X039249Y002686D01*
X039223Y002643D01*
X039194Y002602D01*
X039161Y002563D01*
X039126Y002527D01*
X039088Y002494D01*
X039048Y002464D01*
X039005Y002437D01*
X038960Y002414D01*
X038914Y002394D01*
X038866Y002377D01*
X038818Y002365D01*
X038768Y002356D01*
X038718Y002351D01*
X038667Y002350D01*
X038617Y002353D01*
X038567Y002360D01*
X038518Y002371D01*
X038470Y002385D01*
X038423Y002403D01*
X038377Y002425D01*
X038333Y002450D01*
X038292Y002479D01*
X038253Y002510D01*
X038216Y002545D01*
X038182Y002582D01*
X038151Y002622D01*
X038123Y002664D01*
X038099Y002708D01*
X038078Y002754D01*
X038061Y002802D01*
X038048Y002850D01*
X038038Y002900D01*
X038032Y002950D01*
X038030Y003000D01*
X038030Y021500D02*
X038032Y021550D01*
X038038Y021600D01*
X038048Y021650D01*
X038061Y021698D01*
X038078Y021746D01*
X038099Y021792D01*
X038123Y021836D01*
X038151Y021878D01*
X038182Y021918D01*
X038216Y021955D01*
X038253Y021990D01*
X038292Y022021D01*
X038333Y022050D01*
X038377Y022075D01*
X038423Y022097D01*
X038470Y022115D01*
X038518Y022129D01*
X038567Y022140D01*
X038617Y022147D01*
X038667Y022150D01*
X038718Y022149D01*
X038768Y022144D01*
X038818Y022135D01*
X038866Y022123D01*
X038914Y022106D01*
X038960Y022086D01*
X039005Y022063D01*
X039048Y022036D01*
X039088Y022006D01*
X039126Y021973D01*
X039161Y021937D01*
X039194Y021898D01*
X039223Y021857D01*
X039249Y021814D01*
X039272Y021769D01*
X039291Y021722D01*
X039306Y021674D01*
X039318Y021625D01*
X039326Y021575D01*
X039330Y021525D01*
X039330Y021475D01*
X039326Y021425D01*
X039318Y021375D01*
X039306Y021326D01*
X039291Y021278D01*
X039272Y021231D01*
X039249Y021186D01*
X039223Y021143D01*
X039194Y021102D01*
X039161Y021063D01*
X039126Y021027D01*
X039088Y020994D01*
X039048Y020964D01*
X039005Y020937D01*
X038960Y020914D01*
X038914Y020894D01*
X038866Y020877D01*
X038818Y020865D01*
X038768Y020856D01*
X038718Y020851D01*
X038667Y020850D01*
X038617Y020853D01*
X038567Y020860D01*
X038518Y020871D01*
X038470Y020885D01*
X038423Y020903D01*
X038377Y020925D01*
X038333Y020950D01*
X038292Y020979D01*
X038253Y021010D01*
X038216Y021045D01*
X038182Y021082D01*
X038151Y021122D01*
X038123Y021164D01*
X038099Y021208D01*
X038078Y021254D01*
X038061Y021302D01*
X038048Y021350D01*
X038038Y021400D01*
X038032Y021450D01*
X038030Y021500D01*
X001030Y021500D02*
X001032Y021550D01*
X001038Y021600D01*
X001048Y021650D01*
X001061Y021698D01*
X001078Y021746D01*
X001099Y021792D01*
X001123Y021836D01*
X001151Y021878D01*
X001182Y021918D01*
X001216Y021955D01*
X001253Y021990D01*
X001292Y022021D01*
X001333Y022050D01*
X001377Y022075D01*
X001423Y022097D01*
X001470Y022115D01*
X001518Y022129D01*
X001567Y022140D01*
X001617Y022147D01*
X001667Y022150D01*
X001718Y022149D01*
X001768Y022144D01*
X001818Y022135D01*
X001866Y022123D01*
X001914Y022106D01*
X001960Y022086D01*
X002005Y022063D01*
X002048Y022036D01*
X002088Y022006D01*
X002126Y021973D01*
X002161Y021937D01*
X002194Y021898D01*
X002223Y021857D01*
X002249Y021814D01*
X002272Y021769D01*
X002291Y021722D01*
X002306Y021674D01*
X002318Y021625D01*
X002326Y021575D01*
X002330Y021525D01*
X002330Y021475D01*
X002326Y021425D01*
X002318Y021375D01*
X002306Y021326D01*
X002291Y021278D01*
X002272Y021231D01*
X002249Y021186D01*
X002223Y021143D01*
X002194Y021102D01*
X002161Y021063D01*
X002126Y021027D01*
X002088Y020994D01*
X002048Y020964D01*
X002005Y020937D01*
X001960Y020914D01*
X001914Y020894D01*
X001866Y020877D01*
X001818Y020865D01*
X001768Y020856D01*
X001718Y020851D01*
X001667Y020850D01*
X001617Y020853D01*
X001567Y020860D01*
X001518Y020871D01*
X001470Y020885D01*
X001423Y020903D01*
X001377Y020925D01*
X001333Y020950D01*
X001292Y020979D01*
X001253Y021010D01*
X001216Y021045D01*
X001182Y021082D01*
X001151Y021122D01*
X001123Y021164D01*
X001099Y021208D01*
X001078Y021254D01*
X001061Y021302D01*
X001048Y021350D01*
X001038Y021400D01*
X001032Y021450D01*
X001030Y021500D01*
D11*
X001680Y011000D03*
X002680Y011000D03*
X002680Y009000D03*
X001680Y009000D03*
X004680Y009000D03*
X004680Y007000D03*
X002680Y007000D03*
X001680Y007000D03*
X012680Y003000D03*
X013680Y003000D03*
X029180Y009500D03*
X030180Y009500D03*
X032680Y012000D03*
X033680Y012000D03*
X034680Y012000D03*
X035680Y012000D03*
X035680Y014000D03*
X033680Y014000D03*
X020680Y020500D03*
X019680Y020500D03*
D12*
X014680Y020200D02*
X014680Y020800D01*
X013680Y020800D02*
X013680Y020200D01*
X012680Y020200D02*
X012680Y020800D01*
X007180Y020800D02*
X007180Y020200D01*
X006180Y020200D02*
X006180Y020800D01*
X005180Y020800D02*
X005180Y020200D01*
X025100Y010890D02*
X025700Y010890D01*
X027660Y010890D02*
X028260Y010890D01*
X028260Y009110D02*
X027660Y009110D01*
X025700Y009110D02*
X025100Y009110D01*
D13*
X031680Y009500D03*
X032680Y009500D03*
X033680Y009500D03*
X034680Y009500D03*
X035680Y009500D03*
X036680Y009500D03*
X034180Y003000D03*
X033180Y003000D03*
X032180Y003000D03*
X031180Y003000D03*
X030180Y003000D03*
X029180Y003000D03*
X028180Y003000D03*
X013180Y011000D03*
X012180Y011000D03*
X010180Y020500D03*
X009180Y020500D03*
X009180Y022000D03*
X010180Y022000D03*
X016680Y022000D03*
X017680Y022000D03*
X017680Y020500D03*
X016680Y020500D03*
D14*
X010991Y010250D03*
X010991Y009750D03*
X010991Y009250D03*
X010991Y008750D03*
X010991Y008250D03*
X010991Y007750D03*
X010991Y007250D03*
X010991Y006750D03*
X010991Y006250D03*
X010991Y005750D03*
X010991Y005250D03*
X010991Y004750D03*
X010991Y004250D03*
X010991Y003750D03*
X007369Y003750D03*
X007369Y004250D03*
X007369Y004750D03*
X007369Y005250D03*
X007369Y005750D03*
X007369Y006250D03*
X007369Y006750D03*
X007369Y007250D03*
X007369Y007750D03*
X007369Y008250D03*
X007369Y008750D03*
X007369Y009250D03*
X007369Y009750D03*
X007369Y010250D03*
D15*
X006180Y015000D03*
X005180Y015000D03*
X004180Y015000D03*
X003180Y015000D03*
X018180Y015000D03*
X019180Y015000D03*
X020180Y015000D03*
X021180Y015000D03*
X022180Y015000D03*
X023180Y015000D03*
D16*
X023231Y005988D03*
X017129Y005988D03*
D17*
X018430Y007283D03*
X019430Y007283D03*
X020430Y007283D03*
X021430Y007283D03*
X022430Y007283D03*
X021930Y008283D03*
X020930Y008283D03*
X019930Y008283D03*
X018930Y008283D03*
X017930Y008283D03*
X018690Y003457D03*
X017690Y002858D03*
X021670Y002858D03*
X022670Y003457D03*
D18*
X026180Y015740D02*
X026180Y016260D01*
X027180Y016260D02*
X027180Y015740D01*
X028180Y015740D02*
X028180Y016260D01*
X029180Y016260D02*
X029180Y015740D01*
X030180Y015740D02*
X030180Y016260D01*
X031180Y016260D02*
X031180Y015740D01*
X032180Y015740D02*
X032180Y016260D01*
X033180Y016260D02*
X033180Y015740D01*
X034180Y015740D02*
X034180Y016260D01*
X035180Y016260D02*
X035180Y015740D01*
X036180Y015740D02*
X036180Y016260D01*
X037180Y016260D02*
X037180Y015740D01*
X038180Y015740D02*
X038180Y016260D01*
X039180Y016260D02*
X039180Y015740D01*
X039180Y018740D02*
X039180Y019260D01*
X038180Y019260D02*
X038180Y018740D01*
X037180Y018740D02*
X037180Y019260D01*
X036180Y019260D02*
X036180Y018740D01*
X035180Y018740D02*
X035180Y019260D01*
X034180Y019260D02*
X034180Y018740D01*
X033180Y018740D02*
X033180Y019260D01*
X032180Y019260D02*
X032180Y018740D01*
X031180Y018740D02*
X031180Y019260D01*
X030180Y019260D02*
X030180Y018740D01*
X029180Y018740D02*
X029180Y019260D01*
X028180Y019260D02*
X028180Y018740D01*
X027180Y018740D02*
X027180Y019260D01*
X026180Y019260D02*
X026180Y018740D01*
D19*
X026493Y018460D02*
X026867Y018460D01*
X026824Y018502D02*
X026942Y018384D01*
X027096Y018320D01*
X027264Y018320D01*
X027418Y018384D01*
X027536Y018502D01*
X027600Y018656D01*
X027600Y019344D01*
X027536Y019498D01*
X027418Y019616D01*
X027264Y019680D01*
X027096Y019680D01*
X026942Y019616D01*
X026824Y019498D01*
X026760Y019344D01*
X026760Y018656D01*
X026824Y018502D01*
X026776Y018618D02*
X026584Y018618D01*
X026600Y018656D02*
X026600Y019344D01*
X026536Y019498D01*
X026418Y019616D01*
X026264Y019680D01*
X026096Y019680D01*
X025942Y019616D01*
X025824Y019498D01*
X025760Y019344D01*
X025760Y018656D01*
X025824Y018502D01*
X025942Y018384D01*
X026096Y018320D01*
X026264Y018320D01*
X026418Y018384D01*
X026536Y018502D01*
X026600Y018656D01*
X026600Y018777D02*
X026760Y018777D01*
X026760Y018935D02*
X026600Y018935D01*
X026600Y019094D02*
X026760Y019094D01*
X026760Y019252D02*
X026600Y019252D01*
X026572Y019411D02*
X026788Y019411D01*
X026895Y019569D02*
X026465Y019569D01*
X025895Y019569D02*
X025588Y019569D01*
X025430Y019411D02*
X025788Y019411D01*
X025760Y019252D02*
X025271Y019252D01*
X025113Y019094D02*
X025760Y019094D01*
X025760Y018935D02*
X024954Y018935D01*
X024796Y018777D02*
X025760Y018777D01*
X025776Y018618D02*
X024637Y018618D01*
X024479Y018460D02*
X025867Y018460D01*
X025632Y018240D02*
X025544Y018203D01*
X025477Y018136D01*
X023977Y016636D01*
X023940Y016548D01*
X023940Y014599D01*
X023920Y014579D01*
X023920Y017901D01*
X025779Y019760D01*
X038940Y019760D01*
X038940Y019614D01*
X038824Y019498D01*
X038760Y019344D01*
X038760Y018656D01*
X038824Y018502D01*
X038942Y018384D01*
X039096Y018320D01*
X039264Y018320D01*
X039418Y018384D01*
X039536Y018502D01*
X039570Y018584D01*
X039570Y016416D01*
X039536Y016498D01*
X039418Y016616D01*
X039264Y016680D01*
X039096Y016680D01*
X038942Y016616D01*
X038824Y016498D01*
X038760Y016344D01*
X038760Y015656D01*
X038824Y015502D01*
X038942Y015384D01*
X039096Y015320D01*
X039264Y015320D01*
X039418Y015384D01*
X039536Y015502D01*
X039570Y015584D01*
X039570Y003708D01*
X039374Y003904D01*
X039116Y004053D01*
X038829Y004130D01*
X038531Y004130D01*
X038244Y004053D01*
X037986Y003904D01*
X037776Y003694D01*
X037627Y003436D01*
X037550Y003149D01*
X037550Y002851D01*
X037627Y002564D01*
X037776Y002306D01*
X037986Y002096D01*
X038187Y001980D01*
X002173Y001980D01*
X002374Y002096D01*
X002584Y002306D01*
X002733Y002564D01*
X002810Y002851D01*
X002810Y003149D01*
X002733Y003436D01*
X002584Y003694D01*
X002374Y003904D01*
X002116Y004053D01*
X001829Y004130D01*
X001531Y004130D01*
X001244Y004053D01*
X000986Y003904D01*
X000776Y003694D01*
X000660Y003493D01*
X000660Y021007D01*
X000776Y020806D01*
X000986Y020596D01*
X001244Y020447D01*
X001531Y020370D01*
X001829Y020370D01*
X002116Y020447D01*
X002374Y020596D01*
X002584Y020806D01*
X002733Y021064D01*
X002810Y021351D01*
X002810Y021649D01*
X002733Y021936D01*
X002584Y022194D01*
X002374Y022404D01*
X002180Y022516D01*
X009041Y022516D01*
X008880Y022449D01*
X008731Y022300D01*
X008650Y022105D01*
X002635Y022105D01*
X002727Y021947D02*
X008650Y021947D01*
X008650Y021895D02*
X008675Y021834D01*
X008581Y021740D01*
X006132Y021740D01*
X006044Y021703D01*
X005977Y021636D01*
X005940Y021548D01*
X005940Y021198D01*
X005919Y021190D01*
X005790Y021061D01*
X005720Y020891D01*
X005720Y020108D01*
X005790Y019939D01*
X005919Y019810D01*
X006088Y019740D01*
X006271Y019740D01*
X006441Y019810D01*
X006570Y019939D01*
X006640Y020108D01*
X006640Y020891D01*
X006570Y021061D01*
X006441Y021190D01*
X006420Y021198D01*
X006420Y021260D01*
X008728Y021260D01*
X008816Y021297D01*
X008883Y021364D01*
X009014Y021495D01*
X009075Y021470D01*
X009285Y021470D01*
X009480Y021551D01*
X009629Y021700D01*
X009680Y021822D01*
X009731Y021700D01*
X009880Y021551D01*
X009940Y021526D01*
X009940Y020974D01*
X009880Y020949D01*
X009731Y020800D01*
X009691Y020706D01*
X009690Y020711D01*
X009650Y020788D01*
X009600Y020858D01*
X009538Y020920D01*
X009468Y020970D01*
X009391Y021010D01*
X009309Y021036D01*
X009223Y021050D01*
X009189Y021050D01*
X009189Y020509D01*
X009171Y020509D01*
X009171Y021050D01*
X009137Y021050D01*
X009051Y021036D01*
X008969Y021010D01*
X008892Y020970D01*
X008822Y020920D01*
X008760Y020858D01*
X008710Y020788D01*
X008670Y020711D01*
X008644Y020629D01*
X008630Y020543D01*
X008630Y020509D01*
X009171Y020509D01*
X009171Y020491D01*
X009189Y020491D01*
X009189Y019950D01*
X009223Y019950D01*
X009309Y019964D01*
X009391Y019990D01*
X009468Y020030D01*
X009538Y020080D01*
X009600Y020142D01*
X009650Y020212D01*
X009690Y020289D01*
X009691Y020294D01*
X009731Y020200D01*
X009880Y020051D01*
X010075Y019970D01*
X010285Y019970D01*
X010480Y020051D01*
X010629Y020200D01*
X010710Y020395D01*
X010710Y020605D01*
X010629Y020800D01*
X010480Y020949D01*
X010420Y020974D01*
X010420Y021526D01*
X010480Y021551D01*
X010629Y021700D01*
X010710Y021895D01*
X010710Y022105D01*
X016150Y022105D01*
X016150Y021895D01*
X016175Y021834D01*
X015140Y020799D01*
X015140Y020891D01*
X015070Y021061D01*
X014941Y021190D01*
X014771Y021260D01*
X014588Y021260D01*
X014419Y021190D01*
X014290Y021061D01*
X014220Y020891D01*
X014220Y020108D01*
X014290Y019939D01*
X014419Y019810D01*
X014588Y019740D01*
X014771Y019740D01*
X014941Y019810D01*
X015070Y019939D01*
X015140Y020108D01*
X015140Y020260D01*
X015228Y020260D01*
X015316Y020297D01*
X016514Y021495D01*
X016575Y021470D01*
X016785Y021470D01*
X016980Y021551D01*
X017129Y021700D01*
X017180Y021822D01*
X017231Y021700D01*
X017380Y021551D01*
X017440Y021526D01*
X017440Y020974D01*
X017380Y020949D01*
X017231Y020800D01*
X017191Y020706D01*
X017190Y020711D01*
X017150Y020788D01*
X017100Y020858D01*
X017038Y020920D01*
X016968Y020970D01*
X016891Y021010D01*
X016809Y021036D01*
X016723Y021050D01*
X016689Y021050D01*
X016689Y020509D01*
X016671Y020509D01*
X016671Y021050D01*
X016637Y021050D01*
X016551Y021036D01*
X016469Y021010D01*
X016392Y020970D01*
X016322Y020920D01*
X016260Y020858D01*
X016210Y020788D01*
X016170Y020711D01*
X016144Y020629D01*
X016130Y020543D01*
X016130Y020509D01*
X016671Y020509D01*
X016671Y020491D01*
X016689Y020491D01*
X016689Y019950D01*
X016723Y019950D01*
X016809Y019964D01*
X016891Y019990D01*
X016968Y020030D01*
X017038Y020080D01*
X017100Y020142D01*
X017150Y020212D01*
X017190Y020289D01*
X017191Y020294D01*
X017231Y020200D01*
X017380Y020051D01*
X017575Y019970D01*
X017785Y019970D01*
X017980Y020051D01*
X018129Y020200D01*
X018210Y020395D01*
X018210Y020605D01*
X018129Y020800D01*
X017980Y020949D01*
X017920Y020974D01*
X017920Y021526D01*
X017980Y021551D01*
X018129Y021700D01*
X018210Y021895D01*
X018210Y022105D01*
X037725Y022105D01*
X037776Y022194D02*
X037627Y021936D01*
X037550Y021649D01*
X037550Y021351D01*
X037627Y021064D01*
X037776Y020806D01*
X037986Y020596D01*
X038244Y020447D01*
X038531Y020370D01*
X038829Y020370D01*
X039116Y020447D01*
X039374Y020596D01*
X039570Y020792D01*
X039570Y019416D01*
X039536Y019498D01*
X039420Y019614D01*
X039420Y020048D01*
X039383Y020136D01*
X039316Y020203D01*
X039570Y020203D01*
X039570Y020045D02*
X039420Y020045D01*
X039420Y019886D02*
X039570Y019886D01*
X039570Y019728D02*
X039420Y019728D01*
X039465Y019569D02*
X039570Y019569D01*
X039180Y020000D02*
X039180Y019000D01*
X038760Y018935D02*
X038600Y018935D01*
X038600Y018777D02*
X038760Y018777D01*
X038776Y018618D02*
X038584Y018618D01*
X038600Y018656D02*
X038600Y019344D01*
X038536Y019498D01*
X038418Y019616D01*
X038264Y019680D01*
X038096Y019680D01*
X037942Y019616D01*
X037824Y019498D01*
X037760Y019344D01*
X037760Y018656D01*
X037824Y018502D01*
X037942Y018384D01*
X038096Y018320D01*
X038264Y018320D01*
X038418Y018384D01*
X038536Y018502D01*
X038600Y018656D01*
X038493Y018460D02*
X038867Y018460D01*
X039493Y018460D02*
X039570Y018460D01*
X039570Y018301D02*
X036420Y018301D01*
X036420Y018386D02*
X036536Y018502D01*
X036600Y018656D01*
X036600Y019344D01*
X036536Y019498D01*
X036418Y019616D01*
X036264Y019680D01*
X036096Y019680D01*
X035942Y019616D01*
X035824Y019498D01*
X035760Y019344D01*
X035760Y018656D01*
X035824Y018502D01*
X035940Y018386D01*
X035940Y017749D01*
X035884Y017805D01*
X035752Y017860D01*
X035608Y017860D01*
X035476Y017805D01*
X035411Y017740D01*
X025759Y017740D01*
X025779Y017760D01*
X035228Y017760D01*
X035316Y017797D01*
X035383Y017864D01*
X035420Y017952D01*
X035420Y018386D01*
X035536Y018502D01*
X035600Y018656D01*
X035600Y019344D01*
X035536Y019498D01*
X035418Y019616D01*
X035264Y019680D01*
X035096Y019680D01*
X034942Y019616D01*
X034824Y019498D01*
X034760Y019344D01*
X034760Y018656D01*
X034824Y018502D01*
X034940Y018386D01*
X034940Y018240D01*
X025632Y018240D01*
X025483Y018143D02*
X024162Y018143D01*
X024320Y018301D02*
X032139Y018301D01*
X032145Y018300D02*
X032180Y018300D01*
X032215Y018300D01*
X032283Y018311D01*
X032349Y018332D01*
X032411Y018364D01*
X032467Y018404D01*
X032516Y018453D01*
X032556Y018509D01*
X032588Y018571D01*
X032609Y018637D01*
X032620Y018705D01*
X032620Y019000D01*
X032620Y019295D01*
X032609Y019363D01*
X032588Y019429D01*
X032556Y019491D01*
X032516Y019547D01*
X032467Y019596D01*
X032411Y019636D01*
X032349Y019668D01*
X032283Y019689D01*
X032215Y019700D01*
X032180Y019700D01*
X032180Y019000D01*
X032620Y019000D01*
X032180Y019000D01*
X032180Y019000D01*
X032180Y019000D01*
X032180Y018300D01*
X032180Y019000D01*
X032180Y019000D01*
X032180Y019000D01*
X031740Y019000D01*
X031740Y019295D01*
X031751Y019363D01*
X031772Y019429D01*
X031804Y019491D01*
X031844Y019547D01*
X031893Y019596D01*
X031949Y019636D01*
X032011Y019668D01*
X032077Y019689D01*
X032145Y019700D01*
X032180Y019700D01*
X032180Y019000D01*
X031740Y019000D01*
X031740Y018705D01*
X031751Y018637D01*
X031772Y018571D01*
X031804Y018509D01*
X031844Y018453D01*
X031893Y018404D01*
X031949Y018364D01*
X032011Y018332D01*
X032077Y018311D01*
X032145Y018300D01*
X032180Y018301D02*
X032180Y018301D01*
X032221Y018301D02*
X034940Y018301D01*
X034867Y018460D02*
X034493Y018460D01*
X034536Y018502D02*
X034600Y018656D01*
X034600Y019344D01*
X034536Y019498D01*
X034418Y019616D01*
X034264Y019680D01*
X034096Y019680D01*
X033942Y019616D01*
X033824Y019498D01*
X033760Y019344D01*
X033760Y018656D01*
X033824Y018502D01*
X033942Y018384D01*
X034096Y018320D01*
X034264Y018320D01*
X034418Y018384D01*
X034536Y018502D01*
X034584Y018618D02*
X034776Y018618D01*
X034760Y018777D02*
X034600Y018777D01*
X034600Y018935D02*
X034760Y018935D01*
X034760Y019094D02*
X034600Y019094D01*
X034600Y019252D02*
X034760Y019252D01*
X034788Y019411D02*
X034572Y019411D01*
X034465Y019569D02*
X034895Y019569D01*
X035465Y019569D02*
X035895Y019569D01*
X035788Y019411D02*
X035572Y019411D01*
X035600Y019252D02*
X035760Y019252D01*
X035760Y019094D02*
X035600Y019094D01*
X035600Y018935D02*
X035760Y018935D01*
X035760Y018777D02*
X035600Y018777D01*
X035584Y018618D02*
X035776Y018618D01*
X035867Y018460D02*
X035493Y018460D01*
X035420Y018301D02*
X035940Y018301D01*
X035940Y018143D02*
X035420Y018143D01*
X035420Y017984D02*
X035940Y017984D01*
X035940Y017826D02*
X035835Y017826D01*
X035525Y017826D02*
X035345Y017826D01*
X035180Y018000D02*
X035180Y019000D01*
X036180Y019000D02*
X036180Y017000D01*
X025680Y017000D01*
X025180Y016500D01*
X025180Y014500D01*
X021180Y010500D01*
X019180Y010500D01*
X018180Y009500D01*
X018540Y009521D02*
X018540Y009428D01*
X018485Y009296D01*
X018384Y009195D01*
X018252Y009140D01*
X018108Y009140D01*
X017976Y009195D01*
X017875Y009296D01*
X017820Y009428D01*
X017820Y009572D01*
X017868Y009688D01*
X017752Y009640D01*
X017608Y009640D01*
X017476Y009695D01*
X017375Y009796D01*
X017320Y009928D01*
X017320Y010072D01*
X017368Y010188D01*
X017252Y010140D01*
X017108Y010140D01*
X016976Y010195D01*
X016875Y010296D01*
X016820Y010428D01*
X016820Y010572D01*
X016875Y010704D01*
X016976Y010805D01*
X017108Y010860D01*
X017201Y010860D01*
X017977Y011636D01*
X018044Y011703D01*
X018132Y011740D01*
X021081Y011740D01*
X021601Y012260D01*
X018029Y012260D01*
X016790Y011021D01*
X016790Y010928D01*
X016735Y010796D01*
X016634Y010695D01*
X016502Y010640D01*
X016358Y010640D01*
X016226Y010695D01*
X016125Y010796D01*
X016070Y010928D01*
X016070Y011072D01*
X016118Y011188D01*
X016002Y011140D01*
X015858Y011140D01*
X015726Y011195D01*
X015625Y011296D01*
X015570Y011428D01*
X015570Y011572D01*
X015625Y011704D01*
X015726Y011805D01*
X015858Y011860D01*
X015951Y011860D01*
X017294Y013203D01*
X017382Y013240D01*
X021081Y013240D01*
X022440Y014599D01*
X022440Y014628D01*
X022433Y014621D01*
X022269Y014553D01*
X022091Y014553D01*
X021927Y014621D01*
X021801Y014747D01*
X021733Y014911D01*
X021733Y015089D01*
X021801Y015253D01*
X021927Y015379D01*
X022091Y015447D01*
X022269Y015447D01*
X022433Y015379D01*
X022440Y015372D01*
X022440Y018048D01*
X022477Y018136D01*
X024977Y020636D01*
X025044Y020703D01*
X025132Y020740D01*
X036911Y020740D01*
X036976Y020805D01*
X037108Y020860D01*
X037252Y020860D01*
X037384Y020805D01*
X037485Y020704D01*
X037540Y020572D01*
X037540Y020428D01*
X037485Y020296D01*
X037429Y020240D01*
X039228Y020240D01*
X039316Y020203D01*
X039180Y020000D02*
X025680Y020000D01*
X023680Y018000D01*
X023680Y014500D01*
X021680Y012500D01*
X017930Y012500D01*
X016430Y011000D01*
X016790Y011010D02*
X017351Y011010D01*
X017509Y011169D02*
X016938Y011169D01*
X017096Y011327D02*
X017668Y011327D01*
X017826Y011486D02*
X017255Y011486D01*
X017413Y011644D02*
X017985Y011644D01*
X018180Y011500D02*
X021180Y011500D01*
X024180Y014500D01*
X024180Y016500D01*
X025680Y018000D01*
X035180Y018000D01*
X035680Y017500D02*
X025680Y017500D01*
X024680Y016500D01*
X024680Y014500D01*
X021180Y011000D01*
X018680Y011000D01*
X017680Y010000D01*
X017429Y009742D02*
X016920Y009742D01*
X016920Y009798D02*
X016883Y009886D01*
X016816Y009953D01*
X016728Y009990D01*
X011528Y009990D01*
X011518Y010000D01*
X011528Y010010D01*
X012228Y010010D01*
X012316Y010047D01*
X012383Y010114D01*
X012420Y010202D01*
X012420Y010526D01*
X012480Y010551D01*
X012629Y010700D01*
X012669Y010794D01*
X012670Y010789D01*
X012710Y010712D01*
X012760Y010642D01*
X012822Y010580D01*
X012892Y010530D01*
X012969Y010490D01*
X013051Y010464D01*
X013137Y010450D01*
X013171Y010450D01*
X013171Y010991D01*
X013189Y010991D01*
X013189Y011009D01*
X013171Y011009D01*
X013171Y011550D01*
X013137Y011550D01*
X013051Y011536D01*
X012969Y011510D01*
X012892Y011470D01*
X012822Y011420D01*
X012760Y011358D01*
X012710Y011288D01*
X012670Y011211D01*
X012669Y011206D01*
X012629Y011300D01*
X012480Y011449D01*
X012285Y011530D01*
X012075Y011530D01*
X011880Y011449D01*
X011731Y011300D01*
X011650Y011105D01*
X011650Y010895D01*
X011731Y010700D01*
X011880Y010551D01*
X011940Y010526D01*
X011940Y010490D01*
X011528Y010490D01*
X011490Y010528D01*
X010492Y010528D01*
X010398Y010434D01*
X010398Y010066D01*
X010464Y010000D01*
X010398Y009934D01*
X010398Y009566D01*
X010464Y009500D01*
X010398Y009434D01*
X010398Y009066D01*
X010450Y009014D01*
X010447Y009012D01*
X010414Y008979D01*
X010390Y008938D01*
X010378Y008892D01*
X010378Y008750D01*
X010378Y008608D01*
X010390Y008562D01*
X010414Y008521D01*
X010447Y008488D01*
X010450Y008486D01*
X010398Y008434D01*
X010398Y008066D01*
X010464Y008000D01*
X010398Y007934D01*
X010398Y007566D01*
X010464Y007500D01*
X010398Y007434D01*
X010398Y007066D01*
X010464Y007000D01*
X010398Y006934D01*
X010398Y006566D01*
X010464Y006500D01*
X010398Y006434D01*
X010398Y006066D01*
X010464Y006000D01*
X010398Y005934D01*
X010398Y005566D01*
X010464Y005500D01*
X010398Y005434D01*
X010398Y005066D01*
X010464Y005000D01*
X010398Y004934D01*
X010398Y004566D01*
X010450Y004514D01*
X010447Y004512D01*
X010414Y004479D01*
X010390Y004438D01*
X010378Y004392D01*
X010378Y004250D01*
X010378Y004108D01*
X010390Y004062D01*
X010414Y004021D01*
X010447Y003988D01*
X010450Y003986D01*
X010398Y003934D01*
X010398Y003566D01*
X010492Y003472D01*
X011490Y003472D01*
X011528Y003510D01*
X012440Y003510D01*
X012440Y003426D01*
X012405Y003411D01*
X012269Y003275D01*
X012195Y003096D01*
X012195Y002904D01*
X012269Y002725D01*
X012405Y002589D01*
X012584Y002515D01*
X012776Y002515D01*
X012955Y002589D01*
X013091Y002725D01*
X013165Y002904D01*
X013165Y003096D01*
X013091Y003275D01*
X012955Y003411D01*
X012920Y003426D01*
X012920Y003798D01*
X012883Y003886D01*
X012816Y003953D01*
X012728Y003990D01*
X011537Y003990D01*
X011568Y004021D01*
X011592Y004062D01*
X011604Y004108D01*
X011604Y004250D01*
X011604Y004392D01*
X011592Y004438D01*
X011568Y004479D01*
X011535Y004512D01*
X011532Y004514D01*
X011584Y004566D01*
X011584Y004934D01*
X011518Y005000D01*
X011584Y005066D01*
X011584Y005434D01*
X011518Y005500D01*
X011584Y005566D01*
X011584Y005934D01*
X011518Y006000D01*
X011528Y006010D01*
X015478Y006010D01*
X015566Y006047D01*
X015633Y006114D01*
X015670Y006202D01*
X015670Y006731D01*
X015735Y006796D01*
X015790Y006928D01*
X015790Y007072D01*
X015735Y007204D01*
X015634Y007305D01*
X015502Y007360D01*
X015358Y007360D01*
X015242Y007312D01*
X015290Y007428D01*
X015290Y007572D01*
X015235Y007704D01*
X015134Y007805D01*
X015002Y007860D01*
X014858Y007860D01*
X014742Y007812D01*
X014790Y007928D01*
X014790Y008072D01*
X014735Y008204D01*
X014634Y008305D01*
X014502Y008360D01*
X014358Y008360D01*
X014242Y008312D01*
X014290Y008428D01*
X014290Y008572D01*
X014235Y008704D01*
X014134Y008805D01*
X014002Y008860D01*
X013858Y008860D01*
X013726Y008805D01*
X013625Y008704D01*
X013570Y008572D01*
X013570Y008428D01*
X013625Y008296D01*
X013690Y008231D01*
X013690Y007990D01*
X011528Y007990D01*
X011518Y008000D01*
X011528Y008010D01*
X012978Y008010D01*
X013066Y008047D01*
X013133Y008114D01*
X013170Y008202D01*
X013170Y008231D01*
X013235Y008296D01*
X013290Y008428D01*
X013290Y008572D01*
X013235Y008704D01*
X013134Y008805D01*
X013002Y008860D01*
X012858Y008860D01*
X012726Y008805D01*
X012625Y008704D01*
X012570Y008572D01*
X012570Y008490D01*
X011537Y008490D01*
X011568Y008521D01*
X011592Y008562D01*
X011604Y008608D01*
X011604Y008750D01*
X011604Y008892D01*
X011592Y008938D01*
X011568Y008979D01*
X011537Y009010D01*
X015940Y009010D01*
X015940Y007236D01*
X015977Y007148D01*
X016044Y007080D01*
X016132Y007043D01*
X018015Y007043D01*
X018027Y007014D01*
X018161Y006881D01*
X018336Y006809D01*
X018524Y006809D01*
X018699Y006881D01*
X018833Y007014D01*
X018905Y007189D01*
X018905Y007378D01*
X018833Y007553D01*
X018699Y007686D01*
X018524Y007758D01*
X018336Y007758D01*
X018161Y007686D01*
X018027Y007553D01*
X018015Y007523D01*
X016420Y007523D01*
X016420Y009298D01*
X016383Y009386D01*
X016316Y009453D01*
X016228Y009490D01*
X011528Y009490D01*
X011518Y009500D01*
X011528Y009510D01*
X016440Y009510D01*
X016440Y008236D01*
X016477Y008148D01*
X016544Y008080D01*
X016632Y008043D01*
X017515Y008043D01*
X017527Y008014D01*
X017661Y007881D01*
X017836Y007809D01*
X018024Y007809D01*
X018199Y007881D01*
X018333Y008014D01*
X018405Y008189D01*
X018405Y008378D01*
X018333Y008553D01*
X018199Y008686D01*
X018024Y008758D01*
X017836Y008758D01*
X017661Y008686D01*
X017527Y008553D01*
X017515Y008523D01*
X016920Y008523D01*
X016920Y009798D01*
X016869Y009901D02*
X017332Y009901D01*
X017320Y010059D02*
X012328Y010059D01*
X012420Y010218D02*
X016953Y010218D01*
X016842Y010376D02*
X012420Y010376D01*
X012441Y010535D02*
X012885Y010535D01*
X012723Y010693D02*
X012623Y010693D01*
X012180Y011000D02*
X012180Y010250D01*
X010991Y010250D01*
X010991Y009750D02*
X016680Y009750D01*
X016680Y008283D01*
X017930Y008283D01*
X018365Y008474D02*
X018495Y008474D01*
X018527Y008553D02*
X018455Y008378D01*
X018455Y008189D01*
X018527Y008014D01*
X018661Y007881D01*
X018836Y007809D01*
X019024Y007809D01*
X019199Y007881D01*
X019333Y008014D01*
X019405Y008189D01*
X019405Y008378D01*
X019333Y008553D01*
X019199Y008686D01*
X019024Y008758D01*
X018836Y008758D01*
X018661Y008686D01*
X018527Y008553D01*
X018607Y008633D02*
X018253Y008633D01*
X018405Y008316D02*
X018455Y008316D01*
X018468Y008157D02*
X018392Y008157D01*
X018317Y007999D02*
X018543Y007999D01*
X018759Y007840D02*
X018101Y007840D01*
X018156Y007682D02*
X016420Y007682D01*
X016420Y007840D02*
X017759Y007840D01*
X017543Y007999D02*
X016420Y007999D01*
X016420Y008157D02*
X016473Y008157D01*
X016440Y008316D02*
X016420Y008316D01*
X016420Y008474D02*
X016440Y008474D01*
X016440Y008633D02*
X016420Y008633D01*
X016420Y008791D02*
X016440Y008791D01*
X016440Y008950D02*
X016420Y008950D01*
X016420Y009108D02*
X016440Y009108D01*
X016440Y009267D02*
X016420Y009267D01*
X016440Y009425D02*
X016344Y009425D01*
X016180Y009250D02*
X016180Y007283D01*
X018430Y007283D01*
X018846Y007048D02*
X019014Y007048D01*
X019027Y007014D02*
X019161Y006881D01*
X019336Y006809D01*
X019524Y006809D01*
X019699Y006881D01*
X019833Y007014D01*
X019905Y007189D01*
X019905Y007378D01*
X019833Y007553D01*
X019699Y007686D01*
X019524Y007758D01*
X019336Y007758D01*
X019161Y007686D01*
X019027Y007553D01*
X018955Y007378D01*
X018955Y007189D01*
X019027Y007014D01*
X019153Y006889D02*
X018707Y006889D01*
X018905Y007206D02*
X018955Y007206D01*
X018955Y007365D02*
X018905Y007365D01*
X018845Y007523D02*
X019015Y007523D01*
X019156Y007682D02*
X018704Y007682D01*
X019101Y007840D02*
X019759Y007840D01*
X019836Y007809D02*
X019661Y007881D01*
X019527Y008014D01*
X019455Y008189D01*
X019455Y008378D01*
X019527Y008553D01*
X019661Y008686D01*
X019836Y008758D01*
X020024Y008758D01*
X020199Y008686D01*
X020333Y008553D01*
X020405Y008378D01*
X020405Y008189D01*
X020333Y008014D01*
X020199Y007881D01*
X020024Y007809D01*
X019836Y007809D01*
X019704Y007682D02*
X020156Y007682D01*
X020161Y007686D02*
X020027Y007553D01*
X019955Y007378D01*
X019955Y007189D01*
X020027Y007014D01*
X020161Y006881D01*
X020336Y006809D01*
X020524Y006809D01*
X020699Y006881D01*
X020833Y007014D01*
X020905Y007189D01*
X020905Y007378D01*
X020833Y007553D01*
X020699Y007686D01*
X020524Y007758D01*
X020336Y007758D01*
X020161Y007686D01*
X020101Y007840D02*
X020759Y007840D01*
X020836Y007809D02*
X021024Y007809D01*
X021199Y007881D01*
X021333Y008014D01*
X021405Y008189D01*
X021405Y008378D01*
X021333Y008553D01*
X021199Y008686D01*
X021024Y008758D01*
X020836Y008758D01*
X020661Y008686D01*
X020527Y008553D01*
X020455Y008378D01*
X020455Y008189D01*
X020527Y008014D01*
X020661Y007881D01*
X020836Y007809D01*
X020704Y007682D02*
X021156Y007682D01*
X021161Y007686D02*
X021027Y007553D01*
X020955Y007378D01*
X020955Y007189D01*
X021027Y007014D01*
X021161Y006881D01*
X021336Y006809D01*
X021524Y006809D01*
X021699Y006881D01*
X021833Y007014D01*
X021905Y007189D01*
X021905Y007378D01*
X021833Y007553D01*
X021699Y007686D01*
X021524Y007758D01*
X021336Y007758D01*
X021161Y007686D01*
X021101Y007840D02*
X021759Y007840D01*
X021836Y007809D02*
X021661Y007881D01*
X021527Y008014D01*
X021455Y008189D01*
X021455Y008378D01*
X021527Y008553D01*
X021661Y008686D01*
X021836Y008758D01*
X022024Y008758D01*
X022199Y008686D01*
X022333Y008553D01*
X022405Y008378D01*
X022405Y008189D01*
X022333Y008014D01*
X022199Y007881D01*
X022024Y007809D01*
X021836Y007809D01*
X021704Y007682D02*
X022156Y007682D01*
X022161Y007686D02*
X022027Y007553D01*
X021955Y007378D01*
X021955Y007189D01*
X022027Y007014D01*
X022161Y006881D01*
X022336Y006809D01*
X022524Y006809D01*
X022699Y006881D01*
X022833Y007014D01*
X022905Y007189D01*
X022905Y007378D01*
X022833Y007553D01*
X022699Y007686D01*
X022524Y007758D01*
X022336Y007758D01*
X022161Y007686D01*
X022101Y007840D02*
X034440Y007840D01*
X034440Y007740D02*
X032632Y007740D01*
X032544Y007703D01*
X032477Y007636D01*
X028346Y003505D01*
X028285Y003530D01*
X028075Y003530D01*
X027880Y003449D01*
X027731Y003300D01*
X027650Y003105D01*
X027650Y002895D01*
X027731Y002700D01*
X027880Y002551D01*
X028075Y002470D01*
X028285Y002470D01*
X028480Y002551D01*
X028629Y002700D01*
X028680Y002822D01*
X028731Y002700D01*
X028880Y002551D01*
X029075Y002470D01*
X029285Y002470D01*
X029480Y002551D01*
X029629Y002700D01*
X029680Y002822D01*
X029731Y002700D01*
X029880Y002551D01*
X030075Y002470D01*
X030285Y002470D01*
X030480Y002551D01*
X030629Y002700D01*
X030680Y002822D01*
X030731Y002700D01*
X030880Y002551D01*
X031075Y002470D01*
X031285Y002470D01*
X031480Y002551D01*
X031629Y002700D01*
X031680Y002822D01*
X031731Y002700D01*
X031880Y002551D01*
X032075Y002470D01*
X032285Y002470D01*
X032480Y002551D01*
X032629Y002700D01*
X032680Y002822D01*
X032731Y002700D01*
X032880Y002551D01*
X033075Y002470D01*
X033285Y002470D01*
X033480Y002551D01*
X033629Y002700D01*
X033669Y002794D01*
X033670Y002789D01*
X033710Y002712D01*
X033760Y002642D01*
X033822Y002580D01*
X033892Y002530D01*
X033969Y002490D01*
X034051Y002464D01*
X034137Y002450D01*
X034160Y002450D01*
X034160Y002980D01*
X034200Y002980D01*
X034200Y003020D01*
X034160Y003020D01*
X034160Y003550D01*
X034137Y003550D01*
X034051Y003536D01*
X033969Y003510D01*
X033892Y003470D01*
X033822Y003420D01*
X033760Y003358D01*
X033710Y003288D01*
X033670Y003211D01*
X033669Y003206D01*
X033629Y003300D01*
X033480Y003449D01*
X033472Y003453D01*
X038383Y008364D01*
X038420Y008452D01*
X038420Y010548D01*
X038383Y010636D01*
X038316Y010703D01*
X037420Y011599D01*
X037420Y015386D01*
X037536Y015502D01*
X037600Y015656D01*
X037600Y016344D01*
X037536Y016498D01*
X037418Y016616D01*
X037264Y016680D01*
X037096Y016680D01*
X036942Y016616D01*
X036824Y016498D01*
X036760Y016344D01*
X036760Y015656D01*
X036824Y015502D01*
X036940Y015386D01*
X036940Y011452D01*
X036977Y011364D01*
X037940Y010401D01*
X037940Y008599D01*
X033044Y003703D01*
X032977Y003636D01*
X032940Y003548D01*
X032940Y003474D01*
X032880Y003449D01*
X032731Y003300D01*
X032680Y003178D01*
X032629Y003300D01*
X032480Y003449D01*
X032420Y003474D01*
X032420Y004260D01*
X033228Y004260D01*
X033316Y004297D01*
X033383Y004364D01*
X037883Y008864D01*
X037920Y008952D01*
X037920Y010048D01*
X037883Y010136D01*
X037816Y010203D01*
X036920Y011099D01*
X036920Y014548D01*
X036883Y014636D01*
X036816Y014703D01*
X036420Y015099D01*
X036420Y015386D01*
X036536Y015502D01*
X036600Y015656D01*
X036600Y016344D01*
X036536Y016498D01*
X036418Y016616D01*
X036264Y016680D01*
X036096Y016680D01*
X035942Y016616D01*
X035824Y016498D01*
X035760Y016344D01*
X035760Y015656D01*
X035824Y015502D01*
X035940Y015386D01*
X035940Y014952D01*
X035977Y014864D01*
X036440Y014401D01*
X036440Y010952D01*
X036477Y010864D01*
X037440Y009901D01*
X037440Y009099D01*
X033081Y004740D01*
X032132Y004740D01*
X032044Y004703D01*
X031977Y004636D01*
X031940Y004548D01*
X031940Y003474D01*
X031880Y003449D01*
X031731Y003300D01*
X031680Y003178D01*
X031629Y003300D01*
X031480Y003449D01*
X031285Y003530D01*
X031075Y003530D01*
X030880Y003449D01*
X030731Y003300D01*
X030680Y003178D01*
X030629Y003300D01*
X030480Y003449D01*
X030285Y003530D01*
X030075Y003530D01*
X029880Y003449D01*
X029731Y003300D01*
X029680Y003178D01*
X029629Y003300D01*
X029480Y003449D01*
X029285Y003530D01*
X029075Y003530D01*
X029032Y003512D01*
X032779Y007260D01*
X034728Y007260D01*
X034816Y007297D01*
X034883Y007364D01*
X034920Y007452D01*
X034920Y009026D01*
X034980Y009051D01*
X035129Y009200D01*
X035180Y009322D01*
X035231Y009200D01*
X035380Y009051D01*
X035575Y008970D01*
X035785Y008970D01*
X035980Y009051D01*
X036129Y009200D01*
X036169Y009294D01*
X036170Y009289D01*
X036210Y009212D01*
X036260Y009142D01*
X036322Y009080D01*
X036392Y009030D01*
X036469Y008990D01*
X036551Y008964D01*
X036637Y008950D01*
X036660Y008950D01*
X036660Y009480D01*
X036700Y009480D01*
X036700Y009520D01*
X036660Y009520D01*
X036660Y010050D01*
X036637Y010050D01*
X036551Y010036D01*
X036469Y010010D01*
X036392Y009970D01*
X036322Y009920D01*
X036260Y009858D01*
X036210Y009788D01*
X036170Y009711D01*
X036169Y009706D01*
X036129Y009800D01*
X035980Y009949D01*
X035785Y010030D01*
X035575Y010030D01*
X035380Y009949D01*
X035231Y009800D01*
X035180Y009678D01*
X035129Y009800D01*
X034980Y009949D01*
X034920Y009974D01*
X034920Y011298D01*
X034883Y011386D01*
X034816Y011453D01*
X034728Y011490D01*
X032170Y011490D01*
X032170Y012760D01*
X032228Y012760D01*
X032316Y012797D01*
X032383Y012864D01*
X032420Y012952D01*
X032420Y015386D01*
X032536Y015502D01*
X032600Y015656D01*
X032600Y016344D01*
X032536Y016498D01*
X032418Y016616D01*
X032264Y016680D01*
X032096Y016680D01*
X031942Y016616D01*
X031824Y016498D01*
X031760Y016344D01*
X031760Y015656D01*
X031824Y015502D01*
X031940Y015386D01*
X031940Y013240D01*
X031882Y013240D01*
X031794Y013203D01*
X031727Y013136D01*
X031690Y013048D01*
X031690Y011202D01*
X031727Y011114D01*
X031794Y011047D01*
X031882Y011010D01*
X031420Y011010D01*
X031420Y010852D02*
X034440Y010852D01*
X034440Y011010D02*
X034440Y009974D01*
X034380Y009949D01*
X034231Y009800D01*
X034180Y009678D01*
X034129Y009800D01*
X033980Y009949D01*
X033785Y010030D01*
X033575Y010030D01*
X033380Y009949D01*
X033231Y009800D01*
X033180Y009678D01*
X033129Y009800D01*
X032980Y009949D01*
X032920Y009974D01*
X032920Y010548D01*
X032883Y010636D01*
X032816Y010703D01*
X032728Y010740D01*
X031420Y010740D01*
X031420Y015048D01*
X031383Y015136D01*
X031316Y015203D01*
X031228Y015240D01*
X028420Y015240D01*
X028420Y015386D01*
X028536Y015502D01*
X028600Y015656D01*
X028600Y016344D01*
X028536Y016498D01*
X028418Y016616D01*
X028264Y016680D01*
X028096Y016680D01*
X027942Y016616D01*
X027824Y016498D01*
X027760Y016344D01*
X027760Y015656D01*
X027824Y015502D01*
X027940Y015386D01*
X027940Y014952D01*
X027977Y014864D01*
X028044Y014797D01*
X028132Y014760D01*
X030940Y014760D01*
X030940Y010749D01*
X030920Y010769D01*
X030920Y014548D01*
X030883Y014636D01*
X030816Y014703D01*
X030728Y014740D01*
X027420Y014740D01*
X027420Y015386D01*
X027536Y015502D01*
X027600Y015656D01*
X027600Y016344D01*
X027536Y016498D01*
X027418Y016616D01*
X027264Y016680D01*
X027096Y016680D01*
X026942Y016616D01*
X026824Y016498D01*
X026760Y016344D01*
X026760Y015656D01*
X026824Y015502D01*
X026940Y015386D01*
X026940Y014452D01*
X026977Y014364D01*
X027044Y014297D01*
X027132Y014260D01*
X030440Y014260D01*
X030440Y010769D01*
X030375Y010704D01*
X030320Y010572D01*
X030320Y010428D01*
X030375Y010296D01*
X030476Y010195D01*
X030608Y010140D01*
X030752Y010140D01*
X030884Y010195D01*
X030985Y010296D01*
X031003Y010338D01*
X031044Y010297D01*
X031132Y010260D01*
X032440Y010260D01*
X032440Y009974D01*
X032380Y009949D01*
X032231Y009800D01*
X032180Y009678D01*
X032129Y009800D01*
X031980Y009949D01*
X031785Y010030D01*
X031575Y010030D01*
X031380Y009949D01*
X031231Y009800D01*
X031206Y009740D01*
X030606Y009740D01*
X030591Y009775D01*
X030455Y009911D01*
X030276Y009985D01*
X030084Y009985D01*
X029905Y009911D01*
X029769Y009775D01*
X029695Y009596D01*
X029695Y009404D01*
X029769Y009225D01*
X029905Y009089D01*
X030084Y009015D01*
X030276Y009015D01*
X030455Y009089D01*
X030591Y009225D01*
X030606Y009260D01*
X031206Y009260D01*
X031231Y009200D01*
X031380Y009051D01*
X031575Y008970D01*
X031785Y008970D01*
X031980Y009051D01*
X032129Y009200D01*
X032180Y009322D01*
X032231Y009200D01*
X032380Y009051D01*
X032575Y008970D01*
X032785Y008970D01*
X032980Y009051D01*
X033129Y009200D01*
X033180Y009322D01*
X033231Y009200D01*
X033380Y009051D01*
X033575Y008970D01*
X033785Y008970D01*
X033980Y009051D01*
X034129Y009200D01*
X034180Y009322D01*
X034231Y009200D01*
X034380Y009051D01*
X034440Y009026D01*
X034440Y007740D01*
X034440Y007999D02*
X022317Y007999D01*
X022392Y008157D02*
X034440Y008157D01*
X034440Y008316D02*
X022405Y008316D01*
X022365Y008474D02*
X034440Y008474D01*
X034440Y008633D02*
X022253Y008633D01*
X021607Y008633D02*
X021253Y008633D01*
X021365Y008474D02*
X021495Y008474D01*
X021455Y008316D02*
X021405Y008316D01*
X021392Y008157D02*
X021468Y008157D01*
X021543Y007999D02*
X021317Y007999D01*
X021015Y007523D02*
X020845Y007523D01*
X020905Y007365D02*
X020955Y007365D01*
X020955Y007206D02*
X020905Y007206D01*
X020846Y007048D02*
X021014Y007048D01*
X021153Y006889D02*
X020707Y006889D01*
X020153Y006889D02*
X019707Y006889D01*
X019846Y007048D02*
X020014Y007048D01*
X019955Y007206D02*
X019905Y007206D01*
X019905Y007365D02*
X019955Y007365D01*
X020015Y007523D02*
X019845Y007523D01*
X019543Y007999D02*
X019317Y007999D01*
X019392Y008157D02*
X019468Y008157D01*
X019455Y008316D02*
X019405Y008316D01*
X019365Y008474D02*
X019495Y008474D01*
X019607Y008633D02*
X019253Y008633D01*
X018456Y009267D02*
X024667Y009267D01*
X024640Y009201D02*
X024640Y009018D01*
X024710Y008849D01*
X024839Y008720D01*
X025008Y008650D01*
X025791Y008650D01*
X025961Y008720D01*
X026090Y008849D01*
X026098Y008870D01*
X027262Y008870D01*
X027270Y008849D01*
X027399Y008720D01*
X027568Y008650D01*
X028351Y008650D01*
X028521Y008720D01*
X028650Y008849D01*
X028658Y008870D01*
X029228Y008870D01*
X029316Y008907D01*
X029383Y008974D01*
X029420Y009062D01*
X029420Y009074D01*
X029455Y009089D01*
X029591Y009225D01*
X029665Y009404D01*
X029665Y009596D01*
X029591Y009775D01*
X029455Y009911D01*
X029276Y009985D01*
X029084Y009985D01*
X028905Y009911D01*
X028769Y009775D01*
X028695Y009596D01*
X028695Y009404D01*
X028717Y009350D01*
X028658Y009350D01*
X028650Y009371D01*
X028521Y009500D01*
X028351Y009570D01*
X027568Y009570D01*
X027399Y009500D01*
X027270Y009371D01*
X027262Y009350D01*
X026920Y009350D01*
X026920Y011548D01*
X026883Y011636D01*
X026816Y011703D01*
X026728Y011740D01*
X026420Y011740D01*
X026420Y015386D01*
X026536Y015502D01*
X026600Y015656D01*
X026600Y016344D01*
X026536Y016498D01*
X026418Y016616D01*
X026264Y016680D01*
X026096Y016680D01*
X025942Y016616D01*
X025824Y016498D01*
X025760Y016344D01*
X025760Y015656D01*
X025824Y015502D01*
X025940Y015386D01*
X025940Y011452D01*
X025977Y011364D01*
X026044Y011297D01*
X026132Y011260D01*
X026440Y011260D01*
X026440Y009350D01*
X026098Y009350D01*
X026090Y009371D01*
X025961Y009500D01*
X025791Y009570D01*
X025008Y009570D01*
X024839Y009500D01*
X024710Y009371D01*
X024640Y009201D01*
X024640Y009108D02*
X016920Y009108D01*
X016920Y008950D02*
X024669Y008950D01*
X024768Y008791D02*
X016920Y008791D01*
X016920Y008633D02*
X017607Y008633D01*
X017904Y009267D02*
X016920Y009267D01*
X016920Y009425D02*
X017821Y009425D01*
X017825Y009584D02*
X016920Y009584D01*
X016180Y009250D02*
X010991Y009250D01*
X011585Y008950D02*
X015940Y008950D01*
X015940Y008791D02*
X014148Y008791D01*
X014265Y008633D02*
X015940Y008633D01*
X015940Y008474D02*
X014290Y008474D01*
X014251Y008316D02*
X014243Y008316D01*
X013930Y008500D02*
X013930Y007750D01*
X010991Y007750D01*
X011520Y007999D02*
X013690Y007999D01*
X013690Y008157D02*
X013151Y008157D01*
X013243Y008316D02*
X013617Y008316D01*
X013570Y008474D02*
X013290Y008474D01*
X013265Y008633D02*
X013595Y008633D01*
X013712Y008791D02*
X013148Y008791D01*
X012930Y008500D02*
X012930Y008250D01*
X010991Y008250D01*
X010991Y008750D02*
X010378Y008750D01*
X010991Y008750D01*
X010991Y008750D01*
X011604Y008750D01*
X010991Y008750D01*
X010991Y008750D01*
X011604Y008791D02*
X012712Y008791D01*
X012595Y008633D02*
X011604Y008633D01*
X010438Y008474D02*
X007922Y008474D01*
X007913Y008488D02*
X007946Y008521D01*
X007970Y008562D01*
X007982Y008608D01*
X007982Y008750D01*
X007982Y008892D01*
X007970Y008938D01*
X007946Y008979D01*
X007913Y009012D01*
X007910Y009014D01*
X007962Y009066D01*
X007962Y009434D01*
X007896Y009500D01*
X007962Y009566D01*
X007962Y009934D01*
X007896Y010000D01*
X007962Y010066D01*
X007962Y010434D01*
X007868Y010528D01*
X006870Y010528D01*
X006832Y010490D01*
X005699Y010490D01*
X005634Y010555D01*
X005502Y010610D01*
X005358Y010610D01*
X005226Y010555D01*
X005125Y010454D01*
X005070Y010322D01*
X005070Y010178D01*
X005125Y010046D01*
X005190Y009981D01*
X005190Y003702D01*
X005227Y003614D01*
X005294Y003547D01*
X005382Y003510D01*
X006832Y003510D01*
X006870Y003472D01*
X007868Y003472D01*
X007962Y003566D01*
X007962Y003934D01*
X007896Y004000D01*
X007962Y004066D01*
X007962Y004434D01*
X007896Y004500D01*
X007962Y004566D01*
X007962Y004934D01*
X007896Y005000D01*
X007962Y005066D01*
X007962Y005434D01*
X007896Y005500D01*
X007962Y005566D01*
X007962Y005934D01*
X007896Y006000D01*
X007962Y006066D01*
X007962Y006434D01*
X007910Y006486D01*
X007913Y006488D01*
X007946Y006521D01*
X007970Y006562D01*
X007982Y006608D01*
X007982Y006750D01*
X007982Y006892D01*
X007970Y006938D01*
X007946Y006979D01*
X007925Y007000D01*
X007946Y007021D01*
X007970Y007062D01*
X007982Y007108D01*
X007982Y007250D01*
X007982Y007392D01*
X007970Y007438D01*
X007946Y007479D01*
X007913Y007512D01*
X007910Y007514D01*
X007962Y007566D01*
X007962Y007934D01*
X007896Y008000D01*
X007962Y008066D01*
X007962Y008434D01*
X007910Y008486D01*
X007913Y008488D01*
X007982Y008633D02*
X010378Y008633D01*
X010378Y008791D02*
X007982Y008791D01*
X007982Y008750D02*
X007369Y008750D01*
X007369Y008750D01*
X007982Y008750D01*
X007963Y008950D02*
X010397Y008950D01*
X010398Y009108D02*
X007962Y009108D01*
X007962Y009267D02*
X010398Y009267D01*
X010398Y009425D02*
X007962Y009425D01*
X007962Y009584D02*
X010398Y009584D01*
X010398Y009742D02*
X007962Y009742D01*
X007962Y009901D02*
X010398Y009901D01*
X010405Y010059D02*
X007955Y010059D01*
X007962Y010218D02*
X010398Y010218D01*
X010398Y010376D02*
X007962Y010376D01*
X007369Y010250D02*
X005430Y010250D01*
X005430Y008250D01*
X005430Y007750D01*
X005430Y005250D01*
X005430Y003750D01*
X007369Y003750D01*
X007962Y003719D02*
X010398Y003719D01*
X010398Y003878D02*
X007962Y003878D01*
X007932Y004036D02*
X010405Y004036D01*
X010378Y004195D02*
X007962Y004195D01*
X007962Y004353D02*
X010378Y004353D01*
X010378Y004250D02*
X010991Y004250D01*
X010991Y004250D01*
X010378Y004250D01*
X010447Y004512D02*
X007908Y004512D01*
X007962Y004670D02*
X010398Y004670D01*
X010398Y004829D02*
X007962Y004829D01*
X007909Y004987D02*
X010451Y004987D01*
X010398Y005146D02*
X007962Y005146D01*
X007962Y005304D02*
X010398Y005304D01*
X010426Y005463D02*
X007934Y005463D01*
X007962Y005621D02*
X010398Y005621D01*
X010398Y005780D02*
X007962Y005780D01*
X007958Y005938D02*
X010402Y005938D01*
X010398Y006097D02*
X007962Y006097D01*
X007962Y006255D02*
X010398Y006255D01*
X010398Y006414D02*
X007962Y006414D01*
X007972Y006572D02*
X010398Y006572D01*
X010398Y006731D02*
X007982Y006731D01*
X007982Y006750D02*
X007369Y006750D01*
X007982Y006750D01*
X007982Y006889D02*
X010398Y006889D01*
X010416Y007048D02*
X007961Y007048D01*
X007982Y007206D02*
X010398Y007206D01*
X010398Y007365D02*
X007982Y007365D01*
X007982Y007250D02*
X007369Y007250D01*
X007369Y007250D01*
X007982Y007250D01*
X007919Y007523D02*
X010441Y007523D01*
X010398Y007682D02*
X007962Y007682D01*
X007962Y007840D02*
X010398Y007840D01*
X010462Y007999D02*
X007898Y007999D01*
X007962Y008157D02*
X010398Y008157D01*
X010398Y008316D02*
X007962Y008316D01*
X007369Y008250D02*
X005430Y008250D01*
X005190Y008316D02*
X000660Y008316D01*
X000660Y008474D02*
X005190Y008474D01*
X005190Y008633D02*
X004998Y008633D01*
X004955Y008589D02*
X005091Y008725D01*
X005165Y008904D01*
X005165Y009096D01*
X005091Y009275D01*
X004955Y009411D01*
X004776Y009485D01*
X004584Y009485D01*
X004405Y009411D01*
X004269Y009275D01*
X004254Y009240D01*
X003106Y009240D01*
X003091Y009275D01*
X002955Y009411D01*
X002776Y009485D01*
X002584Y009485D01*
X002405Y009411D01*
X002269Y009275D01*
X002195Y009096D01*
X002195Y008904D01*
X002269Y008725D01*
X002405Y008589D01*
X002584Y008515D01*
X002776Y008515D01*
X002955Y008589D01*
X003091Y008725D01*
X003106Y008760D01*
X004254Y008760D01*
X004269Y008725D01*
X004405Y008589D01*
X004584Y008515D01*
X004776Y008515D01*
X004955Y008589D01*
X005118Y008791D02*
X005190Y008791D01*
X005190Y008950D02*
X005165Y008950D01*
X005160Y009108D02*
X005190Y009108D01*
X005190Y009267D02*
X005095Y009267D01*
X005190Y009425D02*
X004921Y009425D01*
X005190Y009584D02*
X000660Y009584D01*
X000660Y009742D02*
X005190Y009742D01*
X005190Y009901D02*
X000660Y009901D01*
X000660Y010059D02*
X005119Y010059D01*
X005070Y010218D02*
X000660Y010218D01*
X000660Y010376D02*
X005093Y010376D01*
X005205Y010535D02*
X002824Y010535D01*
X002776Y010515D02*
X002955Y010589D01*
X003091Y010725D01*
X003165Y010904D01*
X003165Y011096D01*
X003091Y011275D01*
X002955Y011411D01*
X002776Y011485D01*
X002584Y011485D01*
X002405Y011411D01*
X002269Y011275D01*
X002195Y011096D01*
X002195Y010904D01*
X002269Y010725D01*
X002405Y010589D01*
X002584Y010515D01*
X002776Y010515D01*
X002536Y010535D02*
X001879Y010535D01*
X001874Y010532D02*
X001945Y010568D01*
X002009Y010615D01*
X002065Y010671D01*
X002112Y010735D01*
X002148Y010806D01*
X002173Y010882D01*
X002185Y010960D01*
X002185Y011000D01*
X002185Y011040D01*
X002173Y011118D01*
X002148Y011194D01*
X002112Y011265D01*
X002065Y011329D01*
X002009Y011385D01*
X001945Y011432D01*
X001874Y011468D01*
X001798Y011493D01*
X001720Y011505D01*
X001680Y011505D01*
X001680Y011000D01*
X002185Y011000D01*
X001680Y011000D01*
X001680Y011000D01*
X001680Y011000D01*
X001680Y010495D01*
X001720Y010495D01*
X001798Y010507D01*
X001874Y010532D01*
X001680Y010535D02*
X001680Y010535D01*
X001680Y010495D02*
X001680Y011000D01*
X001680Y011000D01*
X001680Y011000D01*
X001175Y011000D01*
X001175Y011040D01*
X001187Y011118D01*
X001212Y011194D01*
X001248Y011265D01*
X001295Y011329D01*
X001351Y011385D01*
X001415Y011432D01*
X001486Y011468D01*
X001562Y011493D01*
X001640Y011505D01*
X001680Y011505D01*
X001680Y011000D01*
X001175Y011000D01*
X001175Y010960D01*
X001187Y010882D01*
X001212Y010806D01*
X001248Y010735D01*
X001295Y010671D01*
X001351Y010615D01*
X001415Y010568D01*
X001486Y010532D01*
X001562Y010507D01*
X001640Y010495D01*
X001680Y010495D01*
X001680Y010693D02*
X001680Y010693D01*
X001680Y010852D02*
X001680Y010852D01*
X001680Y011010D02*
X001680Y011010D01*
X001680Y011169D02*
X001680Y011169D01*
X001680Y011327D02*
X001680Y011327D01*
X001680Y011486D02*
X001680Y011486D01*
X001820Y011486D02*
X011967Y011486D01*
X011757Y011327D02*
X003039Y011327D01*
X003135Y011169D02*
X011676Y011169D01*
X011650Y011010D02*
X003165Y011010D01*
X003143Y010852D02*
X011668Y010852D01*
X011737Y010693D02*
X003059Y010693D01*
X002301Y010693D02*
X002081Y010693D01*
X002163Y010852D02*
X002217Y010852D01*
X002195Y011010D02*
X002185Y011010D01*
X002156Y011169D02*
X002225Y011169D01*
X002321Y011327D02*
X002067Y011327D01*
X001540Y011486D02*
X000660Y011486D01*
X000660Y011644D02*
X015600Y011644D01*
X015570Y011486D02*
X013439Y011486D01*
X013468Y011470D02*
X013391Y011510D01*
X013309Y011536D01*
X013223Y011550D01*
X013189Y011550D01*
X013189Y011009D01*
X013730Y011009D01*
X013730Y011043D01*
X013716Y011129D01*
X013690Y011211D01*
X013650Y011288D01*
X013600Y011358D01*
X013538Y011420D01*
X013468Y011470D01*
X013622Y011327D02*
X015612Y011327D01*
X015790Y011169D02*
X013704Y011169D01*
X013730Y011010D02*
X016070Y011010D01*
X016070Y011169D02*
X016110Y011169D01*
X015930Y011500D02*
X017430Y013000D01*
X021180Y013000D01*
X022680Y014500D01*
X022680Y018000D01*
X025180Y020500D01*
X037180Y020500D01*
X037512Y020362D02*
X039570Y020362D01*
X039570Y020520D02*
X039243Y020520D01*
X039457Y020679D02*
X039570Y020679D01*
X038940Y019728D02*
X025747Y019728D01*
X024702Y020362D02*
X021148Y020362D01*
X021165Y020404D02*
X021091Y020225D01*
X020955Y020089D01*
X020776Y020015D01*
X020584Y020015D01*
X020405Y020089D01*
X020269Y020225D01*
X020195Y020404D01*
X020195Y020596D01*
X020269Y020775D01*
X020405Y020911D01*
X020584Y020985D01*
X020776Y020985D01*
X020955Y020911D01*
X021091Y020775D01*
X021165Y020596D01*
X021165Y020404D01*
X021165Y020520D02*
X024861Y020520D01*
X025019Y020679D02*
X021131Y020679D01*
X021029Y020837D02*
X037053Y020837D01*
X037307Y020837D02*
X037758Y020837D01*
X037666Y020996D02*
X019780Y020996D01*
X019798Y020993D02*
X019720Y021005D01*
X019680Y021005D01*
X019680Y020500D01*
X020185Y020500D01*
X020185Y020540D01*
X020173Y020618D01*
X020148Y020694D01*
X020112Y020765D01*
X020065Y020829D01*
X020009Y020885D01*
X019945Y020932D01*
X019874Y020968D01*
X019798Y020993D01*
X019680Y020996D02*
X019680Y020996D01*
X019680Y021005D02*
X019640Y021005D01*
X019562Y020993D01*
X019486Y020968D01*
X019415Y020932D01*
X019351Y020885D01*
X019295Y020829D01*
X019248Y020765D01*
X019212Y020694D01*
X019187Y020618D01*
X019175Y020540D01*
X019175Y020500D01*
X019680Y020500D01*
X019680Y020500D01*
X019680Y020500D01*
X020185Y020500D01*
X020185Y020460D01*
X020173Y020382D01*
X020148Y020306D01*
X020112Y020235D01*
X020065Y020171D01*
X020009Y020115D01*
X019945Y020068D01*
X019874Y020032D01*
X019798Y020007D01*
X019720Y019995D01*
X019680Y019995D01*
X019680Y020500D01*
X019680Y020500D01*
X019680Y020500D01*
X019680Y021005D01*
X019580Y020996D02*
X017920Y020996D01*
X017920Y021154D02*
X037603Y021154D01*
X037560Y021313D02*
X017920Y021313D01*
X017920Y021471D02*
X037550Y021471D01*
X037550Y021630D02*
X018059Y021630D01*
X018166Y021788D02*
X037587Y021788D01*
X037633Y021947D02*
X018210Y021947D01*
X018210Y022105D02*
X018129Y022300D01*
X017980Y022449D01*
X017819Y022516D01*
X038180Y022516D01*
X037986Y022404D01*
X037776Y022194D01*
X037845Y022264D02*
X018145Y022264D01*
X018007Y022422D02*
X038017Y022422D01*
X037903Y020679D02*
X037496Y020679D01*
X037540Y020520D02*
X038117Y020520D01*
X037895Y019569D02*
X037465Y019569D01*
X037418Y019616D02*
X037264Y019680D01*
X037096Y019680D01*
X036942Y019616D01*
X036824Y019498D01*
X036760Y019344D01*
X036760Y018656D01*
X036824Y018502D01*
X036942Y018384D01*
X037096Y018320D01*
X037264Y018320D01*
X037418Y018384D01*
X037536Y018502D01*
X037600Y018656D01*
X037600Y019344D01*
X037536Y019498D01*
X037418Y019616D01*
X037572Y019411D02*
X037788Y019411D01*
X037760Y019252D02*
X037600Y019252D01*
X037600Y019094D02*
X037760Y019094D01*
X037760Y018935D02*
X037600Y018935D01*
X037600Y018777D02*
X037760Y018777D01*
X037776Y018618D02*
X037584Y018618D01*
X037493Y018460D02*
X037867Y018460D01*
X036867Y018460D02*
X036493Y018460D01*
X036420Y018386D02*
X036420Y016952D01*
X036383Y016864D01*
X036316Y016797D01*
X036228Y016760D01*
X025779Y016760D01*
X025420Y016401D01*
X025420Y014452D01*
X025383Y014364D01*
X025316Y014297D01*
X021316Y010297D01*
X021228Y010260D01*
X019279Y010260D01*
X018540Y009521D01*
X018603Y009584D02*
X026440Y009584D01*
X026440Y009742D02*
X018761Y009742D01*
X018920Y009901D02*
X026440Y009901D01*
X026440Y010059D02*
X019078Y010059D01*
X019237Y010218D02*
X026440Y010218D01*
X026440Y010376D02*
X021395Y010376D01*
X021554Y010535D02*
X024777Y010535D01*
X024787Y010524D02*
X024848Y010479D01*
X024916Y010445D01*
X024988Y010422D01*
X025062Y010410D01*
X025380Y010410D01*
X025380Y010870D01*
X025420Y010870D01*
X025420Y010910D01*
X025380Y010910D01*
X025380Y011370D01*
X025062Y011370D01*
X024988Y011358D01*
X024916Y011335D01*
X024848Y011301D01*
X024787Y011256D01*
X024734Y011203D01*
X024689Y011142D01*
X024655Y011074D01*
X024632Y011002D01*
X024620Y010928D01*
X024620Y010910D01*
X025380Y010910D01*
X025380Y010870D01*
X024620Y010870D01*
X024620Y010852D01*
X024632Y010778D01*
X024655Y010706D01*
X024689Y010638D01*
X024734Y010577D01*
X024787Y010524D01*
X024662Y010693D02*
X021712Y010693D01*
X021871Y010852D02*
X024620Y010852D01*
X024634Y011010D02*
X022029Y011010D01*
X022188Y011169D02*
X024709Y011169D01*
X024900Y011327D02*
X022346Y011327D01*
X022505Y011486D02*
X025940Y011486D01*
X025940Y011644D02*
X022663Y011644D01*
X022822Y011803D02*
X025940Y011803D01*
X025940Y011961D02*
X022980Y011961D01*
X023139Y012120D02*
X025940Y012120D01*
X025940Y012278D02*
X023297Y012278D01*
X023456Y012437D02*
X025940Y012437D01*
X025940Y012595D02*
X023614Y012595D01*
X023773Y012754D02*
X025940Y012754D01*
X025940Y012912D02*
X023931Y012912D01*
X024090Y013071D02*
X025940Y013071D01*
X025940Y013229D02*
X024248Y013229D01*
X024407Y013388D02*
X025940Y013388D01*
X025940Y013546D02*
X024565Y013546D01*
X024724Y013705D02*
X025940Y013705D01*
X025940Y013863D02*
X024882Y013863D01*
X025041Y014022D02*
X025940Y014022D01*
X025940Y014180D02*
X025199Y014180D01*
X025358Y014339D02*
X025940Y014339D01*
X025940Y014497D02*
X025420Y014497D01*
X025420Y014656D02*
X025940Y014656D01*
X025940Y014814D02*
X025420Y014814D01*
X025420Y014973D02*
X025940Y014973D01*
X025940Y015131D02*
X025420Y015131D01*
X025420Y015290D02*
X025940Y015290D01*
X025878Y015448D02*
X025420Y015448D01*
X025420Y015607D02*
X025781Y015607D01*
X025760Y015765D02*
X025420Y015765D01*
X025420Y015924D02*
X025760Y015924D01*
X025760Y016082D02*
X025420Y016082D01*
X025420Y016241D02*
X025760Y016241D01*
X025783Y016399D02*
X025420Y016399D01*
X025577Y016558D02*
X025884Y016558D01*
X025735Y016716D02*
X039570Y016716D01*
X039570Y016558D02*
X039476Y016558D01*
X039570Y016875D02*
X036388Y016875D01*
X036420Y017033D02*
X039570Y017033D01*
X039570Y017192D02*
X036420Y017192D01*
X036420Y017350D02*
X039570Y017350D01*
X039570Y017509D02*
X036420Y017509D01*
X036420Y017667D02*
X039570Y017667D01*
X039570Y017826D02*
X036420Y017826D01*
X036420Y017984D02*
X039570Y017984D01*
X039570Y018143D02*
X036420Y018143D01*
X036584Y018618D02*
X036776Y018618D01*
X036760Y018777D02*
X036600Y018777D01*
X036600Y018935D02*
X036760Y018935D01*
X036760Y019094D02*
X036600Y019094D01*
X036600Y019252D02*
X036760Y019252D01*
X036788Y019411D02*
X036572Y019411D01*
X036465Y019569D02*
X036895Y019569D01*
X038465Y019569D02*
X038895Y019569D01*
X038788Y019411D02*
X038572Y019411D01*
X038600Y019252D02*
X038760Y019252D01*
X038760Y019094D02*
X038600Y019094D01*
X038264Y016680D02*
X038096Y016680D01*
X037942Y016616D01*
X037824Y016498D01*
X037760Y016344D01*
X037760Y015656D01*
X037824Y015502D01*
X037942Y015384D01*
X038096Y015320D01*
X038264Y015320D01*
X038418Y015384D01*
X038536Y015502D01*
X038600Y015656D01*
X038600Y016344D01*
X038536Y016498D01*
X038418Y016616D01*
X038264Y016680D01*
X038476Y016558D02*
X038884Y016558D01*
X038783Y016399D02*
X038577Y016399D01*
X038600Y016241D02*
X038760Y016241D01*
X038760Y016082D02*
X038600Y016082D01*
X038600Y015924D02*
X038760Y015924D01*
X038760Y015765D02*
X038600Y015765D01*
X038579Y015607D02*
X038781Y015607D01*
X038878Y015448D02*
X038482Y015448D01*
X037878Y015448D02*
X037482Y015448D01*
X037420Y015290D02*
X039570Y015290D01*
X039570Y015448D02*
X039482Y015448D01*
X039570Y015131D02*
X037420Y015131D01*
X037420Y014973D02*
X039570Y014973D01*
X039570Y014814D02*
X037420Y014814D01*
X037420Y014656D02*
X039570Y014656D01*
X039570Y014497D02*
X037420Y014497D01*
X037420Y014339D02*
X039570Y014339D01*
X039570Y014180D02*
X037420Y014180D01*
X037420Y014022D02*
X039570Y014022D01*
X039570Y013863D02*
X037420Y013863D01*
X037420Y013705D02*
X039570Y013705D01*
X039570Y013546D02*
X037420Y013546D01*
X037420Y013388D02*
X039570Y013388D01*
X039570Y013229D02*
X037420Y013229D01*
X037420Y013071D02*
X039570Y013071D01*
X039570Y012912D02*
X037420Y012912D01*
X037420Y012754D02*
X039570Y012754D01*
X039570Y012595D02*
X037420Y012595D01*
X037420Y012437D02*
X039570Y012437D01*
X039570Y012278D02*
X037420Y012278D01*
X037420Y012120D02*
X039570Y012120D01*
X039570Y011961D02*
X037420Y011961D01*
X037420Y011803D02*
X039570Y011803D01*
X039570Y011644D02*
X037420Y011644D01*
X037534Y011486D02*
X039570Y011486D01*
X039570Y011327D02*
X037692Y011327D01*
X037851Y011169D02*
X039570Y011169D01*
X039570Y011010D02*
X038009Y011010D01*
X038168Y010852D02*
X039570Y010852D01*
X039570Y010693D02*
X038326Y010693D01*
X038420Y010535D02*
X039570Y010535D01*
X039570Y010376D02*
X038420Y010376D01*
X038420Y010218D02*
X039570Y010218D01*
X039570Y010059D02*
X038420Y010059D01*
X038420Y009901D02*
X039570Y009901D01*
X039570Y009742D02*
X038420Y009742D01*
X038420Y009584D02*
X039570Y009584D01*
X039570Y009425D02*
X038420Y009425D01*
X038420Y009267D02*
X039570Y009267D01*
X039570Y009108D02*
X038420Y009108D01*
X038420Y008950D02*
X039570Y008950D01*
X039570Y008791D02*
X038420Y008791D01*
X038420Y008633D02*
X039570Y008633D01*
X039570Y008474D02*
X038420Y008474D01*
X038335Y008316D02*
X039570Y008316D01*
X039570Y008157D02*
X038176Y008157D01*
X038018Y007999D02*
X039570Y007999D01*
X039570Y007840D02*
X037859Y007840D01*
X037701Y007682D02*
X039570Y007682D01*
X039570Y007523D02*
X037542Y007523D01*
X037384Y007365D02*
X039570Y007365D01*
X039570Y007206D02*
X037225Y007206D01*
X037067Y007048D02*
X039570Y007048D01*
X039570Y006889D02*
X036908Y006889D01*
X036750Y006731D02*
X039570Y006731D01*
X039570Y006572D02*
X036591Y006572D01*
X036433Y006414D02*
X039570Y006414D01*
X039570Y006255D02*
X036274Y006255D01*
X036116Y006097D02*
X039570Y006097D01*
X039570Y005938D02*
X035957Y005938D01*
X035799Y005780D02*
X039570Y005780D01*
X039570Y005621D02*
X035640Y005621D01*
X035482Y005463D02*
X039570Y005463D01*
X039570Y005304D02*
X035323Y005304D01*
X035165Y005146D02*
X039570Y005146D01*
X039570Y004987D02*
X035006Y004987D01*
X034848Y004829D02*
X039570Y004829D01*
X039570Y004670D02*
X034689Y004670D01*
X034531Y004512D02*
X039570Y004512D01*
X039570Y004353D02*
X034372Y004353D01*
X034214Y004195D02*
X039570Y004195D01*
X039570Y004036D02*
X039146Y004036D01*
X039401Y003878D02*
X039570Y003878D01*
X039559Y003719D02*
X039570Y003719D01*
X038214Y004036D02*
X034055Y004036D01*
X033897Y003878D02*
X037959Y003878D01*
X037801Y003719D02*
X033738Y003719D01*
X033580Y003561D02*
X037699Y003561D01*
X037618Y003402D02*
X034556Y003402D01*
X034538Y003420D02*
X034468Y003470D01*
X034391Y003510D01*
X034309Y003536D01*
X034223Y003550D01*
X034200Y003550D01*
X034200Y003020D01*
X034730Y003020D01*
X034730Y003043D01*
X034716Y003129D01*
X034690Y003211D01*
X034650Y003288D01*
X034600Y003358D01*
X034538Y003420D01*
X034673Y003244D02*
X037575Y003244D01*
X037550Y003085D02*
X034723Y003085D01*
X034730Y002980D02*
X034200Y002980D01*
X034200Y002450D01*
X034223Y002450D01*
X034309Y002464D01*
X034391Y002490D01*
X034468Y002530D01*
X034538Y002580D01*
X034600Y002642D01*
X034650Y002712D01*
X034690Y002789D01*
X034716Y002871D01*
X034730Y002957D01*
X034730Y002980D01*
X034725Y002927D02*
X037550Y002927D01*
X037572Y002768D02*
X034679Y002768D01*
X034567Y002610D02*
X037615Y002610D01*
X037692Y002451D02*
X034230Y002451D01*
X034200Y002451D02*
X034160Y002451D01*
X034130Y002451D02*
X021952Y002451D01*
X021930Y002435D02*
X021993Y002481D01*
X022048Y002536D01*
X022093Y002599D01*
X022129Y002668D01*
X022153Y002742D01*
X022165Y002819D01*
X022165Y002845D01*
X021684Y002845D01*
X021684Y002872D01*
X022165Y002872D01*
X022165Y002897D01*
X022153Y002974D01*
X022129Y003048D01*
X022093Y003118D01*
X022048Y003181D01*
X021993Y003236D01*
X021930Y003282D01*
X021860Y003317D01*
X021786Y003341D01*
X021709Y003353D01*
X021684Y003353D01*
X021684Y002872D01*
X021657Y002872D01*
X021657Y003353D01*
X021631Y003353D01*
X021554Y003341D01*
X021480Y003317D01*
X021411Y003282D01*
X021348Y003236D01*
X021293Y003181D01*
X021247Y003118D01*
X021211Y003048D01*
X021187Y002974D01*
X021175Y002897D01*
X021175Y002872D01*
X021657Y002872D01*
X021657Y002845D01*
X021684Y002845D01*
X021684Y002363D01*
X021709Y002363D01*
X021786Y002375D01*
X021860Y002400D01*
X021930Y002435D01*
X022099Y002610D02*
X027821Y002610D01*
X027702Y002768D02*
X022157Y002768D01*
X022160Y002927D02*
X027650Y002927D01*
X027650Y003085D02*
X022970Y003085D01*
X022939Y003054D02*
X023073Y003188D01*
X023145Y003362D01*
X023145Y003551D01*
X023073Y003726D01*
X022984Y003814D01*
X023118Y003891D01*
X023326Y004100D01*
X023473Y004355D01*
X023550Y004640D01*
X023550Y004935D01*
X023473Y005220D01*
X023394Y005356D01*
X023441Y005369D01*
X023520Y005402D01*
X023594Y005445D01*
X023662Y005497D01*
X023723Y005557D01*
X023775Y005625D01*
X023818Y005699D01*
X023850Y005778D01*
X023872Y005861D01*
X023879Y005911D01*
X023309Y005911D01*
X023309Y006066D01*
X023154Y006066D01*
X023154Y006636D01*
X023104Y006629D01*
X023021Y006607D01*
X022942Y006575D01*
X022868Y006532D01*
X022800Y006480D01*
X022740Y006419D01*
X022688Y006351D01*
X022645Y006277D01*
X022612Y006198D01*
X022590Y006116D01*
X022583Y006066D01*
X023154Y006066D01*
X023154Y005911D01*
X022583Y005911D01*
X022584Y005905D01*
X022577Y005907D01*
X022283Y005907D01*
X021998Y005831D01*
X021742Y005683D01*
X021534Y005475D01*
X021387Y005220D01*
X021310Y004935D01*
X021310Y004640D01*
X021387Y004355D01*
X021534Y004100D01*
X021742Y003891D01*
X021998Y003744D01*
X022247Y003677D01*
X022195Y003551D01*
X022195Y003362D01*
X022268Y003188D01*
X022401Y003054D01*
X022576Y002982D01*
X022765Y002982D01*
X022939Y003054D01*
X023096Y003244D02*
X027707Y003244D01*
X027832Y003402D02*
X023145Y003402D01*
X023141Y003561D02*
X028401Y003561D01*
X028560Y003719D02*
X023076Y003719D01*
X023094Y003878D02*
X028718Y003878D01*
X028877Y004036D02*
X023262Y004036D01*
X023381Y004195D02*
X029035Y004195D01*
X029194Y004353D02*
X023472Y004353D01*
X023515Y004512D02*
X029352Y004512D01*
X029511Y004670D02*
X023550Y004670D01*
X023550Y004829D02*
X029669Y004829D01*
X029828Y004987D02*
X023536Y004987D01*
X023493Y005146D02*
X029986Y005146D01*
X030145Y005304D02*
X023425Y005304D01*
X023618Y005463D02*
X030303Y005463D01*
X030462Y005621D02*
X023772Y005621D01*
X023851Y005780D02*
X030620Y005780D01*
X030779Y005938D02*
X023309Y005938D01*
X023309Y006066D02*
X023879Y006066D01*
X023872Y006116D01*
X023850Y006198D01*
X023818Y006277D01*
X023775Y006351D01*
X023723Y006419D01*
X023662Y006480D01*
X023594Y006532D01*
X023520Y006575D01*
X023441Y006607D01*
X023359Y006629D01*
X023309Y006636D01*
X023309Y006066D01*
X023309Y006097D02*
X023154Y006097D01*
X023154Y006255D02*
X023309Y006255D01*
X023309Y006414D02*
X023154Y006414D01*
X023154Y006572D02*
X023309Y006572D01*
X023525Y006572D02*
X031413Y006572D01*
X031571Y006731D02*
X015670Y006731D01*
X015670Y006572D02*
X016835Y006572D01*
X016840Y006575D02*
X016766Y006532D01*
X016698Y006480D01*
X016637Y006419D01*
X016585Y006351D01*
X016542Y006277D01*
X016510Y006198D01*
X016488Y006116D01*
X016481Y006066D01*
X017051Y006066D01*
X017051Y005911D01*
X016481Y005911D01*
X016488Y005861D01*
X016510Y005778D01*
X016542Y005699D01*
X016585Y005625D01*
X016637Y005557D01*
X016698Y005497D01*
X016766Y005445D01*
X016840Y005402D01*
X016919Y005369D01*
X016966Y005356D01*
X016887Y005220D01*
X016810Y004935D01*
X016810Y004640D01*
X016887Y004355D01*
X017034Y004100D01*
X017242Y003891D01*
X017498Y003744D01*
X017783Y003668D01*
X018077Y003668D01*
X018286Y003724D01*
X018215Y003551D01*
X018215Y003362D01*
X018287Y003188D01*
X018421Y003054D01*
X018595Y002982D01*
X018784Y002982D01*
X018959Y003054D01*
X019092Y003188D01*
X019165Y003362D01*
X019165Y003551D01*
X019092Y003726D01*
X018959Y003859D01*
X018784Y003932D01*
X018658Y003932D01*
X018826Y004100D01*
X018973Y004355D01*
X019050Y004640D01*
X019050Y004935D01*
X018973Y005220D01*
X018826Y005475D01*
X018618Y005683D01*
X018362Y005831D01*
X018077Y005907D01*
X017783Y005907D01*
X017776Y005905D01*
X017777Y005911D01*
X017206Y005911D01*
X017206Y006066D01*
X017051Y006066D01*
X017051Y006636D01*
X017001Y006629D01*
X016919Y006607D01*
X016840Y006575D01*
X017051Y006572D02*
X017206Y006572D01*
X017206Y006636D02*
X017206Y006066D01*
X017777Y006066D01*
X017770Y006116D01*
X017748Y006198D01*
X017715Y006277D01*
X017672Y006351D01*
X017620Y006419D01*
X017560Y006480D01*
X017492Y006532D01*
X017418Y006575D01*
X017339Y006607D01*
X017256Y006629D01*
X017206Y006636D01*
X017206Y006414D02*
X017051Y006414D01*
X017051Y006255D02*
X017206Y006255D01*
X017206Y006097D02*
X017051Y006097D01*
X017051Y005938D02*
X011580Y005938D01*
X011584Y005780D02*
X016509Y005780D01*
X016588Y005621D02*
X011584Y005621D01*
X011556Y005463D02*
X016742Y005463D01*
X016935Y005304D02*
X011584Y005304D01*
X011584Y005146D02*
X016867Y005146D01*
X016824Y004987D02*
X011531Y004987D01*
X011584Y004829D02*
X016810Y004829D01*
X016810Y004670D02*
X011584Y004670D01*
X011535Y004512D02*
X016845Y004512D01*
X016888Y004353D02*
X011604Y004353D01*
X011604Y004250D02*
X010991Y004250D01*
X010991Y004250D01*
X011604Y004250D01*
X011604Y004195D02*
X016979Y004195D01*
X017098Y004036D02*
X011577Y004036D01*
X010991Y003750D02*
X012680Y003750D01*
X012680Y003000D01*
X013109Y002768D02*
X013231Y002768D01*
X013248Y002735D02*
X013295Y002671D01*
X013351Y002615D01*
X013415Y002568D01*
X013486Y002532D01*
X013562Y002507D01*
X013640Y002495D01*
X013680Y002495D01*
X013720Y002495D01*
X013798Y002507D01*
X013874Y002532D01*
X013945Y002568D01*
X014009Y002615D01*
X014065Y002671D01*
X014112Y002735D01*
X014148Y002806D01*
X014173Y002882D01*
X014185Y002960D01*
X014185Y003000D01*
X014185Y003040D01*
X014173Y003118D01*
X014148Y003194D01*
X014112Y003265D01*
X014065Y003329D01*
X014009Y003385D01*
X013945Y003432D01*
X013874Y003468D01*
X013798Y003493D01*
X013720Y003505D01*
X013680Y003505D01*
X013680Y003000D01*
X014185Y003000D01*
X013680Y003000D01*
X013680Y003000D01*
X013680Y003000D01*
X013680Y002495D01*
X013680Y003000D01*
X013680Y003000D01*
X013680Y003000D01*
X013175Y003000D01*
X013175Y003040D01*
X013187Y003118D01*
X013212Y003194D01*
X013248Y003265D01*
X013295Y003329D01*
X013351Y003385D01*
X013415Y003432D01*
X013486Y003468D01*
X013562Y003493D01*
X013640Y003505D01*
X013680Y003505D01*
X013680Y003000D01*
X013175Y003000D01*
X013175Y002960D01*
X013187Y002882D01*
X013212Y002806D01*
X013248Y002735D01*
X013358Y002610D02*
X012975Y002610D01*
X013165Y002927D02*
X013180Y002927D01*
X013165Y003085D02*
X013182Y003085D01*
X013237Y003244D02*
X013104Y003244D01*
X012964Y003402D02*
X013374Y003402D01*
X013680Y003402D02*
X013680Y003402D01*
X013680Y003244D02*
X013680Y003244D01*
X013680Y003085D02*
X013680Y003085D01*
X013680Y002927D02*
X013680Y002927D01*
X013680Y002768D02*
X013680Y002768D01*
X013680Y002610D02*
X013680Y002610D01*
X014002Y002610D02*
X017261Y002610D01*
X017267Y002599D02*
X017312Y002536D01*
X017367Y002481D01*
X017430Y002435D01*
X017500Y002400D01*
X017574Y002375D01*
X017651Y002363D01*
X017676Y002363D01*
X017676Y002845D01*
X017195Y002845D01*
X017195Y002819D01*
X017207Y002742D01*
X017231Y002668D01*
X017267Y002599D01*
X017203Y002768D02*
X014129Y002768D01*
X014180Y002927D02*
X017200Y002927D01*
X017195Y002897D02*
X017195Y002872D01*
X017676Y002872D01*
X017676Y002845D01*
X017703Y002845D01*
X017703Y002363D01*
X017729Y002363D01*
X017806Y002375D01*
X017880Y002400D01*
X017949Y002435D01*
X018012Y002481D01*
X018067Y002536D01*
X018113Y002599D01*
X018149Y002668D01*
X018173Y002742D01*
X018185Y002819D01*
X018185Y002845D01*
X017703Y002845D01*
X017703Y002872D01*
X017676Y002872D01*
X017676Y003353D01*
X017651Y003353D01*
X017574Y003341D01*
X017500Y003317D01*
X017430Y003282D01*
X017367Y003236D01*
X017312Y003181D01*
X017267Y003118D01*
X017231Y003048D01*
X017207Y002974D01*
X017195Y002897D01*
X017250Y003085D02*
X014178Y003085D01*
X014123Y003244D02*
X017378Y003244D01*
X017676Y003244D02*
X017703Y003244D01*
X017703Y003353D02*
X017703Y002872D01*
X018185Y002872D01*
X018185Y002897D01*
X018173Y002974D01*
X018149Y003048D01*
X018113Y003118D01*
X018067Y003181D01*
X018012Y003236D01*
X017949Y003282D01*
X017880Y003317D01*
X017806Y003341D01*
X017729Y003353D01*
X017703Y003353D01*
X017703Y003085D02*
X017676Y003085D01*
X017676Y002927D02*
X017703Y002927D01*
X017703Y002768D02*
X017676Y002768D01*
X017676Y002610D02*
X017703Y002610D01*
X017703Y002451D02*
X017676Y002451D01*
X017408Y002451D02*
X002668Y002451D01*
X002745Y002610D02*
X012385Y002610D01*
X012251Y002768D02*
X002788Y002768D01*
X002810Y002927D02*
X012195Y002927D01*
X012195Y003085D02*
X002810Y003085D01*
X002785Y003244D02*
X012256Y003244D01*
X012396Y003402D02*
X002742Y003402D01*
X002661Y003561D02*
X005280Y003561D01*
X005190Y003719D02*
X002559Y003719D01*
X002401Y003878D02*
X005190Y003878D01*
X005190Y004036D02*
X002146Y004036D01*
X001214Y004036D02*
X000660Y004036D01*
X000660Y003878D02*
X000959Y003878D01*
X000801Y003719D02*
X000660Y003719D01*
X000660Y003561D02*
X000699Y003561D01*
X000660Y004195D02*
X005190Y004195D01*
X005190Y004353D02*
X000660Y004353D01*
X000660Y004512D02*
X005190Y004512D01*
X005190Y004670D02*
X000660Y004670D01*
X000660Y004829D02*
X005190Y004829D01*
X005190Y004987D02*
X000660Y004987D01*
X000660Y005146D02*
X005190Y005146D01*
X005190Y005304D02*
X000660Y005304D01*
X000660Y005463D02*
X005190Y005463D01*
X005190Y005621D02*
X000660Y005621D01*
X000660Y005780D02*
X005190Y005780D01*
X005190Y005938D02*
X000660Y005938D01*
X000660Y006097D02*
X005190Y006097D01*
X005190Y006255D02*
X000660Y006255D01*
X000660Y006414D02*
X005190Y006414D01*
X005190Y006572D02*
X004914Y006572D01*
X004955Y006589D02*
X005091Y006725D01*
X005165Y006904D01*
X005165Y007096D01*
X005091Y007275D01*
X004955Y007411D01*
X004776Y007485D01*
X004584Y007485D01*
X004405Y007411D01*
X004269Y007275D01*
X004254Y007240D01*
X003106Y007240D01*
X003091Y007275D01*
X002955Y007411D01*
X002776Y007485D01*
X002584Y007485D01*
X002405Y007411D01*
X002269Y007275D01*
X002195Y007096D01*
X002195Y006904D01*
X002269Y006725D01*
X002405Y006589D01*
X002584Y006515D01*
X002776Y006515D01*
X002955Y006589D01*
X003091Y006725D01*
X003106Y006760D01*
X004254Y006760D01*
X004269Y006725D01*
X004405Y006589D01*
X004584Y006515D01*
X004776Y006515D01*
X004955Y006589D01*
X005093Y006731D02*
X005190Y006731D01*
X005190Y006889D02*
X005159Y006889D01*
X005165Y007048D02*
X005190Y007048D01*
X005190Y007206D02*
X005120Y007206D01*
X005190Y007365D02*
X005001Y007365D01*
X005190Y007523D02*
X000660Y007523D01*
X000660Y007365D02*
X001330Y007365D01*
X001351Y007385D02*
X001295Y007329D01*
X001248Y007265D01*
X001212Y007194D01*
X001187Y007118D01*
X001175Y007040D01*
X001175Y007000D01*
X001680Y007000D01*
X002185Y007000D01*
X002185Y007040D01*
X002173Y007118D01*
X002148Y007194D01*
X002112Y007265D01*
X002065Y007329D01*
X002009Y007385D01*
X001945Y007432D01*
X001874Y007468D01*
X001798Y007493D01*
X001720Y007505D01*
X001680Y007505D01*
X001680Y007000D01*
X001680Y007000D01*
X001680Y007000D01*
X002185Y007000D01*
X002185Y006960D01*
X002173Y006882D01*
X002148Y006806D01*
X002112Y006735D01*
X002065Y006671D01*
X002009Y006615D01*
X001945Y006568D01*
X001874Y006532D01*
X001798Y006507D01*
X001720Y006495D01*
X001680Y006495D01*
X001680Y007000D01*
X001680Y007000D01*
X001680Y007000D01*
X001680Y007505D01*
X001640Y007505D01*
X001562Y007493D01*
X001486Y007468D01*
X001415Y007432D01*
X001351Y007385D01*
X001218Y007206D02*
X000660Y007206D01*
X000660Y007048D02*
X001176Y007048D01*
X001175Y007000D02*
X001175Y006960D01*
X001187Y006882D01*
X001212Y006806D01*
X001248Y006735D01*
X001295Y006671D01*
X001351Y006615D01*
X001415Y006568D01*
X001486Y006532D01*
X001562Y006507D01*
X001640Y006495D01*
X001680Y006495D01*
X001680Y007000D01*
X001175Y007000D01*
X001186Y006889D02*
X000660Y006889D01*
X000660Y006731D02*
X001252Y006731D01*
X001410Y006572D02*
X000660Y006572D01*
X001680Y006572D02*
X001680Y006572D01*
X001680Y006731D02*
X001680Y006731D01*
X001680Y006889D02*
X001680Y006889D01*
X001680Y007048D02*
X001680Y007048D01*
X001680Y007206D02*
X001680Y007206D01*
X001680Y007365D02*
X001680Y007365D01*
X002030Y007365D02*
X002359Y007365D01*
X002240Y007206D02*
X002142Y007206D01*
X002184Y007048D02*
X002195Y007048D01*
X002201Y006889D02*
X002174Y006889D01*
X002108Y006731D02*
X002267Y006731D01*
X002446Y006572D02*
X001950Y006572D01*
X002680Y007000D02*
X004680Y007000D01*
X004359Y007365D02*
X003001Y007365D01*
X003093Y006731D02*
X004267Y006731D01*
X004446Y006572D02*
X002914Y006572D01*
X000660Y007682D02*
X005190Y007682D01*
X005190Y007840D02*
X000660Y007840D01*
X000660Y007999D02*
X005190Y007999D01*
X005190Y008157D02*
X000660Y008157D01*
X000660Y008633D02*
X001333Y008633D01*
X001351Y008615D02*
X001415Y008568D01*
X001486Y008532D01*
X001562Y008507D01*
X001640Y008495D01*
X001680Y008495D01*
X001720Y008495D01*
X001798Y008507D01*
X001874Y008532D01*
X001945Y008568D01*
X002009Y008615D01*
X002065Y008671D01*
X002112Y008735D01*
X002148Y008806D01*
X002173Y008882D01*
X002185Y008960D01*
X002185Y009000D01*
X002185Y009040D01*
X002173Y009118D01*
X002148Y009194D01*
X002112Y009265D01*
X002065Y009329D01*
X002009Y009385D01*
X001945Y009432D01*
X001874Y009468D01*
X001798Y009493D01*
X001720Y009505D01*
X001680Y009505D01*
X001680Y009000D01*
X002185Y009000D01*
X001680Y009000D01*
X001680Y009000D01*
X001680Y009000D01*
X001680Y008495D01*
X001680Y009000D01*
X001680Y009000D01*
X001680Y009000D01*
X001175Y009000D01*
X001175Y009040D01*
X001187Y009118D01*
X001212Y009194D01*
X001248Y009265D01*
X001295Y009329D01*
X001351Y009385D01*
X001415Y009432D01*
X001486Y009468D01*
X001562Y009493D01*
X001640Y009505D01*
X001680Y009505D01*
X001680Y009000D01*
X001175Y009000D01*
X001175Y008960D01*
X001187Y008882D01*
X001212Y008806D01*
X001248Y008735D01*
X001295Y008671D01*
X001351Y008615D01*
X001220Y008791D02*
X000660Y008791D01*
X000660Y008950D02*
X001177Y008950D01*
X001186Y009108D02*
X000660Y009108D01*
X000660Y009267D02*
X001249Y009267D01*
X001406Y009425D02*
X000660Y009425D01*
X001680Y009425D02*
X001680Y009425D01*
X001680Y009267D02*
X001680Y009267D01*
X001680Y009108D02*
X001680Y009108D01*
X001680Y008950D02*
X001680Y008950D01*
X001680Y008791D02*
X001680Y008791D01*
X001680Y008633D02*
X001680Y008633D01*
X002027Y008633D02*
X002362Y008633D01*
X002242Y008791D02*
X002140Y008791D01*
X002183Y008950D02*
X002195Y008950D01*
X002200Y009108D02*
X002174Y009108D01*
X002111Y009267D02*
X002265Y009267D01*
X002439Y009425D02*
X001954Y009425D01*
X002680Y009000D02*
X004680Y009000D01*
X004362Y008633D02*
X002998Y008633D01*
X003095Y009267D02*
X004265Y009267D01*
X004439Y009425D02*
X002921Y009425D01*
X001481Y010535D02*
X000660Y010535D01*
X000660Y010693D02*
X001279Y010693D01*
X001197Y010852D02*
X000660Y010852D01*
X000660Y011010D02*
X001175Y011010D01*
X001204Y011169D02*
X000660Y011169D01*
X000660Y011327D02*
X001293Y011327D01*
X000660Y011803D02*
X015723Y011803D01*
X016052Y011961D02*
X000660Y011961D01*
X000660Y012120D02*
X016210Y012120D01*
X016369Y012278D02*
X000660Y012278D01*
X000660Y012437D02*
X016527Y012437D01*
X016686Y012595D02*
X000660Y012595D01*
X000660Y012754D02*
X016844Y012754D01*
X017003Y012912D02*
X000660Y012912D01*
X000660Y013071D02*
X017161Y013071D01*
X017356Y013229D02*
X000660Y013229D01*
X000660Y013388D02*
X021228Y013388D01*
X021387Y013546D02*
X000660Y013546D01*
X000660Y013705D02*
X021545Y013705D01*
X021704Y013863D02*
X000660Y013863D01*
X000660Y014022D02*
X021862Y014022D01*
X022021Y014180D02*
X000660Y014180D01*
X000660Y014339D02*
X022179Y014339D01*
X022338Y014497D02*
X000660Y014497D01*
X000660Y014656D02*
X002892Y014656D01*
X002927Y014621D02*
X003091Y014553D01*
X003269Y014553D01*
X003433Y014621D01*
X003559Y014747D01*
X003627Y014911D01*
X003627Y015089D01*
X003559Y015253D01*
X003433Y015379D01*
X003269Y015447D01*
X003091Y015447D01*
X002927Y015379D01*
X002801Y015253D01*
X002733Y015089D01*
X002733Y014911D01*
X002801Y014747D01*
X002927Y014621D01*
X002773Y014814D02*
X000660Y014814D01*
X000660Y014973D02*
X002733Y014973D01*
X002750Y015131D02*
X000660Y015131D01*
X000660Y015290D02*
X002837Y015290D01*
X003523Y015290D02*
X003837Y015290D01*
X003801Y015253D02*
X003733Y015089D01*
X003733Y014911D01*
X003801Y014747D01*
X003927Y014621D01*
X004091Y014553D01*
X004269Y014553D01*
X004433Y014621D01*
X004559Y014747D01*
X004627Y014911D01*
X004627Y015089D01*
X004559Y015253D01*
X004433Y015379D01*
X004269Y015447D01*
X004091Y015447D01*
X003927Y015379D01*
X003801Y015253D01*
X003750Y015131D02*
X003610Y015131D01*
X003627Y014973D02*
X003733Y014973D01*
X003773Y014814D02*
X003587Y014814D01*
X003468Y014656D02*
X003892Y014656D01*
X004468Y014656D02*
X004892Y014656D01*
X004927Y014621D02*
X005091Y014553D01*
X005269Y014553D01*
X005433Y014621D01*
X005559Y014747D01*
X005627Y014911D01*
X005627Y015089D01*
X005559Y015253D01*
X005433Y015379D01*
X005269Y015447D01*
X005091Y015447D01*
X004927Y015379D01*
X004801Y015253D01*
X004733Y015089D01*
X004733Y014911D01*
X004801Y014747D01*
X004927Y014621D01*
X004773Y014814D02*
X004587Y014814D01*
X004627Y014973D02*
X004733Y014973D01*
X004750Y015131D02*
X004610Y015131D01*
X004523Y015290D02*
X004837Y015290D01*
X005523Y015290D02*
X005813Y015290D01*
X005824Y015304D02*
X005781Y015245D01*
X005747Y015179D01*
X005724Y015109D01*
X005713Y015037D01*
X005713Y015014D01*
X006166Y015014D01*
X006166Y015467D01*
X006143Y015467D01*
X006071Y015456D01*
X006001Y015433D01*
X005935Y015399D01*
X005876Y015356D01*
X005824Y015304D01*
X005732Y015131D02*
X005610Y015131D01*
X005627Y014973D02*
X005713Y014973D01*
X005713Y014963D02*
X005724Y014891D01*
X005747Y014821D01*
X005781Y014755D01*
X005824Y014696D01*
X005876Y014644D01*
X005935Y014601D01*
X006001Y014567D01*
X006071Y014544D01*
X006143Y014533D01*
X006166Y014533D01*
X006166Y014986D01*
X006194Y014986D01*
X006194Y015014D01*
X006647Y015014D01*
X006647Y015037D01*
X006636Y015109D01*
X006613Y015179D01*
X006579Y015245D01*
X006536Y015304D01*
X006484Y015356D01*
X006425Y015399D01*
X006359Y015433D01*
X006289Y015456D01*
X006217Y015467D01*
X006194Y015467D01*
X006194Y015014D01*
X006166Y015014D01*
X006166Y014986D01*
X005713Y014986D01*
X005713Y014963D01*
X005751Y014814D02*
X005587Y014814D01*
X005468Y014656D02*
X005864Y014656D01*
X006166Y014656D02*
X006194Y014656D01*
X006194Y014533D02*
X006217Y014533D01*
X006289Y014544D01*
X006359Y014567D01*
X006425Y014601D01*
X006484Y014644D01*
X006536Y014696D01*
X006579Y014755D01*
X006613Y014821D01*
X006636Y014891D01*
X006647Y014963D01*
X006647Y014986D01*
X006194Y014986D01*
X006194Y014533D01*
X006194Y014814D02*
X006166Y014814D01*
X006166Y014973D02*
X006194Y014973D01*
X006194Y015131D02*
X006166Y015131D01*
X006166Y015290D02*
X006194Y015290D01*
X006194Y015448D02*
X006166Y015448D01*
X006048Y015448D02*
X000660Y015448D01*
X000660Y015607D02*
X022440Y015607D01*
X022440Y015765D02*
X000660Y015765D01*
X000660Y015924D02*
X022440Y015924D01*
X022440Y016082D02*
X000660Y016082D01*
X000660Y016241D02*
X022440Y016241D01*
X022440Y016399D02*
X000660Y016399D01*
X000660Y016558D02*
X022440Y016558D01*
X022440Y016716D02*
X000660Y016716D01*
X000660Y016875D02*
X022440Y016875D01*
X022440Y017033D02*
X000660Y017033D01*
X000660Y017192D02*
X022440Y017192D01*
X022440Y017350D02*
X000660Y017350D01*
X000660Y017509D02*
X022440Y017509D01*
X022440Y017667D02*
X000660Y017667D01*
X000660Y017826D02*
X022440Y017826D01*
X022440Y017984D02*
X000660Y017984D01*
X000660Y018143D02*
X022483Y018143D01*
X022642Y018301D02*
X000660Y018301D01*
X000660Y018460D02*
X022800Y018460D01*
X022959Y018618D02*
X000660Y018618D01*
X000660Y018777D02*
X023117Y018777D01*
X023276Y018935D02*
X000660Y018935D01*
X000660Y019094D02*
X023434Y019094D01*
X023593Y019252D02*
X000660Y019252D01*
X000660Y019411D02*
X023751Y019411D01*
X023910Y019569D02*
X000660Y019569D01*
X000660Y019728D02*
X005095Y019728D01*
X005068Y019732D02*
X005142Y019720D01*
X005160Y019720D01*
X005160Y020480D01*
X005200Y020480D01*
X005200Y020520D01*
X005660Y020520D01*
X005660Y020838D01*
X005648Y020912D01*
X005625Y020984D01*
X005591Y021052D01*
X005546Y021113D01*
X005493Y021166D01*
X005432Y021211D01*
X005364Y021245D01*
X005292Y021268D01*
X005218Y021280D01*
X005200Y021280D01*
X005200Y020520D01*
X005160Y020520D01*
X005160Y021280D01*
X005142Y021280D01*
X005068Y021268D01*
X004996Y021245D01*
X004928Y021211D01*
X004867Y021166D01*
X004814Y021113D01*
X004769Y021052D01*
X004735Y020984D01*
X004712Y020912D01*
X004700Y020838D01*
X004700Y020520D01*
X005160Y020520D01*
X005160Y020480D01*
X004700Y020480D01*
X004700Y020162D01*
X004712Y020088D01*
X004735Y020016D01*
X004769Y019948D01*
X004814Y019887D01*
X004867Y019834D01*
X004928Y019789D01*
X004996Y019755D01*
X005068Y019732D01*
X005160Y019728D02*
X005200Y019728D01*
X005200Y019720D02*
X005218Y019720D01*
X005292Y019732D01*
X005364Y019755D01*
X005432Y019789D01*
X005493Y019834D01*
X005546Y019887D01*
X005591Y019948D01*
X005625Y020016D01*
X005648Y020088D01*
X005660Y020162D01*
X005660Y020480D01*
X005200Y020480D01*
X005200Y019720D01*
X005265Y019728D02*
X013595Y019728D01*
X013568Y019732D02*
X013642Y019720D01*
X013660Y019720D01*
X013660Y020480D01*
X013700Y020480D01*
X013700Y020520D01*
X014160Y020520D01*
X014160Y020838D01*
X014148Y020912D01*
X014125Y020984D01*
X014091Y021052D01*
X014046Y021113D01*
X013993Y021166D01*
X013932Y021211D01*
X013864Y021245D01*
X013792Y021268D01*
X013718Y021280D01*
X013700Y021280D01*
X013700Y020520D01*
X013660Y020520D01*
X013660Y021280D01*
X013642Y021280D01*
X013568Y021268D01*
X013496Y021245D01*
X013428Y021211D01*
X013367Y021166D01*
X013314Y021113D01*
X013269Y021052D01*
X013235Y020984D01*
X013212Y020912D01*
X013200Y020838D01*
X013200Y020520D01*
X013660Y020520D01*
X013660Y020480D01*
X013200Y020480D01*
X013200Y020162D01*
X013212Y020088D01*
X013235Y020016D01*
X013269Y019948D01*
X013314Y019887D01*
X013367Y019834D01*
X013428Y019789D01*
X013496Y019755D01*
X013568Y019732D01*
X013660Y019728D02*
X013700Y019728D01*
X013700Y019720D02*
X013718Y019720D01*
X013792Y019732D01*
X013864Y019755D01*
X013932Y019789D01*
X013993Y019834D01*
X014046Y019887D01*
X014091Y019948D01*
X014125Y020016D01*
X014148Y020088D01*
X014160Y020162D01*
X014160Y020480D01*
X013700Y020480D01*
X013700Y019720D01*
X013765Y019728D02*
X024068Y019728D01*
X024227Y019886D02*
X015017Y019886D01*
X015114Y020045D02*
X016371Y020045D01*
X016392Y020030D02*
X016469Y019990D01*
X016551Y019964D01*
X016637Y019950D01*
X016671Y019950D01*
X016671Y020491D01*
X016130Y020491D01*
X016130Y020457D01*
X016144Y020371D01*
X016170Y020289D01*
X016210Y020212D01*
X016260Y020142D01*
X016322Y020080D01*
X016392Y020030D01*
X016216Y020203D02*
X015140Y020203D01*
X015381Y020362D02*
X016147Y020362D01*
X016130Y020520D02*
X015539Y020520D01*
X015698Y020679D02*
X016160Y020679D01*
X016245Y020837D02*
X015856Y020837D01*
X016015Y020996D02*
X016441Y020996D01*
X016671Y020996D02*
X016689Y020996D01*
X016689Y020837D02*
X016671Y020837D01*
X016671Y020679D02*
X016689Y020679D01*
X016689Y020520D02*
X016671Y020520D01*
X016671Y020362D02*
X016689Y020362D01*
X016689Y020203D02*
X016671Y020203D01*
X016671Y020045D02*
X016689Y020045D01*
X016989Y020045D02*
X017395Y020045D01*
X017229Y020203D02*
X017144Y020203D01*
X017680Y020500D02*
X017680Y022000D01*
X017301Y021630D02*
X017059Y021630D01*
X017166Y021788D02*
X017194Y021788D01*
X017440Y021471D02*
X016788Y021471D01*
X016572Y021471D02*
X016490Y021471D01*
X016332Y021313D02*
X017440Y021313D01*
X017440Y021154D02*
X016173Y021154D01*
X015812Y021471D02*
X010420Y021471D01*
X010420Y021313D02*
X015653Y021313D01*
X015495Y021154D02*
X014977Y021154D01*
X015097Y020996D02*
X015336Y020996D01*
X015178Y020837D02*
X015140Y020837D01*
X015180Y020500D02*
X014680Y020500D01*
X014220Y020520D02*
X014160Y020520D01*
X014160Y020362D02*
X014220Y020362D01*
X014220Y020203D02*
X014160Y020203D01*
X014134Y020045D02*
X014246Y020045D01*
X014343Y019886D02*
X014045Y019886D01*
X013700Y019886D02*
X013660Y019886D01*
X013660Y020045D02*
X013700Y020045D01*
X013700Y020203D02*
X013660Y020203D01*
X013660Y020362D02*
X013700Y020362D01*
X013700Y020520D02*
X013660Y020520D01*
X013660Y020679D02*
X013700Y020679D01*
X013700Y020837D02*
X013660Y020837D01*
X013660Y020996D02*
X013700Y020996D01*
X013700Y021154D02*
X013660Y021154D01*
X013355Y021154D02*
X012977Y021154D01*
X012941Y021190D02*
X012771Y021260D01*
X012588Y021260D01*
X012419Y021190D01*
X012290Y021061D01*
X012220Y020891D01*
X012220Y020108D01*
X012290Y019939D01*
X012419Y019810D01*
X012588Y019740D01*
X012771Y019740D01*
X012941Y019810D01*
X013070Y019939D01*
X013140Y020108D01*
X013140Y020891D01*
X013070Y021061D01*
X012941Y021190D01*
X013097Y020996D02*
X013241Y020996D01*
X013200Y020837D02*
X013140Y020837D01*
X013140Y020679D02*
X013200Y020679D01*
X013200Y020520D02*
X013140Y020520D01*
X013140Y020362D02*
X013200Y020362D01*
X013200Y020203D02*
X013140Y020203D01*
X013114Y020045D02*
X013226Y020045D01*
X013315Y019886D02*
X013017Y019886D01*
X012343Y019886D02*
X007517Y019886D01*
X007570Y019939D02*
X007441Y019810D01*
X007271Y019740D01*
X007088Y019740D01*
X006919Y019810D01*
X006790Y019939D01*
X006720Y020108D01*
X006720Y020891D01*
X006790Y021061D01*
X006919Y021190D01*
X007088Y021260D01*
X007271Y021260D01*
X007441Y021190D01*
X007570Y021061D01*
X007640Y020891D01*
X007640Y020108D01*
X007570Y019939D01*
X007614Y020045D02*
X008871Y020045D01*
X008892Y020030D02*
X008822Y020080D01*
X008760Y020142D01*
X008710Y020212D01*
X008670Y020289D01*
X008644Y020371D01*
X008630Y020457D01*
X008630Y020491D01*
X009171Y020491D01*
X009171Y019950D01*
X009137Y019950D01*
X009051Y019964D01*
X008969Y019990D01*
X008892Y020030D01*
X008716Y020203D02*
X007640Y020203D01*
X007640Y020362D02*
X008647Y020362D01*
X008630Y020520D02*
X007640Y020520D01*
X007640Y020679D02*
X008660Y020679D01*
X008745Y020837D02*
X007640Y020837D01*
X007597Y020996D02*
X008941Y020996D01*
X009171Y020996D02*
X009189Y020996D01*
X009189Y020837D02*
X009171Y020837D01*
X009171Y020679D02*
X009189Y020679D01*
X009189Y020520D02*
X009171Y020520D01*
X009171Y020362D02*
X009189Y020362D01*
X009189Y020203D02*
X009171Y020203D01*
X009171Y020045D02*
X009189Y020045D01*
X009489Y020045D02*
X009895Y020045D01*
X009729Y020203D02*
X009644Y020203D01*
X010180Y020500D02*
X010180Y022000D01*
X010559Y021630D02*
X015970Y021630D01*
X016129Y021788D02*
X010666Y021788D01*
X010710Y021947D02*
X016150Y021947D01*
X016150Y022105D02*
X016231Y022300D01*
X016380Y022449D01*
X016541Y022516D01*
X010319Y022516D01*
X010480Y022449D01*
X010629Y022300D01*
X010710Y022105D01*
X010645Y022264D02*
X016215Y022264D01*
X016353Y022422D02*
X010507Y022422D01*
X009694Y021788D02*
X009666Y021788D01*
X009559Y021630D02*
X009801Y021630D01*
X009940Y021471D02*
X009288Y021471D01*
X009072Y021471D02*
X008990Y021471D01*
X008832Y021313D02*
X009940Y021313D01*
X009940Y021154D02*
X007477Y021154D01*
X006883Y021154D02*
X006477Y021154D01*
X006597Y020996D02*
X006763Y020996D01*
X006720Y020837D02*
X006640Y020837D01*
X006640Y020679D02*
X006720Y020679D01*
X006720Y020520D02*
X006640Y020520D01*
X006640Y020362D02*
X006720Y020362D01*
X006720Y020203D02*
X006640Y020203D01*
X006614Y020045D02*
X006746Y020045D01*
X006843Y019886D02*
X006517Y019886D01*
X005843Y019886D02*
X005545Y019886D01*
X005634Y020045D02*
X005746Y020045D01*
X005720Y020203D02*
X005660Y020203D01*
X005660Y020362D02*
X005720Y020362D01*
X005720Y020520D02*
X005660Y020520D01*
X005660Y020679D02*
X005720Y020679D01*
X005720Y020837D02*
X005660Y020837D01*
X005619Y020996D02*
X005763Y020996D01*
X005883Y021154D02*
X005505Y021154D01*
X005200Y021154D02*
X005160Y021154D01*
X005160Y020996D02*
X005200Y020996D01*
X005200Y020837D02*
X005160Y020837D01*
X005160Y020679D02*
X005200Y020679D01*
X005200Y020520D02*
X005160Y020520D01*
X005160Y020362D02*
X005200Y020362D01*
X005200Y020203D02*
X005160Y020203D01*
X005160Y020045D02*
X005200Y020045D01*
X005200Y019886D02*
X005160Y019886D01*
X004815Y019886D02*
X000660Y019886D01*
X000660Y020045D02*
X004726Y020045D01*
X004700Y020203D02*
X000660Y020203D01*
X000660Y020362D02*
X004700Y020362D01*
X004700Y020520D02*
X002243Y020520D01*
X002457Y020679D02*
X004700Y020679D01*
X004700Y020837D02*
X002602Y020837D01*
X002694Y020996D02*
X004741Y020996D01*
X004855Y021154D02*
X002757Y021154D01*
X002800Y021313D02*
X005940Y021313D01*
X005940Y021471D02*
X002810Y021471D01*
X002810Y021630D02*
X005974Y021630D01*
X006180Y021500D02*
X006180Y020500D01*
X006180Y021500D02*
X008680Y021500D01*
X009180Y022000D01*
X008650Y022105D02*
X008650Y021895D01*
X008629Y021788D02*
X002773Y021788D01*
X002515Y022264D02*
X008715Y022264D01*
X008853Y022422D02*
X002343Y022422D01*
X000666Y020996D02*
X000660Y020996D01*
X000660Y020837D02*
X000758Y020837D01*
X000660Y020679D02*
X000903Y020679D01*
X001117Y020520D02*
X000660Y020520D01*
X006312Y015448D02*
X022440Y015448D01*
X021837Y015290D02*
X021523Y015290D01*
X021559Y015253D02*
X021433Y015379D01*
X021269Y015447D01*
X021091Y015447D01*
X020927Y015379D01*
X020801Y015253D01*
X020733Y015089D01*
X020733Y014911D01*
X020801Y014747D01*
X020927Y014621D01*
X021091Y014553D01*
X021269Y014553D01*
X021433Y014621D01*
X021559Y014747D01*
X021627Y014911D01*
X021627Y015089D01*
X021559Y015253D01*
X021610Y015131D02*
X021750Y015131D01*
X021733Y014973D02*
X021627Y014973D01*
X021587Y014814D02*
X021773Y014814D01*
X021892Y014656D02*
X021468Y014656D01*
X020892Y014656D02*
X020468Y014656D01*
X020433Y014621D02*
X020559Y014747D01*
X020627Y014911D01*
X020627Y015089D01*
X020559Y015253D01*
X020433Y015379D01*
X020269Y015447D01*
X020091Y015447D01*
X019927Y015379D01*
X019801Y015253D01*
X019733Y015089D01*
X019733Y014911D01*
X019801Y014747D01*
X019927Y014621D01*
X020091Y014553D01*
X020269Y014553D01*
X020433Y014621D01*
X020587Y014814D02*
X020773Y014814D01*
X020733Y014973D02*
X020627Y014973D01*
X020610Y015131D02*
X020750Y015131D01*
X020837Y015290D02*
X020523Y015290D01*
X019837Y015290D02*
X019523Y015290D01*
X019559Y015253D02*
X019433Y015379D01*
X019269Y015447D01*
X019091Y015447D01*
X018927Y015379D01*
X018801Y015253D01*
X018733Y015089D01*
X018733Y014911D01*
X018801Y014747D01*
X018927Y014621D01*
X019091Y014553D01*
X019269Y014553D01*
X019433Y014621D01*
X019559Y014747D01*
X019627Y014911D01*
X019627Y015089D01*
X019559Y015253D01*
X019610Y015131D02*
X019750Y015131D01*
X019733Y014973D02*
X019627Y014973D01*
X019587Y014814D02*
X019773Y014814D01*
X019892Y014656D02*
X019468Y014656D01*
X018892Y014656D02*
X018468Y014656D01*
X018433Y014621D02*
X018559Y014747D01*
X018627Y014911D01*
X018627Y015089D01*
X018559Y015253D01*
X018433Y015379D01*
X018269Y015447D01*
X018091Y015447D01*
X017927Y015379D01*
X017801Y015253D01*
X017733Y015089D01*
X017733Y014911D01*
X017801Y014747D01*
X017927Y014621D01*
X018091Y014553D01*
X018269Y014553D01*
X018433Y014621D01*
X018587Y014814D02*
X018773Y014814D01*
X018733Y014973D02*
X018627Y014973D01*
X018610Y015131D02*
X018750Y015131D01*
X018837Y015290D02*
X018523Y015290D01*
X017837Y015290D02*
X006547Y015290D01*
X006628Y015131D02*
X017750Y015131D01*
X017733Y014973D02*
X006647Y014973D01*
X006609Y014814D02*
X017773Y014814D01*
X017892Y014656D02*
X006496Y014656D01*
X012393Y011486D02*
X012921Y011486D01*
X012738Y011327D02*
X012603Y011327D01*
X013171Y011327D02*
X013189Y011327D01*
X013189Y011169D02*
X013171Y011169D01*
X013171Y011010D02*
X013189Y011010D01*
X013189Y010991D02*
X013730Y010991D01*
X013730Y010957D01*
X013716Y010871D01*
X013690Y010789D01*
X013650Y010712D01*
X013600Y010642D01*
X013538Y010580D01*
X013468Y010530D01*
X013391Y010490D01*
X013309Y010464D01*
X013223Y010450D01*
X013189Y010450D01*
X013189Y010991D01*
X013189Y010852D02*
X013171Y010852D01*
X013171Y010693D02*
X013189Y010693D01*
X013189Y010535D02*
X013171Y010535D01*
X013475Y010535D02*
X016820Y010535D01*
X016870Y010693D02*
X016630Y010693D01*
X016758Y010852D02*
X017088Y010852D01*
X017180Y010500D02*
X018180Y011500D01*
X017730Y011961D02*
X021302Y011961D01*
X021460Y012120D02*
X017889Y012120D01*
X017572Y011803D02*
X021143Y011803D01*
X018539Y009425D02*
X024764Y009425D01*
X025400Y009110D02*
X026680Y009110D01*
X027960Y009110D01*
X029180Y009110D01*
X029180Y009500D01*
X029608Y009267D02*
X029752Y009267D01*
X029695Y009425D02*
X029665Y009425D01*
X029665Y009584D02*
X029695Y009584D01*
X029755Y009742D02*
X029605Y009742D01*
X029465Y009901D02*
X029895Y009901D01*
X030465Y009901D02*
X031331Y009901D01*
X031207Y009742D02*
X030605Y009742D01*
X030180Y009500D02*
X031680Y009500D01*
X031322Y009108D02*
X030474Y009108D01*
X029886Y009108D02*
X029474Y009108D01*
X029359Y008950D02*
X034440Y008950D01*
X034440Y008791D02*
X028592Y008791D01*
X028596Y009425D02*
X028695Y009425D01*
X028695Y009584D02*
X026920Y009584D01*
X026920Y009742D02*
X028755Y009742D01*
X028895Y009901D02*
X026920Y009901D01*
X026920Y010059D02*
X032440Y010059D01*
X032440Y010218D02*
X030907Y010218D01*
X030680Y010500D02*
X030680Y014500D01*
X027180Y014500D01*
X027180Y016000D01*
X027600Y015924D02*
X027760Y015924D01*
X027760Y016082D02*
X027600Y016082D01*
X027600Y016241D02*
X027760Y016241D01*
X027783Y016399D02*
X027577Y016399D01*
X027476Y016558D02*
X027884Y016558D01*
X028476Y016558D02*
X028884Y016558D01*
X028942Y016616D02*
X028824Y016498D01*
X028760Y016344D01*
X028760Y015656D01*
X028824Y015502D01*
X028942Y015384D01*
X029096Y015320D01*
X029264Y015320D01*
X029418Y015384D01*
X029536Y015502D01*
X029600Y015656D01*
X029600Y016344D01*
X029536Y016498D01*
X029418Y016616D01*
X029264Y016680D01*
X029096Y016680D01*
X028942Y016616D01*
X028783Y016399D02*
X028577Y016399D01*
X028600Y016241D02*
X028760Y016241D01*
X028760Y016082D02*
X028600Y016082D01*
X028600Y015924D02*
X028760Y015924D01*
X028760Y015765D02*
X028600Y015765D01*
X028579Y015607D02*
X028781Y015607D01*
X028878Y015448D02*
X028482Y015448D01*
X028420Y015290D02*
X031940Y015290D01*
X031940Y015131D02*
X031386Y015131D01*
X031420Y014973D02*
X031940Y014973D01*
X031940Y014814D02*
X031420Y014814D01*
X031420Y014656D02*
X031940Y014656D01*
X031940Y014497D02*
X031420Y014497D01*
X031420Y014339D02*
X031940Y014339D01*
X031940Y014180D02*
X031420Y014180D01*
X031420Y014022D02*
X031940Y014022D01*
X031940Y013863D02*
X031420Y013863D01*
X031420Y013705D02*
X031940Y013705D01*
X031940Y013546D02*
X031420Y013546D01*
X031420Y013388D02*
X031940Y013388D01*
X031856Y013229D02*
X031420Y013229D01*
X031420Y013071D02*
X031699Y013071D01*
X031690Y012912D02*
X031420Y012912D01*
X031420Y012754D02*
X031690Y012754D01*
X031690Y012595D02*
X031420Y012595D01*
X031420Y012437D02*
X031690Y012437D01*
X031690Y012278D02*
X031420Y012278D01*
X031420Y012120D02*
X031690Y012120D01*
X031690Y011961D02*
X031420Y011961D01*
X031420Y011803D02*
X031690Y011803D01*
X031690Y011644D02*
X031420Y011644D01*
X031420Y011486D02*
X031690Y011486D01*
X031690Y011327D02*
X031420Y011327D01*
X031420Y011169D02*
X031704Y011169D01*
X031882Y011010D02*
X034440Y011010D01*
X034440Y010693D02*
X032826Y010693D01*
X032920Y010535D02*
X034440Y010535D01*
X034440Y010376D02*
X032920Y010376D01*
X032920Y010218D02*
X034440Y010218D01*
X034440Y010059D02*
X032920Y010059D01*
X033029Y009901D02*
X033331Y009901D01*
X033207Y009742D02*
X033153Y009742D01*
X032680Y009500D02*
X032680Y010500D01*
X031180Y010500D01*
X031180Y015000D01*
X028180Y015000D01*
X028180Y016000D01*
X027760Y015765D02*
X027600Y015765D01*
X027579Y015607D02*
X027781Y015607D01*
X027878Y015448D02*
X027482Y015448D01*
X027420Y015290D02*
X027940Y015290D01*
X027940Y015131D02*
X027420Y015131D01*
X027420Y014973D02*
X027940Y014973D01*
X028027Y014814D02*
X027420Y014814D01*
X026940Y014814D02*
X026420Y014814D01*
X026420Y014656D02*
X026940Y014656D01*
X026940Y014497D02*
X026420Y014497D01*
X026420Y014339D02*
X027002Y014339D01*
X026420Y014180D02*
X030440Y014180D01*
X030440Y014022D02*
X026420Y014022D01*
X026420Y013863D02*
X030440Y013863D01*
X030440Y013705D02*
X026420Y013705D01*
X026420Y013546D02*
X030440Y013546D01*
X030440Y013388D02*
X026420Y013388D01*
X026420Y013229D02*
X030440Y013229D01*
X030440Y013071D02*
X026420Y013071D01*
X026420Y012912D02*
X030440Y012912D01*
X030440Y012754D02*
X026420Y012754D01*
X026420Y012595D02*
X030440Y012595D01*
X030440Y012437D02*
X026420Y012437D01*
X026420Y012278D02*
X030440Y012278D01*
X030440Y012120D02*
X026420Y012120D01*
X026420Y011961D02*
X030440Y011961D01*
X030440Y011803D02*
X026420Y011803D01*
X026180Y011500D02*
X026680Y011500D01*
X026680Y009110D01*
X026440Y009425D02*
X026036Y009425D01*
X026920Y009425D02*
X027324Y009425D01*
X027328Y008791D02*
X026032Y008791D01*
X025738Y010410D02*
X025420Y010410D01*
X025420Y010870D01*
X026180Y010870D01*
X026180Y010852D01*
X026168Y010778D01*
X026145Y010706D01*
X026111Y010638D01*
X026066Y010577D01*
X026013Y010524D01*
X025952Y010479D01*
X025884Y010445D01*
X025812Y010422D01*
X025738Y010410D01*
X026023Y010535D02*
X026440Y010535D01*
X026440Y010693D02*
X026138Y010693D01*
X026180Y010852D02*
X026440Y010852D01*
X026440Y011010D02*
X026166Y011010D01*
X026168Y011002D02*
X026145Y011074D01*
X026111Y011142D01*
X026066Y011203D01*
X026013Y011256D01*
X025952Y011301D01*
X025884Y011335D01*
X025812Y011358D01*
X025738Y011370D01*
X025420Y011370D01*
X025420Y010910D01*
X026180Y010910D01*
X026180Y010928D01*
X026168Y011002D01*
X026091Y011169D02*
X026440Y011169D01*
X026180Y011500D02*
X026180Y016000D01*
X026600Y015924D02*
X026760Y015924D01*
X026760Y016082D02*
X026600Y016082D01*
X026600Y016241D02*
X026760Y016241D01*
X026783Y016399D02*
X026577Y016399D01*
X026476Y016558D02*
X026884Y016558D01*
X026760Y015765D02*
X026600Y015765D01*
X026579Y015607D02*
X026781Y015607D01*
X026878Y015448D02*
X026482Y015448D01*
X026420Y015290D02*
X026940Y015290D01*
X026940Y015131D02*
X026420Y015131D01*
X026420Y014973D02*
X026940Y014973D01*
X029482Y015448D02*
X029878Y015448D01*
X029824Y015502D02*
X029942Y015384D01*
X030096Y015320D01*
X030264Y015320D01*
X030418Y015384D01*
X030536Y015502D01*
X030600Y015656D01*
X030600Y016344D01*
X030536Y016498D01*
X030418Y016616D01*
X030264Y016680D01*
X030096Y016680D01*
X029942Y016616D01*
X029824Y016498D01*
X029760Y016344D01*
X029760Y015656D01*
X029824Y015502D01*
X029781Y015607D02*
X029579Y015607D01*
X029600Y015765D02*
X029760Y015765D01*
X029760Y015924D02*
X029600Y015924D01*
X029600Y016082D02*
X029760Y016082D01*
X029760Y016241D02*
X029600Y016241D01*
X029577Y016399D02*
X029783Y016399D01*
X029884Y016558D02*
X029476Y016558D01*
X030476Y016558D02*
X030884Y016558D01*
X030942Y016616D02*
X030824Y016498D01*
X030760Y016344D01*
X030760Y015656D01*
X030824Y015502D01*
X030942Y015384D01*
X031096Y015320D01*
X031264Y015320D01*
X031418Y015384D01*
X031536Y015502D01*
X031600Y015656D01*
X031600Y016344D01*
X031536Y016498D01*
X031418Y016616D01*
X031264Y016680D01*
X031096Y016680D01*
X030942Y016616D01*
X030783Y016399D02*
X030577Y016399D01*
X030600Y016241D02*
X030760Y016241D01*
X030760Y016082D02*
X030600Y016082D01*
X030600Y015924D02*
X030760Y015924D01*
X030760Y015765D02*
X030600Y015765D01*
X030579Y015607D02*
X030781Y015607D01*
X030878Y015448D02*
X030482Y015448D01*
X030864Y014656D02*
X030940Y014656D01*
X030940Y014497D02*
X030920Y014497D01*
X030920Y014339D02*
X030940Y014339D01*
X030940Y014180D02*
X030920Y014180D01*
X030920Y014022D02*
X030940Y014022D01*
X030940Y013863D02*
X030920Y013863D01*
X030920Y013705D02*
X030940Y013705D01*
X030940Y013546D02*
X030920Y013546D01*
X030920Y013388D02*
X030940Y013388D01*
X030940Y013229D02*
X030920Y013229D01*
X030920Y013071D02*
X030940Y013071D01*
X030940Y012912D02*
X030920Y012912D01*
X030920Y012754D02*
X030940Y012754D01*
X030940Y012595D02*
X030920Y012595D01*
X030920Y012437D02*
X030940Y012437D01*
X030940Y012278D02*
X030920Y012278D01*
X030920Y012120D02*
X030940Y012120D01*
X030940Y011961D02*
X030920Y011961D01*
X030920Y011803D02*
X030940Y011803D01*
X030940Y011644D02*
X030920Y011644D01*
X030920Y011486D02*
X030940Y011486D01*
X030940Y011327D02*
X030920Y011327D01*
X030920Y011169D02*
X030940Y011169D01*
X030940Y011010D02*
X030920Y011010D01*
X030920Y010852D02*
X030940Y010852D01*
X030440Y010852D02*
X028740Y010852D01*
X028728Y010778D01*
X028705Y010706D01*
X028671Y010638D01*
X028626Y010577D01*
X028573Y010524D01*
X028512Y010479D01*
X028444Y010445D01*
X028372Y010422D01*
X028298Y010410D01*
X027980Y010410D01*
X027980Y010870D01*
X027980Y010910D01*
X027940Y010910D01*
X027940Y011370D01*
X027622Y011370D01*
X027548Y011358D01*
X027476Y011335D01*
X027408Y011301D01*
X027347Y011256D01*
X027294Y011203D01*
X027249Y011142D01*
X027215Y011074D01*
X027192Y011002D01*
X027180Y010928D01*
X027180Y010910D01*
X027940Y010910D01*
X027940Y010870D01*
X027980Y010870D01*
X028740Y010870D01*
X028740Y010852D01*
X028740Y010910D02*
X028740Y010928D01*
X028728Y011002D01*
X028705Y011074D01*
X028671Y011142D01*
X028626Y011203D01*
X028573Y011256D01*
X028512Y011301D01*
X028444Y011335D01*
X028372Y011358D01*
X028298Y011370D01*
X027980Y011370D01*
X027980Y010910D01*
X028740Y010910D01*
X028726Y011010D02*
X030440Y011010D01*
X030440Y011169D02*
X028651Y011169D01*
X028460Y011327D02*
X030440Y011327D01*
X030440Y011486D02*
X026920Y011486D01*
X026920Y011327D02*
X027460Y011327D01*
X027269Y011169D02*
X026920Y011169D01*
X026920Y011010D02*
X027194Y011010D01*
X027180Y010870D02*
X027180Y010852D01*
X027192Y010778D01*
X027215Y010706D01*
X027249Y010638D01*
X027294Y010577D01*
X027347Y010524D01*
X027408Y010479D01*
X027476Y010445D01*
X027548Y010422D01*
X027622Y010410D01*
X027940Y010410D01*
X027940Y010870D01*
X027180Y010870D01*
X027180Y010852D02*
X026920Y010852D01*
X026920Y010693D02*
X027222Y010693D01*
X027337Y010535D02*
X026920Y010535D01*
X026920Y010376D02*
X030342Y010376D01*
X030320Y010535D02*
X028583Y010535D01*
X028698Y010693D02*
X030370Y010693D01*
X030453Y010218D02*
X026920Y010218D01*
X027940Y010535D02*
X027980Y010535D01*
X027980Y010693D02*
X027940Y010693D01*
X027940Y010852D02*
X027980Y010852D01*
X027980Y011010D02*
X027940Y011010D01*
X027940Y011169D02*
X027980Y011169D01*
X027980Y011327D02*
X027940Y011327D01*
X026875Y011644D02*
X030440Y011644D01*
X031930Y011250D02*
X034680Y011250D01*
X034680Y009500D01*
X034680Y007500D01*
X032680Y007500D01*
X028180Y003000D01*
X028539Y002610D02*
X028821Y002610D01*
X028702Y002768D02*
X028658Y002768D01*
X029539Y002610D02*
X029821Y002610D01*
X029702Y002768D02*
X029658Y002768D01*
X029653Y003244D02*
X029707Y003244D01*
X029832Y003402D02*
X029528Y003402D01*
X029080Y003561D02*
X031940Y003561D01*
X031940Y003719D02*
X029238Y003719D01*
X029397Y003878D02*
X031940Y003878D01*
X031940Y004036D02*
X029555Y004036D01*
X029714Y004195D02*
X031940Y004195D01*
X031940Y004353D02*
X029872Y004353D01*
X030031Y004512D02*
X031940Y004512D01*
X032011Y004670D02*
X030189Y004670D01*
X030348Y004829D02*
X033169Y004829D01*
X033328Y004987D02*
X030506Y004987D01*
X030665Y005146D02*
X033486Y005146D01*
X033645Y005304D02*
X030823Y005304D01*
X030982Y005463D02*
X033803Y005463D01*
X033962Y005621D02*
X031140Y005621D01*
X031299Y005780D02*
X034120Y005780D01*
X034279Y005938D02*
X031457Y005938D01*
X031616Y006097D02*
X034437Y006097D01*
X034596Y006255D02*
X031774Y006255D01*
X031933Y006414D02*
X034754Y006414D01*
X034913Y006572D02*
X032091Y006572D01*
X032250Y006731D02*
X035071Y006731D01*
X035230Y006889D02*
X032408Y006889D01*
X032567Y007048D02*
X035388Y007048D01*
X035547Y007206D02*
X032725Y007206D01*
X032364Y007523D02*
X022845Y007523D01*
X022905Y007365D02*
X032205Y007365D01*
X032047Y007206D02*
X022905Y007206D01*
X022846Y007048D02*
X031888Y007048D01*
X031730Y006889D02*
X022707Y006889D01*
X022938Y006572D02*
X017422Y006572D01*
X017625Y006414D02*
X022735Y006414D01*
X022636Y006255D02*
X017724Y006255D01*
X017773Y006097D02*
X022587Y006097D01*
X023154Y005938D02*
X017206Y005938D01*
X016485Y006097D02*
X015616Y006097D01*
X015670Y006255D02*
X016533Y006255D01*
X016633Y006414D02*
X015670Y006414D01*
X015430Y006250D02*
X015430Y007000D01*
X015774Y006889D02*
X018153Y006889D01*
X018451Y005780D02*
X021909Y005780D01*
X021680Y005621D02*
X018680Y005621D01*
X018833Y005463D02*
X021527Y005463D01*
X021435Y005304D02*
X018925Y005304D01*
X018993Y005146D02*
X021367Y005146D01*
X021324Y004987D02*
X019036Y004987D01*
X019050Y004829D02*
X021310Y004829D01*
X021310Y004670D02*
X019050Y004670D01*
X019015Y004512D02*
X021345Y004512D01*
X021388Y004353D02*
X018972Y004353D01*
X018881Y004195D02*
X021479Y004195D01*
X021598Y004036D02*
X018762Y004036D01*
X018915Y003878D02*
X021766Y003878D01*
X022091Y003719D02*
X019095Y003719D01*
X019161Y003561D02*
X022199Y003561D01*
X022195Y003402D02*
X019165Y003402D01*
X019116Y003244D02*
X021358Y003244D01*
X021230Y003085D02*
X018990Y003085D01*
X018390Y003085D02*
X018130Y003085D01*
X018180Y002927D02*
X021180Y002927D01*
X021175Y002845D02*
X021175Y002819D01*
X021187Y002742D01*
X021211Y002668D01*
X021247Y002599D01*
X021293Y002536D01*
X021348Y002481D01*
X021411Y002435D01*
X021480Y002400D01*
X021554Y002375D01*
X021631Y002363D01*
X021657Y002363D01*
X021657Y002845D01*
X021175Y002845D01*
X021183Y002768D02*
X018177Y002768D01*
X018119Y002610D02*
X021241Y002610D01*
X021389Y002451D02*
X017971Y002451D01*
X018002Y003244D02*
X018264Y003244D01*
X018215Y003402D02*
X013986Y003402D01*
X012920Y003561D02*
X018219Y003561D01*
X018269Y003719D02*
X018284Y003719D01*
X017591Y003719D02*
X012920Y003719D01*
X012887Y003878D02*
X017266Y003878D01*
X015430Y006250D02*
X010991Y006250D01*
X010991Y006750D02*
X014930Y006750D01*
X014930Y007500D01*
X015264Y007365D02*
X015940Y007365D01*
X015940Y007523D02*
X015290Y007523D01*
X015244Y007682D02*
X015940Y007682D01*
X015940Y007840D02*
X015050Y007840D01*
X014810Y007840D02*
X014753Y007840D01*
X014790Y007999D02*
X015940Y007999D01*
X015940Y008157D02*
X014755Y008157D01*
X014609Y008316D02*
X015940Y008316D01*
X015952Y007206D02*
X015733Y007206D01*
X015790Y007048D02*
X016122Y007048D01*
X014430Y007250D02*
X014430Y008000D01*
X014430Y007250D02*
X010991Y007250D01*
X007369Y007250D02*
X007369Y006750D01*
X007369Y006750D01*
X007369Y006750D01*
X007369Y006952D01*
X007369Y007250D01*
X007369Y007250D01*
X006756Y007250D01*
X006756Y007108D01*
X006768Y007062D01*
X006792Y007021D01*
X006813Y007000D01*
X006792Y006979D01*
X006768Y006938D01*
X006756Y006892D01*
X006756Y006764D01*
X006540Y006979D01*
X006540Y007072D01*
X006485Y007204D01*
X006384Y007305D01*
X006252Y007360D01*
X006108Y007360D01*
X005976Y007305D01*
X005875Y007204D01*
X005820Y007072D01*
X005820Y006928D01*
X005875Y006796D01*
X005976Y006695D01*
X006108Y006640D01*
X006201Y006640D01*
X006794Y006047D01*
X006796Y006046D01*
X006842Y006000D01*
X006832Y005990D01*
X006540Y005990D01*
X006540Y006072D01*
X006485Y006204D01*
X006384Y006305D01*
X006252Y006360D01*
X006108Y006360D01*
X005976Y006305D01*
X005875Y006204D01*
X005820Y006072D01*
X005820Y005928D01*
X005875Y005796D01*
X005976Y005695D01*
X006108Y005640D01*
X006201Y005640D01*
X006294Y005547D01*
X006382Y005510D01*
X006832Y005510D01*
X006842Y005500D01*
X006832Y005490D01*
X005670Y005490D01*
X005670Y007510D01*
X006823Y007510D01*
X006792Y007479D01*
X006768Y007438D01*
X006756Y007392D01*
X006756Y007250D01*
X007369Y007250D01*
X007369Y007250D01*
X007369Y007206D02*
X007369Y007206D01*
X007369Y007048D02*
X007369Y007048D01*
X007369Y006889D02*
X007369Y006889D01*
X006777Y007048D02*
X006540Y007048D01*
X006483Y007206D02*
X006756Y007206D01*
X006756Y007365D02*
X005670Y007365D01*
X005670Y007206D02*
X005877Y007206D01*
X005820Y007048D02*
X005670Y007048D01*
X005670Y006889D02*
X005836Y006889D01*
X005940Y006731D02*
X005670Y006731D01*
X005670Y006572D02*
X006269Y006572D01*
X006427Y006414D02*
X005670Y006414D01*
X005670Y006255D02*
X005926Y006255D01*
X005830Y006097D02*
X005670Y006097D01*
X005670Y005938D02*
X005820Y005938D01*
X005891Y005780D02*
X005670Y005780D01*
X005670Y005621D02*
X006220Y005621D01*
X006430Y005750D02*
X006180Y006000D01*
X006430Y005750D02*
X007369Y005750D01*
X007369Y006250D02*
X006930Y006250D01*
X006180Y007000D01*
X006630Y006889D02*
X006756Y006889D01*
X006586Y006255D02*
X006434Y006255D01*
X006530Y006097D02*
X006744Y006097D01*
X007369Y005250D02*
X005430Y005250D01*
X005930Y004750D02*
X007369Y004750D01*
X007369Y004250D02*
X005930Y004250D01*
X007957Y003561D02*
X010403Y003561D01*
X007369Y007750D02*
X005430Y007750D01*
X005670Y008490D02*
X005670Y009981D01*
X005699Y010010D01*
X005931Y010010D01*
X005875Y009954D01*
X005820Y009822D01*
X005820Y009678D01*
X005875Y009546D01*
X005976Y009445D01*
X006108Y009390D01*
X006231Y009390D01*
X006201Y009360D01*
X006108Y009360D01*
X005976Y009305D01*
X005875Y009204D01*
X005820Y009072D01*
X005820Y008928D01*
X005875Y008796D01*
X005976Y008695D01*
X006108Y008640D01*
X006252Y008640D01*
X006384Y008695D01*
X006485Y008796D01*
X006540Y008928D01*
X006540Y009010D01*
X006823Y009010D01*
X006792Y008979D01*
X006768Y008938D01*
X006756Y008892D01*
X006756Y008750D01*
X006756Y008608D01*
X006768Y008562D01*
X006792Y008521D01*
X006823Y008490D01*
X005670Y008490D01*
X005670Y008633D02*
X006756Y008633D01*
X006756Y008750D02*
X007369Y008750D01*
X007369Y008750D01*
X006756Y008750D01*
X006756Y008791D02*
X006480Y008791D01*
X006540Y008950D02*
X006775Y008950D01*
X006430Y009250D02*
X006180Y009000D01*
X006430Y009250D02*
X007369Y009250D01*
X007369Y009750D02*
X006180Y009750D01*
X005820Y009742D02*
X005670Y009742D01*
X005670Y009584D02*
X005859Y009584D01*
X006024Y009425D02*
X005670Y009425D01*
X005670Y009267D02*
X005937Y009267D01*
X005835Y009108D02*
X005670Y009108D01*
X005670Y008950D02*
X005820Y008950D01*
X005880Y008791D02*
X005670Y008791D01*
X005670Y009901D02*
X005853Y009901D01*
X005655Y010535D02*
X011919Y010535D01*
X013171Y011486D02*
X013189Y011486D01*
X013710Y010852D02*
X016102Y010852D01*
X016230Y010693D02*
X013637Y010693D01*
X020253Y008633D02*
X020607Y008633D01*
X020495Y008474D02*
X020365Y008474D01*
X020405Y008316D02*
X020455Y008316D01*
X020468Y008157D02*
X020392Y008157D01*
X020317Y007999D02*
X020543Y007999D01*
X021845Y007523D02*
X022015Y007523D01*
X021955Y007365D02*
X021905Y007365D01*
X021905Y007206D02*
X021955Y007206D01*
X022014Y007048D02*
X021846Y007048D01*
X021707Y006889D02*
X022153Y006889D01*
X022704Y007682D02*
X032522Y007682D01*
X032322Y009108D02*
X032038Y009108D01*
X032157Y009267D02*
X032203Y009267D01*
X033038Y009108D02*
X033322Y009108D01*
X033203Y009267D02*
X033157Y009267D01*
X034038Y009108D02*
X034322Y009108D01*
X034203Y009267D02*
X034157Y009267D01*
X034920Y008950D02*
X037290Y008950D01*
X037440Y009108D02*
X037066Y009108D01*
X037038Y009080D02*
X037100Y009142D01*
X037150Y009212D01*
X037190Y009289D01*
X037216Y009371D01*
X037230Y009457D01*
X037230Y009480D01*
X036700Y009480D01*
X036700Y008950D01*
X036723Y008950D01*
X036809Y008964D01*
X036891Y008990D01*
X036968Y009030D01*
X037038Y009080D01*
X037178Y009267D02*
X037440Y009267D01*
X037440Y009425D02*
X037225Y009425D01*
X037230Y009520D02*
X037230Y009543D01*
X037216Y009629D01*
X037190Y009711D01*
X037150Y009788D01*
X037100Y009858D01*
X037038Y009920D01*
X036968Y009970D01*
X036891Y010010D01*
X036809Y010036D01*
X036723Y010050D01*
X036700Y010050D01*
X036700Y009520D01*
X037230Y009520D01*
X037224Y009584D02*
X037440Y009584D01*
X037440Y009742D02*
X037174Y009742D01*
X037057Y009901D02*
X037440Y009901D01*
X037282Y010059D02*
X034920Y010059D01*
X034920Y010218D02*
X037123Y010218D01*
X036965Y010376D02*
X034920Y010376D01*
X034920Y010535D02*
X036806Y010535D01*
X036648Y010693D02*
X034920Y010693D01*
X034920Y010852D02*
X036489Y010852D01*
X036440Y011010D02*
X034920Y011010D01*
X034920Y011169D02*
X036440Y011169D01*
X036440Y011327D02*
X034908Y011327D01*
X034874Y011532D02*
X034945Y011568D01*
X035009Y011615D01*
X035065Y011671D01*
X035112Y011735D01*
X035148Y011806D01*
X035173Y011882D01*
X035185Y011960D01*
X035185Y012000D01*
X035185Y012040D01*
X035173Y012118D01*
X035148Y012194D01*
X035112Y012265D01*
X035065Y012329D01*
X035009Y012385D01*
X034945Y012432D01*
X034874Y012468D01*
X034798Y012493D01*
X034720Y012505D01*
X034680Y012505D01*
X034680Y012000D01*
X035185Y012000D01*
X034680Y012000D01*
X034680Y012000D01*
X034680Y012000D01*
X034680Y011495D01*
X034720Y011495D01*
X034798Y011507D01*
X034874Y011532D01*
X034739Y011486D02*
X036440Y011486D01*
X036440Y011644D02*
X036010Y011644D01*
X035955Y011589D02*
X036091Y011725D01*
X036165Y011904D01*
X036165Y012096D01*
X036091Y012275D01*
X035955Y012411D01*
X035920Y012426D01*
X035920Y013574D01*
X035955Y013589D01*
X036091Y013725D01*
X036165Y013904D01*
X036165Y014096D01*
X036091Y014275D01*
X035955Y014411D01*
X035776Y014485D01*
X035584Y014485D01*
X035420Y014417D01*
X035420Y015386D01*
X035536Y015502D01*
X035600Y015656D01*
X035600Y016344D01*
X035536Y016498D01*
X035418Y016616D01*
X035264Y016680D01*
X035096Y016680D01*
X034942Y016616D01*
X034824Y016498D01*
X034760Y016344D01*
X034760Y015656D01*
X034824Y015502D01*
X034940Y015386D01*
X034940Y013952D01*
X034977Y013864D01*
X035044Y013797D01*
X035132Y013760D01*
X035254Y013760D01*
X035269Y013725D01*
X035405Y013589D01*
X035440Y013574D01*
X035440Y012426D01*
X035405Y012411D01*
X035269Y012275D01*
X035195Y012096D01*
X035195Y011904D01*
X035269Y011725D01*
X035405Y011589D01*
X035584Y011515D01*
X035776Y011515D01*
X035955Y011589D01*
X036123Y011803D02*
X036440Y011803D01*
X036440Y011961D02*
X036165Y011961D01*
X036155Y012120D02*
X036440Y012120D01*
X036440Y012278D02*
X036088Y012278D01*
X035920Y012437D02*
X036440Y012437D01*
X036440Y012595D02*
X035920Y012595D01*
X035920Y012754D02*
X036440Y012754D01*
X036440Y012912D02*
X035920Y012912D01*
X035920Y013071D02*
X036440Y013071D01*
X036440Y013229D02*
X035920Y013229D01*
X035920Y013388D02*
X036440Y013388D01*
X036440Y013546D02*
X035920Y013546D01*
X036070Y013705D02*
X036440Y013705D01*
X036440Y013863D02*
X036148Y013863D01*
X036165Y014022D02*
X036440Y014022D01*
X036440Y014180D02*
X036130Y014180D01*
X036027Y014339D02*
X036440Y014339D01*
X036344Y014497D02*
X035420Y014497D01*
X035420Y014656D02*
X036185Y014656D01*
X036027Y014814D02*
X035420Y014814D01*
X035420Y014973D02*
X035940Y014973D01*
X035940Y015131D02*
X035420Y015131D01*
X035420Y015290D02*
X035940Y015290D01*
X035878Y015448D02*
X035482Y015448D01*
X035579Y015607D02*
X035781Y015607D01*
X035760Y015765D02*
X035600Y015765D01*
X035600Y015924D02*
X035760Y015924D01*
X035760Y016082D02*
X035600Y016082D01*
X035600Y016241D02*
X035760Y016241D01*
X035783Y016399D02*
X035577Y016399D01*
X035476Y016558D02*
X035884Y016558D01*
X036476Y016558D02*
X036884Y016558D01*
X036783Y016399D02*
X036577Y016399D01*
X036600Y016241D02*
X036760Y016241D01*
X036760Y016082D02*
X036600Y016082D01*
X036600Y015924D02*
X036760Y015924D01*
X036760Y015765D02*
X036600Y015765D01*
X036579Y015607D02*
X036781Y015607D01*
X036878Y015448D02*
X036482Y015448D01*
X036420Y015290D02*
X036940Y015290D01*
X036940Y015131D02*
X036420Y015131D01*
X036547Y014973D02*
X036940Y014973D01*
X036940Y014814D02*
X036705Y014814D01*
X036864Y014656D02*
X036940Y014656D01*
X036940Y014497D02*
X036920Y014497D01*
X036920Y014339D02*
X036940Y014339D01*
X036940Y014180D02*
X036920Y014180D01*
X036920Y014022D02*
X036940Y014022D01*
X036940Y013863D02*
X036920Y013863D01*
X036920Y013705D02*
X036940Y013705D01*
X036940Y013546D02*
X036920Y013546D01*
X036920Y013388D02*
X036940Y013388D01*
X036940Y013229D02*
X036920Y013229D01*
X036920Y013071D02*
X036940Y013071D01*
X036940Y012912D02*
X036920Y012912D01*
X036920Y012754D02*
X036940Y012754D01*
X036940Y012595D02*
X036920Y012595D01*
X036920Y012437D02*
X036940Y012437D01*
X036940Y012278D02*
X036920Y012278D01*
X036920Y012120D02*
X036940Y012120D01*
X036940Y011961D02*
X036920Y011961D01*
X036920Y011803D02*
X036940Y011803D01*
X036940Y011644D02*
X036920Y011644D01*
X036920Y011486D02*
X036940Y011486D01*
X036920Y011327D02*
X037014Y011327D01*
X036920Y011169D02*
X037172Y011169D01*
X037331Y011010D02*
X037009Y011010D01*
X037168Y010852D02*
X037489Y010852D01*
X037648Y010693D02*
X037326Y010693D01*
X037485Y010535D02*
X037806Y010535D01*
X037940Y010376D02*
X037643Y010376D01*
X037802Y010218D02*
X037940Y010218D01*
X037940Y010059D02*
X037915Y010059D01*
X037920Y009901D02*
X037940Y009901D01*
X037940Y009742D02*
X037920Y009742D01*
X037920Y009584D02*
X037940Y009584D01*
X037940Y009425D02*
X037920Y009425D01*
X037920Y009267D02*
X037940Y009267D01*
X037940Y009108D02*
X037920Y009108D01*
X037919Y008950D02*
X037940Y008950D01*
X037940Y008791D02*
X037810Y008791D01*
X037940Y008633D02*
X037652Y008633D01*
X037493Y008474D02*
X037815Y008474D01*
X037656Y008316D02*
X037335Y008316D01*
X037176Y008157D02*
X037498Y008157D01*
X037339Y007999D02*
X037018Y007999D01*
X036859Y007840D02*
X037181Y007840D01*
X037022Y007682D02*
X036701Y007682D01*
X036542Y007523D02*
X036864Y007523D01*
X036705Y007365D02*
X036384Y007365D01*
X036225Y007206D02*
X036547Y007206D01*
X036388Y007048D02*
X036067Y007048D01*
X035908Y006889D02*
X036230Y006889D01*
X036071Y006731D02*
X035750Y006731D01*
X035591Y006572D02*
X035913Y006572D01*
X035754Y006414D02*
X035433Y006414D01*
X035274Y006255D02*
X035596Y006255D01*
X035437Y006097D02*
X035116Y006097D01*
X034957Y005938D02*
X035279Y005938D01*
X035120Y005780D02*
X034799Y005780D01*
X034640Y005621D02*
X034962Y005621D01*
X034803Y005463D02*
X034482Y005463D01*
X034323Y005304D02*
X034645Y005304D01*
X034486Y005146D02*
X034165Y005146D01*
X034006Y004987D02*
X034328Y004987D01*
X034169Y004829D02*
X033848Y004829D01*
X033689Y004670D02*
X034011Y004670D01*
X033852Y004512D02*
X033531Y004512D01*
X033372Y004353D02*
X033694Y004353D01*
X033535Y004195D02*
X032420Y004195D01*
X032420Y004036D02*
X033377Y004036D01*
X033218Y003878D02*
X032420Y003878D01*
X032420Y003719D02*
X033060Y003719D01*
X032945Y003561D02*
X032420Y003561D01*
X032528Y003402D02*
X032832Y003402D01*
X032707Y003244D02*
X032653Y003244D01*
X032180Y003000D02*
X032180Y004500D01*
X033180Y004500D01*
X037680Y009000D01*
X037680Y010000D01*
X036680Y011000D01*
X036680Y014500D01*
X036180Y015000D01*
X036180Y016000D01*
X035180Y016000D02*
X035180Y014000D01*
X035680Y014000D01*
X035680Y012000D01*
X035237Y011803D02*
X035146Y011803D01*
X035185Y011961D02*
X035195Y011961D01*
X035205Y012120D02*
X035172Y012120D01*
X035102Y012278D02*
X035272Y012278D01*
X035440Y012437D02*
X034936Y012437D01*
X034680Y012437D02*
X034680Y012437D01*
X034680Y012505D02*
X034640Y012505D01*
X034562Y012493D01*
X034486Y012468D01*
X034415Y012432D01*
X034351Y012385D01*
X034295Y012329D01*
X034248Y012265D01*
X034212Y012194D01*
X034187Y012118D01*
X034175Y012040D01*
X034175Y012000D01*
X034680Y012000D01*
X034680Y012000D01*
X034680Y012000D01*
X034680Y012505D01*
X034680Y012278D02*
X034680Y012278D01*
X034680Y012120D02*
X034680Y012120D01*
X034680Y012000D02*
X034175Y012000D01*
X034175Y011960D01*
X034187Y011882D01*
X034212Y011806D01*
X034248Y011735D01*
X034295Y011671D01*
X034351Y011615D01*
X034415Y011568D01*
X034486Y011532D01*
X034562Y011507D01*
X034640Y011495D01*
X034680Y011495D01*
X034680Y012000D01*
X034680Y011961D02*
X034680Y011961D01*
X034680Y011803D02*
X034680Y011803D01*
X034680Y011644D02*
X034680Y011644D01*
X035038Y011644D02*
X035350Y011644D01*
X034322Y011644D02*
X034010Y011644D01*
X033955Y011589D02*
X034091Y011725D01*
X034165Y011904D01*
X034165Y012096D01*
X034091Y012275D01*
X033955Y012411D01*
X033920Y012426D01*
X033920Y013574D01*
X033955Y013589D01*
X034091Y013725D01*
X034106Y013760D01*
X034228Y013760D01*
X034316Y013797D01*
X034383Y013864D01*
X034420Y013952D01*
X034420Y015386D01*
X034536Y015502D01*
X034600Y015656D01*
X034600Y016344D01*
X034536Y016498D01*
X034418Y016616D01*
X034264Y016680D01*
X034096Y016680D01*
X033942Y016616D01*
X033824Y016498D01*
X033760Y016344D01*
X033760Y015656D01*
X033824Y015502D01*
X033940Y015386D01*
X033940Y014417D01*
X033776Y014485D01*
X033584Y014485D01*
X033405Y014411D01*
X033269Y014275D01*
X033195Y014096D01*
X033195Y013904D01*
X033269Y013725D01*
X033405Y013589D01*
X033440Y013574D01*
X033440Y012426D01*
X033405Y012411D01*
X033269Y012275D01*
X033195Y012096D01*
X033195Y011904D01*
X033269Y011725D01*
X033405Y011589D01*
X033584Y011515D01*
X033776Y011515D01*
X033955Y011589D01*
X034123Y011803D02*
X034214Y011803D01*
X034175Y011961D02*
X034165Y011961D01*
X034155Y012120D02*
X034188Y012120D01*
X034258Y012278D02*
X034088Y012278D01*
X033920Y012437D02*
X034424Y012437D01*
X033920Y012595D02*
X035440Y012595D01*
X035440Y012754D02*
X033920Y012754D01*
X033920Y012912D02*
X035440Y012912D01*
X035440Y013071D02*
X033920Y013071D01*
X033920Y013229D02*
X035440Y013229D01*
X035440Y013388D02*
X033920Y013388D01*
X033920Y013546D02*
X035440Y013546D01*
X035290Y013705D02*
X034070Y013705D01*
X034180Y014000D02*
X033680Y014000D01*
X033680Y012000D01*
X033237Y011803D02*
X033146Y011803D01*
X033148Y011806D02*
X033173Y011882D01*
X033185Y011960D01*
X033185Y012000D01*
X033185Y012040D01*
X033173Y012118D01*
X033148Y012194D01*
X033112Y012265D01*
X033065Y012329D01*
X033009Y012385D01*
X032945Y012432D01*
X032874Y012468D01*
X032798Y012493D01*
X032720Y012505D01*
X032680Y012505D01*
X032680Y012000D01*
X033185Y012000D01*
X032680Y012000D01*
X032680Y012000D01*
X032680Y012000D01*
X032680Y011495D01*
X032720Y011495D01*
X032798Y011507D01*
X032874Y011532D01*
X032945Y011568D01*
X033009Y011615D01*
X033065Y011671D01*
X033112Y011735D01*
X033148Y011806D01*
X033185Y011961D02*
X033195Y011961D01*
X033205Y012120D02*
X033172Y012120D01*
X033102Y012278D02*
X033272Y012278D01*
X033440Y012437D02*
X032936Y012437D01*
X032680Y012437D02*
X032680Y012437D01*
X032680Y012505D02*
X032640Y012505D01*
X032562Y012493D01*
X032486Y012468D01*
X032415Y012432D01*
X032351Y012385D01*
X032295Y012329D01*
X032248Y012265D01*
X032212Y012194D01*
X032187Y012118D01*
X032175Y012040D01*
X032175Y012000D01*
X032680Y012000D01*
X032680Y012000D01*
X032680Y012000D01*
X032680Y012505D01*
X032680Y012278D02*
X032680Y012278D01*
X032680Y012120D02*
X032680Y012120D01*
X032680Y012000D02*
X032175Y012000D01*
X032175Y011960D01*
X032187Y011882D01*
X032212Y011806D01*
X032248Y011735D01*
X032295Y011671D01*
X032351Y011615D01*
X032415Y011568D01*
X032486Y011532D01*
X032562Y011507D01*
X032640Y011495D01*
X032680Y011495D01*
X032680Y012000D01*
X032680Y011961D02*
X032680Y011961D01*
X032680Y011803D02*
X032680Y011803D01*
X032680Y011644D02*
X032680Y011644D01*
X033038Y011644D02*
X033350Y011644D01*
X032322Y011644D02*
X032170Y011644D01*
X032170Y011803D02*
X032214Y011803D01*
X032175Y011961D02*
X032170Y011961D01*
X032170Y012120D02*
X032188Y012120D01*
X032170Y012278D02*
X032258Y012278D01*
X032170Y012437D02*
X032424Y012437D01*
X032170Y012595D02*
X033440Y012595D01*
X033440Y012754D02*
X032170Y012754D01*
X032180Y013000D02*
X031930Y013000D01*
X031930Y011250D01*
X032029Y009901D02*
X032331Y009901D01*
X032207Y009742D02*
X032153Y009742D01*
X034029Y009901D02*
X034331Y009901D01*
X034207Y009742D02*
X034153Y009742D01*
X035029Y009901D02*
X035331Y009901D01*
X035207Y009742D02*
X035153Y009742D01*
X036029Y009901D02*
X036303Y009901D01*
X036186Y009742D02*
X036153Y009742D01*
X036660Y009742D02*
X036700Y009742D01*
X036700Y009584D02*
X036660Y009584D01*
X036660Y009425D02*
X036700Y009425D01*
X036700Y009267D02*
X036660Y009267D01*
X036660Y009108D02*
X036700Y009108D01*
X036294Y009108D02*
X036038Y009108D01*
X036157Y009267D02*
X036182Y009267D01*
X035322Y009108D02*
X035038Y009108D01*
X035157Y009267D02*
X035203Y009267D01*
X034920Y008791D02*
X037132Y008791D01*
X036973Y008633D02*
X034920Y008633D01*
X034920Y008474D02*
X036815Y008474D01*
X036656Y008316D02*
X034920Y008316D01*
X034920Y008157D02*
X036498Y008157D01*
X036339Y007999D02*
X034920Y007999D01*
X034920Y007840D02*
X036181Y007840D01*
X036022Y007682D02*
X034920Y007682D01*
X034920Y007523D02*
X035864Y007523D01*
X035705Y007365D02*
X034884Y007365D01*
X038180Y008500D02*
X033180Y003500D01*
X033180Y003000D01*
X033539Y002610D02*
X033793Y002610D01*
X033681Y002768D02*
X033658Y002768D01*
X034160Y002768D02*
X034200Y002768D01*
X034200Y002610D02*
X034160Y002610D01*
X034160Y002927D02*
X034200Y002927D01*
X034200Y003085D02*
X034160Y003085D01*
X034160Y003244D02*
X034200Y003244D01*
X034200Y003402D02*
X034160Y003402D01*
X033804Y003402D02*
X033528Y003402D01*
X033653Y003244D02*
X033687Y003244D01*
X032821Y002610D02*
X032539Y002610D01*
X032658Y002768D02*
X032702Y002768D01*
X031821Y002610D02*
X031539Y002610D01*
X031658Y002768D02*
X031702Y002768D01*
X031707Y003244D02*
X031653Y003244D01*
X031528Y003402D02*
X031832Y003402D01*
X030832Y003402D02*
X030528Y003402D01*
X030653Y003244D02*
X030707Y003244D01*
X030702Y002768D02*
X030658Y002768D01*
X030539Y002610D02*
X030821Y002610D01*
X030937Y006097D02*
X023875Y006097D01*
X023827Y006255D02*
X031096Y006255D01*
X031254Y006414D02*
X023727Y006414D01*
X022244Y003244D02*
X021982Y003244D01*
X022110Y003085D02*
X022370Y003085D01*
X021684Y003085D02*
X021657Y003085D01*
X021657Y002927D02*
X021684Y002927D01*
X021684Y002768D02*
X021657Y002768D01*
X021657Y002610D02*
X021684Y002610D01*
X021684Y002451D02*
X021657Y002451D01*
X021657Y003244D02*
X021684Y003244D01*
X025380Y010535D02*
X025420Y010535D01*
X025420Y010693D02*
X025380Y010693D01*
X025380Y010852D02*
X025420Y010852D01*
X025420Y011010D02*
X025380Y011010D01*
X025380Y011169D02*
X025420Y011169D01*
X025420Y011327D02*
X025380Y011327D01*
X025900Y011327D02*
X026014Y011327D01*
X023940Y014656D02*
X023920Y014656D01*
X023920Y014814D02*
X023940Y014814D01*
X023940Y014973D02*
X023920Y014973D01*
X023920Y015131D02*
X023940Y015131D01*
X023940Y015290D02*
X023920Y015290D01*
X023920Y015448D02*
X023940Y015448D01*
X023940Y015607D02*
X023920Y015607D01*
X023920Y015765D02*
X023940Y015765D01*
X023940Y015924D02*
X023920Y015924D01*
X023920Y016082D02*
X023940Y016082D01*
X023940Y016241D02*
X023920Y016241D01*
X023920Y016399D02*
X023940Y016399D01*
X023944Y016558D02*
X023920Y016558D01*
X023920Y016716D02*
X024057Y016716D01*
X023920Y016875D02*
X024215Y016875D01*
X024374Y017033D02*
X023920Y017033D01*
X023920Y017192D02*
X024532Y017192D01*
X024691Y017350D02*
X023920Y017350D01*
X023920Y017509D02*
X024849Y017509D01*
X025008Y017667D02*
X023920Y017667D01*
X023920Y017826D02*
X025166Y017826D01*
X025325Y017984D02*
X024003Y017984D01*
X024385Y020045D02*
X020848Y020045D01*
X021069Y020203D02*
X024544Y020203D01*
X027465Y019569D02*
X027895Y019569D01*
X027942Y019616D02*
X027824Y019498D01*
X027760Y019344D01*
X027760Y018656D01*
X027824Y018502D01*
X027942Y018384D01*
X028096Y018320D01*
X028264Y018320D01*
X028418Y018384D01*
X028536Y018502D01*
X028600Y018656D01*
X028600Y019344D01*
X028536Y019498D01*
X028418Y019616D01*
X028264Y019680D01*
X028096Y019680D01*
X027942Y019616D01*
X027788Y019411D02*
X027572Y019411D01*
X027600Y019252D02*
X027760Y019252D01*
X027760Y019094D02*
X027600Y019094D01*
X027600Y018935D02*
X027760Y018935D01*
X027760Y018777D02*
X027600Y018777D01*
X027584Y018618D02*
X027776Y018618D01*
X027867Y018460D02*
X027493Y018460D01*
X028493Y018460D02*
X028867Y018460D01*
X028824Y018502D02*
X028942Y018384D01*
X029096Y018320D01*
X029264Y018320D01*
X029418Y018384D01*
X029536Y018502D01*
X029600Y018656D01*
X029600Y019344D01*
X029536Y019498D01*
X029418Y019616D01*
X029264Y019680D01*
X029096Y019680D01*
X028942Y019616D01*
X028824Y019498D01*
X028760Y019344D01*
X028760Y018656D01*
X028824Y018502D01*
X028776Y018618D02*
X028584Y018618D01*
X028600Y018777D02*
X028760Y018777D01*
X028760Y018935D02*
X028600Y018935D01*
X028600Y019094D02*
X028760Y019094D01*
X028760Y019252D02*
X028600Y019252D01*
X028572Y019411D02*
X028788Y019411D01*
X028895Y019569D02*
X028465Y019569D01*
X029465Y019569D02*
X029895Y019569D01*
X029942Y019616D02*
X029824Y019498D01*
X029760Y019344D01*
X029760Y018656D01*
X029824Y018502D01*
X029942Y018384D01*
X030096Y018320D01*
X030264Y018320D01*
X030418Y018384D01*
X030536Y018502D01*
X030600Y018656D01*
X030600Y019344D01*
X030536Y019498D01*
X030418Y019616D01*
X030264Y019680D01*
X030096Y019680D01*
X029942Y019616D01*
X029788Y019411D02*
X029572Y019411D01*
X029600Y019252D02*
X029760Y019252D01*
X029760Y019094D02*
X029600Y019094D01*
X029600Y018935D02*
X029760Y018935D01*
X029760Y018777D02*
X029600Y018777D01*
X029584Y018618D02*
X029776Y018618D01*
X029867Y018460D02*
X029493Y018460D01*
X030493Y018460D02*
X030867Y018460D01*
X030824Y018502D02*
X030942Y018384D01*
X031096Y018320D01*
X031264Y018320D01*
X031418Y018384D01*
X031536Y018502D01*
X031600Y018656D01*
X031600Y019344D01*
X031536Y019498D01*
X031418Y019616D01*
X031264Y019680D01*
X031096Y019680D01*
X030942Y019616D01*
X030824Y019498D01*
X030760Y019344D01*
X030760Y018656D01*
X030824Y018502D01*
X030776Y018618D02*
X030584Y018618D01*
X030600Y018777D02*
X030760Y018777D01*
X030760Y018935D02*
X030600Y018935D01*
X030600Y019094D02*
X030760Y019094D01*
X030760Y019252D02*
X030600Y019252D01*
X030572Y019411D02*
X030788Y019411D01*
X030895Y019569D02*
X030465Y019569D01*
X031465Y019569D02*
X031867Y019569D01*
X031766Y019411D02*
X031572Y019411D01*
X031600Y019252D02*
X031740Y019252D01*
X031740Y019094D02*
X031600Y019094D01*
X031600Y018935D02*
X031740Y018935D01*
X031740Y018777D02*
X031600Y018777D01*
X031584Y018618D02*
X031757Y018618D01*
X031840Y018460D02*
X031493Y018460D01*
X032180Y018460D02*
X032180Y018460D01*
X032180Y018618D02*
X032180Y018618D01*
X032180Y018777D02*
X032180Y018777D01*
X032180Y018935D02*
X032180Y018935D01*
X032180Y019094D02*
X032180Y019094D01*
X032180Y019252D02*
X032180Y019252D01*
X032180Y019411D02*
X032180Y019411D01*
X032180Y019569D02*
X032180Y019569D01*
X032493Y019569D02*
X032895Y019569D01*
X032942Y019616D02*
X032824Y019498D01*
X032760Y019344D01*
X032760Y018656D01*
X032824Y018502D01*
X032942Y018384D01*
X033096Y018320D01*
X033264Y018320D01*
X033418Y018384D01*
X033536Y018502D01*
X033600Y018656D01*
X033600Y019344D01*
X033536Y019498D01*
X033418Y019616D01*
X033264Y019680D01*
X033096Y019680D01*
X032942Y019616D01*
X032788Y019411D02*
X032594Y019411D01*
X032620Y019252D02*
X032760Y019252D01*
X032760Y019094D02*
X032620Y019094D01*
X032620Y018935D02*
X032760Y018935D01*
X032760Y018777D02*
X032620Y018777D01*
X032603Y018618D02*
X032776Y018618D01*
X032867Y018460D02*
X032520Y018460D01*
X033493Y018460D02*
X033867Y018460D01*
X033776Y018618D02*
X033584Y018618D01*
X033600Y018777D02*
X033760Y018777D01*
X033760Y018935D02*
X033600Y018935D01*
X033600Y019094D02*
X033760Y019094D01*
X033760Y019252D02*
X033600Y019252D01*
X033572Y019411D02*
X033788Y019411D01*
X033895Y019569D02*
X033465Y019569D01*
X033215Y016700D02*
X033283Y016689D01*
X033349Y016668D01*
X033411Y016636D01*
X033467Y016596D01*
X033516Y016547D01*
X033556Y016491D01*
X033588Y016429D01*
X033609Y016363D01*
X033620Y016295D01*
X033620Y016000D01*
X033180Y016000D01*
X033180Y016000D01*
X033180Y016000D01*
X033180Y016700D01*
X033215Y016700D01*
X033180Y016700D02*
X033145Y016700D01*
X033077Y016689D01*
X033011Y016668D01*
X032949Y016636D01*
X032893Y016596D01*
X032844Y016547D01*
X032804Y016491D01*
X032772Y016429D01*
X032751Y016363D01*
X032740Y016295D01*
X032740Y016000D01*
X033180Y016000D01*
X033620Y016000D01*
X033620Y015705D01*
X033609Y015637D01*
X033588Y015571D01*
X033556Y015509D01*
X033516Y015453D01*
X033467Y015404D01*
X033411Y015364D01*
X033349Y015332D01*
X033283Y015311D01*
X033215Y015300D01*
X033180Y015300D01*
X033180Y016000D01*
X033180Y016000D01*
X033180Y016000D01*
X033180Y016700D01*
X033180Y016558D02*
X033180Y016558D01*
X033180Y016399D02*
X033180Y016399D01*
X033180Y016241D02*
X033180Y016241D01*
X033180Y016082D02*
X033180Y016082D01*
X033180Y016000D02*
X032740Y016000D01*
X032740Y015705D01*
X032751Y015637D01*
X032772Y015571D01*
X032804Y015509D01*
X032844Y015453D01*
X032893Y015404D01*
X032949Y015364D01*
X033011Y015332D01*
X033077Y015311D01*
X033145Y015300D01*
X033180Y015300D01*
X033180Y016000D01*
X033180Y015924D02*
X033180Y015924D01*
X033180Y015765D02*
X033180Y015765D01*
X033180Y015607D02*
X033180Y015607D01*
X033180Y015448D02*
X033180Y015448D01*
X033510Y015448D02*
X033878Y015448D01*
X033940Y015290D02*
X032420Y015290D01*
X032420Y015131D02*
X033940Y015131D01*
X033940Y014973D02*
X032420Y014973D01*
X032420Y014814D02*
X033940Y014814D01*
X033940Y014656D02*
X032420Y014656D01*
X032420Y014497D02*
X033940Y014497D01*
X034420Y014497D02*
X034940Y014497D01*
X034940Y014339D02*
X034420Y014339D01*
X034420Y014180D02*
X034940Y014180D01*
X034940Y014022D02*
X034420Y014022D01*
X034382Y013863D02*
X034978Y013863D01*
X034180Y014000D02*
X034180Y016000D01*
X034600Y015924D02*
X034760Y015924D01*
X034760Y016082D02*
X034600Y016082D01*
X034600Y016241D02*
X034760Y016241D01*
X034783Y016399D02*
X034577Y016399D01*
X034476Y016558D02*
X034884Y016558D01*
X034760Y015765D02*
X034600Y015765D01*
X034579Y015607D02*
X034781Y015607D01*
X034878Y015448D02*
X034482Y015448D01*
X034420Y015290D02*
X034940Y015290D01*
X034940Y015131D02*
X034420Y015131D01*
X034420Y014973D02*
X034940Y014973D01*
X034940Y014814D02*
X034420Y014814D01*
X034420Y014656D02*
X034940Y014656D01*
X033781Y015607D02*
X033599Y015607D01*
X033620Y015765D02*
X033760Y015765D01*
X033760Y015924D02*
X033620Y015924D01*
X033620Y016082D02*
X033760Y016082D01*
X033760Y016241D02*
X033620Y016241D01*
X033597Y016399D02*
X033783Y016399D01*
X033884Y016558D02*
X033505Y016558D01*
X032855Y016558D02*
X032476Y016558D01*
X032577Y016399D02*
X032763Y016399D01*
X032740Y016241D02*
X032600Y016241D01*
X032600Y016082D02*
X032740Y016082D01*
X032740Y015924D02*
X032600Y015924D01*
X032600Y015765D02*
X032740Y015765D01*
X032761Y015607D02*
X032579Y015607D01*
X032482Y015448D02*
X032850Y015448D01*
X032180Y016000D02*
X032180Y013000D01*
X032403Y012912D02*
X033440Y012912D01*
X033440Y013071D02*
X032420Y013071D01*
X032420Y013229D02*
X033440Y013229D01*
X033440Y013388D02*
X032420Y013388D01*
X032420Y013546D02*
X033440Y013546D01*
X033290Y013705D02*
X032420Y013705D01*
X032420Y013863D02*
X033212Y013863D01*
X033195Y014022D02*
X032420Y014022D01*
X032420Y014180D02*
X033230Y014180D01*
X033333Y014339D02*
X032420Y014339D01*
X031878Y015448D02*
X031482Y015448D01*
X031579Y015607D02*
X031781Y015607D01*
X031760Y015765D02*
X031600Y015765D01*
X031600Y015924D02*
X031760Y015924D01*
X031760Y016082D02*
X031600Y016082D01*
X031600Y016241D02*
X031760Y016241D01*
X031783Y016399D02*
X031577Y016399D01*
X031476Y016558D02*
X031884Y016558D01*
X037180Y016000D02*
X037180Y011500D01*
X038180Y010500D01*
X038180Y008500D01*
X036700Y009901D02*
X036660Y009901D01*
X037579Y015607D02*
X037781Y015607D01*
X037760Y015765D02*
X037600Y015765D01*
X037600Y015924D02*
X037760Y015924D01*
X037760Y016082D02*
X037600Y016082D01*
X037600Y016241D02*
X037760Y016241D01*
X037783Y016399D02*
X037577Y016399D01*
X037476Y016558D02*
X037884Y016558D01*
X020512Y020045D02*
X019898Y020045D01*
X019680Y020045D02*
X019680Y020045D01*
X019680Y019995D02*
X019680Y020500D01*
X019175Y020500D01*
X019175Y020460D01*
X019187Y020382D01*
X019212Y020306D01*
X019248Y020235D01*
X019295Y020171D01*
X019351Y020115D01*
X019415Y020068D01*
X019486Y020032D01*
X019562Y020007D01*
X019640Y019995D01*
X019680Y019995D01*
X019680Y020203D02*
X019680Y020203D01*
X019680Y020362D02*
X019680Y020362D01*
X019680Y020520D02*
X019680Y020520D01*
X019680Y020679D02*
X019680Y020679D01*
X019680Y020837D02*
X019680Y020837D01*
X020057Y020837D02*
X020331Y020837D01*
X020229Y020679D02*
X020153Y020679D01*
X020185Y020520D02*
X020195Y020520D01*
X020212Y020362D02*
X020166Y020362D01*
X020088Y020203D02*
X020291Y020203D01*
X019462Y020045D02*
X017965Y020045D01*
X018131Y020203D02*
X019272Y020203D01*
X019194Y020362D02*
X018196Y020362D01*
X018210Y020520D02*
X019175Y020520D01*
X019207Y020679D02*
X018180Y020679D01*
X018093Y020837D02*
X019303Y020837D01*
X017440Y020996D02*
X016919Y020996D01*
X017115Y020837D02*
X017267Y020837D01*
X016680Y022000D02*
X015180Y020500D01*
X014220Y020679D02*
X014160Y020679D01*
X014160Y020837D02*
X014220Y020837D01*
X014263Y020996D02*
X014119Y020996D01*
X014005Y021154D02*
X014383Y021154D01*
X012383Y021154D02*
X010420Y021154D01*
X010420Y020996D02*
X012263Y020996D01*
X012220Y020837D02*
X010593Y020837D01*
X010680Y020679D02*
X012220Y020679D01*
X012220Y020520D02*
X010710Y020520D01*
X010696Y020362D02*
X012220Y020362D01*
X012220Y020203D02*
X010631Y020203D01*
X010465Y020045D02*
X012246Y020045D01*
X009940Y020996D02*
X009419Y020996D01*
X009615Y020837D02*
X009767Y020837D01*
X002571Y002293D02*
X037789Y002293D01*
X037948Y002134D02*
X002412Y002134D01*
D20*
X005930Y004250D03*
X005930Y004750D03*
X006180Y006000D03*
X006180Y007000D03*
X006180Y009000D03*
X006180Y009750D03*
X005430Y010250D03*
X012930Y008500D03*
X013930Y008500D03*
X014430Y008000D03*
X014930Y007500D03*
X015430Y007000D03*
X018180Y009500D03*
X017680Y010000D03*
X017180Y010500D03*
X016430Y011000D03*
X015930Y011500D03*
X030680Y010500D03*
X035680Y017500D03*
X037180Y020500D03*
M02*
