G75*
%MOIN*%
%OFA0B0*%
%FSLAX24Y24*%
%IPPOS*%
%LPD*%
%AMOC8*
5,1,8,0,0,1.08239X$1,22.5*
%
%ADD10C,0.0650*%
%ADD11C,0.0600*%
%ADD12C,0.0740*%
%ADD13C,0.0574*%
%ADD14C,0.0945*%
%ADD15C,0.0630*%
%ADD16C,0.0520*%
%ADD17C,0.1700*%
%ADD18C,0.0400*%
%ADD19C,0.0160*%
%ADD20C,0.0240*%
D10*
X008220Y003000D03*
X009220Y003000D03*
X010720Y003000D03*
X010720Y005000D03*
X009220Y005000D03*
X008220Y005000D03*
X003220Y008000D03*
X002220Y008000D03*
X002220Y005000D03*
X001220Y005000D03*
X008220Y008500D03*
X010220Y008500D03*
X009720Y010500D03*
X010720Y010500D03*
X008220Y010500D03*
X007220Y010500D03*
X018720Y012500D03*
X019720Y012500D03*
X016720Y002500D03*
X015720Y002500D03*
D11*
X006800Y002610D02*
X006200Y002610D01*
X004240Y002610D02*
X003640Y002610D01*
X003640Y004390D02*
X004240Y004390D01*
X006200Y004390D02*
X006800Y004390D01*
X004220Y009200D02*
X004220Y009800D01*
X003220Y009800D02*
X003220Y009200D01*
X002220Y009200D02*
X002220Y009800D01*
X017720Y014200D02*
X017720Y014800D01*
X018720Y014800D02*
X018720Y014200D01*
X019720Y014200D02*
X019720Y014800D01*
X029720Y013800D02*
X029720Y013200D01*
X030720Y013200D02*
X030720Y013800D01*
X031720Y013800D02*
X031720Y013200D01*
D12*
X038220Y013000D03*
X038220Y012000D03*
X036220Y003000D03*
X035220Y003000D03*
X034220Y003000D03*
X033220Y003000D03*
X032220Y003000D03*
X031220Y003000D03*
X030220Y003000D03*
X018720Y010500D03*
X017720Y010500D03*
X007220Y006000D03*
X006220Y006000D03*
X005220Y006000D03*
X004220Y006000D03*
X003220Y006000D03*
X002220Y006000D03*
D13*
X001720Y018500D03*
X002720Y018500D03*
X003720Y018500D03*
X004720Y018500D03*
X016720Y018500D03*
X017720Y018500D03*
X018720Y018500D03*
X019720Y018500D03*
X020720Y018500D03*
X021720Y018500D03*
D14*
X024271Y005988D03*
X018169Y005988D03*
D15*
X019470Y007283D03*
X020470Y007283D03*
X021470Y007283D03*
X022470Y007283D03*
X023470Y007283D03*
X022970Y008283D03*
X021970Y008283D03*
X020970Y008283D03*
X019970Y008283D03*
X018970Y008283D03*
X019730Y003457D03*
X018730Y002858D03*
X022710Y002858D03*
X023710Y003457D03*
D16*
X028960Y008500D02*
X029480Y008500D01*
X029480Y009500D02*
X028960Y009500D01*
X028960Y010500D02*
X029480Y010500D01*
X029480Y011500D02*
X028960Y011500D01*
X031960Y011500D02*
X032480Y011500D01*
X032480Y010500D02*
X031960Y010500D01*
X031960Y009500D02*
X032480Y009500D01*
X032480Y008500D02*
X031960Y008500D01*
X015220Y012240D02*
X015220Y012760D01*
X014220Y012760D02*
X014220Y012240D01*
X013220Y012240D02*
X013220Y012760D01*
X012220Y012760D02*
X012220Y012240D01*
X011220Y012240D02*
X011220Y012760D01*
X010220Y012760D02*
X010220Y012240D01*
X009220Y012240D02*
X009220Y012760D01*
X008220Y012760D02*
X008220Y012240D01*
X007220Y012240D02*
X007220Y012760D01*
X006220Y012760D02*
X006220Y012240D01*
X005220Y012240D02*
X005220Y012760D01*
X004220Y012760D02*
X004220Y012240D01*
X003220Y012240D02*
X003220Y012760D01*
X002220Y012760D02*
X002220Y012240D01*
X002220Y015240D02*
X002220Y015760D01*
X003220Y015760D02*
X003220Y015240D01*
X004220Y015240D02*
X004220Y015760D01*
X005220Y015760D02*
X005220Y015240D01*
X006220Y015240D02*
X006220Y015760D01*
X007220Y015760D02*
X007220Y015240D01*
X008220Y015240D02*
X008220Y015760D01*
X009220Y015760D02*
X009220Y015240D01*
X010220Y015240D02*
X010220Y015760D01*
X011220Y015760D02*
X011220Y015240D01*
X012220Y015240D02*
X012220Y015760D01*
X013220Y015760D02*
X013220Y015240D01*
X014220Y015240D02*
X014220Y015760D01*
X015220Y015760D02*
X015220Y015240D01*
D17*
X026720Y005894D03*
X028570Y004713D03*
X026720Y003531D03*
D18*
X025220Y007250D03*
X025720Y007750D03*
X027720Y007750D03*
X031220Y010000D03*
X031220Y011000D03*
X026220Y015000D03*
X025720Y015000D03*
X025720Y015500D03*
X026220Y015500D03*
X018720Y011500D03*
X020720Y009750D03*
X021220Y009000D03*
X017720Y007250D03*
X017220Y006000D03*
X015720Y005750D03*
X013970Y004750D03*
X014720Y004250D03*
X012220Y003750D03*
X013720Y006750D03*
X012220Y007750D03*
X013720Y008250D03*
X013720Y009250D03*
X012220Y010250D03*
X015720Y007250D03*
X016470Y014000D03*
X016470Y014500D03*
X016470Y015000D03*
X016470Y015500D03*
X013720Y016500D03*
X013470Y017250D03*
X013970Y017250D03*
X013970Y017750D03*
X013470Y017750D03*
X013470Y019250D03*
X013970Y019250D03*
X013970Y019750D03*
X013470Y019750D03*
X015220Y020500D03*
X015720Y021000D03*
X016220Y021500D03*
X016720Y022000D03*
X012220Y022000D03*
X010220Y021500D03*
X007220Y021000D03*
X006220Y020500D03*
X004720Y020000D03*
X005720Y017000D03*
X006720Y017000D03*
X007720Y017000D03*
X010720Y017500D03*
X011720Y016500D03*
X013220Y014000D03*
X002720Y013500D03*
X000720Y015500D03*
X001970Y011000D03*
D19*
X001970Y011500D01*
X000720Y011500D01*
X000720Y015500D01*
X002720Y013500D02*
X002720Y007000D01*
X003220Y007000D01*
X003220Y006000D01*
X004220Y006000D02*
X004220Y008000D01*
X003720Y008500D01*
X003720Y010500D01*
X003220Y010500D01*
X003220Y012500D01*
X004720Y013500D02*
X004720Y017500D01*
X004220Y018000D01*
X004220Y019000D01*
X004720Y019500D01*
X004720Y020000D01*
X005720Y020500D02*
X006220Y020500D01*
X005720Y020500D02*
X005720Y017000D01*
X006720Y017000D02*
X006720Y021000D01*
X007220Y021000D01*
X007720Y021500D02*
X010220Y021500D01*
X010720Y022000D02*
X012220Y022000D01*
X012720Y022500D02*
X033220Y022500D01*
X033220Y017000D01*
X034720Y017000D01*
X034720Y005500D01*
X035220Y005500D01*
X035220Y003000D01*
X034220Y003000D02*
X034220Y016500D01*
X032220Y016500D01*
X032220Y022000D01*
X016720Y022000D01*
X016220Y021500D02*
X031220Y021500D01*
X031220Y015500D01*
X033220Y015500D01*
X033220Y003000D01*
X032220Y003000D02*
X032220Y005250D01*
X030720Y005250D01*
X030720Y012250D01*
X028720Y012250D01*
X028720Y015500D01*
X030220Y015500D01*
X030220Y021000D01*
X015720Y021000D01*
X015220Y020500D02*
X029220Y020500D01*
X029220Y016000D01*
X028220Y016000D01*
X028220Y007000D01*
X029720Y007000D01*
X029720Y005500D01*
X031220Y004000D01*
X031220Y003000D01*
X030220Y003000D02*
X030220Y002000D01*
X025220Y002000D01*
X025220Y007250D01*
X025720Y007750D02*
X027720Y007750D01*
X020970Y008283D02*
X020720Y008283D01*
X020720Y009250D01*
X013720Y009250D01*
X012220Y010250D02*
X012220Y007750D01*
X012220Y003750D01*
X013970Y004750D02*
X015220Y004750D01*
X015220Y003750D01*
X017720Y003750D01*
X017720Y003500D01*
X019730Y003500D01*
X019730Y003457D01*
X017970Y003250D02*
X017970Y002000D01*
X023710Y002000D01*
X023710Y003457D01*
X020470Y006750D02*
X013720Y006750D01*
X015720Y007250D02*
X017720Y007250D01*
X018220Y008250D02*
X018220Y009000D01*
X019970Y009000D01*
X019970Y008283D01*
X018220Y008250D02*
X013720Y008250D01*
X017220Y006000D02*
X017220Y005750D01*
X015720Y005750D01*
X014720Y004250D02*
X014720Y003250D01*
X017970Y003250D01*
X020470Y006750D02*
X020470Y007283D01*
X020720Y009750D02*
X019720Y009750D01*
X019720Y012500D01*
X019720Y014500D01*
X019720Y016500D01*
X013720Y016500D01*
X011720Y016500D02*
X010220Y016500D01*
X010220Y015500D01*
X009220Y015500D01*
X009220Y014500D01*
X008220Y013500D01*
X008220Y012500D01*
X008220Y013500D02*
X005720Y013500D01*
X004720Y013500D01*
X005720Y013500D02*
X005720Y011500D01*
X005220Y011500D01*
X005220Y006000D01*
X003220Y008000D02*
X003220Y009500D01*
X012720Y014000D02*
X012720Y022500D01*
X010720Y022000D02*
X010720Y017500D01*
X007720Y017000D02*
X007720Y021500D01*
X012720Y014000D02*
X013220Y014000D01*
X014220Y012500D02*
X014220Y011500D01*
X018720Y011500D01*
D20*
X002438Y002064D02*
X002363Y002020D01*
X015462Y002020D01*
X015434Y002034D01*
X015365Y002084D01*
X015304Y002145D01*
X015254Y002214D01*
X015215Y002291D01*
X015188Y002372D01*
X015175Y002457D01*
X015175Y002500D01*
X015720Y002500D01*
X015720Y002500D01*
X015175Y002500D01*
X015175Y002543D01*
X015188Y002628D01*
X015215Y002709D01*
X015254Y002786D01*
X015304Y002855D01*
X015365Y002916D01*
X015434Y002966D01*
X015442Y002970D01*
X014664Y002970D01*
X014561Y003013D01*
X014483Y003091D01*
X014440Y003194D01*
X014440Y003964D01*
X014381Y004023D01*
X014320Y004170D01*
X014320Y004330D01*
X014378Y004470D01*
X014256Y004470D01*
X014197Y004411D01*
X014050Y004350D01*
X013890Y004350D01*
X013743Y004411D01*
X013631Y004523D01*
X013570Y004670D01*
X013570Y004830D01*
X013631Y004977D01*
X013743Y005089D01*
X013890Y005150D01*
X014050Y005150D01*
X014197Y005089D01*
X014256Y005030D01*
X015276Y005030D01*
X015379Y004987D01*
X015457Y004909D01*
X015500Y004806D01*
X015500Y004030D01*
X017776Y004030D01*
X017879Y003987D01*
X017957Y003909D01*
X018000Y003806D01*
X018000Y003780D01*
X018395Y003780D01*
X018258Y003859D01*
X018042Y004075D01*
X017889Y004340D01*
X017810Y004635D01*
X017810Y004940D01*
X017889Y005235D01*
X017945Y005331D01*
X017862Y005366D01*
X017783Y005411D01*
X017711Y005466D01*
X017647Y005531D01*
X017592Y005603D01*
X017546Y005681D01*
X017523Y005737D01*
X017500Y005714D01*
X017500Y005694D01*
X017457Y005591D01*
X017379Y005513D01*
X017276Y005470D01*
X016006Y005470D01*
X015947Y005411D01*
X015800Y005350D01*
X015640Y005350D01*
X015493Y005411D01*
X015381Y005523D01*
X015320Y005670D01*
X015320Y005830D01*
X015381Y005977D01*
X015493Y006089D01*
X015640Y006150D01*
X015800Y006150D01*
X015947Y006089D01*
X016006Y006030D01*
X016820Y006030D01*
X016820Y006080D01*
X016881Y006227D01*
X016993Y006339D01*
X017140Y006400D01*
X017300Y006400D01*
X017447Y006339D01*
X017530Y006256D01*
X017546Y006295D01*
X017592Y006374D01*
X017647Y006446D01*
X017671Y006470D01*
X014006Y006470D01*
X013947Y006411D01*
X013800Y006350D01*
X013640Y006350D01*
X013493Y006411D01*
X013381Y006523D01*
X013320Y006670D01*
X013320Y006830D01*
X013381Y006977D01*
X013493Y007089D01*
X013640Y007150D01*
X013800Y007150D01*
X013947Y007089D01*
X014006Y007030D01*
X015378Y007030D01*
X015320Y007170D01*
X015320Y007330D01*
X015381Y007477D01*
X015493Y007589D01*
X015640Y007650D01*
X015800Y007650D01*
X015947Y007589D01*
X016006Y007530D01*
X017434Y007530D01*
X017493Y007589D01*
X017640Y007650D01*
X017800Y007650D01*
X017947Y007589D01*
X018059Y007477D01*
X018120Y007330D01*
X018120Y007170D01*
X018062Y007030D01*
X019018Y007030D01*
X018955Y007181D01*
X018955Y007386D01*
X019033Y007575D01*
X019178Y007720D01*
X019368Y007798D01*
X019572Y007798D01*
X019762Y007720D01*
X019907Y007575D01*
X019970Y007422D01*
X020033Y007575D01*
X020178Y007720D01*
X020368Y007798D01*
X020572Y007798D01*
X020762Y007720D01*
X020907Y007575D01*
X020970Y007422D01*
X021033Y007575D01*
X021178Y007720D01*
X021368Y007798D01*
X021572Y007798D01*
X021762Y007720D01*
X021907Y007575D01*
X021970Y007422D01*
X022033Y007575D01*
X022178Y007720D01*
X022368Y007798D01*
X022572Y007798D01*
X022762Y007720D01*
X022907Y007575D01*
X022970Y007422D01*
X023033Y007575D01*
X023178Y007720D01*
X023368Y007798D01*
X023400Y007798D01*
X023400Y007985D01*
X023262Y007847D01*
X023072Y007769D01*
X022868Y007769D01*
X022678Y007847D01*
X022533Y007992D01*
X022470Y008145D01*
X022407Y007992D01*
X022262Y007847D01*
X022072Y007769D01*
X021868Y007769D01*
X021678Y007847D01*
X021533Y007992D01*
X021470Y008145D01*
X021407Y007992D01*
X021262Y007847D01*
X021072Y007769D01*
X020868Y007769D01*
X020678Y007847D01*
X020533Y007992D01*
X020470Y008145D01*
X020407Y007992D01*
X020262Y007847D01*
X020072Y007769D01*
X019868Y007769D01*
X019678Y007847D01*
X019533Y007992D01*
X019470Y008145D01*
X019407Y007992D01*
X019262Y007847D01*
X019072Y007769D01*
X018868Y007769D01*
X018678Y007847D01*
X018533Y007992D01*
X018475Y008133D01*
X018457Y008091D01*
X018379Y008013D01*
X018276Y007970D01*
X014006Y007970D01*
X013947Y007911D01*
X013800Y007850D01*
X013640Y007850D01*
X013493Y007911D01*
X013381Y008023D01*
X013320Y008170D01*
X013320Y008330D01*
X013381Y008477D01*
X013493Y008589D01*
X013640Y008650D01*
X013800Y008650D01*
X013947Y008589D01*
X014006Y008530D01*
X017940Y008530D01*
X017940Y008970D01*
X014006Y008970D01*
X013947Y008911D01*
X013800Y008850D01*
X013640Y008850D01*
X013493Y008911D01*
X013381Y009023D01*
X013320Y009170D01*
X013320Y009330D01*
X013381Y009477D01*
X013493Y009589D01*
X013640Y009650D01*
X013800Y009650D01*
X013947Y009589D01*
X014006Y009530D01*
X019544Y009530D01*
X019483Y009591D01*
X019440Y009694D01*
X019440Y012048D01*
X019423Y012055D01*
X019275Y012203D01*
X019231Y012309D01*
X019225Y012291D01*
X019186Y012214D01*
X019136Y012145D01*
X019075Y012084D01*
X019006Y012034D01*
X018929Y011995D01*
X018848Y011968D01*
X018763Y011955D01*
X018720Y011955D01*
X018720Y012500D01*
X018720Y012500D01*
X018720Y013045D01*
X018763Y013045D01*
X018848Y013032D01*
X018929Y013005D01*
X019006Y012966D01*
X019075Y012916D01*
X019136Y012855D01*
X019186Y012786D01*
X019225Y012709D01*
X019231Y012691D01*
X019275Y012797D01*
X019423Y012945D01*
X019440Y012952D01*
X019440Y013775D01*
X019437Y013776D01*
X019296Y013917D01*
X019228Y014082D01*
X019227Y014078D01*
X019202Y014000D01*
X019165Y013927D01*
X019117Y013861D01*
X019059Y013803D01*
X018993Y013755D01*
X018920Y013718D01*
X018842Y013693D01*
X018761Y013680D01*
X018720Y013680D01*
X018720Y014500D01*
X018720Y014500D01*
X018720Y015320D01*
X018761Y015320D01*
X018842Y015307D01*
X018920Y015282D01*
X018993Y015245D01*
X019059Y015197D01*
X019117Y015139D01*
X019165Y015073D01*
X019202Y015000D01*
X019227Y014922D01*
X019228Y014918D01*
X019296Y015083D01*
X019437Y015224D01*
X019440Y015225D01*
X019440Y016220D01*
X014006Y016220D01*
X013947Y016161D01*
X013800Y016100D01*
X013640Y016100D01*
X013493Y016161D01*
X013381Y016273D01*
X013320Y016420D01*
X013320Y016580D01*
X013381Y016727D01*
X013493Y016839D01*
X013640Y016900D01*
X013800Y016900D01*
X013947Y016839D01*
X014006Y016780D01*
X018487Y016780D01*
X018449Y016819D01*
X018400Y016936D01*
X018400Y018131D01*
X018307Y018224D01*
X018233Y018403D01*
X018233Y018597D01*
X018307Y018776D01*
X018444Y018913D01*
X018623Y018987D01*
X018817Y018987D01*
X018996Y018913D01*
X019133Y018776D01*
X019207Y018597D01*
X019207Y018403D01*
X019133Y018224D01*
X019040Y018131D01*
X019040Y017320D01*
X019448Y017320D01*
X019400Y017436D01*
X019400Y018131D01*
X019307Y018224D01*
X019233Y018403D01*
X019233Y018597D01*
X019307Y018776D01*
X019444Y018913D01*
X019623Y018987D01*
X019817Y018987D01*
X019996Y018913D01*
X020133Y018776D01*
X020207Y018597D01*
X020207Y018403D01*
X020133Y018224D01*
X020040Y018131D01*
X020040Y017820D01*
X020448Y017820D01*
X020400Y017936D01*
X020400Y018131D01*
X020307Y018224D01*
X020233Y018403D01*
X020233Y018597D01*
X020307Y018776D01*
X020444Y018913D01*
X020623Y018987D01*
X020817Y018987D01*
X020996Y018913D01*
X021133Y018776D01*
X021207Y018597D01*
X021207Y018403D01*
X021173Y018320D01*
X021267Y018320D01*
X021233Y018403D01*
X021233Y018597D01*
X021307Y018776D01*
X021444Y018913D01*
X021623Y018987D01*
X021817Y018987D01*
X021996Y018913D01*
X022089Y018820D01*
X023784Y018820D01*
X023901Y018771D01*
X023991Y018681D01*
X024040Y018564D01*
X024040Y007470D01*
X023991Y007352D01*
X023985Y007346D01*
X023985Y007181D01*
X023907Y006992D01*
X023762Y006847D01*
X023572Y006769D01*
X023368Y006769D01*
X023178Y006847D01*
X023033Y006992D01*
X022970Y007145D01*
X022907Y006992D01*
X022762Y006847D01*
X022572Y006769D01*
X022368Y006769D01*
X022178Y006847D01*
X022033Y006992D01*
X021970Y007145D01*
X021907Y006992D01*
X021762Y006847D01*
X021572Y006769D01*
X021368Y006769D01*
X021178Y006847D01*
X021033Y006992D01*
X020970Y007145D01*
X020907Y006992D01*
X020762Y006847D01*
X020750Y006842D01*
X020750Y006694D01*
X020707Y006591D01*
X020629Y006513D01*
X020526Y006470D01*
X018666Y006470D01*
X018691Y006446D01*
X018746Y006374D01*
X018791Y006295D01*
X018826Y006211D01*
X018849Y006124D01*
X018861Y006034D01*
X018861Y006026D01*
X018206Y006026D01*
X018206Y005951D01*
X018861Y005951D01*
X018861Y005947D01*
X019123Y005947D01*
X019418Y005868D01*
X019682Y005715D01*
X019898Y005500D01*
X020051Y005235D01*
X020130Y004940D01*
X020130Y004635D01*
X020051Y004340D01*
X019898Y004075D01*
X019794Y003972D01*
X019832Y003972D01*
X020022Y003893D01*
X020166Y003748D01*
X020245Y003559D01*
X020245Y003354D01*
X020166Y003165D01*
X020022Y003020D01*
X019832Y002942D01*
X019627Y002942D01*
X019438Y003020D01*
X019293Y003165D01*
X019270Y003220D01*
X019125Y003220D01*
X019138Y003207D01*
X019187Y003139D01*
X019226Y003064D01*
X019252Y002984D01*
X019265Y002900D01*
X019265Y002858D01*
X018730Y002858D01*
X018730Y002323D01*
X018772Y002323D01*
X018855Y002336D01*
X018935Y002363D01*
X019010Y002401D01*
X019078Y002450D01*
X019138Y002510D01*
X019187Y002578D01*
X019226Y002653D01*
X019252Y002733D01*
X019265Y002816D01*
X019265Y002858D01*
X018730Y002858D01*
X018730Y002858D01*
X018730Y002858D01*
X018730Y002323D01*
X018688Y002323D01*
X018605Y002336D01*
X018524Y002363D01*
X018449Y002401D01*
X018381Y002450D01*
X018322Y002510D01*
X018272Y002578D01*
X018250Y002622D01*
X018250Y002280D01*
X023430Y002280D01*
X023430Y003015D01*
X023418Y003020D01*
X023274Y003165D01*
X023195Y003354D01*
X023195Y003559D01*
X023233Y003650D01*
X023022Y003707D01*
X022758Y003859D01*
X022542Y004075D01*
X022389Y004340D01*
X022310Y004635D01*
X022310Y004940D01*
X022389Y005235D01*
X022542Y005500D01*
X022758Y005715D01*
X023022Y005868D01*
X023317Y005947D01*
X023579Y005947D01*
X023579Y005951D01*
X024234Y005951D01*
X024234Y006026D01*
X024234Y006681D01*
X024226Y006681D01*
X024136Y006669D01*
X024048Y006645D01*
X023964Y006611D01*
X023886Y006565D01*
X023814Y006510D01*
X023749Y006446D01*
X023694Y006374D01*
X023649Y006295D01*
X023614Y006211D01*
X023591Y006124D01*
X023579Y006034D01*
X023579Y006026D01*
X024234Y006026D01*
X024309Y006026D01*
X024309Y006681D01*
X024317Y006681D01*
X024407Y006669D01*
X024494Y006645D01*
X024578Y006611D01*
X024657Y006565D01*
X024729Y006510D01*
X024793Y006446D01*
X024848Y006374D01*
X024894Y006295D01*
X024928Y006211D01*
X024940Y006168D01*
X024940Y006964D01*
X024881Y007023D01*
X024820Y007170D01*
X024820Y007330D01*
X024881Y007477D01*
X024993Y007589D01*
X025140Y007650D01*
X025300Y007650D01*
X025334Y007636D01*
X025320Y007670D01*
X025320Y007830D01*
X025381Y007977D01*
X025493Y008089D01*
X025640Y008150D01*
X025800Y008150D01*
X025947Y008089D01*
X026006Y008030D01*
X027434Y008030D01*
X027493Y008089D01*
X027640Y008150D01*
X027800Y008150D01*
X027940Y008092D01*
X027940Y016056D01*
X027983Y016159D01*
X028061Y016237D01*
X028164Y016280D01*
X028940Y016280D01*
X028940Y016646D01*
X028895Y016613D01*
X028895Y016613D01*
X028256Y016327D01*
X028256Y016327D01*
X027570Y016181D01*
X026870Y016181D01*
X026184Y016327D01*
X026184Y016327D01*
X025545Y016613D01*
X025545Y016613D01*
X024979Y017027D01*
X024979Y017027D01*
X024512Y017549D01*
X024374Y017791D01*
X024325Y017840D01*
X024325Y017876D01*
X024308Y017905D01*
X024325Y017966D01*
X024325Y018860D01*
X024410Y018945D01*
X024725Y018945D01*
X024725Y020055D01*
X024410Y020055D01*
X024325Y020140D01*
X024325Y020220D01*
X015506Y020220D01*
X015447Y020161D01*
X015300Y020100D01*
X015140Y020100D01*
X014993Y020161D01*
X014881Y020273D01*
X014820Y020420D01*
X014820Y020580D01*
X013000Y020580D01*
X013000Y020342D02*
X014853Y020342D01*
X014820Y020580D02*
X014881Y020727D01*
X014993Y020839D01*
X015140Y020900D01*
X015300Y020900D01*
X015334Y020886D01*
X015320Y020920D01*
X015320Y021080D01*
X015381Y021227D01*
X015493Y021339D01*
X015640Y021400D01*
X015800Y021400D01*
X015834Y021386D01*
X015820Y021420D01*
X015820Y021580D01*
X015881Y021727D01*
X015993Y021839D01*
X016140Y021900D01*
X016300Y021900D01*
X016334Y021886D01*
X016320Y021920D01*
X016320Y022080D01*
X016378Y022220D01*
X013000Y022220D01*
X013000Y016167D01*
X013128Y016220D01*
X013311Y016220D01*
X013481Y016150D01*
X013610Y016021D01*
X013680Y015851D01*
X013680Y015148D01*
X013610Y014979D01*
X013481Y014850D01*
X013311Y014780D01*
X013128Y014780D01*
X013000Y014833D01*
X013000Y014342D01*
X013140Y014400D01*
X013300Y014400D01*
X013447Y014339D01*
X013559Y014227D01*
X013620Y014080D01*
X013620Y013920D01*
X013559Y013773D01*
X013447Y013661D01*
X013300Y013600D01*
X013140Y013600D01*
X012993Y013661D01*
X012934Y013720D01*
X012664Y013720D01*
X012561Y013763D01*
X012483Y013841D01*
X012440Y013944D01*
X012440Y014833D01*
X012311Y014780D01*
X012128Y014780D01*
X011959Y014850D01*
X011830Y014979D01*
X011760Y015148D01*
X011760Y015851D01*
X011830Y016021D01*
X011959Y016150D01*
X012128Y016220D01*
X012311Y016220D01*
X012440Y016167D01*
X012440Y021658D01*
X012300Y021600D01*
X012140Y021600D01*
X011993Y021661D01*
X011934Y021720D01*
X011000Y021720D01*
X011000Y017786D01*
X011059Y017727D01*
X011120Y017580D01*
X011120Y017420D01*
X011059Y017273D01*
X010947Y017161D01*
X010800Y017100D01*
X010640Y017100D01*
X010493Y017161D01*
X010381Y017273D01*
X010320Y017420D01*
X010320Y017580D01*
X010381Y017727D01*
X010440Y017786D01*
X010440Y021158D01*
X010300Y021100D01*
X010140Y021100D01*
X009993Y021161D01*
X009934Y021220D01*
X008000Y021220D01*
X008000Y017286D01*
X008059Y017227D01*
X008120Y017080D01*
X008120Y016920D01*
X008059Y016773D01*
X007947Y016661D01*
X007800Y016600D01*
X007640Y016600D01*
X007493Y016661D01*
X007381Y016773D01*
X007320Y016920D01*
X007320Y017080D01*
X007381Y017227D01*
X007440Y017286D01*
X007440Y020658D01*
X007300Y020600D01*
X007140Y020600D01*
X007000Y020658D01*
X007000Y017286D01*
X007059Y017227D01*
X007120Y017080D01*
X007120Y016920D01*
X007059Y016773D01*
X006947Y016661D01*
X006800Y016600D01*
X006640Y016600D01*
X006493Y016661D01*
X006381Y016773D01*
X006320Y016920D01*
X006320Y017080D01*
X006381Y017227D01*
X006440Y017286D01*
X006440Y020158D01*
X006300Y020100D01*
X006140Y020100D01*
X006000Y020158D01*
X006000Y017286D01*
X006059Y017227D01*
X006120Y017080D01*
X006120Y016920D01*
X006059Y016773D01*
X005947Y016661D01*
X005800Y016600D01*
X005640Y016600D01*
X005493Y016661D01*
X005381Y016773D01*
X005320Y016920D01*
X005320Y017080D01*
X005381Y017227D01*
X005440Y017286D01*
X005440Y020556D01*
X005483Y020659D01*
X005561Y020737D01*
X005664Y020780D01*
X005934Y020780D01*
X005993Y020839D01*
X006140Y020900D01*
X006300Y020900D01*
X006440Y020842D01*
X006440Y021056D01*
X006483Y021159D01*
X006561Y021237D01*
X006664Y021280D01*
X006934Y021280D01*
X006993Y021339D01*
X007140Y021400D01*
X007300Y021400D01*
X007440Y021342D01*
X007440Y021556D01*
X007483Y021659D01*
X007561Y021737D01*
X007664Y021780D01*
X009934Y021780D01*
X009993Y021839D01*
X010140Y021900D01*
X010300Y021900D01*
X010440Y021842D01*
X010440Y022056D01*
X010483Y022159D01*
X010561Y022237D01*
X010664Y022280D01*
X011934Y022280D01*
X011993Y022339D01*
X012140Y022400D01*
X012300Y022400D01*
X012440Y022342D01*
X012440Y022476D01*
X002369Y022476D01*
X002438Y022436D01*
X002656Y022218D01*
X002810Y021952D01*
X002890Y021654D01*
X002890Y021346D01*
X002810Y021048D01*
X002656Y020782D01*
X002438Y020564D01*
X002172Y020410D01*
X001874Y020330D01*
X001566Y020330D01*
X001268Y020410D01*
X001002Y020564D01*
X000784Y020782D01*
X000740Y020857D01*
X000740Y015900D01*
X000800Y015900D01*
X000947Y015839D01*
X001059Y015727D01*
X001120Y015580D01*
X001120Y015420D01*
X001059Y015273D01*
X001000Y015214D01*
X001000Y011780D01*
X002026Y011780D01*
X002129Y011737D01*
X002207Y011659D01*
X002250Y011556D01*
X002250Y011286D01*
X002309Y011227D01*
X002370Y011080D01*
X002370Y010920D01*
X002309Y010773D01*
X002197Y010661D01*
X002050Y010600D01*
X001890Y010600D01*
X001743Y010661D01*
X001631Y010773D01*
X001570Y010920D01*
X001570Y011080D01*
X001628Y011220D01*
X000740Y011220D01*
X000740Y005213D01*
X000775Y005297D01*
X000923Y005445D01*
X001116Y005525D01*
X001324Y005525D01*
X001517Y005445D01*
X001665Y005297D01*
X001720Y005165D01*
X001775Y005297D01*
X001923Y005445D01*
X001996Y005476D01*
X001897Y005517D01*
X001737Y005677D01*
X001650Y005887D01*
X001650Y006113D01*
X001737Y006323D01*
X001897Y006483D01*
X002107Y006570D01*
X002333Y006570D01*
X002543Y006483D01*
X002703Y006323D01*
X002720Y006282D01*
X002737Y006323D01*
X002897Y006483D01*
X002940Y006501D01*
X002940Y006720D01*
X002664Y006720D01*
X002561Y006763D01*
X002483Y006841D01*
X002440Y006944D01*
X002440Y007500D01*
X002429Y007495D01*
X002348Y007468D01*
X002263Y007455D01*
X002220Y007455D01*
X002220Y008000D01*
X002220Y008000D01*
X002220Y008545D01*
X002263Y008545D01*
X002348Y008532D01*
X002429Y008505D01*
X002440Y008500D01*
X002440Y008728D01*
X002420Y008718D01*
X002342Y008693D01*
X002261Y008680D01*
X002220Y008680D01*
X002220Y009500D01*
X002220Y009500D01*
X002220Y010320D01*
X002261Y010320D01*
X002342Y010307D01*
X002420Y010282D01*
X002440Y010272D01*
X002440Y011833D01*
X002311Y011780D01*
X002128Y011780D01*
X001959Y011850D01*
X001830Y011979D01*
X001760Y012148D01*
X001760Y012851D01*
X001830Y013021D01*
X001959Y013150D01*
X002128Y013220D01*
X002311Y013220D01*
X002440Y013167D01*
X002440Y013214D01*
X002381Y013273D01*
X002320Y013420D01*
X002320Y013580D01*
X002381Y013727D01*
X002493Y013839D01*
X002640Y013900D01*
X002800Y013900D01*
X002947Y013839D01*
X003059Y013727D01*
X003120Y013580D01*
X003120Y013420D01*
X003059Y013273D01*
X003000Y013214D01*
X003000Y013167D01*
X003128Y013220D01*
X003311Y013220D01*
X003481Y013150D01*
X003610Y013021D01*
X003680Y012851D01*
X003680Y012148D01*
X003610Y011979D01*
X003500Y011869D01*
X003500Y010780D01*
X003776Y010780D01*
X003879Y010737D01*
X003957Y010659D01*
X004000Y010556D01*
X004000Y010250D01*
X004121Y010300D01*
X004319Y010300D01*
X004503Y010224D01*
X004644Y010083D01*
X004720Y009899D01*
X004720Y009101D01*
X004644Y008917D01*
X004503Y008776D01*
X004319Y008700D01*
X004121Y008700D01*
X004000Y008750D01*
X004000Y008616D01*
X004457Y008159D01*
X004500Y008056D01*
X004500Y006501D01*
X004543Y006483D01*
X004703Y006323D01*
X004720Y006282D01*
X004737Y006323D01*
X004897Y006483D01*
X004940Y006501D01*
X004940Y011556D01*
X004983Y011659D01*
X005061Y011737D01*
X005164Y011780D01*
X005440Y011780D01*
X005440Y011833D01*
X005311Y011780D01*
X005128Y011780D01*
X004959Y011850D01*
X004830Y011979D01*
X004760Y012148D01*
X004760Y012851D01*
X004830Y013021D01*
X004959Y013150D01*
X005128Y013220D01*
X005311Y013220D01*
X005440Y013167D01*
X005440Y013220D01*
X004664Y013220D01*
X004561Y013263D01*
X004483Y013341D01*
X004440Y013444D01*
X004440Y014833D01*
X004311Y014780D01*
X004128Y014780D01*
X003959Y014850D01*
X003830Y014979D01*
X003760Y015148D01*
X003760Y015851D01*
X003830Y016021D01*
X003959Y016150D01*
X004128Y016220D01*
X004311Y016220D01*
X004440Y016167D01*
X004440Y017384D01*
X004061Y017763D01*
X003983Y017841D01*
X003944Y017936D01*
X003841Y017893D01*
X003599Y017893D01*
X003376Y017985D01*
X003205Y018156D01*
X003155Y018278D01*
X003133Y018224D01*
X002996Y018087D01*
X002817Y018013D01*
X002623Y018013D01*
X002444Y018087D01*
X002307Y018224D01*
X002233Y018403D01*
X002233Y018597D01*
X002307Y018776D01*
X002444Y018913D01*
X002623Y018987D01*
X002817Y018987D01*
X002996Y018913D01*
X003133Y018776D01*
X003155Y018722D01*
X003205Y018844D01*
X003376Y019015D01*
X003599Y019107D01*
X003841Y019107D01*
X003944Y019064D01*
X003983Y019159D01*
X004440Y019616D01*
X004440Y019714D01*
X004381Y019773D01*
X004320Y019920D01*
X004320Y020080D01*
X004381Y020227D01*
X004493Y020339D01*
X004640Y020400D01*
X004800Y020400D01*
X004947Y020339D01*
X005059Y020227D01*
X005120Y020080D01*
X005120Y019920D01*
X005059Y019773D01*
X005000Y019714D01*
X005000Y019444D01*
X004957Y019341D01*
X004879Y019263D01*
X004612Y018996D01*
X004680Y019007D01*
X004720Y019007D01*
X004720Y018500D01*
X004720Y018500D01*
X005227Y018500D01*
X005227Y018540D01*
X005215Y018619D01*
X005190Y018695D01*
X005154Y018766D01*
X005107Y018830D01*
X005050Y018887D01*
X004986Y018934D01*
X004915Y018970D01*
X004839Y018995D01*
X004760Y019007D01*
X004720Y019007D01*
X004720Y018500D01*
X004720Y018500D01*
X005227Y018500D01*
X005227Y018460D01*
X005215Y018381D01*
X005190Y018305D01*
X005154Y018234D01*
X005107Y018170D01*
X005050Y018113D01*
X004986Y018066D01*
X004915Y018030D01*
X004839Y018005D01*
X004760Y017993D01*
X004720Y017993D01*
X004720Y018500D01*
X004720Y018500D01*
X004720Y017993D01*
X004680Y017993D01*
X004612Y018004D01*
X004957Y017659D01*
X005000Y017556D01*
X005000Y016167D01*
X005128Y016220D01*
X005311Y016220D01*
X005481Y016150D01*
X005610Y016021D01*
X005680Y015851D01*
X005680Y015148D01*
X005610Y014979D01*
X005481Y014850D01*
X005311Y014780D01*
X005128Y014780D01*
X005000Y014833D01*
X005000Y013780D01*
X008104Y013780D01*
X008940Y014616D01*
X008940Y014869D01*
X008830Y014979D01*
X008760Y015148D01*
X008760Y015851D01*
X008830Y016021D01*
X008959Y016150D01*
X009128Y016220D01*
X009311Y016220D01*
X009481Y016150D01*
X009610Y016021D01*
X009680Y015851D01*
X009680Y015780D01*
X009760Y015780D01*
X009760Y015851D01*
X009830Y016021D01*
X009940Y016131D01*
X009940Y016556D01*
X009983Y016659D01*
X010061Y016737D01*
X010164Y016780D01*
X011434Y016780D01*
X011493Y016839D01*
X011640Y016900D01*
X011800Y016900D01*
X011947Y016839D01*
X012059Y016727D01*
X012120Y016580D01*
X012120Y016420D01*
X012059Y016273D01*
X011947Y016161D01*
X011800Y016100D01*
X011640Y016100D01*
X011493Y016161D01*
X011434Y016220D01*
X010500Y016220D01*
X010500Y016131D01*
X010610Y016021D01*
X010680Y015851D01*
X010680Y015148D01*
X010610Y014979D01*
X010481Y014850D01*
X010311Y014780D01*
X010128Y014780D01*
X009959Y014850D01*
X009830Y014979D01*
X009760Y015148D01*
X009760Y015220D01*
X009680Y015220D01*
X009680Y015148D01*
X009610Y014979D01*
X009500Y014869D01*
X009500Y014444D01*
X009457Y014341D01*
X009379Y014263D01*
X008500Y013384D01*
X008500Y013131D01*
X008610Y013021D01*
X008680Y012851D01*
X008680Y012148D01*
X008610Y011979D01*
X008481Y011850D01*
X008311Y011780D01*
X008128Y011780D01*
X007959Y011850D01*
X007830Y011979D01*
X007760Y012148D01*
X007760Y012851D01*
X007830Y013021D01*
X007940Y013131D01*
X007940Y013220D01*
X006000Y013220D01*
X006000Y013167D01*
X006128Y013220D01*
X006311Y013220D01*
X006481Y013150D01*
X006610Y013021D01*
X006680Y012851D01*
X006680Y012148D01*
X006610Y011979D01*
X006481Y011850D01*
X006311Y011780D01*
X006128Y011780D01*
X006000Y011833D01*
X006000Y011444D01*
X005957Y011341D01*
X005879Y011263D01*
X005776Y011220D01*
X005500Y011220D01*
X005500Y006501D01*
X005543Y006483D01*
X005703Y006323D01*
X005720Y006282D01*
X005737Y006323D01*
X005897Y006483D01*
X006107Y006570D01*
X006333Y006570D01*
X006543Y006483D01*
X006703Y006323D01*
X006712Y006302D01*
X006715Y006309D01*
X006770Y006384D01*
X006836Y006450D01*
X006911Y006505D01*
X006994Y006547D01*
X007082Y006575D01*
X007174Y006590D01*
X007220Y006590D01*
X007220Y006000D01*
X007220Y006000D01*
X007810Y006000D01*
X007810Y006046D01*
X007795Y006138D01*
X007767Y006226D01*
X007725Y006309D01*
X007670Y006384D01*
X007604Y006450D01*
X007529Y006505D01*
X007446Y006547D01*
X007358Y006575D01*
X007266Y006590D01*
X007220Y006590D01*
X007220Y006000D01*
X007220Y006000D01*
X007810Y006000D01*
X007810Y005954D01*
X007795Y005862D01*
X007767Y005774D01*
X007725Y005691D01*
X007670Y005616D01*
X007604Y005550D01*
X007529Y005495D01*
X007446Y005453D01*
X007358Y005425D01*
X007266Y005410D01*
X007220Y005410D01*
X007220Y006000D01*
X007220Y006000D01*
X007220Y005410D01*
X007174Y005410D01*
X007082Y005425D01*
X006994Y005453D01*
X006911Y005495D01*
X006836Y005550D01*
X006770Y005616D01*
X006715Y005691D01*
X006712Y005698D01*
X006703Y005677D01*
X006543Y005517D01*
X006333Y005430D01*
X006107Y005430D01*
X005897Y005517D01*
X005737Y005677D01*
X005720Y005718D01*
X005703Y005677D01*
X005543Y005517D01*
X005333Y005430D01*
X005107Y005430D01*
X004897Y005517D01*
X004737Y005677D01*
X004720Y005718D01*
X004703Y005677D01*
X004543Y005517D01*
X004333Y005430D01*
X004107Y005430D01*
X003897Y005517D01*
X003737Y005677D01*
X003720Y005718D01*
X003703Y005677D01*
X003543Y005517D01*
X003333Y005430D01*
X003107Y005430D01*
X002897Y005517D01*
X002737Y005677D01*
X002720Y005718D01*
X002703Y005677D01*
X002543Y005517D01*
X002444Y005476D01*
X002517Y005445D01*
X002665Y005297D01*
X002745Y005104D01*
X002745Y004896D01*
X002665Y004703D01*
X002517Y004555D01*
X002324Y004475D01*
X002116Y004475D01*
X001923Y004555D01*
X001775Y004703D01*
X001720Y004835D01*
X001665Y004703D01*
X001517Y004555D01*
X001324Y004475D01*
X001116Y004475D01*
X000923Y004555D01*
X000775Y004703D01*
X000740Y004787D01*
X000740Y003643D01*
X000784Y003718D01*
X001002Y003936D01*
X001268Y004090D01*
X001566Y004170D01*
X001874Y004170D01*
X002172Y004090D01*
X002438Y003936D01*
X002656Y003718D01*
X002810Y003452D01*
X002890Y003154D01*
X002890Y002846D01*
X002810Y002548D01*
X002656Y002282D01*
X002438Y002064D01*
X002590Y002216D02*
X003327Y002216D01*
X003357Y002186D02*
X003541Y002110D01*
X004339Y002110D01*
X004523Y002186D01*
X004664Y002327D01*
X004740Y002511D01*
X004740Y002709D01*
X004664Y002893D01*
X004523Y003034D01*
X004339Y003110D01*
X003541Y003110D01*
X003357Y003034D01*
X003216Y002893D01*
X003140Y002709D01*
X003140Y002511D01*
X003216Y002327D01*
X003357Y002186D01*
X003163Y002454D02*
X002756Y002454D01*
X002849Y002693D02*
X003140Y002693D01*
X003254Y002931D02*
X002890Y002931D01*
X002886Y003170D02*
X007702Y003170D01*
X007715Y003209D02*
X007688Y003128D01*
X007675Y003043D01*
X007675Y003000D01*
X008220Y003000D01*
X008220Y003000D01*
X008220Y003545D01*
X008263Y003545D01*
X008348Y003532D01*
X008429Y003505D01*
X008506Y003466D01*
X008575Y003416D01*
X008636Y003355D01*
X008686Y003286D01*
X008725Y003209D01*
X008731Y003191D01*
X008775Y003297D01*
X008923Y003445D01*
X009116Y003525D01*
X009324Y003525D01*
X009517Y003445D01*
X009665Y003297D01*
X009745Y003104D01*
X009745Y002896D01*
X009665Y002703D01*
X009517Y002555D01*
X009324Y002475D01*
X009116Y002475D01*
X008923Y002555D01*
X008775Y002703D01*
X008731Y002809D01*
X008725Y002791D01*
X008686Y002714D01*
X008636Y002645D01*
X008575Y002584D01*
X008506Y002534D01*
X008429Y002495D01*
X008348Y002468D01*
X008263Y002455D01*
X008220Y002455D01*
X008220Y003000D01*
X008220Y003545D01*
X008177Y003545D01*
X008092Y003532D01*
X008011Y003505D01*
X007934Y003466D01*
X007865Y003416D01*
X007804Y003355D01*
X007754Y003286D01*
X007715Y003209D01*
X007675Y003000D02*
X007675Y002957D01*
X007688Y002872D01*
X007715Y002791D01*
X007754Y002714D01*
X007804Y002645D01*
X007865Y002584D01*
X007934Y002534D01*
X008011Y002495D01*
X008092Y002468D01*
X008177Y002455D01*
X008220Y002455D01*
X008220Y003000D01*
X008220Y003000D01*
X008220Y003000D01*
X007675Y003000D01*
X007679Y002931D02*
X007186Y002931D01*
X007224Y002893D02*
X007083Y003034D01*
X006899Y003110D01*
X006101Y003110D01*
X005917Y003034D01*
X005776Y002893D01*
X005700Y002709D01*
X005700Y002511D01*
X005776Y002327D01*
X005917Y002186D01*
X006101Y002110D01*
X006899Y002110D01*
X007083Y002186D01*
X007224Y002327D01*
X007300Y002511D01*
X007300Y002709D01*
X007224Y002893D01*
X007300Y002693D02*
X007770Y002693D01*
X008220Y002693D02*
X008220Y002693D01*
X008220Y002931D02*
X008220Y002931D01*
X008220Y003170D02*
X008220Y003170D01*
X008220Y003408D02*
X008220Y003408D01*
X008583Y003408D02*
X008886Y003408D01*
X009554Y003408D02*
X010386Y003408D01*
X010423Y003445D02*
X010275Y003297D01*
X010195Y003104D01*
X010195Y002896D01*
X010275Y002703D01*
X010423Y002555D01*
X010616Y002475D01*
X010824Y002475D01*
X011017Y002555D01*
X011165Y002703D01*
X011245Y002896D01*
X011245Y003104D01*
X011165Y003297D01*
X011017Y003445D01*
X010824Y003525D01*
X010616Y003525D01*
X010423Y003445D01*
X010222Y003170D02*
X009718Y003170D01*
X009745Y002931D02*
X010195Y002931D01*
X010285Y002693D02*
X009655Y002693D01*
X008785Y002693D02*
X008670Y002693D01*
X007857Y003408D02*
X002822Y003408D01*
X002698Y003647D02*
X011830Y003647D01*
X011820Y003670D02*
X011881Y003523D01*
X011993Y003411D01*
X012140Y003350D01*
X012300Y003350D01*
X012447Y003411D01*
X012559Y003523D01*
X012620Y003670D01*
X012620Y003830D01*
X012559Y003977D01*
X012500Y004036D01*
X012500Y007464D01*
X012559Y007523D01*
X012620Y007670D01*
X012620Y007830D01*
X012559Y007977D01*
X012500Y008036D01*
X012500Y009964D01*
X012559Y010023D01*
X012620Y010170D01*
X012620Y010330D01*
X012559Y010477D01*
X012447Y010589D01*
X012300Y010650D01*
X012140Y010650D01*
X011993Y010589D01*
X011881Y010477D01*
X011820Y010330D01*
X011820Y010170D01*
X011881Y010023D01*
X011940Y009964D01*
X011940Y008036D01*
X011881Y007977D01*
X011820Y007830D01*
X011820Y007670D01*
X011881Y007523D01*
X011940Y007464D01*
X011940Y004036D01*
X011881Y003977D01*
X011820Y003830D01*
X011820Y003670D01*
X011843Y003885D02*
X006929Y003885D01*
X006922Y003883D02*
X007000Y003908D01*
X007073Y003945D01*
X007139Y003993D01*
X007197Y004051D01*
X007245Y004117D01*
X007282Y004190D01*
X007307Y004268D01*
X007320Y004349D01*
X007320Y004390D01*
X007320Y004431D01*
X007307Y004512D01*
X007282Y004590D01*
X007245Y004663D01*
X007197Y004729D01*
X007139Y004787D01*
X007073Y004835D01*
X007000Y004872D01*
X006922Y004897D01*
X006841Y004910D01*
X006500Y004910D01*
X006500Y004390D01*
X006500Y004390D01*
X007320Y004390D01*
X006500Y004390D01*
X006500Y004390D01*
X006500Y003870D01*
X006841Y003870D01*
X006922Y003883D01*
X007248Y004124D02*
X011940Y004124D01*
X011940Y004362D02*
X007320Y004362D01*
X007276Y004601D02*
X007849Y004601D01*
X007865Y004584D02*
X007934Y004534D01*
X008011Y004495D01*
X008092Y004468D01*
X008177Y004455D01*
X008220Y004455D01*
X008263Y004455D01*
X008348Y004468D01*
X008429Y004495D01*
X008506Y004534D01*
X008575Y004584D01*
X008636Y004645D01*
X008686Y004714D01*
X008725Y004791D01*
X008731Y004809D01*
X008775Y004703D01*
X008923Y004555D01*
X009116Y004475D01*
X009324Y004475D01*
X009517Y004555D01*
X009665Y004703D01*
X009745Y004896D01*
X009745Y005104D01*
X009665Y005297D01*
X009517Y005445D01*
X009324Y005525D01*
X009116Y005525D01*
X008923Y005445D01*
X008775Y005297D01*
X008731Y005191D01*
X008725Y005209D01*
X008686Y005286D01*
X008636Y005355D01*
X008575Y005416D01*
X008506Y005466D01*
X008429Y005505D01*
X008348Y005532D01*
X008263Y005545D01*
X008220Y005545D01*
X008220Y005000D01*
X008220Y005000D01*
X008220Y005545D01*
X008177Y005545D01*
X008092Y005532D01*
X008011Y005505D01*
X007934Y005466D01*
X007865Y005416D01*
X007804Y005355D01*
X007754Y005286D01*
X007715Y005209D01*
X007688Y005128D01*
X007675Y005043D01*
X007675Y005000D01*
X008220Y005000D01*
X008220Y004455D01*
X008220Y005000D01*
X008220Y005000D01*
X008220Y005000D01*
X007675Y005000D01*
X007675Y004957D01*
X007688Y004872D01*
X007715Y004791D01*
X007754Y004714D01*
X007804Y004645D01*
X007865Y004584D01*
X007699Y004839D02*
X007064Y004839D01*
X006500Y004839D02*
X006500Y004839D01*
X006500Y004910D02*
X006159Y004910D01*
X006078Y004897D01*
X006000Y004872D01*
X005927Y004835D01*
X005861Y004787D01*
X005803Y004729D01*
X005755Y004663D01*
X005718Y004590D01*
X005693Y004512D01*
X005680Y004431D01*
X005680Y004390D01*
X006500Y004390D01*
X006500Y004390D01*
X006500Y004390D01*
X006500Y004910D01*
X006500Y004601D02*
X006500Y004601D01*
X006500Y004390D02*
X005680Y004390D01*
X005680Y004349D01*
X005693Y004268D01*
X005718Y004190D01*
X005755Y004117D01*
X005803Y004051D01*
X005861Y003993D01*
X005927Y003945D01*
X006000Y003908D01*
X006078Y003883D01*
X006159Y003870D01*
X006500Y003870D01*
X006500Y004390D01*
X006500Y004362D02*
X006500Y004362D01*
X006500Y004124D02*
X006500Y004124D01*
X006500Y003885D02*
X006500Y003885D01*
X006071Y003885D02*
X004369Y003885D01*
X004362Y003883D02*
X004440Y003908D01*
X004513Y003945D01*
X004579Y003993D01*
X004637Y004051D01*
X004685Y004117D01*
X004722Y004190D01*
X004747Y004268D01*
X004760Y004349D01*
X004760Y004390D01*
X004760Y004431D01*
X004747Y004512D01*
X004722Y004590D01*
X004685Y004663D01*
X004637Y004729D01*
X004579Y004787D01*
X004513Y004835D01*
X004440Y004872D01*
X004362Y004897D01*
X004281Y004910D01*
X003940Y004910D01*
X003940Y004390D01*
X003940Y004390D01*
X004760Y004390D01*
X003940Y004390D01*
X003940Y004390D01*
X003940Y003870D01*
X004281Y003870D01*
X004362Y003883D01*
X004688Y004124D02*
X005752Y004124D01*
X005680Y004362D02*
X004760Y004362D01*
X004716Y004601D02*
X005724Y004601D01*
X005936Y004839D02*
X004504Y004839D01*
X003940Y004839D02*
X003940Y004839D01*
X003940Y004910D02*
X003599Y004910D01*
X003518Y004897D01*
X003440Y004872D01*
X003367Y004835D01*
X003301Y004787D01*
X003243Y004729D01*
X003195Y004663D01*
X003158Y004590D01*
X003133Y004512D01*
X003120Y004431D01*
X003120Y004390D01*
X003940Y004390D01*
X003940Y004390D01*
X003940Y004390D01*
X003940Y004910D01*
X003940Y004601D02*
X003940Y004601D01*
X003940Y004390D02*
X003120Y004390D01*
X003120Y004349D01*
X003133Y004268D01*
X003158Y004190D01*
X003195Y004117D01*
X003243Y004051D01*
X003301Y003993D01*
X003367Y003945D01*
X003440Y003908D01*
X003518Y003883D01*
X003599Y003870D01*
X003940Y003870D01*
X003940Y004390D01*
X003940Y004362D02*
X003940Y004362D01*
X003940Y004124D02*
X003940Y004124D01*
X003940Y003885D02*
X003940Y003885D01*
X003511Y003885D02*
X002490Y003885D01*
X002048Y004124D02*
X003192Y004124D01*
X003120Y004362D02*
X000740Y004362D01*
X000740Y004124D02*
X001392Y004124D01*
X000950Y003885D02*
X000740Y003885D01*
X000740Y003647D02*
X000742Y003647D01*
X000740Y004601D02*
X000877Y004601D01*
X001563Y004601D02*
X001877Y004601D01*
X002563Y004601D02*
X003164Y004601D01*
X003376Y004839D02*
X002722Y004839D01*
X002745Y005078D02*
X007680Y005078D01*
X007776Y005316D02*
X002646Y005316D01*
X002581Y005555D02*
X002859Y005555D01*
X003581Y005555D02*
X003859Y005555D01*
X004581Y005555D02*
X004859Y005555D01*
X005581Y005555D02*
X005859Y005555D01*
X006581Y005555D02*
X006831Y005555D01*
X007220Y005555D02*
X007220Y005555D01*
X007220Y005793D02*
X007220Y005793D01*
X007220Y006032D02*
X007220Y006032D01*
X007220Y006270D02*
X007220Y006270D01*
X007220Y006509D02*
X007220Y006509D01*
X006918Y006509D02*
X006482Y006509D01*
X005958Y006509D02*
X005500Y006509D01*
X005500Y006747D02*
X011940Y006747D01*
X011940Y006509D02*
X007522Y006509D01*
X007745Y006270D02*
X011940Y006270D01*
X011940Y006032D02*
X007810Y006032D01*
X007773Y005793D02*
X011940Y005793D01*
X011940Y005555D02*
X007609Y005555D01*
X008220Y005316D02*
X008220Y005316D01*
X008220Y005078D02*
X008220Y005078D01*
X008220Y004839D02*
X008220Y004839D01*
X008220Y004601D02*
X008220Y004601D01*
X008591Y004601D02*
X008877Y004601D01*
X009563Y004601D02*
X010377Y004601D01*
X010423Y004555D02*
X010616Y004475D01*
X010824Y004475D01*
X011017Y004555D01*
X011165Y004703D01*
X011245Y004896D01*
X011245Y005104D01*
X011165Y005297D01*
X011017Y005445D01*
X010824Y005525D01*
X010616Y005525D01*
X010423Y005445D01*
X010275Y005297D01*
X010195Y005104D01*
X010195Y004896D01*
X010275Y004703D01*
X010423Y004555D01*
X010218Y004839D02*
X009722Y004839D01*
X009745Y005078D02*
X010195Y005078D01*
X010294Y005316D02*
X009646Y005316D01*
X008794Y005316D02*
X008664Y005316D01*
X011146Y005316D02*
X011940Y005316D01*
X011940Y005078D02*
X011245Y005078D01*
X011222Y004839D02*
X011940Y004839D01*
X011940Y004601D02*
X011063Y004601D01*
X012500Y004601D02*
X013599Y004601D01*
X013574Y004839D02*
X012500Y004839D01*
X012500Y005078D02*
X013732Y005078D01*
X014208Y005078D02*
X017847Y005078D01*
X017810Y004839D02*
X015486Y004839D01*
X015500Y004601D02*
X017819Y004601D01*
X017883Y004362D02*
X015500Y004362D01*
X015500Y004124D02*
X018014Y004124D01*
X017967Y003885D02*
X018232Y003885D01*
X019165Y003170D02*
X019291Y003170D01*
X019260Y002931D02*
X022180Y002931D01*
X022175Y002900D02*
X022175Y002858D01*
X022175Y002816D01*
X022188Y002733D01*
X022214Y002653D01*
X022253Y002578D01*
X022302Y002510D01*
X022362Y002450D01*
X022430Y002401D01*
X022505Y002363D01*
X022585Y002336D01*
X022668Y002323D01*
X022710Y002323D01*
X022710Y002858D01*
X022710Y002858D01*
X022175Y002858D01*
X022710Y002858D01*
X022710Y002858D01*
X022710Y002323D01*
X022752Y002323D01*
X022835Y002336D01*
X022916Y002363D01*
X022991Y002401D01*
X023059Y002450D01*
X023118Y002510D01*
X023168Y002578D01*
X023206Y002653D01*
X023232Y002733D01*
X023245Y002816D01*
X023245Y002858D01*
X022710Y002858D01*
X022710Y002858D01*
X022710Y003393D01*
X022668Y003393D01*
X022585Y003380D01*
X022505Y003354D01*
X022430Y003316D01*
X022362Y003266D01*
X022302Y003207D01*
X022253Y003139D01*
X022214Y003064D01*
X022188Y002984D01*
X022175Y002900D01*
X022202Y002693D02*
X019238Y002693D01*
X019082Y002454D02*
X022358Y002454D01*
X022710Y002454D02*
X022710Y002454D01*
X022710Y002693D02*
X022710Y002693D01*
X022710Y002858D02*
X023245Y002858D01*
X023245Y002900D01*
X023232Y002984D01*
X023206Y003064D01*
X023168Y003139D01*
X023118Y003207D01*
X023059Y003266D01*
X022991Y003316D01*
X022916Y003354D01*
X022835Y003380D01*
X022752Y003393D01*
X022710Y003393D01*
X022710Y002858D01*
X022710Y002858D01*
X022710Y002931D02*
X022710Y002931D01*
X022710Y003170D02*
X022710Y003170D01*
X022275Y003170D02*
X020168Y003170D01*
X020245Y003408D02*
X023195Y003408D01*
X023231Y003647D02*
X020209Y003647D01*
X020030Y003885D02*
X022732Y003885D01*
X022514Y004124D02*
X019926Y004124D01*
X020057Y004362D02*
X022383Y004362D01*
X022319Y004601D02*
X020121Y004601D01*
X020130Y004839D02*
X022310Y004839D01*
X022347Y005078D02*
X020093Y005078D01*
X020004Y005316D02*
X022436Y005316D01*
X022597Y005555D02*
X019843Y005555D01*
X019548Y005793D02*
X022892Y005793D01*
X023579Y006032D02*
X018861Y006032D01*
X018802Y006270D02*
X023638Y006270D01*
X023812Y006509D02*
X020619Y006509D01*
X020750Y006747D02*
X024940Y006747D01*
X024940Y006509D02*
X024730Y006509D01*
X024904Y006270D02*
X024940Y006270D01*
X024309Y006270D02*
X024234Y006270D01*
X024234Y006032D02*
X024309Y006032D01*
X024309Y006509D02*
X024234Y006509D01*
X023900Y006986D02*
X024919Y006986D01*
X024820Y007224D02*
X023985Y007224D01*
X024037Y007463D02*
X024875Y007463D01*
X025320Y007701D02*
X024040Y007701D01*
X024040Y007940D02*
X025366Y007940D01*
X025606Y007364D02*
X025640Y007350D01*
X025800Y007350D01*
X025947Y007411D01*
X026006Y007470D01*
X027434Y007470D01*
X027493Y007411D01*
X027640Y007350D01*
X027800Y007350D01*
X027940Y007408D01*
X027940Y007056D01*
X027940Y006944D01*
X027983Y006841D01*
X028061Y006763D01*
X028164Y006720D01*
X029440Y006720D01*
X029440Y005444D01*
X029483Y005341D01*
X030940Y003884D01*
X030940Y003501D01*
X030897Y003483D01*
X030737Y003323D01*
X030720Y003282D01*
X030703Y003323D01*
X030543Y003483D01*
X030333Y003570D01*
X030107Y003570D01*
X029897Y003483D01*
X029737Y003323D01*
X029650Y003113D01*
X029650Y002887D01*
X029737Y002677D01*
X029897Y002517D01*
X029940Y002499D01*
X029940Y002280D01*
X025500Y002280D01*
X025500Y006964D01*
X025559Y007023D01*
X025620Y007170D01*
X025620Y007330D01*
X025606Y007364D01*
X025620Y007224D02*
X027940Y007224D01*
X027940Y006986D02*
X027166Y006986D01*
X027172Y006984D02*
X026874Y007064D01*
X026566Y007064D01*
X026268Y006984D01*
X026002Y006830D01*
X025784Y006612D01*
X025630Y006345D01*
X025550Y006048D01*
X025550Y005740D01*
X025630Y005442D01*
X025784Y005175D01*
X026002Y004957D01*
X026268Y004803D01*
X026566Y004724D01*
X026874Y004724D01*
X027172Y004803D01*
X027438Y004957D01*
X027568Y005087D01*
X027541Y005009D01*
X027514Y004892D01*
X027507Y004833D01*
X028450Y004833D01*
X028450Y005776D01*
X028391Y005769D01*
X028274Y005742D01*
X028160Y005703D01*
X028052Y005651D01*
X027950Y005587D01*
X027856Y005512D01*
X027819Y005474D01*
X027890Y005740D01*
X027890Y006048D01*
X027810Y006345D01*
X027656Y006612D01*
X027438Y006830D01*
X027172Y006984D01*
X027521Y006747D02*
X028099Y006747D01*
X027716Y006509D02*
X029440Y006509D01*
X029440Y006270D02*
X027830Y006270D01*
X027890Y006032D02*
X029440Y006032D01*
X029440Y005793D02*
X027890Y005793D01*
X027910Y005555D02*
X027840Y005555D01*
X027564Y005078D02*
X027558Y005078D01*
X027508Y004839D02*
X027233Y004839D01*
X027130Y004522D02*
X027017Y004561D01*
X026900Y004588D01*
X026840Y004595D01*
X026840Y003652D01*
X026600Y003652D01*
X026600Y004595D01*
X026540Y004588D01*
X026423Y004561D01*
X026310Y004522D01*
X026202Y004469D01*
X026100Y004406D01*
X026006Y004331D01*
X025921Y004246D01*
X025846Y004152D01*
X025782Y004050D01*
X025730Y003942D01*
X025690Y003828D01*
X025663Y003711D01*
X025657Y003651D01*
X026600Y003651D01*
X026600Y003411D01*
X026840Y003411D01*
X026840Y002468D01*
X026900Y002475D01*
X027017Y002502D01*
X027130Y002541D01*
X027238Y002594D01*
X027340Y002657D01*
X027434Y002732D01*
X027519Y002817D01*
X027594Y002911D01*
X027658Y003013D01*
X027710Y003121D01*
X027750Y003235D01*
X027777Y003352D01*
X027783Y003411D01*
X026840Y003411D01*
X026840Y003651D01*
X027783Y003651D01*
X027777Y003711D01*
X027750Y003828D01*
X027710Y003942D01*
X027658Y004050D01*
X027594Y004152D01*
X027519Y004246D01*
X027434Y004331D01*
X027340Y004406D01*
X027238Y004469D01*
X027130Y004522D01*
X027395Y004362D02*
X027559Y004362D01*
X027541Y004416D02*
X027580Y004302D01*
X027632Y004194D01*
X027696Y004092D01*
X027771Y003998D01*
X027856Y003914D01*
X027950Y003839D01*
X028052Y003775D01*
X028160Y003722D01*
X028274Y003683D01*
X028391Y003656D01*
X028450Y003649D01*
X028450Y004593D01*
X027507Y004593D01*
X027514Y004533D01*
X027541Y004416D01*
X027612Y004124D02*
X027677Y004124D01*
X027730Y003885D02*
X027892Y003885D01*
X027783Y003408D02*
X029822Y003408D01*
X029673Y003170D02*
X027727Y003170D01*
X027606Y002931D02*
X029650Y002931D01*
X029730Y002693D02*
X027384Y002693D01*
X026840Y002693D02*
X026600Y002693D01*
X026600Y002468D02*
X026600Y003411D01*
X025657Y003411D01*
X025663Y003352D01*
X025690Y003235D01*
X025730Y003121D01*
X025782Y003013D01*
X025846Y002911D01*
X025921Y002817D01*
X026006Y002732D01*
X026100Y002657D01*
X026202Y002594D01*
X026310Y002541D01*
X026423Y002502D01*
X026540Y002475D01*
X026600Y002468D01*
X026056Y002693D02*
X025500Y002693D01*
X025500Y002931D02*
X025834Y002931D01*
X025713Y003170D02*
X025500Y003170D01*
X025500Y003408D02*
X025657Y003408D01*
X025500Y003647D02*
X026600Y003647D01*
X026600Y003885D02*
X026840Y003885D01*
X026840Y003647D02*
X030940Y003647D01*
X030939Y003885D02*
X029249Y003885D01*
X029285Y003914D02*
X029369Y003998D01*
X029444Y004092D01*
X029508Y004194D01*
X029561Y004302D01*
X029600Y004416D01*
X029627Y004533D01*
X029634Y004593D01*
X028690Y004593D01*
X028690Y004833D01*
X028450Y004833D01*
X028450Y004593D01*
X028690Y004593D01*
X028690Y003649D01*
X028750Y003656D01*
X028867Y003683D01*
X028981Y003722D01*
X029089Y003775D01*
X029191Y003839D01*
X029285Y003914D01*
X029464Y004124D02*
X030701Y004124D01*
X030462Y004362D02*
X029581Y004362D01*
X030224Y004601D02*
X028690Y004601D01*
X028690Y004833D02*
X029634Y004833D01*
X029627Y004892D01*
X029600Y005009D01*
X029561Y005123D01*
X029508Y005231D01*
X029444Y005333D01*
X029369Y005427D01*
X029285Y005512D01*
X029191Y005587D01*
X029089Y005651D01*
X028981Y005703D01*
X028867Y005742D01*
X028750Y005769D01*
X028690Y005776D01*
X028690Y004833D01*
X028690Y004839D02*
X028450Y004839D01*
X028450Y004601D02*
X025500Y004601D01*
X025500Y004839D02*
X026207Y004839D01*
X025882Y005078D02*
X025500Y005078D01*
X025500Y005316D02*
X025703Y005316D01*
X025600Y005555D02*
X025500Y005555D01*
X025500Y005793D02*
X025550Y005793D01*
X025550Y006032D02*
X025500Y006032D01*
X025500Y006270D02*
X025610Y006270D01*
X025500Y006509D02*
X025724Y006509D01*
X025919Y006747D02*
X025500Y006747D01*
X025521Y006986D02*
X026274Y006986D01*
X025998Y007463D02*
X027442Y007463D01*
X027940Y008178D02*
X024040Y008178D01*
X024040Y008417D02*
X027940Y008417D01*
X027940Y008655D02*
X024040Y008655D01*
X024040Y008894D02*
X027940Y008894D01*
X027940Y009132D02*
X024040Y009132D01*
X024040Y009371D02*
X027940Y009371D01*
X027940Y009609D02*
X024040Y009609D01*
X024040Y009848D02*
X027940Y009848D01*
X027940Y010086D02*
X024040Y010086D01*
X024040Y010325D02*
X027940Y010325D01*
X027940Y010563D02*
X024040Y010563D01*
X024040Y010802D02*
X027940Y010802D01*
X027940Y011040D02*
X024040Y011040D01*
X024040Y011279D02*
X027940Y011279D01*
X027940Y011517D02*
X024040Y011517D01*
X024040Y011756D02*
X027940Y011756D01*
X027940Y011994D02*
X024040Y011994D01*
X024040Y012233D02*
X027940Y012233D01*
X027940Y012471D02*
X024040Y012471D01*
X024040Y012710D02*
X027940Y012710D01*
X027940Y012948D02*
X024040Y012948D01*
X024040Y013187D02*
X027940Y013187D01*
X027940Y013425D02*
X024040Y013425D01*
X024040Y013664D02*
X027940Y013664D01*
X027940Y013902D02*
X024040Y013902D01*
X024040Y014141D02*
X027940Y014141D01*
X027940Y014379D02*
X024040Y014379D01*
X024040Y014618D02*
X027940Y014618D01*
X027940Y014856D02*
X024040Y014856D01*
X024040Y015095D02*
X027940Y015095D01*
X027940Y015333D02*
X024040Y015333D01*
X024040Y015572D02*
X027940Y015572D01*
X027940Y015810D02*
X024040Y015810D01*
X024040Y016049D02*
X027940Y016049D01*
X028067Y016287D02*
X028940Y016287D01*
X028940Y016526D02*
X028699Y016526D01*
X029000Y015220D02*
X030276Y015220D01*
X030379Y015263D01*
X030457Y015341D01*
X030500Y015444D01*
X030500Y021056D01*
X030457Y021159D01*
X030396Y021220D01*
X030940Y021220D01*
X030940Y015444D01*
X030983Y015341D01*
X031061Y015263D01*
X031164Y015220D01*
X032940Y015220D01*
X032940Y010638D01*
X032925Y010684D01*
X032891Y010752D01*
X032846Y010813D01*
X032793Y010866D01*
X032732Y010911D01*
X032664Y010945D01*
X032592Y010968D01*
X032518Y010980D01*
X032220Y010980D01*
X032220Y010500D01*
X032220Y010500D01*
X032220Y010020D01*
X032518Y010020D01*
X032592Y010032D01*
X032664Y010055D01*
X032732Y010089D01*
X032793Y010134D01*
X032846Y010187D01*
X032891Y010248D01*
X032925Y010316D01*
X032940Y010362D01*
X032940Y009638D01*
X032925Y009684D01*
X032891Y009752D01*
X032846Y009813D01*
X032793Y009866D01*
X032732Y009911D01*
X032664Y009945D01*
X032592Y009968D01*
X032518Y009980D01*
X032220Y009980D01*
X032220Y009500D01*
X032220Y009500D01*
X032220Y009020D01*
X032518Y009020D01*
X032592Y009032D01*
X032664Y009055D01*
X032732Y009089D01*
X032793Y009134D01*
X032846Y009187D01*
X032891Y009248D01*
X032925Y009316D01*
X032940Y009362D01*
X032940Y003501D01*
X032897Y003483D01*
X032737Y003323D01*
X032720Y003282D01*
X032703Y003323D01*
X032543Y003483D01*
X032500Y003501D01*
X032500Y005306D01*
X032457Y005409D01*
X032379Y005487D01*
X032276Y005530D01*
X031000Y005530D01*
X031000Y012306D01*
X030957Y012409D01*
X030879Y012487D01*
X030776Y012530D01*
X029000Y012530D01*
X029000Y015220D01*
X029000Y015095D02*
X032940Y015095D01*
X032940Y014856D02*
X029000Y014856D01*
X029000Y014618D02*
X032940Y014618D01*
X032940Y014379D02*
X030942Y014379D01*
X030843Y014420D02*
X030597Y014420D01*
X030369Y014326D01*
X030194Y014151D01*
X030155Y014056D01*
X030144Y014083D01*
X030003Y014224D01*
X029819Y014300D01*
X029621Y014300D01*
X029437Y014224D01*
X029296Y014083D01*
X029220Y013899D01*
X029220Y013101D01*
X029296Y012917D01*
X029437Y012776D01*
X029621Y012700D01*
X029819Y012700D01*
X030003Y012776D01*
X030144Y012917D01*
X030155Y012944D01*
X030194Y012849D01*
X030369Y012674D01*
X030597Y012580D01*
X030843Y012580D01*
X031071Y012674D01*
X031246Y012849D01*
X031285Y012944D01*
X031296Y012917D01*
X031437Y012776D01*
X031621Y012700D01*
X031819Y012700D01*
X032003Y012776D01*
X032144Y012917D01*
X032220Y013101D01*
X032220Y013899D01*
X032144Y014083D01*
X032003Y014224D01*
X031819Y014300D01*
X031621Y014300D01*
X031437Y014224D01*
X031296Y014083D01*
X031285Y014056D01*
X031246Y014151D01*
X031071Y014326D01*
X030843Y014420D01*
X030498Y014379D02*
X029000Y014379D01*
X029000Y014141D02*
X029353Y014141D01*
X029221Y013902D02*
X029000Y013902D01*
X029000Y013664D02*
X029220Y013664D01*
X029220Y013425D02*
X029000Y013425D01*
X029000Y013187D02*
X029220Y013187D01*
X029283Y012948D02*
X029000Y012948D01*
X029000Y012710D02*
X029598Y012710D01*
X029842Y012710D02*
X030334Y012710D01*
X030895Y012471D02*
X032940Y012471D01*
X032940Y012233D02*
X031000Y012233D01*
X031000Y011994D02*
X032940Y011994D01*
X032741Y011890D02*
X032870Y011761D01*
X032940Y011591D01*
X032940Y011408D01*
X032870Y011239D01*
X032741Y011110D01*
X032571Y011040D01*
X031868Y011040D01*
X031000Y011040D01*
X031000Y010802D02*
X031586Y010802D01*
X031594Y010813D02*
X031549Y010752D01*
X031515Y010684D01*
X031492Y010612D01*
X031480Y010538D01*
X031480Y010500D01*
X032220Y010500D01*
X032220Y010500D01*
X032220Y010500D01*
X032220Y010980D01*
X031922Y010980D01*
X031848Y010968D01*
X031776Y010945D01*
X031708Y010911D01*
X031647Y010866D01*
X031594Y010813D01*
X031484Y010563D02*
X031000Y010563D01*
X031000Y010325D02*
X031512Y010325D01*
X031515Y010316D02*
X031549Y010248D01*
X031594Y010187D01*
X031647Y010134D01*
X031708Y010089D01*
X031776Y010055D01*
X031848Y010032D01*
X031922Y010020D01*
X032220Y010020D01*
X032220Y010500D01*
X031480Y010500D01*
X031480Y010462D01*
X031492Y010388D01*
X031515Y010316D01*
X031715Y010086D02*
X031000Y010086D01*
X031000Y009848D02*
X031629Y009848D01*
X031647Y009866D02*
X031594Y009813D01*
X031549Y009752D01*
X031515Y009684D01*
X031492Y009612D01*
X031480Y009538D01*
X031480Y009500D01*
X032220Y009500D01*
X032220Y009500D01*
X032220Y009500D01*
X032220Y009980D01*
X031922Y009980D01*
X031848Y009968D01*
X031776Y009945D01*
X031708Y009911D01*
X031647Y009866D01*
X031491Y009609D02*
X031000Y009609D01*
X031000Y009371D02*
X031497Y009371D01*
X031492Y009388D02*
X031515Y009316D01*
X031549Y009248D01*
X031594Y009187D01*
X031647Y009134D01*
X031708Y009089D01*
X031776Y009055D01*
X031848Y009032D01*
X031922Y009020D01*
X032220Y009020D01*
X032220Y009500D01*
X031480Y009500D01*
X031480Y009462D01*
X031492Y009388D01*
X031650Y009132D02*
X031000Y009132D01*
X031000Y008894D02*
X031708Y008894D01*
X031699Y008890D02*
X031570Y008761D01*
X031500Y008591D01*
X031500Y008408D01*
X031570Y008239D01*
X031699Y008110D01*
X031868Y008040D01*
X032571Y008040D01*
X032741Y008110D01*
X032870Y008239D01*
X032940Y008408D01*
X032940Y008591D01*
X032870Y008761D01*
X032741Y008890D01*
X032571Y008960D01*
X031868Y008960D01*
X031699Y008890D01*
X031526Y008655D02*
X031000Y008655D01*
X031000Y008417D02*
X031500Y008417D01*
X031631Y008178D02*
X031000Y008178D01*
X031000Y007940D02*
X032940Y007940D01*
X032940Y008178D02*
X032809Y008178D01*
X032940Y008417D02*
X032940Y008417D01*
X032940Y008655D02*
X032914Y008655D01*
X032940Y008894D02*
X032732Y008894D01*
X032790Y009132D02*
X032940Y009132D01*
X032220Y009132D02*
X032220Y009132D01*
X032220Y009371D02*
X032220Y009371D01*
X032220Y009609D02*
X032220Y009609D01*
X032220Y009848D02*
X032220Y009848D01*
X032220Y010086D02*
X032220Y010086D01*
X032220Y010325D02*
X032220Y010325D01*
X032220Y010563D02*
X032220Y010563D01*
X032220Y010802D02*
X032220Y010802D01*
X031868Y011040D02*
X031699Y011110D01*
X031570Y011239D01*
X031500Y011408D01*
X031500Y011591D01*
X031570Y011761D01*
X031699Y011890D01*
X031868Y011960D01*
X032571Y011960D01*
X032741Y011890D01*
X032872Y011756D02*
X032940Y011756D01*
X032940Y011517D02*
X032940Y011517D01*
X032940Y011279D02*
X032886Y011279D01*
X032940Y011040D02*
X032572Y011040D01*
X032854Y010802D02*
X032940Y010802D01*
X032928Y010325D02*
X032940Y010325D01*
X032940Y010086D02*
X032725Y010086D01*
X032811Y009848D02*
X032940Y009848D01*
X035000Y009848D02*
X039570Y009848D01*
X039570Y010086D02*
X035000Y010086D01*
X035000Y010325D02*
X039570Y010325D01*
X039570Y010563D02*
X035000Y010563D01*
X035000Y010802D02*
X039570Y010802D01*
X039570Y011040D02*
X035000Y011040D01*
X035000Y011279D02*
X039570Y011279D01*
X039570Y011517D02*
X038713Y011517D01*
X038805Y011609D02*
X038611Y011415D01*
X038357Y011310D01*
X038083Y011310D01*
X037829Y011415D01*
X037635Y011609D01*
X037530Y011863D01*
X037530Y012137D01*
X037635Y012391D01*
X037744Y012500D01*
X037635Y012609D01*
X037530Y012863D01*
X037530Y013137D01*
X037635Y013391D01*
X037829Y013585D01*
X038083Y013690D01*
X038357Y013690D01*
X038611Y013585D01*
X038805Y013391D01*
X038910Y013137D01*
X038910Y012863D01*
X038805Y012609D01*
X038696Y012500D01*
X038805Y012391D01*
X038910Y012137D01*
X038910Y011863D01*
X038805Y011609D01*
X038866Y011756D02*
X039570Y011756D01*
X039570Y011994D02*
X038910Y011994D01*
X038871Y012233D02*
X039570Y012233D01*
X039570Y012471D02*
X038725Y012471D01*
X038847Y012710D02*
X039570Y012710D01*
X039570Y012948D02*
X038910Y012948D01*
X038890Y013187D02*
X039570Y013187D01*
X039570Y013425D02*
X038771Y013425D01*
X038421Y013664D02*
X039570Y013664D01*
X039570Y013902D02*
X035000Y013902D01*
X035000Y013664D02*
X038019Y013664D01*
X037669Y013425D02*
X035000Y013425D01*
X035000Y013187D02*
X037550Y013187D01*
X037530Y012948D02*
X035000Y012948D01*
X035000Y012710D02*
X037593Y012710D01*
X037715Y012471D02*
X035000Y012471D01*
X035000Y012233D02*
X037569Y012233D01*
X037530Y011994D02*
X035000Y011994D01*
X035000Y011756D02*
X037574Y011756D01*
X037727Y011517D02*
X035000Y011517D01*
X032940Y012710D02*
X031842Y012710D01*
X031598Y012710D02*
X031106Y012710D01*
X032157Y012948D02*
X032940Y012948D01*
X032940Y013187D02*
X032220Y013187D01*
X032220Y013425D02*
X032940Y013425D01*
X032940Y013664D02*
X032220Y013664D01*
X032219Y013902D02*
X032940Y013902D01*
X032940Y014141D02*
X032087Y014141D01*
X031353Y014141D02*
X031250Y014141D01*
X030190Y014141D02*
X030087Y014141D01*
X030449Y015333D02*
X030991Y015333D01*
X030940Y015572D02*
X030500Y015572D01*
X030500Y015810D02*
X030940Y015810D01*
X030940Y016049D02*
X030500Y016049D01*
X030500Y016287D02*
X030940Y016287D01*
X030940Y016526D02*
X030500Y016526D01*
X030500Y016764D02*
X030940Y016764D01*
X030940Y017003D02*
X030500Y017003D01*
X030500Y017241D02*
X030940Y017241D01*
X030940Y017480D02*
X030500Y017480D01*
X030500Y017718D02*
X030940Y017718D01*
X030940Y017957D02*
X030500Y017957D01*
X030500Y018195D02*
X030940Y018195D01*
X030940Y018434D02*
X030500Y018434D01*
X030500Y018672D02*
X030940Y018672D01*
X030940Y018911D02*
X030500Y018911D01*
X030500Y019149D02*
X030940Y019149D01*
X030940Y019388D02*
X030500Y019388D01*
X030500Y019626D02*
X030940Y019626D01*
X030940Y019865D02*
X030500Y019865D01*
X030500Y020103D02*
X030940Y020103D01*
X030940Y020342D02*
X030500Y020342D01*
X030500Y020580D02*
X030940Y020580D01*
X030940Y020819D02*
X030500Y020819D01*
X030499Y021057D02*
X030940Y021057D01*
X033500Y021057D02*
X037627Y021057D01*
X037630Y021048D02*
X037784Y020782D01*
X038002Y020564D01*
X038268Y020410D01*
X038566Y020330D01*
X038874Y020330D01*
X039172Y020410D01*
X039438Y020564D01*
X039570Y020695D01*
X039570Y003805D01*
X039438Y003936D01*
X039172Y004090D01*
X038874Y004170D01*
X038566Y004170D01*
X038268Y004090D01*
X038002Y003936D01*
X037784Y003718D01*
X037630Y003452D01*
X037550Y003154D01*
X037550Y002846D01*
X037630Y002548D01*
X037784Y002282D01*
X038002Y002064D01*
X038077Y002020D01*
X030500Y002020D01*
X030500Y002499D01*
X030543Y002517D01*
X030703Y002677D01*
X030720Y002718D01*
X030737Y002677D01*
X030897Y002517D01*
X031107Y002430D01*
X031333Y002430D01*
X031543Y002517D01*
X031703Y002677D01*
X031720Y002718D01*
X031737Y002677D01*
X031897Y002517D01*
X032107Y002430D01*
X032333Y002430D01*
X032543Y002517D01*
X032703Y002677D01*
X032720Y002718D01*
X032737Y002677D01*
X032897Y002517D01*
X033107Y002430D01*
X033333Y002430D01*
X033543Y002517D01*
X033703Y002677D01*
X033720Y002718D01*
X033737Y002677D01*
X033897Y002517D01*
X034107Y002430D01*
X034333Y002430D01*
X034543Y002517D01*
X034703Y002677D01*
X034720Y002718D01*
X034737Y002677D01*
X034897Y002517D01*
X035107Y002430D01*
X035333Y002430D01*
X035543Y002517D01*
X035703Y002677D01*
X035712Y002698D01*
X035715Y002691D01*
X035770Y002616D01*
X035836Y002550D01*
X035911Y002495D01*
X035994Y002453D01*
X036082Y002425D01*
X036174Y002410D01*
X036220Y002410D01*
X036266Y002410D01*
X036358Y002425D01*
X036446Y002453D01*
X036529Y002495D01*
X036604Y002550D01*
X036670Y002616D01*
X036725Y002691D01*
X036767Y002774D01*
X036795Y002862D01*
X036810Y002954D01*
X036810Y003000D01*
X036810Y003046D01*
X036795Y003138D01*
X036767Y003226D01*
X036725Y003309D01*
X036670Y003384D01*
X036604Y003450D01*
X036529Y003505D01*
X036446Y003547D01*
X036358Y003575D01*
X036266Y003590D01*
X036220Y003590D01*
X036220Y003000D01*
X036220Y003000D01*
X036810Y003000D01*
X036220Y003000D01*
X036220Y003000D01*
X036220Y003590D01*
X036174Y003590D01*
X036082Y003575D01*
X035994Y003547D01*
X035911Y003505D01*
X035836Y003450D01*
X035770Y003384D01*
X035715Y003309D01*
X035712Y003302D01*
X035703Y003323D01*
X035543Y003483D01*
X035500Y003501D01*
X035500Y005556D01*
X035457Y005659D01*
X035379Y005737D01*
X035276Y005780D01*
X035000Y005780D01*
X035000Y017056D01*
X034957Y017159D01*
X034879Y017237D01*
X034776Y017280D01*
X033500Y017280D01*
X033500Y022476D01*
X038071Y022476D01*
X038002Y022436D01*
X037784Y022218D01*
X037630Y021952D01*
X037550Y021654D01*
X037550Y021346D01*
X037630Y021048D01*
X037564Y021296D02*
X033500Y021296D01*
X033500Y021534D02*
X037550Y021534D01*
X037582Y021773D02*
X033500Y021773D01*
X033500Y022011D02*
X037664Y022011D01*
X037815Y022250D02*
X033500Y022250D01*
X033500Y020819D02*
X037762Y020819D01*
X037985Y020580D02*
X033500Y020580D01*
X033500Y020342D02*
X038523Y020342D01*
X038917Y020342D02*
X039570Y020342D01*
X039570Y020580D02*
X039455Y020580D01*
X039570Y020103D02*
X033500Y020103D01*
X033500Y019865D02*
X039570Y019865D01*
X039570Y019626D02*
X033500Y019626D01*
X033500Y019388D02*
X039570Y019388D01*
X039570Y019149D02*
X033500Y019149D01*
X033500Y018911D02*
X039570Y018911D01*
X039570Y018672D02*
X033500Y018672D01*
X033500Y018434D02*
X039570Y018434D01*
X039570Y018195D02*
X033500Y018195D01*
X033500Y017957D02*
X039570Y017957D01*
X039570Y017718D02*
X033500Y017718D01*
X033500Y017480D02*
X039570Y017480D01*
X039570Y017241D02*
X034870Y017241D01*
X035000Y017003D02*
X039570Y017003D01*
X039570Y016764D02*
X035000Y016764D01*
X035000Y016526D02*
X039570Y016526D01*
X039570Y016287D02*
X035000Y016287D01*
X035000Y016049D02*
X039570Y016049D01*
X039570Y015810D02*
X035000Y015810D01*
X035000Y015572D02*
X039570Y015572D01*
X039570Y015333D02*
X035000Y015333D01*
X035000Y015095D02*
X039570Y015095D01*
X039570Y014856D02*
X035000Y014856D01*
X035000Y014618D02*
X039570Y014618D01*
X039570Y014379D02*
X035000Y014379D01*
X035000Y014141D02*
X039570Y014141D01*
X039570Y009609D02*
X035000Y009609D01*
X035000Y009371D02*
X039570Y009371D01*
X039570Y009132D02*
X035000Y009132D01*
X035000Y008894D02*
X039570Y008894D01*
X039570Y008655D02*
X035000Y008655D01*
X035000Y008417D02*
X039570Y008417D01*
X039570Y008178D02*
X035000Y008178D01*
X035000Y007940D02*
X039570Y007940D01*
X039570Y007701D02*
X035000Y007701D01*
X035000Y007463D02*
X039570Y007463D01*
X039570Y007224D02*
X035000Y007224D01*
X035000Y006986D02*
X039570Y006986D01*
X039570Y006747D02*
X035000Y006747D01*
X035000Y006509D02*
X039570Y006509D01*
X039570Y006270D02*
X035000Y006270D01*
X035000Y006032D02*
X039570Y006032D01*
X039570Y005793D02*
X035000Y005793D01*
X035500Y005555D02*
X039570Y005555D01*
X039570Y005316D02*
X035500Y005316D01*
X035500Y005078D02*
X039570Y005078D01*
X039570Y004839D02*
X035500Y004839D01*
X035500Y004601D02*
X039570Y004601D01*
X039570Y004362D02*
X035500Y004362D01*
X035500Y004124D02*
X038392Y004124D01*
X037950Y003885D02*
X035500Y003885D01*
X035500Y003647D02*
X037742Y003647D01*
X037618Y003408D02*
X036646Y003408D01*
X036785Y003170D02*
X037554Y003170D01*
X037550Y002931D02*
X036806Y002931D01*
X036725Y002693D02*
X037591Y002693D01*
X037684Y002454D02*
X036448Y002454D01*
X036220Y002454D02*
X036220Y002454D01*
X036220Y002410D02*
X036220Y003000D01*
X036220Y003000D01*
X036220Y002410D01*
X035992Y002454D02*
X035391Y002454D01*
X035049Y002454D02*
X034391Y002454D01*
X034049Y002454D02*
X033391Y002454D01*
X033049Y002454D02*
X032391Y002454D01*
X032049Y002454D02*
X031391Y002454D01*
X031049Y002454D02*
X030500Y002454D01*
X030500Y002216D02*
X037850Y002216D01*
X036220Y002693D02*
X036220Y002693D01*
X036220Y002931D02*
X036220Y002931D01*
X036220Y003170D02*
X036220Y003170D01*
X036220Y003408D02*
X036220Y003408D01*
X035794Y003408D02*
X035618Y003408D01*
X035710Y002693D02*
X035715Y002693D01*
X034730Y002693D02*
X034710Y002693D01*
X033730Y002693D02*
X033710Y002693D01*
X032730Y002693D02*
X032710Y002693D01*
X031730Y002693D02*
X031710Y002693D01*
X030730Y002693D02*
X030710Y002693D01*
X029940Y002454D02*
X025500Y002454D01*
X026600Y002931D02*
X026840Y002931D01*
X026840Y003170D02*
X026600Y003170D01*
X026600Y003408D02*
X026840Y003408D01*
X026840Y004124D02*
X026600Y004124D01*
X026600Y004362D02*
X026840Y004362D01*
X026045Y004362D02*
X025500Y004362D01*
X025500Y004124D02*
X025828Y004124D01*
X025710Y003885D02*
X025500Y003885D01*
X023430Y002931D02*
X023240Y002931D01*
X023219Y002693D02*
X023430Y002693D01*
X023430Y002454D02*
X023062Y002454D01*
X023145Y003170D02*
X023272Y003170D01*
X018730Y002693D02*
X018730Y002693D01*
X018730Y002454D02*
X018730Y002454D01*
X018378Y002454D02*
X018250Y002454D01*
X015386Y002931D02*
X011245Y002931D01*
X011218Y003170D02*
X014450Y003170D01*
X014440Y003408D02*
X012440Y003408D01*
X012610Y003647D02*
X014440Y003647D01*
X014440Y003885D02*
X012597Y003885D01*
X012500Y004124D02*
X014339Y004124D01*
X014333Y004362D02*
X014079Y004362D01*
X013861Y004362D02*
X012500Y004362D01*
X012500Y005316D02*
X017936Y005316D01*
X017629Y005555D02*
X017420Y005555D01*
X016820Y006032D02*
X016004Y006032D01*
X015436Y006032D02*
X012500Y006032D01*
X012500Y006270D02*
X016924Y006270D01*
X017516Y006270D02*
X017536Y006270D01*
X018120Y007224D02*
X018955Y007224D01*
X018987Y007463D02*
X018065Y007463D01*
X018586Y007940D02*
X013975Y007940D01*
X013465Y007940D02*
X012574Y007940D01*
X012620Y007701D02*
X019159Y007701D01*
X019354Y007940D02*
X019586Y007940D01*
X019781Y007701D02*
X020159Y007701D01*
X019987Y007463D02*
X019953Y007463D01*
X020354Y007940D02*
X020586Y007940D01*
X020781Y007701D02*
X021159Y007701D01*
X020987Y007463D02*
X020953Y007463D01*
X020900Y006986D02*
X021040Y006986D01*
X021900Y006986D02*
X022040Y006986D01*
X021987Y007463D02*
X021953Y007463D01*
X021781Y007701D02*
X022159Y007701D01*
X022354Y007940D02*
X022586Y007940D01*
X022781Y007701D02*
X023159Y007701D01*
X022987Y007463D02*
X022953Y007463D01*
X022900Y006986D02*
X023040Y006986D01*
X023470Y007283D02*
X023720Y007533D01*
X023720Y018500D01*
X021720Y018500D01*
X021264Y018672D02*
X021176Y018672D01*
X021207Y018434D02*
X021233Y018434D01*
X020720Y018500D02*
X020720Y018000D01*
X022720Y018000D01*
X022720Y008533D01*
X022970Y008283D01*
X023354Y007940D02*
X023400Y007940D01*
X021970Y008283D02*
X021720Y008533D01*
X021720Y017500D01*
X019720Y017500D01*
X019720Y018500D01*
X019264Y018672D02*
X019176Y018672D01*
X019207Y018434D02*
X019233Y018434D01*
X019336Y018195D02*
X019104Y018195D01*
X019040Y017957D02*
X019400Y017957D01*
X019400Y017718D02*
X019040Y017718D01*
X019040Y017480D02*
X019400Y017480D01*
X020040Y017957D02*
X020400Y017957D01*
X020336Y018195D02*
X020104Y018195D01*
X020207Y018434D02*
X020233Y018434D01*
X020264Y018672D02*
X020176Y018672D01*
X019998Y018911D02*
X020442Y018911D01*
X020998Y018911D02*
X021442Y018911D01*
X021998Y018911D02*
X024375Y018911D01*
X024325Y018672D02*
X023995Y018672D01*
X024040Y018434D02*
X024325Y018434D01*
X024325Y018195D02*
X024040Y018195D01*
X024040Y017957D02*
X024322Y017957D01*
X024415Y017718D02*
X024040Y017718D01*
X024040Y017480D02*
X024574Y017480D01*
X024787Y017241D02*
X024040Y017241D01*
X024040Y017003D02*
X025012Y017003D01*
X024979Y017027D02*
X024979Y017027D01*
X025339Y016764D02*
X024040Y016764D01*
X024040Y016526D02*
X025741Y016526D01*
X026373Y016287D02*
X024040Y016287D01*
X021220Y017000D02*
X021220Y009000D01*
X019475Y009609D02*
X013899Y009609D01*
X013541Y009609D02*
X012500Y009609D01*
X012500Y009371D02*
X013337Y009371D01*
X013336Y009132D02*
X012500Y009132D01*
X012500Y008894D02*
X013535Y008894D01*
X013905Y008894D02*
X017940Y008894D01*
X017940Y008655D02*
X012500Y008655D01*
X012500Y008417D02*
X013356Y008417D01*
X013320Y008178D02*
X012500Y008178D01*
X011940Y008178D02*
X010640Y008178D01*
X010665Y008203D02*
X010745Y008396D01*
X010745Y008604D01*
X010665Y008797D01*
X010517Y008945D01*
X010324Y009025D01*
X010116Y009025D01*
X009923Y008945D01*
X009775Y008797D01*
X009695Y008604D01*
X009695Y008396D01*
X009775Y008203D01*
X009923Y008055D01*
X010116Y007975D01*
X010324Y007975D01*
X010517Y008055D01*
X010665Y008203D01*
X010745Y008417D02*
X011940Y008417D01*
X011940Y008655D02*
X010724Y008655D01*
X010569Y008894D02*
X011940Y008894D01*
X011940Y009132D02*
X005500Y009132D01*
X005500Y008894D02*
X007871Y008894D01*
X007923Y008945D02*
X007775Y008797D01*
X007695Y008604D01*
X007695Y008396D01*
X007775Y008203D01*
X007923Y008055D01*
X008116Y007975D01*
X008324Y007975D01*
X008517Y008055D01*
X008665Y008203D01*
X008745Y008396D01*
X008745Y008604D01*
X008665Y008797D01*
X008517Y008945D01*
X008324Y009025D01*
X008116Y009025D01*
X007923Y008945D01*
X007716Y008655D02*
X005500Y008655D01*
X005500Y008417D02*
X007695Y008417D01*
X007800Y008178D02*
X005500Y008178D01*
X005500Y007940D02*
X011866Y007940D01*
X011820Y007701D02*
X005500Y007701D01*
X005500Y007463D02*
X011940Y007463D01*
X011940Y007224D02*
X005500Y007224D01*
X005500Y006986D02*
X011940Y006986D01*
X012500Y006986D02*
X013390Y006986D01*
X013320Y006747D02*
X012500Y006747D01*
X012500Y006509D02*
X013396Y006509D01*
X012500Y007224D02*
X015320Y007224D01*
X015375Y007463D02*
X012500Y007463D01*
X009800Y008178D02*
X008640Y008178D01*
X008745Y008417D02*
X009695Y008417D01*
X009716Y008655D02*
X008724Y008655D01*
X008569Y008894D02*
X009871Y008894D01*
X009763Y009955D02*
X009848Y009968D01*
X009929Y009995D01*
X010006Y010034D01*
X010075Y010084D01*
X010136Y010145D01*
X010186Y010214D01*
X010225Y010291D01*
X010231Y010309D01*
X010275Y010203D01*
X010423Y010055D01*
X010616Y009975D01*
X010824Y009975D01*
X011017Y010055D01*
X011165Y010203D01*
X011245Y010396D01*
X011245Y010604D01*
X011165Y010797D01*
X011017Y010945D01*
X010824Y011025D01*
X010616Y011025D01*
X010423Y010945D01*
X010275Y010797D01*
X010231Y010691D01*
X010225Y010709D01*
X010186Y010786D01*
X010136Y010855D01*
X010075Y010916D01*
X010006Y010966D01*
X009929Y011005D01*
X009848Y011032D01*
X009763Y011045D01*
X009720Y011045D01*
X009720Y010500D01*
X009720Y010500D01*
X009720Y009955D01*
X009763Y009955D01*
X009720Y009955D02*
X009720Y010500D01*
X009720Y010500D01*
X009720Y010500D01*
X009175Y010500D01*
X009175Y010543D01*
X009188Y010628D01*
X009215Y010709D01*
X009254Y010786D01*
X009304Y010855D01*
X009365Y010916D01*
X009434Y010966D01*
X009511Y011005D01*
X009592Y011032D01*
X009677Y011045D01*
X009720Y011045D01*
X009720Y010500D01*
X009175Y010500D01*
X009175Y010457D01*
X009188Y010372D01*
X009215Y010291D01*
X009254Y010214D01*
X009304Y010145D01*
X009365Y010084D01*
X009434Y010034D01*
X009511Y009995D01*
X009592Y009968D01*
X009677Y009955D01*
X009720Y009955D01*
X009720Y010086D02*
X009720Y010086D01*
X009720Y010325D02*
X009720Y010325D01*
X009720Y010563D02*
X009720Y010563D01*
X009720Y010802D02*
X009720Y010802D01*
X009720Y011040D02*
X009720Y011040D01*
X009794Y011040D02*
X017534Y011040D01*
X017607Y011070D02*
X017397Y010983D01*
X017237Y010823D01*
X017150Y010613D01*
X017150Y010387D01*
X017237Y010177D01*
X017397Y010017D01*
X017607Y009930D01*
X017833Y009930D01*
X018043Y010017D01*
X018203Y010177D01*
X018212Y010198D01*
X018215Y010191D01*
X018270Y010116D01*
X018336Y010050D01*
X018411Y009995D01*
X018494Y009953D01*
X018582Y009925D01*
X018674Y009910D01*
X018720Y009910D01*
X018766Y009910D01*
X018858Y009925D01*
X018946Y009953D01*
X019029Y009995D01*
X019104Y010050D01*
X019170Y010116D01*
X019225Y010191D01*
X019267Y010274D01*
X019295Y010362D01*
X019310Y010454D01*
X019310Y010500D01*
X019310Y010546D01*
X019295Y010638D01*
X019267Y010726D01*
X019225Y010809D01*
X019170Y010884D01*
X019104Y010950D01*
X019029Y011005D01*
X018946Y011047D01*
X018858Y011075D01*
X018766Y011090D01*
X018720Y011090D01*
X018720Y010500D01*
X019310Y010500D01*
X018720Y010500D01*
X018720Y010500D01*
X018720Y010500D01*
X018720Y009910D01*
X018720Y010500D01*
X018720Y010500D01*
X018720Y011090D01*
X018674Y011090D01*
X018582Y011075D01*
X018494Y011047D01*
X018411Y011005D01*
X018336Y010950D01*
X018270Y010884D01*
X018215Y010809D01*
X018212Y010802D01*
X018203Y010823D01*
X018043Y010983D01*
X017833Y011070D01*
X017607Y011070D01*
X017906Y011040D02*
X018480Y011040D01*
X018493Y011161D02*
X018640Y011100D01*
X018800Y011100D01*
X018947Y011161D01*
X019059Y011273D01*
X019120Y011420D01*
X019120Y011580D01*
X019059Y011727D01*
X018947Y011839D01*
X018800Y011900D01*
X018640Y011900D01*
X018493Y011839D01*
X018434Y011780D01*
X014500Y011780D01*
X014500Y011869D01*
X014610Y011979D01*
X014680Y012148D01*
X014680Y012851D01*
X014610Y013021D01*
X014481Y013150D01*
X014311Y013220D01*
X014128Y013220D01*
X013959Y013150D01*
X013830Y013021D01*
X013760Y012851D01*
X013760Y012148D01*
X013830Y011979D01*
X013940Y011869D01*
X013940Y011444D01*
X013983Y011341D01*
X014061Y011263D01*
X014164Y011220D01*
X018434Y011220D01*
X018493Y011161D01*
X018720Y011040D02*
X018720Y011040D01*
X018720Y010802D02*
X018720Y010802D01*
X018720Y010563D02*
X018720Y010563D01*
X018720Y010325D02*
X018720Y010325D01*
X018720Y010086D02*
X018720Y010086D01*
X019140Y010086D02*
X019440Y010086D01*
X019440Y009848D02*
X012500Y009848D01*
X012585Y010086D02*
X017328Y010086D01*
X017176Y010325D02*
X012620Y010325D01*
X012473Y010563D02*
X017150Y010563D01*
X017228Y010802D02*
X011161Y010802D01*
X011245Y010563D02*
X011967Y010563D01*
X011820Y010325D02*
X011216Y010325D01*
X011048Y010086D02*
X011855Y010086D01*
X011940Y009848D02*
X005500Y009848D01*
X005500Y010086D02*
X006863Y010086D01*
X006865Y010084D02*
X006934Y010034D01*
X007011Y009995D01*
X007092Y009968D01*
X007177Y009955D01*
X007220Y009955D01*
X007263Y009955D01*
X007348Y009968D01*
X007429Y009995D01*
X007506Y010034D01*
X007575Y010084D01*
X007636Y010145D01*
X007686Y010214D01*
X007725Y010291D01*
X007731Y010309D01*
X007775Y010203D01*
X007923Y010055D01*
X008116Y009975D01*
X008324Y009975D01*
X008517Y010055D01*
X008665Y010203D01*
X008745Y010396D01*
X008745Y010604D01*
X008665Y010797D01*
X008517Y010945D01*
X008324Y011025D01*
X008116Y011025D01*
X007923Y010945D01*
X007775Y010797D01*
X007731Y010691D01*
X007725Y010709D01*
X007686Y010786D01*
X007636Y010855D01*
X007575Y010916D01*
X007506Y010966D01*
X007429Y011005D01*
X007348Y011032D01*
X007263Y011045D01*
X007220Y011045D01*
X007220Y010500D01*
X007220Y010500D01*
X007220Y009955D01*
X007220Y010500D01*
X007220Y010500D01*
X007220Y010500D01*
X006675Y010500D01*
X006675Y010543D01*
X006688Y010628D01*
X006715Y010709D01*
X006754Y010786D01*
X006804Y010855D01*
X006865Y010916D01*
X006934Y010966D01*
X007011Y011005D01*
X007092Y011032D01*
X007177Y011045D01*
X007220Y011045D01*
X007220Y010500D01*
X006675Y010500D01*
X006675Y010457D01*
X006688Y010372D01*
X006715Y010291D01*
X006754Y010214D01*
X006804Y010145D01*
X006865Y010084D01*
X006704Y010325D02*
X005500Y010325D01*
X005500Y010563D02*
X006678Y010563D01*
X006765Y010802D02*
X005500Y010802D01*
X005500Y011040D02*
X007146Y011040D01*
X007220Y011040D02*
X007220Y011040D01*
X007294Y011040D02*
X009646Y011040D01*
X009265Y010802D02*
X008661Y010802D01*
X008745Y010563D02*
X009178Y010563D01*
X009204Y010325D02*
X008716Y010325D01*
X008548Y010086D02*
X009363Y010086D01*
X010077Y010086D02*
X010392Y010086D01*
X010279Y010802D02*
X010175Y010802D01*
X010128Y011780D02*
X010311Y011780D01*
X010481Y011850D01*
X010610Y011979D01*
X010680Y012148D01*
X010680Y012851D01*
X010610Y013021D01*
X010481Y013150D01*
X010311Y013220D01*
X010128Y013220D01*
X009959Y013150D01*
X009830Y013021D01*
X009760Y012851D01*
X009760Y012148D01*
X009830Y011979D01*
X009959Y011850D01*
X010128Y011780D01*
X009824Y011994D02*
X009633Y011994D01*
X009631Y011988D02*
X009665Y012056D01*
X009688Y012128D01*
X009700Y012202D01*
X009700Y012500D01*
X009700Y012798D01*
X009688Y012872D01*
X009665Y012944D01*
X009631Y013012D01*
X009586Y013073D01*
X009533Y013126D01*
X009472Y013171D01*
X009404Y013205D01*
X009332Y013228D01*
X009258Y013240D01*
X009220Y013240D01*
X009220Y012500D01*
X009700Y012500D01*
X009220Y012500D01*
X009220Y012500D01*
X009220Y012500D01*
X009220Y011760D01*
X009258Y011760D01*
X009332Y011772D01*
X009404Y011795D01*
X009472Y011829D01*
X009533Y011874D01*
X009586Y011927D01*
X009631Y011988D01*
X009700Y012233D02*
X009760Y012233D01*
X009760Y012471D02*
X009700Y012471D01*
X009700Y012710D02*
X009760Y012710D01*
X009800Y012948D02*
X009663Y012948D01*
X009440Y013187D02*
X010048Y013187D01*
X010392Y013187D02*
X011048Y013187D01*
X011128Y013220D02*
X010959Y013150D01*
X010830Y013021D01*
X010760Y012851D01*
X010760Y012148D01*
X010830Y011979D01*
X010959Y011850D01*
X011128Y011780D01*
X011311Y011780D01*
X011481Y011850D01*
X011610Y011979D01*
X011680Y012148D01*
X011680Y012851D01*
X011610Y013021D01*
X011481Y013150D01*
X011311Y013220D01*
X011128Y013220D01*
X011392Y013187D02*
X012048Y013187D01*
X012128Y013220D02*
X011959Y013150D01*
X011830Y013021D01*
X011760Y012851D01*
X011760Y012148D01*
X011830Y011979D01*
X011959Y011850D01*
X012128Y011780D01*
X012311Y011780D01*
X012481Y011850D01*
X012610Y011979D01*
X012680Y012148D01*
X012680Y012851D01*
X012610Y013021D01*
X012481Y013150D01*
X012311Y013220D01*
X012128Y013220D01*
X012392Y013187D02*
X013048Y013187D01*
X013128Y013220D02*
X012959Y013150D01*
X012830Y013021D01*
X012760Y012851D01*
X012760Y012148D01*
X012830Y011979D01*
X012959Y011850D01*
X013128Y011780D01*
X013311Y011780D01*
X013481Y011850D01*
X013610Y011979D01*
X013680Y012148D01*
X013680Y012851D01*
X013610Y013021D01*
X013481Y013150D01*
X013311Y013220D01*
X013128Y013220D01*
X013392Y013187D02*
X014048Y013187D01*
X014392Y013187D02*
X015048Y013187D01*
X015128Y013220D02*
X014959Y013150D01*
X014830Y013021D01*
X014760Y012851D01*
X014760Y012148D01*
X014830Y011979D01*
X014959Y011850D01*
X015128Y011780D01*
X015311Y011780D01*
X015481Y011850D01*
X015610Y011979D01*
X015680Y012148D01*
X015680Y012851D01*
X015610Y013021D01*
X015481Y013150D01*
X015311Y013220D01*
X015128Y013220D01*
X015392Y013187D02*
X019440Y013187D01*
X019440Y013425D02*
X008541Y013425D01*
X008500Y013187D02*
X009000Y013187D01*
X008968Y013171D02*
X008907Y013126D01*
X008854Y013073D01*
X008809Y013012D01*
X008775Y012944D01*
X008752Y012872D01*
X008740Y012798D01*
X008740Y012500D01*
X009220Y012500D01*
X009220Y012500D01*
X009220Y012500D01*
X009220Y013240D01*
X009182Y013240D01*
X009108Y013228D01*
X009036Y013205D01*
X008968Y013171D01*
X009220Y013187D02*
X009220Y013187D01*
X009220Y012948D02*
X009220Y012948D01*
X009220Y012710D02*
X009220Y012710D01*
X009220Y012500D02*
X008740Y012500D01*
X008740Y012202D01*
X008752Y012128D01*
X008775Y012056D01*
X008809Y011988D01*
X008854Y011927D01*
X008907Y011874D01*
X008968Y011829D01*
X009036Y011795D01*
X009108Y011772D01*
X009182Y011760D01*
X009220Y011760D01*
X009220Y012500D01*
X009220Y012471D02*
X009220Y012471D01*
X009220Y012233D02*
X009220Y012233D01*
X009220Y011994D02*
X009220Y011994D01*
X008807Y011994D02*
X008616Y011994D01*
X008680Y012233D02*
X008740Y012233D01*
X008740Y012471D02*
X008680Y012471D01*
X008680Y012710D02*
X008740Y012710D01*
X008777Y012948D02*
X008640Y012948D01*
X007940Y013187D02*
X007392Y013187D01*
X007311Y013220D02*
X007128Y013220D01*
X006959Y013150D01*
X006830Y013021D01*
X006760Y012851D01*
X006760Y012148D01*
X006830Y011979D01*
X006959Y011850D01*
X007128Y011780D01*
X007311Y011780D01*
X007481Y011850D01*
X007610Y011979D01*
X007680Y012148D01*
X007680Y012851D01*
X007610Y013021D01*
X007481Y013150D01*
X007311Y013220D01*
X007048Y013187D02*
X006392Y013187D01*
X006048Y013187D02*
X006000Y013187D01*
X005440Y013187D02*
X005392Y013187D01*
X005048Y013187D02*
X004392Y013187D01*
X004311Y013220D02*
X004128Y013220D01*
X003959Y013150D01*
X003830Y013021D01*
X003760Y012851D01*
X003760Y012148D01*
X003830Y011979D01*
X003959Y011850D01*
X004128Y011780D01*
X004311Y011780D01*
X004481Y011850D01*
X004610Y011979D01*
X004680Y012148D01*
X004680Y012851D01*
X004610Y013021D01*
X004481Y013150D01*
X004311Y013220D01*
X004448Y013425D02*
X003120Y013425D01*
X003085Y013664D02*
X004440Y013664D01*
X004440Y013902D02*
X001000Y013902D01*
X001000Y013664D02*
X002355Y013664D01*
X002320Y013425D02*
X001000Y013425D01*
X001000Y013187D02*
X002048Y013187D01*
X002392Y013187D02*
X002440Y013187D01*
X003000Y013187D02*
X003048Y013187D01*
X003392Y013187D02*
X004048Y013187D01*
X003800Y012948D02*
X003640Y012948D01*
X003680Y012710D02*
X003760Y012710D01*
X003760Y012471D02*
X003680Y012471D01*
X003680Y012233D02*
X003760Y012233D01*
X003824Y011994D02*
X003616Y011994D01*
X003500Y011756D02*
X005105Y011756D01*
X004940Y011517D02*
X003500Y011517D01*
X003500Y011279D02*
X004940Y011279D01*
X004940Y011040D02*
X003500Y011040D01*
X003500Y010802D02*
X004940Y010802D01*
X004940Y010563D02*
X003997Y010563D01*
X004000Y010325D02*
X004940Y010325D01*
X004940Y010086D02*
X004641Y010086D01*
X004720Y009848D02*
X004940Y009848D01*
X004940Y009609D02*
X004720Y009609D01*
X004720Y009371D02*
X004940Y009371D01*
X004940Y009132D02*
X004720Y009132D01*
X004621Y008894D02*
X004940Y008894D01*
X004940Y008655D02*
X004000Y008655D01*
X004199Y008417D02*
X004940Y008417D01*
X004940Y008178D02*
X004438Y008178D01*
X004500Y007940D02*
X004940Y007940D01*
X004940Y007701D02*
X004500Y007701D01*
X004500Y007463D02*
X004940Y007463D01*
X004940Y007224D02*
X004500Y007224D01*
X004500Y006986D02*
X004940Y006986D01*
X004940Y006747D02*
X004500Y006747D01*
X004500Y006509D02*
X004940Y006509D01*
X002940Y006509D02*
X002482Y006509D01*
X002599Y006747D02*
X000740Y006747D01*
X000740Y006509D02*
X001958Y006509D01*
X001715Y006270D02*
X000740Y006270D01*
X000740Y006032D02*
X001650Y006032D01*
X001689Y005793D02*
X000740Y005793D01*
X000740Y005555D02*
X001859Y005555D01*
X001794Y005316D02*
X001646Y005316D01*
X000794Y005316D02*
X000740Y005316D01*
X000740Y006986D02*
X002440Y006986D01*
X002440Y007224D02*
X000740Y007224D01*
X000740Y007463D02*
X002130Y007463D01*
X002092Y007468D02*
X002177Y007455D01*
X002220Y007455D01*
X002220Y008000D01*
X002220Y008000D01*
X002220Y008000D01*
X001675Y008000D01*
X001675Y008043D01*
X001688Y008128D01*
X001715Y008209D01*
X001754Y008286D01*
X001804Y008355D01*
X001865Y008416D01*
X001934Y008466D01*
X002011Y008505D01*
X002092Y008532D01*
X002177Y008545D01*
X002220Y008545D01*
X002220Y008000D01*
X001675Y008000D01*
X001675Y007957D01*
X001688Y007872D01*
X001715Y007791D01*
X001754Y007714D01*
X001804Y007645D01*
X001865Y007584D01*
X001934Y007534D01*
X002011Y007495D01*
X002092Y007468D01*
X002220Y007463D02*
X002220Y007463D01*
X002310Y007463D02*
X002440Y007463D01*
X002220Y007701D02*
X002220Y007701D01*
X002220Y007940D02*
X002220Y007940D01*
X002220Y008178D02*
X002220Y008178D01*
X002220Y008417D02*
X002220Y008417D01*
X002220Y008680D02*
X002220Y009500D01*
X002220Y009500D01*
X002220Y009500D01*
X001700Y009500D01*
X001700Y009841D01*
X001713Y009922D01*
X001738Y010000D01*
X001775Y010073D01*
X001823Y010139D01*
X001881Y010197D01*
X001947Y010245D01*
X002020Y010282D01*
X002098Y010307D01*
X002179Y010320D01*
X002220Y010320D01*
X002220Y009500D01*
X001700Y009500D01*
X001700Y009159D01*
X001713Y009078D01*
X001738Y009000D01*
X001775Y008927D01*
X001823Y008861D01*
X001881Y008803D01*
X001947Y008755D01*
X002020Y008718D01*
X002098Y008693D01*
X002179Y008680D01*
X002220Y008680D01*
X002220Y008894D02*
X002220Y008894D01*
X002220Y009132D02*
X002220Y009132D01*
X002220Y009371D02*
X002220Y009371D01*
X002220Y009609D02*
X002220Y009609D01*
X002220Y009848D02*
X002220Y009848D01*
X002220Y010086D02*
X002220Y010086D01*
X002440Y010325D02*
X000740Y010325D01*
X000740Y010563D02*
X002440Y010563D01*
X002440Y010802D02*
X002321Y010802D01*
X002370Y011040D02*
X002440Y011040D01*
X002440Y011279D02*
X002257Y011279D01*
X002250Y011517D02*
X002440Y011517D01*
X002440Y011756D02*
X002085Y011756D01*
X001824Y011994D02*
X001000Y011994D01*
X001000Y012233D02*
X001760Y012233D01*
X001760Y012471D02*
X001000Y012471D01*
X001000Y012710D02*
X001760Y012710D01*
X001800Y012948D02*
X001000Y012948D01*
X001000Y014141D02*
X004440Y014141D01*
X004440Y014379D02*
X001000Y014379D01*
X001000Y014618D02*
X004440Y014618D01*
X003953Y014856D02*
X003487Y014856D01*
X003481Y014850D02*
X003610Y014979D01*
X003680Y015148D01*
X003680Y015851D01*
X003610Y016021D01*
X003481Y016150D01*
X003311Y016220D01*
X003128Y016220D01*
X002959Y016150D01*
X002830Y016021D01*
X002760Y015851D01*
X002760Y015148D01*
X002830Y014979D01*
X002959Y014850D01*
X003128Y014780D01*
X003311Y014780D01*
X003481Y014850D01*
X003658Y015095D02*
X003782Y015095D01*
X003760Y015333D02*
X003680Y015333D01*
X003680Y015572D02*
X003760Y015572D01*
X003760Y015810D02*
X003680Y015810D01*
X003582Y016049D02*
X003858Y016049D01*
X004440Y016287D02*
X000740Y016287D01*
X000740Y016049D02*
X001858Y016049D01*
X001830Y016021D02*
X001760Y015851D01*
X001760Y015148D01*
X001830Y014979D01*
X001959Y014850D01*
X002128Y014780D01*
X002311Y014780D01*
X002481Y014850D01*
X002610Y014979D01*
X002680Y015148D01*
X002680Y015851D01*
X002610Y016021D01*
X002481Y016150D01*
X002311Y016220D01*
X002128Y016220D01*
X001959Y016150D01*
X001830Y016021D01*
X001760Y015810D02*
X000976Y015810D01*
X001120Y015572D02*
X001760Y015572D01*
X001760Y015333D02*
X001084Y015333D01*
X001000Y015095D02*
X001782Y015095D01*
X001953Y014856D02*
X001000Y014856D01*
X002487Y014856D02*
X002953Y014856D01*
X002782Y015095D02*
X002658Y015095D01*
X002680Y015333D02*
X002760Y015333D01*
X002760Y015572D02*
X002680Y015572D01*
X002680Y015810D02*
X002760Y015810D01*
X002858Y016049D02*
X002582Y016049D01*
X000740Y016526D02*
X004440Y016526D01*
X004440Y016764D02*
X000740Y016764D01*
X000740Y017003D02*
X004440Y017003D01*
X004440Y017241D02*
X000740Y017241D01*
X000740Y017480D02*
X004345Y017480D01*
X004106Y017718D02*
X000740Y017718D01*
X000740Y017957D02*
X003446Y017957D01*
X003189Y018195D02*
X003104Y018195D01*
X002336Y018195D02*
X002104Y018195D01*
X002133Y018224D02*
X002207Y018403D01*
X002207Y018597D01*
X002133Y018776D01*
X001996Y018913D01*
X001817Y018987D01*
X001623Y018987D01*
X001444Y018913D01*
X001307Y018776D01*
X001233Y018597D01*
X001233Y018403D01*
X001307Y018224D01*
X001444Y018087D01*
X001623Y018013D01*
X001817Y018013D01*
X001996Y018087D01*
X002133Y018224D01*
X002207Y018434D02*
X002233Y018434D01*
X002264Y018672D02*
X002176Y018672D01*
X001998Y018911D02*
X002442Y018911D01*
X002998Y018911D02*
X003272Y018911D01*
X003979Y019149D02*
X000740Y019149D01*
X000740Y018911D02*
X001442Y018911D01*
X001264Y018672D02*
X000740Y018672D01*
X000740Y018434D02*
X001233Y018434D01*
X001336Y018195D02*
X000740Y018195D01*
X000740Y019388D02*
X004212Y019388D01*
X004440Y019626D02*
X000740Y019626D01*
X000740Y019865D02*
X004343Y019865D01*
X004330Y020103D02*
X000740Y020103D01*
X000740Y020342D02*
X001523Y020342D01*
X001917Y020342D02*
X004499Y020342D01*
X004941Y020342D02*
X005440Y020342D01*
X005450Y020580D02*
X002455Y020580D01*
X002678Y020819D02*
X005973Y020819D01*
X006441Y021057D02*
X002813Y021057D01*
X002876Y021296D02*
X006950Y021296D01*
X007440Y021534D02*
X002890Y021534D01*
X002858Y021773D02*
X007646Y021773D01*
X008000Y021057D02*
X010440Y021057D01*
X010440Y020819D02*
X008000Y020819D01*
X008000Y020580D02*
X010440Y020580D01*
X010440Y020342D02*
X008000Y020342D01*
X008000Y020103D02*
X010440Y020103D01*
X010440Y019865D02*
X008000Y019865D01*
X008000Y019626D02*
X010440Y019626D01*
X010440Y019388D02*
X008000Y019388D01*
X007440Y019388D02*
X007000Y019388D01*
X007000Y019626D02*
X007440Y019626D01*
X007440Y019865D02*
X007000Y019865D01*
X007000Y020103D02*
X007440Y020103D01*
X007440Y020342D02*
X007000Y020342D01*
X007000Y020580D02*
X007440Y020580D01*
X006440Y020103D02*
X006307Y020103D01*
X006133Y020103D02*
X006000Y020103D01*
X006000Y019865D02*
X006440Y019865D01*
X006440Y019626D02*
X006000Y019626D01*
X006000Y019388D02*
X006440Y019388D01*
X006440Y019149D02*
X006000Y019149D01*
X006000Y018911D02*
X006440Y018911D01*
X006440Y018672D02*
X006000Y018672D01*
X006000Y018434D02*
X006440Y018434D01*
X006440Y018195D02*
X006000Y018195D01*
X006000Y017957D02*
X006440Y017957D01*
X006440Y017718D02*
X006000Y017718D01*
X006000Y017480D02*
X006440Y017480D01*
X006395Y017241D02*
X006045Y017241D01*
X006120Y017003D02*
X006320Y017003D01*
X006390Y016764D02*
X006050Y016764D01*
X005390Y016764D02*
X005000Y016764D01*
X005000Y016526D02*
X009940Y016526D01*
X009940Y016287D02*
X005000Y016287D01*
X005582Y016049D02*
X005858Y016049D01*
X005830Y016021D02*
X005760Y015851D01*
X005760Y015148D01*
X005830Y014979D01*
X005959Y014850D01*
X006128Y014780D01*
X006311Y014780D01*
X006481Y014850D01*
X006610Y014979D01*
X006680Y015148D01*
X006680Y015851D01*
X006610Y016021D01*
X006481Y016150D01*
X006311Y016220D01*
X006128Y016220D01*
X005959Y016150D01*
X005830Y016021D01*
X005760Y015810D02*
X005680Y015810D01*
X005680Y015572D02*
X005760Y015572D01*
X005760Y015333D02*
X005680Y015333D01*
X005658Y015095D02*
X005782Y015095D01*
X005953Y014856D02*
X005487Y014856D01*
X005000Y014618D02*
X008940Y014618D01*
X008940Y014856D02*
X008508Y014856D01*
X008533Y014874D02*
X008586Y014927D01*
X008631Y014988D01*
X008665Y015056D01*
X008688Y015128D01*
X008700Y015202D01*
X008700Y015500D01*
X008700Y015798D01*
X008688Y015872D01*
X008665Y015944D01*
X008631Y016012D01*
X008586Y016073D01*
X008533Y016126D01*
X008472Y016171D01*
X008404Y016205D01*
X008332Y016228D01*
X008258Y016240D01*
X008220Y016240D01*
X008220Y015500D01*
X008700Y015500D01*
X008220Y015500D01*
X008220Y015500D01*
X008220Y015500D01*
X008220Y014760D01*
X008258Y014760D01*
X008332Y014772D01*
X008404Y014795D01*
X008472Y014829D01*
X008533Y014874D01*
X008677Y015095D02*
X008782Y015095D01*
X008760Y015333D02*
X008700Y015333D01*
X008700Y015572D02*
X008760Y015572D01*
X008760Y015810D02*
X008698Y015810D01*
X008604Y016049D02*
X008858Y016049D01*
X008220Y016049D02*
X008220Y016049D01*
X008220Y016240D02*
X008182Y016240D01*
X008108Y016228D01*
X008036Y016205D01*
X007968Y016171D01*
X007907Y016126D01*
X007854Y016073D01*
X007809Y016012D01*
X007775Y015944D01*
X007752Y015872D01*
X007740Y015798D01*
X007740Y015500D01*
X008220Y015500D01*
X008220Y015500D01*
X008220Y015500D01*
X008220Y016240D01*
X007836Y016049D02*
X007582Y016049D01*
X007610Y016021D02*
X007481Y016150D01*
X007311Y016220D01*
X007128Y016220D01*
X006959Y016150D01*
X006830Y016021D01*
X006760Y015851D01*
X006760Y015148D01*
X006830Y014979D01*
X006959Y014850D01*
X007128Y014780D01*
X007311Y014780D01*
X007481Y014850D01*
X007610Y014979D01*
X007680Y015148D01*
X007680Y015851D01*
X007610Y016021D01*
X007680Y015810D02*
X007742Y015810D01*
X007740Y015572D02*
X007680Y015572D01*
X007740Y015500D02*
X007740Y015202D01*
X007752Y015128D01*
X007775Y015056D01*
X007809Y014988D01*
X007854Y014927D01*
X007907Y014874D01*
X007968Y014829D01*
X008036Y014795D01*
X008108Y014772D01*
X008182Y014760D01*
X008220Y014760D01*
X008220Y015500D01*
X007740Y015500D01*
X007740Y015333D02*
X007680Y015333D01*
X007658Y015095D02*
X007763Y015095D01*
X007932Y014856D02*
X007487Y014856D01*
X006953Y014856D02*
X006487Y014856D01*
X006658Y015095D02*
X006782Y015095D01*
X006760Y015333D02*
X006680Y015333D01*
X006680Y015572D02*
X006760Y015572D01*
X006760Y015810D02*
X006680Y015810D01*
X006582Y016049D02*
X006858Y016049D01*
X007050Y016764D02*
X007390Y016764D01*
X007320Y017003D02*
X007120Y017003D01*
X007045Y017241D02*
X007395Y017241D01*
X007440Y017480D02*
X007000Y017480D01*
X007000Y017718D02*
X007440Y017718D01*
X007440Y017957D02*
X007000Y017957D01*
X007000Y018195D02*
X007440Y018195D01*
X007440Y018434D02*
X007000Y018434D01*
X007000Y018672D02*
X007440Y018672D01*
X007440Y018911D02*
X007000Y018911D01*
X007000Y019149D02*
X007440Y019149D01*
X008000Y019149D02*
X010440Y019149D01*
X010440Y018911D02*
X008000Y018911D01*
X008000Y018672D02*
X010440Y018672D01*
X010440Y018434D02*
X008000Y018434D01*
X008000Y018195D02*
X010440Y018195D01*
X010440Y017957D02*
X008000Y017957D01*
X008000Y017718D02*
X010377Y017718D01*
X010320Y017480D02*
X008000Y017480D01*
X008045Y017241D02*
X010413Y017241D01*
X010126Y016764D02*
X008050Y016764D01*
X008120Y017003D02*
X012440Y017003D01*
X012440Y017241D02*
X011027Y017241D01*
X011120Y017480D02*
X012440Y017480D01*
X012440Y017718D02*
X011063Y017718D01*
X011000Y017957D02*
X012440Y017957D01*
X012440Y018195D02*
X011000Y018195D01*
X011000Y018434D02*
X012440Y018434D01*
X012440Y018672D02*
X011000Y018672D01*
X011000Y018911D02*
X012440Y018911D01*
X012440Y019149D02*
X011000Y019149D01*
X011000Y019388D02*
X012440Y019388D01*
X012440Y019626D02*
X011000Y019626D01*
X011000Y019865D02*
X012440Y019865D01*
X012440Y020103D02*
X011000Y020103D01*
X011000Y020342D02*
X012440Y020342D01*
X012440Y020580D02*
X011000Y020580D01*
X011000Y020819D02*
X012440Y020819D01*
X012440Y021057D02*
X011000Y021057D01*
X011000Y021296D02*
X012440Y021296D01*
X012440Y021534D02*
X011000Y021534D01*
X010440Y022011D02*
X002776Y022011D01*
X002625Y022250D02*
X010591Y022250D01*
X013000Y022011D02*
X016320Y022011D01*
X015927Y021773D02*
X013000Y021773D01*
X013000Y021534D02*
X015820Y021534D01*
X015450Y021296D02*
X013000Y021296D01*
X013000Y021057D02*
X015320Y021057D01*
X014973Y020819D02*
X013000Y020819D01*
X013000Y020103D02*
X015133Y020103D01*
X015307Y020103D02*
X024362Y020103D01*
X024725Y019865D02*
X013000Y019865D01*
X013000Y019626D02*
X024725Y019626D01*
X024725Y019388D02*
X013000Y019388D01*
X013000Y019149D02*
X024725Y019149D01*
X021220Y017000D02*
X018720Y017000D01*
X018720Y018500D01*
X018264Y018672D02*
X018176Y018672D01*
X018207Y018597D02*
X018133Y018776D01*
X017996Y018913D01*
X017817Y018987D01*
X017623Y018987D01*
X017444Y018913D01*
X017307Y018776D01*
X017233Y018597D01*
X017233Y018403D01*
X017307Y018224D01*
X017444Y018087D01*
X017623Y018013D01*
X017817Y018013D01*
X017996Y018087D01*
X018133Y018224D01*
X018207Y018403D01*
X018207Y018597D01*
X018207Y018434D02*
X018233Y018434D01*
X018336Y018195D02*
X018104Y018195D01*
X018400Y017957D02*
X013000Y017957D01*
X013000Y018195D02*
X016336Y018195D01*
X016307Y018224D02*
X016444Y018087D01*
X016623Y018013D01*
X016817Y018013D01*
X016996Y018087D01*
X017133Y018224D01*
X017207Y018403D01*
X017207Y018597D01*
X017133Y018776D01*
X016996Y018913D01*
X016817Y018987D01*
X016623Y018987D01*
X016444Y018913D01*
X016307Y018776D01*
X016233Y018597D01*
X016233Y018403D01*
X016307Y018224D01*
X016233Y018434D02*
X013000Y018434D01*
X013000Y018672D02*
X016264Y018672D01*
X016442Y018911D02*
X013000Y018911D01*
X013000Y017718D02*
X018400Y017718D01*
X018400Y017480D02*
X013000Y017480D01*
X013000Y017241D02*
X018400Y017241D01*
X018400Y017003D02*
X013000Y017003D01*
X013000Y016764D02*
X013418Y016764D01*
X013320Y016526D02*
X013000Y016526D01*
X013000Y016287D02*
X013375Y016287D01*
X013582Y016049D02*
X013858Y016049D01*
X013830Y016021D02*
X013760Y015851D01*
X013760Y015148D01*
X013830Y014979D01*
X013959Y014850D01*
X014128Y014780D01*
X014311Y014780D01*
X014481Y014850D01*
X014610Y014979D01*
X014680Y015148D01*
X014680Y015851D01*
X014610Y016021D01*
X014481Y016150D01*
X014311Y016220D01*
X014128Y016220D01*
X013959Y016150D01*
X013830Y016021D01*
X013760Y015810D02*
X013680Y015810D01*
X013680Y015572D02*
X013760Y015572D01*
X013760Y015333D02*
X013680Y015333D01*
X013658Y015095D02*
X013782Y015095D01*
X013953Y014856D02*
X013487Y014856D01*
X013000Y014618D02*
X017100Y014618D01*
X017100Y014856D02*
X015487Y014856D01*
X015481Y014850D02*
X015610Y014979D01*
X015680Y015148D01*
X015680Y015851D01*
X015610Y016021D01*
X015481Y016150D01*
X015311Y016220D01*
X015128Y016220D01*
X014959Y016150D01*
X014830Y016021D01*
X014760Y015851D01*
X014760Y015148D01*
X014830Y014979D01*
X014959Y014850D01*
X015128Y014780D01*
X015311Y014780D01*
X015481Y014850D01*
X015658Y015095D02*
X017171Y015095D01*
X017194Y015151D02*
X017100Y014923D01*
X017100Y014077D01*
X017194Y013849D01*
X017369Y013674D01*
X017597Y013580D01*
X017843Y013580D01*
X018071Y013674D01*
X018246Y013849D01*
X018277Y013925D01*
X018323Y013861D01*
X018381Y013803D01*
X018447Y013755D01*
X018520Y013718D01*
X018598Y013693D01*
X018679Y013680D01*
X018720Y013680D01*
X018720Y014500D01*
X018720Y014500D01*
X018720Y015320D01*
X018679Y015320D01*
X018598Y015307D01*
X018520Y015282D01*
X018447Y015245D01*
X018381Y015197D01*
X018323Y015139D01*
X018277Y015075D01*
X018246Y015151D01*
X018071Y015326D01*
X017843Y015420D01*
X017597Y015420D01*
X017369Y015326D01*
X017194Y015151D01*
X017387Y015333D02*
X015680Y015333D01*
X015680Y015572D02*
X019440Y015572D01*
X019440Y015810D02*
X015680Y015810D01*
X015582Y016049D02*
X019440Y016049D01*
X019440Y015333D02*
X018053Y015333D01*
X018269Y015095D02*
X018291Y015095D01*
X018720Y015095D02*
X018720Y015095D01*
X018720Y014856D02*
X018720Y014856D01*
X018720Y014618D02*
X018720Y014618D01*
X018720Y014379D02*
X018720Y014379D01*
X018720Y014141D02*
X018720Y014141D01*
X018720Y013902D02*
X018720Y013902D01*
X019146Y013902D02*
X019311Y013902D01*
X019440Y013664D02*
X018045Y013664D01*
X018268Y013902D02*
X018294Y013902D01*
X017395Y013664D02*
X013449Y013664D01*
X013612Y013902D02*
X017172Y013902D01*
X017100Y014141D02*
X013595Y014141D01*
X013350Y014379D02*
X017100Y014379D01*
X018434Y012966D02*
X018511Y013005D01*
X018592Y013032D01*
X018677Y013045D01*
X018720Y013045D01*
X018720Y012500D01*
X018720Y012500D01*
X018720Y012500D01*
X018175Y012500D01*
X018175Y012543D01*
X018188Y012628D01*
X018215Y012709D01*
X018254Y012786D01*
X018304Y012855D01*
X018365Y012916D01*
X018434Y012966D01*
X018409Y012948D02*
X015640Y012948D01*
X015680Y012710D02*
X018215Y012710D01*
X018175Y012500D02*
X018175Y012457D01*
X018188Y012372D01*
X018215Y012291D01*
X018254Y012214D01*
X018304Y012145D01*
X018365Y012084D01*
X018434Y012034D01*
X018511Y011995D01*
X018592Y011968D01*
X018677Y011955D01*
X018720Y011955D01*
X018720Y012500D01*
X018175Y012500D01*
X018175Y012471D02*
X015680Y012471D01*
X015680Y012233D02*
X018245Y012233D01*
X018514Y011994D02*
X015616Y011994D01*
X014824Y011994D02*
X014616Y011994D01*
X014680Y012233D02*
X014760Y012233D01*
X014760Y012471D02*
X014680Y012471D01*
X014680Y012710D02*
X014760Y012710D01*
X014800Y012948D02*
X014640Y012948D01*
X013800Y012948D02*
X013640Y012948D01*
X013680Y012710D02*
X013760Y012710D01*
X013760Y012471D02*
X013680Y012471D01*
X013680Y012233D02*
X013760Y012233D01*
X013824Y011994D02*
X013616Y011994D01*
X013940Y011756D02*
X006000Y011756D01*
X006000Y011517D02*
X013940Y011517D01*
X014046Y011279D02*
X005894Y011279D01*
X006616Y011994D02*
X006824Y011994D01*
X006760Y012233D02*
X006680Y012233D01*
X006680Y012471D02*
X006760Y012471D01*
X006760Y012710D02*
X006680Y012710D01*
X006640Y012948D02*
X006800Y012948D01*
X007640Y012948D02*
X007800Y012948D01*
X007760Y012710D02*
X007680Y012710D01*
X007680Y012471D02*
X007760Y012471D01*
X007760Y012233D02*
X007680Y012233D01*
X007616Y011994D02*
X007824Y011994D01*
X007779Y010802D02*
X007675Y010802D01*
X007220Y010802D02*
X007220Y010802D01*
X007220Y010563D02*
X007220Y010563D01*
X007220Y010325D02*
X007220Y010325D01*
X007220Y010086D02*
X007220Y010086D01*
X007577Y010086D02*
X007892Y010086D01*
X005500Y009609D02*
X011940Y009609D01*
X011940Y009371D02*
X005500Y009371D01*
X002440Y008655D02*
X000740Y008655D01*
X000740Y008417D02*
X001866Y008417D01*
X001705Y008178D02*
X000740Y008178D01*
X000740Y007940D02*
X001678Y007940D01*
X001764Y007701D02*
X000740Y007701D01*
X000740Y008894D02*
X001800Y008894D01*
X001704Y009132D02*
X000740Y009132D01*
X000740Y009371D02*
X001700Y009371D01*
X001700Y009609D02*
X000740Y009609D01*
X000740Y009848D02*
X001701Y009848D01*
X001785Y010086D02*
X000740Y010086D01*
X000740Y010802D02*
X001619Y010802D01*
X001570Y011040D02*
X000740Y011040D01*
X004616Y011994D02*
X004824Y011994D01*
X004760Y012233D02*
X004680Y012233D01*
X004680Y012471D02*
X004760Y012471D01*
X004760Y012710D02*
X004680Y012710D01*
X004640Y012948D02*
X004800Y012948D01*
X005000Y013902D02*
X008226Y013902D01*
X008465Y014141D02*
X005000Y014141D01*
X005000Y014379D02*
X008703Y014379D01*
X009256Y014141D02*
X012440Y014141D01*
X012440Y014379D02*
X009473Y014379D01*
X009500Y014618D02*
X012440Y014618D01*
X011953Y014856D02*
X011487Y014856D01*
X011481Y014850D02*
X011610Y014979D01*
X011680Y015148D01*
X011680Y015851D01*
X011610Y016021D01*
X011481Y016150D01*
X011311Y016220D01*
X011128Y016220D01*
X010959Y016150D01*
X010830Y016021D01*
X010760Y015851D01*
X010760Y015148D01*
X010830Y014979D01*
X010959Y014850D01*
X011128Y014780D01*
X011311Y014780D01*
X011481Y014850D01*
X011658Y015095D02*
X011782Y015095D01*
X011760Y015333D02*
X011680Y015333D01*
X011680Y015572D02*
X011760Y015572D01*
X011760Y015810D02*
X011680Y015810D01*
X011582Y016049D02*
X011858Y016049D01*
X012065Y016287D02*
X012440Y016287D01*
X012440Y016526D02*
X012120Y016526D01*
X012022Y016764D02*
X012440Y016764D01*
X010858Y016049D02*
X010582Y016049D01*
X010680Y015810D02*
X010760Y015810D01*
X010760Y015572D02*
X010680Y015572D01*
X010680Y015333D02*
X010760Y015333D01*
X010782Y015095D02*
X010658Y015095D01*
X010487Y014856D02*
X010953Y014856D01*
X009953Y014856D02*
X009500Y014856D01*
X009658Y015095D02*
X009782Y015095D01*
X009760Y015810D02*
X009680Y015810D01*
X009582Y016049D02*
X009858Y016049D01*
X008220Y015810D02*
X008220Y015810D01*
X008220Y015572D02*
X008220Y015572D01*
X008220Y015333D02*
X008220Y015333D01*
X008220Y015095D02*
X008220Y015095D01*
X008220Y014856D02*
X008220Y014856D01*
X009018Y013902D02*
X012458Y013902D01*
X012991Y013664D02*
X008779Y013664D01*
X010640Y012948D02*
X010800Y012948D01*
X010760Y012710D02*
X010680Y012710D01*
X010680Y012471D02*
X010760Y012471D01*
X010760Y012233D02*
X010680Y012233D01*
X010616Y011994D02*
X010824Y011994D01*
X011616Y011994D02*
X011824Y011994D01*
X011760Y012233D02*
X011680Y012233D01*
X011680Y012471D02*
X011760Y012471D01*
X011760Y012710D02*
X011680Y012710D01*
X011640Y012948D02*
X011800Y012948D01*
X012640Y012948D02*
X012800Y012948D01*
X012760Y012710D02*
X012680Y012710D01*
X012680Y012471D02*
X012760Y012471D01*
X012760Y012233D02*
X012680Y012233D01*
X012616Y011994D02*
X012824Y011994D01*
X013000Y014379D02*
X013090Y014379D01*
X014487Y014856D02*
X014953Y014856D01*
X014782Y015095D02*
X014658Y015095D01*
X014680Y015333D02*
X014760Y015333D01*
X014760Y015572D02*
X014680Y015572D01*
X014680Y015810D02*
X014760Y015810D01*
X014858Y016049D02*
X014582Y016049D01*
X017104Y018195D02*
X017336Y018195D01*
X017233Y018434D02*
X017207Y018434D01*
X017176Y018672D02*
X017264Y018672D01*
X017442Y018911D02*
X016998Y018911D01*
X017998Y018911D02*
X018442Y018911D01*
X018998Y018911D02*
X019442Y018911D01*
X019307Y015095D02*
X019149Y015095D01*
X019031Y012948D02*
X019430Y012948D01*
X019239Y012710D02*
X019225Y012710D01*
X018720Y012710D02*
X018720Y012710D01*
X018720Y012948D02*
X018720Y012948D01*
X018720Y012471D02*
X018720Y012471D01*
X018720Y012233D02*
X018720Y012233D01*
X018720Y011994D02*
X018720Y011994D01*
X018926Y011994D02*
X019440Y011994D01*
X019440Y011756D02*
X019030Y011756D01*
X019120Y011517D02*
X019440Y011517D01*
X019440Y011279D02*
X019061Y011279D01*
X018960Y011040D02*
X019440Y011040D01*
X019440Y010802D02*
X019229Y010802D01*
X019307Y010563D02*
X019440Y010563D01*
X019440Y010325D02*
X019283Y010325D01*
X018300Y010086D02*
X018112Y010086D01*
X019195Y012233D02*
X019263Y012233D01*
X021354Y007940D02*
X021586Y007940D01*
X015368Y005555D02*
X012500Y005555D01*
X012500Y005793D02*
X015320Y005793D01*
X012000Y003408D02*
X011054Y003408D01*
X011155Y002693D02*
X015210Y002693D01*
X015175Y002454D02*
X007277Y002454D01*
X007113Y002216D02*
X015253Y002216D01*
X005887Y002216D02*
X004553Y002216D01*
X004717Y002454D02*
X005723Y002454D01*
X005700Y002693D02*
X004740Y002693D01*
X004626Y002931D02*
X005814Y002931D01*
X028450Y003885D02*
X028690Y003885D01*
X028690Y004124D02*
X028450Y004124D01*
X028450Y004362D02*
X028690Y004362D01*
X028690Y005078D02*
X028450Y005078D01*
X028450Y005316D02*
X028690Y005316D01*
X028690Y005555D02*
X028450Y005555D01*
X029231Y005555D02*
X029440Y005555D01*
X029455Y005316D02*
X029508Y005316D01*
X029576Y005078D02*
X029747Y005078D01*
X029633Y004839D02*
X029985Y004839D01*
X031000Y005555D02*
X032940Y005555D01*
X032940Y005793D02*
X031000Y005793D01*
X031000Y006032D02*
X032940Y006032D01*
X032940Y006270D02*
X031000Y006270D01*
X031000Y006509D02*
X032940Y006509D01*
X032940Y006747D02*
X031000Y006747D01*
X031000Y006986D02*
X032940Y006986D01*
X032940Y007224D02*
X031000Y007224D01*
X031000Y007463D02*
X032940Y007463D01*
X032940Y007701D02*
X031000Y007701D01*
X032496Y005316D02*
X032940Y005316D01*
X032940Y005078D02*
X032500Y005078D01*
X032500Y004839D02*
X032940Y004839D01*
X032940Y004601D02*
X032500Y004601D01*
X032500Y004362D02*
X032940Y004362D01*
X032940Y004124D02*
X032500Y004124D01*
X032500Y003885D02*
X032940Y003885D01*
X032940Y003647D02*
X032500Y003647D01*
X032618Y003408D02*
X032822Y003408D01*
X030822Y003408D02*
X030618Y003408D01*
X039048Y004124D02*
X039570Y004124D01*
X039570Y003885D02*
X039490Y003885D01*
X031554Y011279D02*
X031000Y011279D01*
X031000Y011517D02*
X031500Y011517D01*
X031568Y011756D02*
X031000Y011756D01*
X005395Y017241D02*
X005000Y017241D01*
X005000Y017003D02*
X005320Y017003D01*
X005440Y017480D02*
X005000Y017480D01*
X004898Y017718D02*
X005440Y017718D01*
X005440Y017957D02*
X004659Y017957D01*
X004720Y018195D02*
X004720Y018195D01*
X004720Y018434D02*
X004720Y018434D01*
X004720Y018672D02*
X004720Y018672D01*
X004720Y018911D02*
X004720Y018911D01*
X004765Y019149D02*
X005440Y019149D01*
X005440Y018911D02*
X005018Y018911D01*
X005197Y018672D02*
X005440Y018672D01*
X005440Y018434D02*
X005223Y018434D01*
X005125Y018195D02*
X005440Y018195D01*
X005440Y019388D02*
X004976Y019388D01*
X005000Y019626D02*
X005440Y019626D01*
X005440Y019865D02*
X005097Y019865D01*
X005110Y020103D02*
X005440Y020103D01*
X000985Y020580D02*
X000740Y020580D01*
X000740Y020819D02*
X000762Y020819D01*
M02*
