G75*
%MOIN*%
%OFA0B0*%
%FSLAX24Y24*%
%IPPOS*%
%LPD*%
%AMOC8*
5,1,8,0,0,1.08239X$1,22.5*
%
%ADD10C,0.0730*%
%ADD11C,0.0680*%
%ADD12C,0.0820*%
%ADD13C,0.1380*%
%ADD14C,0.0654*%
%ADD15C,0.1025*%
%ADD16C,0.0710*%
%ADD17C,0.1360*%
%ADD18C,0.0600*%
%ADD19C,0.0480*%
D10*
X001680Y007000D03*
X002680Y007000D03*
X004680Y007000D03*
X004680Y009000D03*
X002680Y009000D03*
X001680Y009000D03*
X001680Y011000D03*
X002680Y011000D03*
X012680Y003000D03*
X013680Y003000D03*
X029180Y009500D03*
X030180Y009500D03*
X032680Y012000D03*
X033680Y012000D03*
X034680Y012000D03*
X035680Y012000D03*
X035680Y014000D03*
X033680Y014000D03*
X020680Y020500D03*
X019680Y020500D03*
D11*
X014680Y020200D02*
X014680Y020800D01*
X013680Y020800D02*
X013680Y020200D01*
X012680Y020200D02*
X012680Y020800D01*
X007180Y020800D02*
X007180Y020200D01*
X006180Y020200D02*
X006180Y020800D01*
X005180Y020800D02*
X005180Y020200D01*
X025100Y010890D02*
X025700Y010890D01*
X027660Y010890D02*
X028260Y010890D01*
X028260Y009110D02*
X027660Y009110D01*
X025700Y009110D02*
X025100Y009110D01*
D12*
X031680Y009500D03*
X032680Y009500D03*
X033680Y009500D03*
X034680Y009500D03*
X035680Y009500D03*
X036680Y009500D03*
X034180Y003000D03*
X033180Y003000D03*
X032180Y003000D03*
X031180Y003000D03*
X030180Y003000D03*
X029180Y003000D03*
X028180Y003000D03*
X013180Y011000D03*
X012180Y011000D03*
X010180Y020500D03*
X009180Y020500D03*
X009180Y022000D03*
X010180Y022000D03*
X016680Y022000D03*
X017680Y022000D03*
X017680Y020500D03*
X016680Y020500D03*
D13*
X001680Y003000D03*
X001680Y021500D03*
X038680Y021500D03*
X038680Y003000D03*
D14*
X023180Y015000D03*
X022180Y015000D03*
X021180Y015000D03*
X020180Y015000D03*
X019180Y015000D03*
X018180Y015000D03*
X006180Y015000D03*
X005180Y015000D03*
X004180Y015000D03*
X003180Y015000D03*
D15*
X017129Y005988D03*
X023231Y005988D03*
D16*
X022430Y007283D03*
X021430Y007283D03*
X020430Y007283D03*
X019430Y007283D03*
X018430Y007283D03*
X017930Y008283D03*
X018930Y008283D03*
X019930Y008283D03*
X020930Y008283D03*
X021930Y008283D03*
X022670Y003457D03*
X021670Y002858D03*
X018690Y003457D03*
X017690Y002858D03*
D17*
X017930Y004787D03*
X022430Y004787D03*
D18*
X026180Y015740D02*
X026180Y016260D01*
X027180Y016260D02*
X027180Y015740D01*
X028180Y015740D02*
X028180Y016260D01*
X029180Y016260D02*
X029180Y015740D01*
X030180Y015740D02*
X030180Y016260D01*
X031180Y016260D02*
X031180Y015740D01*
X032180Y015740D02*
X032180Y016260D01*
X033180Y016260D02*
X033180Y015740D01*
X034180Y015740D02*
X034180Y016260D01*
X035180Y016260D02*
X035180Y015740D01*
X036180Y015740D02*
X036180Y016260D01*
X037180Y016260D02*
X037180Y015740D01*
X038180Y015740D02*
X038180Y016260D01*
X039180Y016260D02*
X039180Y015740D01*
X039180Y018740D02*
X039180Y019260D01*
X038180Y019260D02*
X038180Y018740D01*
X037180Y018740D02*
X037180Y019260D01*
X036180Y019260D02*
X036180Y018740D01*
X035180Y018740D02*
X035180Y019260D01*
X034180Y019260D02*
X034180Y018740D01*
X033180Y018740D02*
X033180Y019260D01*
X032180Y019260D02*
X032180Y018740D01*
X031180Y018740D02*
X031180Y019260D01*
X030180Y019260D02*
X030180Y018740D01*
X029180Y018740D02*
X029180Y019260D01*
X028180Y019260D02*
X028180Y018740D01*
X027180Y018740D02*
X027180Y019260D01*
X026180Y019260D02*
X026180Y018740D01*
D19*
X035680Y017500D03*
X037180Y020500D03*
X030680Y010500D03*
X018180Y009500D03*
X017680Y010000D03*
X017180Y010500D03*
X016430Y011000D03*
X015930Y011500D03*
X013930Y008500D03*
X014430Y008000D03*
X014930Y007500D03*
X015430Y007000D03*
X012930Y008500D03*
X006180Y009000D03*
X006180Y009750D03*
X005430Y010250D03*
X006180Y007000D03*
X006180Y006000D03*
X005930Y004750D03*
X005930Y004250D03*
M02*
